G04 #@! TF.GenerationSoftware,KiCad,Pcbnew,8.0.3*
G04 #@! TF.CreationDate,2024-06-06T13:15:09+09:00*
G04 #@! TF.ProjectId,analog_switch_tester,616e616c-6f67-45f7-9377-697463685f74,1*
G04 #@! TF.SameCoordinates,Original*
G04 #@! TF.FileFunction,Legend,Top*
G04 #@! TF.FilePolarity,Positive*
%FSLAX46Y46*%
G04 Gerber Fmt 4.6, Leading zero omitted, Abs format (unit mm)*
G04 Created by KiCad (PCBNEW 8.0.3) date 2024-06-06 13:15:09*
%MOMM*%
%LPD*%
G01*
G04 APERTURE LIST*
%ADD10C,0.150000*%
%ADD11C,0.120000*%
G04 APERTURE END LIST*
D10*
X100138819Y-106936833D02*
X100853104Y-106936833D01*
X100853104Y-106936833D02*
X100995961Y-106984452D01*
X100995961Y-106984452D02*
X101091200Y-107079690D01*
X101091200Y-107079690D02*
X101138819Y-107222547D01*
X101138819Y-107222547D02*
X101138819Y-107317785D01*
X101138819Y-106413023D02*
X101138819Y-106222547D01*
X101138819Y-106222547D02*
X101091200Y-106127309D01*
X101091200Y-106127309D02*
X101043580Y-106079690D01*
X101043580Y-106079690D02*
X100900723Y-105984452D01*
X100900723Y-105984452D02*
X100710247Y-105936833D01*
X100710247Y-105936833D02*
X100329295Y-105936833D01*
X100329295Y-105936833D02*
X100234057Y-105984452D01*
X100234057Y-105984452D02*
X100186438Y-106032071D01*
X100186438Y-106032071D02*
X100138819Y-106127309D01*
X100138819Y-106127309D02*
X100138819Y-106317785D01*
X100138819Y-106317785D02*
X100186438Y-106413023D01*
X100186438Y-106413023D02*
X100234057Y-106460642D01*
X100234057Y-106460642D02*
X100329295Y-106508261D01*
X100329295Y-106508261D02*
X100567390Y-106508261D01*
X100567390Y-106508261D02*
X100662628Y-106460642D01*
X100662628Y-106460642D02*
X100710247Y-106413023D01*
X100710247Y-106413023D02*
X100757866Y-106317785D01*
X100757866Y-106317785D02*
X100757866Y-106127309D01*
X100757866Y-106127309D02*
X100710247Y-106032071D01*
X100710247Y-106032071D02*
X100662628Y-105984452D01*
X100662628Y-105984452D02*
X100567390Y-105936833D01*
X82647333Y-101158319D02*
X82647333Y-100158319D01*
X82647333Y-100158319D02*
X82980666Y-100872604D01*
X82980666Y-100872604D02*
X83313999Y-100158319D01*
X83313999Y-100158319D02*
X83313999Y-101158319D01*
X84123523Y-100634509D02*
X84266380Y-100682128D01*
X84266380Y-100682128D02*
X84313999Y-100729747D01*
X84313999Y-100729747D02*
X84361618Y-100824985D01*
X84361618Y-100824985D02*
X84361618Y-100967842D01*
X84361618Y-100967842D02*
X84313999Y-101063080D01*
X84313999Y-101063080D02*
X84266380Y-101110700D01*
X84266380Y-101110700D02*
X84171142Y-101158319D01*
X84171142Y-101158319D02*
X83790190Y-101158319D01*
X83790190Y-101158319D02*
X83790190Y-100158319D01*
X83790190Y-100158319D02*
X84123523Y-100158319D01*
X84123523Y-100158319D02*
X84218761Y-100205938D01*
X84218761Y-100205938D02*
X84266380Y-100253557D01*
X84266380Y-100253557D02*
X84313999Y-100348795D01*
X84313999Y-100348795D02*
X84313999Y-100444033D01*
X84313999Y-100444033D02*
X84266380Y-100539271D01*
X84266380Y-100539271D02*
X84218761Y-100586890D01*
X84218761Y-100586890D02*
X84123523Y-100634509D01*
X84123523Y-100634509D02*
X83790190Y-100634509D01*
X84552095Y-101253557D02*
X85313999Y-101253557D01*
X85456857Y-100158319D02*
X86075904Y-100158319D01*
X86075904Y-100158319D02*
X85742571Y-100539271D01*
X85742571Y-100539271D02*
X85885428Y-100539271D01*
X85885428Y-100539271D02*
X85980666Y-100586890D01*
X85980666Y-100586890D02*
X86028285Y-100634509D01*
X86028285Y-100634509D02*
X86075904Y-100729747D01*
X86075904Y-100729747D02*
X86075904Y-100967842D01*
X86075904Y-100967842D02*
X86028285Y-101063080D01*
X86028285Y-101063080D02*
X85980666Y-101110700D01*
X85980666Y-101110700D02*
X85885428Y-101158319D01*
X85885428Y-101158319D02*
X85599714Y-101158319D01*
X85599714Y-101158319D02*
X85504476Y-101110700D01*
X85504476Y-101110700D02*
X85456857Y-101063080D01*
X86980666Y-100158319D02*
X86504476Y-100158319D01*
X86504476Y-100158319D02*
X86456857Y-100634509D01*
X86456857Y-100634509D02*
X86504476Y-100586890D01*
X86504476Y-100586890D02*
X86599714Y-100539271D01*
X86599714Y-100539271D02*
X86837809Y-100539271D01*
X86837809Y-100539271D02*
X86933047Y-100586890D01*
X86933047Y-100586890D02*
X86980666Y-100634509D01*
X86980666Y-100634509D02*
X87028285Y-100729747D01*
X87028285Y-100729747D02*
X87028285Y-100967842D01*
X87028285Y-100967842D02*
X86980666Y-101063080D01*
X86980666Y-101063080D02*
X86933047Y-101110700D01*
X86933047Y-101110700D02*
X86837809Y-101158319D01*
X86837809Y-101158319D02*
X86599714Y-101158319D01*
X86599714Y-101158319D02*
X86504476Y-101110700D01*
X86504476Y-101110700D02*
X86456857Y-101063080D01*
X93361619Y-84198319D02*
X93361619Y-83198319D01*
X93361619Y-83198319D02*
X93694952Y-83912604D01*
X93694952Y-83912604D02*
X94028285Y-83198319D01*
X94028285Y-83198319D02*
X94028285Y-84198319D01*
X94647333Y-84198319D02*
X94552095Y-84150700D01*
X94552095Y-84150700D02*
X94504476Y-84103080D01*
X94504476Y-84103080D02*
X94456857Y-84007842D01*
X94456857Y-84007842D02*
X94456857Y-83722128D01*
X94456857Y-83722128D02*
X94504476Y-83626890D01*
X94504476Y-83626890D02*
X94552095Y-83579271D01*
X94552095Y-83579271D02*
X94647333Y-83531652D01*
X94647333Y-83531652D02*
X94790190Y-83531652D01*
X94790190Y-83531652D02*
X94885428Y-83579271D01*
X94885428Y-83579271D02*
X94933047Y-83626890D01*
X94933047Y-83626890D02*
X94980666Y-83722128D01*
X94980666Y-83722128D02*
X94980666Y-84007842D01*
X94980666Y-84007842D02*
X94933047Y-84103080D01*
X94933047Y-84103080D02*
X94885428Y-84150700D01*
X94885428Y-84150700D02*
X94790190Y-84198319D01*
X94790190Y-84198319D02*
X94647333Y-84198319D01*
X95837809Y-83531652D02*
X95837809Y-84198319D01*
X95409238Y-83531652D02*
X95409238Y-84055461D01*
X95409238Y-84055461D02*
X95456857Y-84150700D01*
X95456857Y-84150700D02*
X95552095Y-84198319D01*
X95552095Y-84198319D02*
X95694952Y-84198319D01*
X95694952Y-84198319D02*
X95790190Y-84150700D01*
X95790190Y-84150700D02*
X95837809Y-84103080D01*
X96314000Y-83531652D02*
X96314000Y-84198319D01*
X96314000Y-83626890D02*
X96361619Y-83579271D01*
X96361619Y-83579271D02*
X96456857Y-83531652D01*
X96456857Y-83531652D02*
X96599714Y-83531652D01*
X96599714Y-83531652D02*
X96694952Y-83579271D01*
X96694952Y-83579271D02*
X96742571Y-83674509D01*
X96742571Y-83674509D02*
X96742571Y-84198319D01*
X97075905Y-83531652D02*
X97456857Y-83531652D01*
X97218762Y-83198319D02*
X97218762Y-84055461D01*
X97218762Y-84055461D02*
X97266381Y-84150700D01*
X97266381Y-84150700D02*
X97361619Y-84198319D01*
X97361619Y-84198319D02*
X97456857Y-84198319D01*
X97837810Y-84198319D02*
X98028286Y-84198319D01*
X98028286Y-84198319D02*
X98123524Y-84150700D01*
X98123524Y-84150700D02*
X98171143Y-84103080D01*
X98171143Y-84103080D02*
X98266381Y-83960223D01*
X98266381Y-83960223D02*
X98314000Y-83769747D01*
X98314000Y-83769747D02*
X98314000Y-83388795D01*
X98314000Y-83388795D02*
X98266381Y-83293557D01*
X98266381Y-83293557D02*
X98218762Y-83245938D01*
X98218762Y-83245938D02*
X98123524Y-83198319D01*
X98123524Y-83198319D02*
X97933048Y-83198319D01*
X97933048Y-83198319D02*
X97837810Y-83245938D01*
X97837810Y-83245938D02*
X97790191Y-83293557D01*
X97790191Y-83293557D02*
X97742572Y-83388795D01*
X97742572Y-83388795D02*
X97742572Y-83626890D01*
X97742572Y-83626890D02*
X97790191Y-83722128D01*
X97790191Y-83722128D02*
X97837810Y-83769747D01*
X97837810Y-83769747D02*
X97933048Y-83817366D01*
X97933048Y-83817366D02*
X98123524Y-83817366D01*
X98123524Y-83817366D02*
X98218762Y-83769747D01*
X98218762Y-83769747D02*
X98266381Y-83722128D01*
X98266381Y-83722128D02*
X98314000Y-83626890D01*
X100886142Y-101756080D02*
X100838523Y-101803700D01*
X100838523Y-101803700D02*
X100695666Y-101851319D01*
X100695666Y-101851319D02*
X100600428Y-101851319D01*
X100600428Y-101851319D02*
X100457571Y-101803700D01*
X100457571Y-101803700D02*
X100362333Y-101708461D01*
X100362333Y-101708461D02*
X100314714Y-101613223D01*
X100314714Y-101613223D02*
X100267095Y-101422747D01*
X100267095Y-101422747D02*
X100267095Y-101279890D01*
X100267095Y-101279890D02*
X100314714Y-101089414D01*
X100314714Y-101089414D02*
X100362333Y-100994176D01*
X100362333Y-100994176D02*
X100457571Y-100898938D01*
X100457571Y-100898938D02*
X100600428Y-100851319D01*
X100600428Y-100851319D02*
X100695666Y-100851319D01*
X100695666Y-100851319D02*
X100838523Y-100898938D01*
X100838523Y-100898938D02*
X100886142Y-100946557D01*
X101838523Y-101851319D02*
X101267095Y-101851319D01*
X101552809Y-101851319D02*
X101552809Y-100851319D01*
X101552809Y-100851319D02*
X101457571Y-100994176D01*
X101457571Y-100994176D02*
X101362333Y-101089414D01*
X101362333Y-101089414D02*
X101267095Y-101137033D01*
X102409952Y-101279890D02*
X102314714Y-101232271D01*
X102314714Y-101232271D02*
X102267095Y-101184652D01*
X102267095Y-101184652D02*
X102219476Y-101089414D01*
X102219476Y-101089414D02*
X102219476Y-101041795D01*
X102219476Y-101041795D02*
X102267095Y-100946557D01*
X102267095Y-100946557D02*
X102314714Y-100898938D01*
X102314714Y-100898938D02*
X102409952Y-100851319D01*
X102409952Y-100851319D02*
X102600428Y-100851319D01*
X102600428Y-100851319D02*
X102695666Y-100898938D01*
X102695666Y-100898938D02*
X102743285Y-100946557D01*
X102743285Y-100946557D02*
X102790904Y-101041795D01*
X102790904Y-101041795D02*
X102790904Y-101089414D01*
X102790904Y-101089414D02*
X102743285Y-101184652D01*
X102743285Y-101184652D02*
X102695666Y-101232271D01*
X102695666Y-101232271D02*
X102600428Y-101279890D01*
X102600428Y-101279890D02*
X102409952Y-101279890D01*
X102409952Y-101279890D02*
X102314714Y-101327509D01*
X102314714Y-101327509D02*
X102267095Y-101375128D01*
X102267095Y-101375128D02*
X102219476Y-101470366D01*
X102219476Y-101470366D02*
X102219476Y-101660842D01*
X102219476Y-101660842D02*
X102267095Y-101756080D01*
X102267095Y-101756080D02*
X102314714Y-101803700D01*
X102314714Y-101803700D02*
X102409952Y-101851319D01*
X102409952Y-101851319D02*
X102600428Y-101851319D01*
X102600428Y-101851319D02*
X102695666Y-101803700D01*
X102695666Y-101803700D02*
X102743285Y-101756080D01*
X102743285Y-101756080D02*
X102790904Y-101660842D01*
X102790904Y-101660842D02*
X102790904Y-101470366D01*
X102790904Y-101470366D02*
X102743285Y-101375128D01*
X102743285Y-101375128D02*
X102695666Y-101327509D01*
X102695666Y-101327509D02*
X102600428Y-101279890D01*
X104647333Y-87358319D02*
X104647333Y-86358319D01*
X104647333Y-86358319D02*
X104980666Y-87072604D01*
X104980666Y-87072604D02*
X105313999Y-86358319D01*
X105313999Y-86358319D02*
X105313999Y-87358319D01*
X106123523Y-86834509D02*
X106266380Y-86882128D01*
X106266380Y-86882128D02*
X106313999Y-86929747D01*
X106313999Y-86929747D02*
X106361618Y-87024985D01*
X106361618Y-87024985D02*
X106361618Y-87167842D01*
X106361618Y-87167842D02*
X106313999Y-87263080D01*
X106313999Y-87263080D02*
X106266380Y-87310700D01*
X106266380Y-87310700D02*
X106171142Y-87358319D01*
X106171142Y-87358319D02*
X105790190Y-87358319D01*
X105790190Y-87358319D02*
X105790190Y-86358319D01*
X105790190Y-86358319D02*
X106123523Y-86358319D01*
X106123523Y-86358319D02*
X106218761Y-86405938D01*
X106218761Y-86405938D02*
X106266380Y-86453557D01*
X106266380Y-86453557D02*
X106313999Y-86548795D01*
X106313999Y-86548795D02*
X106313999Y-86644033D01*
X106313999Y-86644033D02*
X106266380Y-86739271D01*
X106266380Y-86739271D02*
X106218761Y-86786890D01*
X106218761Y-86786890D02*
X106123523Y-86834509D01*
X106123523Y-86834509D02*
X105790190Y-86834509D01*
X106552095Y-87453557D02*
X107313999Y-87453557D01*
X107456857Y-86358319D02*
X108075904Y-86358319D01*
X108075904Y-86358319D02*
X107742571Y-86739271D01*
X107742571Y-86739271D02*
X107885428Y-86739271D01*
X107885428Y-86739271D02*
X107980666Y-86786890D01*
X107980666Y-86786890D02*
X108028285Y-86834509D01*
X108028285Y-86834509D02*
X108075904Y-86929747D01*
X108075904Y-86929747D02*
X108075904Y-87167842D01*
X108075904Y-87167842D02*
X108028285Y-87263080D01*
X108028285Y-87263080D02*
X107980666Y-87310700D01*
X107980666Y-87310700D02*
X107885428Y-87358319D01*
X107885428Y-87358319D02*
X107599714Y-87358319D01*
X107599714Y-87358319D02*
X107504476Y-87310700D01*
X107504476Y-87310700D02*
X107456857Y-87263080D01*
X108933047Y-86691652D02*
X108933047Y-87358319D01*
X108694952Y-86310700D02*
X108456857Y-87024985D01*
X108456857Y-87024985D02*
X109075904Y-87024985D01*
X95052095Y-95958319D02*
X95052095Y-96767842D01*
X95052095Y-96767842D02*
X95099714Y-96863080D01*
X95099714Y-96863080D02*
X95147333Y-96910700D01*
X95147333Y-96910700D02*
X95242571Y-96958319D01*
X95242571Y-96958319D02*
X95433047Y-96958319D01*
X95433047Y-96958319D02*
X95528285Y-96910700D01*
X95528285Y-96910700D02*
X95575904Y-96863080D01*
X95575904Y-96863080D02*
X95623523Y-96767842D01*
X95623523Y-96767842D02*
X95623523Y-95958319D01*
X96147333Y-96958319D02*
X96337809Y-96958319D01*
X96337809Y-96958319D02*
X96433047Y-96910700D01*
X96433047Y-96910700D02*
X96480666Y-96863080D01*
X96480666Y-96863080D02*
X96575904Y-96720223D01*
X96575904Y-96720223D02*
X96623523Y-96529747D01*
X96623523Y-96529747D02*
X96623523Y-96148795D01*
X96623523Y-96148795D02*
X96575904Y-96053557D01*
X96575904Y-96053557D02*
X96528285Y-96005938D01*
X96528285Y-96005938D02*
X96433047Y-95958319D01*
X96433047Y-95958319D02*
X96242571Y-95958319D01*
X96242571Y-95958319D02*
X96147333Y-96005938D01*
X96147333Y-96005938D02*
X96099714Y-96053557D01*
X96099714Y-96053557D02*
X96052095Y-96148795D01*
X96052095Y-96148795D02*
X96052095Y-96386890D01*
X96052095Y-96386890D02*
X96099714Y-96482128D01*
X96099714Y-96482128D02*
X96147333Y-96529747D01*
X96147333Y-96529747D02*
X96242571Y-96577366D01*
X96242571Y-96577366D02*
X96433047Y-96577366D01*
X96433047Y-96577366D02*
X96528285Y-96529747D01*
X96528285Y-96529747D02*
X96575904Y-96482128D01*
X96575904Y-96482128D02*
X96623523Y-96386890D01*
X98822333Y-101729819D02*
X98489000Y-101253628D01*
X98250905Y-101729819D02*
X98250905Y-100729819D01*
X98250905Y-100729819D02*
X98631857Y-100729819D01*
X98631857Y-100729819D02*
X98727095Y-100777438D01*
X98727095Y-100777438D02*
X98774714Y-100825057D01*
X98774714Y-100825057D02*
X98822333Y-100920295D01*
X98822333Y-100920295D02*
X98822333Y-101063152D01*
X98822333Y-101063152D02*
X98774714Y-101158390D01*
X98774714Y-101158390D02*
X98727095Y-101206009D01*
X98727095Y-101206009D02*
X98631857Y-101253628D01*
X98631857Y-101253628D02*
X98250905Y-101253628D01*
X99298524Y-101729819D02*
X99489000Y-101729819D01*
X99489000Y-101729819D02*
X99584238Y-101682200D01*
X99584238Y-101682200D02*
X99631857Y-101634580D01*
X99631857Y-101634580D02*
X99727095Y-101491723D01*
X99727095Y-101491723D02*
X99774714Y-101301247D01*
X99774714Y-101301247D02*
X99774714Y-100920295D01*
X99774714Y-100920295D02*
X99727095Y-100825057D01*
X99727095Y-100825057D02*
X99679476Y-100777438D01*
X99679476Y-100777438D02*
X99584238Y-100729819D01*
X99584238Y-100729819D02*
X99393762Y-100729819D01*
X99393762Y-100729819D02*
X99298524Y-100777438D01*
X99298524Y-100777438D02*
X99250905Y-100825057D01*
X99250905Y-100825057D02*
X99203286Y-100920295D01*
X99203286Y-100920295D02*
X99203286Y-101158390D01*
X99203286Y-101158390D02*
X99250905Y-101253628D01*
X99250905Y-101253628D02*
X99298524Y-101301247D01*
X99298524Y-101301247D02*
X99393762Y-101348866D01*
X99393762Y-101348866D02*
X99584238Y-101348866D01*
X99584238Y-101348866D02*
X99679476Y-101301247D01*
X99679476Y-101301247D02*
X99727095Y-101253628D01*
X99727095Y-101253628D02*
X99774714Y-101158390D01*
X104647333Y-101158319D02*
X104647333Y-100158319D01*
X104647333Y-100158319D02*
X104980666Y-100872604D01*
X104980666Y-100872604D02*
X105313999Y-100158319D01*
X105313999Y-100158319D02*
X105313999Y-101158319D01*
X106123523Y-100634509D02*
X106266380Y-100682128D01*
X106266380Y-100682128D02*
X106313999Y-100729747D01*
X106313999Y-100729747D02*
X106361618Y-100824985D01*
X106361618Y-100824985D02*
X106361618Y-100967842D01*
X106361618Y-100967842D02*
X106313999Y-101063080D01*
X106313999Y-101063080D02*
X106266380Y-101110700D01*
X106266380Y-101110700D02*
X106171142Y-101158319D01*
X106171142Y-101158319D02*
X105790190Y-101158319D01*
X105790190Y-101158319D02*
X105790190Y-100158319D01*
X105790190Y-100158319D02*
X106123523Y-100158319D01*
X106123523Y-100158319D02*
X106218761Y-100205938D01*
X106218761Y-100205938D02*
X106266380Y-100253557D01*
X106266380Y-100253557D02*
X106313999Y-100348795D01*
X106313999Y-100348795D02*
X106313999Y-100444033D01*
X106313999Y-100444033D02*
X106266380Y-100539271D01*
X106266380Y-100539271D02*
X106218761Y-100586890D01*
X106218761Y-100586890D02*
X106123523Y-100634509D01*
X106123523Y-100634509D02*
X105790190Y-100634509D01*
X106552095Y-101253557D02*
X107313999Y-101253557D01*
X107456857Y-100158319D02*
X108075904Y-100158319D01*
X108075904Y-100158319D02*
X107742571Y-100539271D01*
X107742571Y-100539271D02*
X107885428Y-100539271D01*
X107885428Y-100539271D02*
X107980666Y-100586890D01*
X107980666Y-100586890D02*
X108028285Y-100634509D01*
X108028285Y-100634509D02*
X108075904Y-100729747D01*
X108075904Y-100729747D02*
X108075904Y-100967842D01*
X108075904Y-100967842D02*
X108028285Y-101063080D01*
X108028285Y-101063080D02*
X107980666Y-101110700D01*
X107980666Y-101110700D02*
X107885428Y-101158319D01*
X107885428Y-101158319D02*
X107599714Y-101158319D01*
X107599714Y-101158319D02*
X107504476Y-101110700D01*
X107504476Y-101110700D02*
X107456857Y-101063080D01*
X108933047Y-100158319D02*
X108742571Y-100158319D01*
X108742571Y-100158319D02*
X108647333Y-100205938D01*
X108647333Y-100205938D02*
X108599714Y-100253557D01*
X108599714Y-100253557D02*
X108504476Y-100396414D01*
X108504476Y-100396414D02*
X108456857Y-100586890D01*
X108456857Y-100586890D02*
X108456857Y-100967842D01*
X108456857Y-100967842D02*
X108504476Y-101063080D01*
X108504476Y-101063080D02*
X108552095Y-101110700D01*
X108552095Y-101110700D02*
X108647333Y-101158319D01*
X108647333Y-101158319D02*
X108837809Y-101158319D01*
X108837809Y-101158319D02*
X108933047Y-101110700D01*
X108933047Y-101110700D02*
X108980666Y-101063080D01*
X108980666Y-101063080D02*
X109028285Y-100967842D01*
X109028285Y-100967842D02*
X109028285Y-100729747D01*
X109028285Y-100729747D02*
X108980666Y-100634509D01*
X108980666Y-100634509D02*
X108933047Y-100586890D01*
X108933047Y-100586890D02*
X108837809Y-100539271D01*
X108837809Y-100539271D02*
X108647333Y-100539271D01*
X108647333Y-100539271D02*
X108552095Y-100586890D01*
X108552095Y-100586890D02*
X108504476Y-100634509D01*
X108504476Y-100634509D02*
X108456857Y-100729747D01*
X93380142Y-100110580D02*
X93332523Y-100158200D01*
X93332523Y-100158200D02*
X93189666Y-100205819D01*
X93189666Y-100205819D02*
X93094428Y-100205819D01*
X93094428Y-100205819D02*
X92951571Y-100158200D01*
X92951571Y-100158200D02*
X92856333Y-100062961D01*
X92856333Y-100062961D02*
X92808714Y-99967723D01*
X92808714Y-99967723D02*
X92761095Y-99777247D01*
X92761095Y-99777247D02*
X92761095Y-99634390D01*
X92761095Y-99634390D02*
X92808714Y-99443914D01*
X92808714Y-99443914D02*
X92856333Y-99348676D01*
X92856333Y-99348676D02*
X92951571Y-99253438D01*
X92951571Y-99253438D02*
X93094428Y-99205819D01*
X93094428Y-99205819D02*
X93189666Y-99205819D01*
X93189666Y-99205819D02*
X93332523Y-99253438D01*
X93332523Y-99253438D02*
X93380142Y-99301057D01*
X94332523Y-100205819D02*
X93761095Y-100205819D01*
X94046809Y-100205819D02*
X94046809Y-99205819D01*
X94046809Y-99205819D02*
X93951571Y-99348676D01*
X93951571Y-99348676D02*
X93856333Y-99443914D01*
X93856333Y-99443914D02*
X93761095Y-99491533D01*
X94665857Y-99205819D02*
X95332523Y-99205819D01*
X95332523Y-99205819D02*
X94903952Y-100205819D01*
X82647333Y-87358319D02*
X82647333Y-86358319D01*
X82647333Y-86358319D02*
X82980666Y-87072604D01*
X82980666Y-87072604D02*
X83313999Y-86358319D01*
X83313999Y-86358319D02*
X83313999Y-87358319D01*
X84123523Y-86834509D02*
X84266380Y-86882128D01*
X84266380Y-86882128D02*
X84313999Y-86929747D01*
X84313999Y-86929747D02*
X84361618Y-87024985D01*
X84361618Y-87024985D02*
X84361618Y-87167842D01*
X84361618Y-87167842D02*
X84313999Y-87263080D01*
X84313999Y-87263080D02*
X84266380Y-87310700D01*
X84266380Y-87310700D02*
X84171142Y-87358319D01*
X84171142Y-87358319D02*
X83790190Y-87358319D01*
X83790190Y-87358319D02*
X83790190Y-86358319D01*
X83790190Y-86358319D02*
X84123523Y-86358319D01*
X84123523Y-86358319D02*
X84218761Y-86405938D01*
X84218761Y-86405938D02*
X84266380Y-86453557D01*
X84266380Y-86453557D02*
X84313999Y-86548795D01*
X84313999Y-86548795D02*
X84313999Y-86644033D01*
X84313999Y-86644033D02*
X84266380Y-86739271D01*
X84266380Y-86739271D02*
X84218761Y-86786890D01*
X84218761Y-86786890D02*
X84123523Y-86834509D01*
X84123523Y-86834509D02*
X83790190Y-86834509D01*
X84552095Y-87453557D02*
X85313999Y-87453557D01*
X85456857Y-86358319D02*
X86075904Y-86358319D01*
X86075904Y-86358319D02*
X85742571Y-86739271D01*
X85742571Y-86739271D02*
X85885428Y-86739271D01*
X85885428Y-86739271D02*
X85980666Y-86786890D01*
X85980666Y-86786890D02*
X86028285Y-86834509D01*
X86028285Y-86834509D02*
X86075904Y-86929747D01*
X86075904Y-86929747D02*
X86075904Y-87167842D01*
X86075904Y-87167842D02*
X86028285Y-87263080D01*
X86028285Y-87263080D02*
X85980666Y-87310700D01*
X85980666Y-87310700D02*
X85885428Y-87358319D01*
X85885428Y-87358319D02*
X85599714Y-87358319D01*
X85599714Y-87358319D02*
X85504476Y-87310700D01*
X85504476Y-87310700D02*
X85456857Y-87263080D01*
X86409238Y-86358319D02*
X87028285Y-86358319D01*
X87028285Y-86358319D02*
X86694952Y-86739271D01*
X86694952Y-86739271D02*
X86837809Y-86739271D01*
X86837809Y-86739271D02*
X86933047Y-86786890D01*
X86933047Y-86786890D02*
X86980666Y-86834509D01*
X86980666Y-86834509D02*
X87028285Y-86929747D01*
X87028285Y-86929747D02*
X87028285Y-87167842D01*
X87028285Y-87167842D02*
X86980666Y-87263080D01*
X86980666Y-87263080D02*
X86933047Y-87310700D01*
X86933047Y-87310700D02*
X86837809Y-87358319D01*
X86837809Y-87358319D02*
X86552095Y-87358319D01*
X86552095Y-87358319D02*
X86456857Y-87310700D01*
X86456857Y-87310700D02*
X86409238Y-87263080D01*
X70138819Y-106936833D02*
X70853104Y-106936833D01*
X70853104Y-106936833D02*
X70995961Y-106984452D01*
X70995961Y-106984452D02*
X71091200Y-107079690D01*
X71091200Y-107079690D02*
X71138819Y-107222547D01*
X71138819Y-107222547D02*
X71138819Y-107317785D01*
X70567390Y-106317785D02*
X70519771Y-106413023D01*
X70519771Y-106413023D02*
X70472152Y-106460642D01*
X70472152Y-106460642D02*
X70376914Y-106508261D01*
X70376914Y-106508261D02*
X70329295Y-106508261D01*
X70329295Y-106508261D02*
X70234057Y-106460642D01*
X70234057Y-106460642D02*
X70186438Y-106413023D01*
X70186438Y-106413023D02*
X70138819Y-106317785D01*
X70138819Y-106317785D02*
X70138819Y-106127309D01*
X70138819Y-106127309D02*
X70186438Y-106032071D01*
X70186438Y-106032071D02*
X70234057Y-105984452D01*
X70234057Y-105984452D02*
X70329295Y-105936833D01*
X70329295Y-105936833D02*
X70376914Y-105936833D01*
X70376914Y-105936833D02*
X70472152Y-105984452D01*
X70472152Y-105984452D02*
X70519771Y-106032071D01*
X70519771Y-106032071D02*
X70567390Y-106127309D01*
X70567390Y-106127309D02*
X70567390Y-106317785D01*
X70567390Y-106317785D02*
X70615009Y-106413023D01*
X70615009Y-106413023D02*
X70662628Y-106460642D01*
X70662628Y-106460642D02*
X70757866Y-106508261D01*
X70757866Y-106508261D02*
X70948342Y-106508261D01*
X70948342Y-106508261D02*
X71043580Y-106460642D01*
X71043580Y-106460642D02*
X71091200Y-106413023D01*
X71091200Y-106413023D02*
X71138819Y-106317785D01*
X71138819Y-106317785D02*
X71138819Y-106127309D01*
X71138819Y-106127309D02*
X71091200Y-106032071D01*
X71091200Y-106032071D02*
X71043580Y-105984452D01*
X71043580Y-105984452D02*
X70948342Y-105936833D01*
X70948342Y-105936833D02*
X70757866Y-105936833D01*
X70757866Y-105936833D02*
X70662628Y-105984452D01*
X70662628Y-105984452D02*
X70615009Y-106032071D01*
X70615009Y-106032071D02*
X70567390Y-106127309D01*
X52647333Y-101158319D02*
X52647333Y-100158319D01*
X52647333Y-100158319D02*
X52980666Y-100872604D01*
X52980666Y-100872604D02*
X53313999Y-100158319D01*
X53313999Y-100158319D02*
X53313999Y-101158319D01*
X54123523Y-100634509D02*
X54266380Y-100682128D01*
X54266380Y-100682128D02*
X54313999Y-100729747D01*
X54313999Y-100729747D02*
X54361618Y-100824985D01*
X54361618Y-100824985D02*
X54361618Y-100967842D01*
X54361618Y-100967842D02*
X54313999Y-101063080D01*
X54313999Y-101063080D02*
X54266380Y-101110700D01*
X54266380Y-101110700D02*
X54171142Y-101158319D01*
X54171142Y-101158319D02*
X53790190Y-101158319D01*
X53790190Y-101158319D02*
X53790190Y-100158319D01*
X53790190Y-100158319D02*
X54123523Y-100158319D01*
X54123523Y-100158319D02*
X54218761Y-100205938D01*
X54218761Y-100205938D02*
X54266380Y-100253557D01*
X54266380Y-100253557D02*
X54313999Y-100348795D01*
X54313999Y-100348795D02*
X54313999Y-100444033D01*
X54313999Y-100444033D02*
X54266380Y-100539271D01*
X54266380Y-100539271D02*
X54218761Y-100586890D01*
X54218761Y-100586890D02*
X54123523Y-100634509D01*
X54123523Y-100634509D02*
X53790190Y-100634509D01*
X54552095Y-101253557D02*
X55313999Y-101253557D01*
X55456857Y-100158319D02*
X56075904Y-100158319D01*
X56075904Y-100158319D02*
X55742571Y-100539271D01*
X55742571Y-100539271D02*
X55885428Y-100539271D01*
X55885428Y-100539271D02*
X55980666Y-100586890D01*
X55980666Y-100586890D02*
X56028285Y-100634509D01*
X56028285Y-100634509D02*
X56075904Y-100729747D01*
X56075904Y-100729747D02*
X56075904Y-100967842D01*
X56075904Y-100967842D02*
X56028285Y-101063080D01*
X56028285Y-101063080D02*
X55980666Y-101110700D01*
X55980666Y-101110700D02*
X55885428Y-101158319D01*
X55885428Y-101158319D02*
X55599714Y-101158319D01*
X55599714Y-101158319D02*
X55504476Y-101110700D01*
X55504476Y-101110700D02*
X55456857Y-101063080D01*
X57028285Y-101158319D02*
X56456857Y-101158319D01*
X56742571Y-101158319D02*
X56742571Y-100158319D01*
X56742571Y-100158319D02*
X56647333Y-100301176D01*
X56647333Y-100301176D02*
X56552095Y-100396414D01*
X56552095Y-100396414D02*
X56456857Y-100444033D01*
X63361619Y-84198319D02*
X63361619Y-83198319D01*
X63361619Y-83198319D02*
X63694952Y-83912604D01*
X63694952Y-83912604D02*
X64028285Y-83198319D01*
X64028285Y-83198319D02*
X64028285Y-84198319D01*
X64647333Y-84198319D02*
X64552095Y-84150700D01*
X64552095Y-84150700D02*
X64504476Y-84103080D01*
X64504476Y-84103080D02*
X64456857Y-84007842D01*
X64456857Y-84007842D02*
X64456857Y-83722128D01*
X64456857Y-83722128D02*
X64504476Y-83626890D01*
X64504476Y-83626890D02*
X64552095Y-83579271D01*
X64552095Y-83579271D02*
X64647333Y-83531652D01*
X64647333Y-83531652D02*
X64790190Y-83531652D01*
X64790190Y-83531652D02*
X64885428Y-83579271D01*
X64885428Y-83579271D02*
X64933047Y-83626890D01*
X64933047Y-83626890D02*
X64980666Y-83722128D01*
X64980666Y-83722128D02*
X64980666Y-84007842D01*
X64980666Y-84007842D02*
X64933047Y-84103080D01*
X64933047Y-84103080D02*
X64885428Y-84150700D01*
X64885428Y-84150700D02*
X64790190Y-84198319D01*
X64790190Y-84198319D02*
X64647333Y-84198319D01*
X65837809Y-83531652D02*
X65837809Y-84198319D01*
X65409238Y-83531652D02*
X65409238Y-84055461D01*
X65409238Y-84055461D02*
X65456857Y-84150700D01*
X65456857Y-84150700D02*
X65552095Y-84198319D01*
X65552095Y-84198319D02*
X65694952Y-84198319D01*
X65694952Y-84198319D02*
X65790190Y-84150700D01*
X65790190Y-84150700D02*
X65837809Y-84103080D01*
X66314000Y-83531652D02*
X66314000Y-84198319D01*
X66314000Y-83626890D02*
X66361619Y-83579271D01*
X66361619Y-83579271D02*
X66456857Y-83531652D01*
X66456857Y-83531652D02*
X66599714Y-83531652D01*
X66599714Y-83531652D02*
X66694952Y-83579271D01*
X66694952Y-83579271D02*
X66742571Y-83674509D01*
X66742571Y-83674509D02*
X66742571Y-84198319D01*
X67075905Y-83531652D02*
X67456857Y-83531652D01*
X67218762Y-83198319D02*
X67218762Y-84055461D01*
X67218762Y-84055461D02*
X67266381Y-84150700D01*
X67266381Y-84150700D02*
X67361619Y-84198319D01*
X67361619Y-84198319D02*
X67456857Y-84198319D01*
X67933048Y-83626890D02*
X67837810Y-83579271D01*
X67837810Y-83579271D02*
X67790191Y-83531652D01*
X67790191Y-83531652D02*
X67742572Y-83436414D01*
X67742572Y-83436414D02*
X67742572Y-83388795D01*
X67742572Y-83388795D02*
X67790191Y-83293557D01*
X67790191Y-83293557D02*
X67837810Y-83245938D01*
X67837810Y-83245938D02*
X67933048Y-83198319D01*
X67933048Y-83198319D02*
X68123524Y-83198319D01*
X68123524Y-83198319D02*
X68218762Y-83245938D01*
X68218762Y-83245938D02*
X68266381Y-83293557D01*
X68266381Y-83293557D02*
X68314000Y-83388795D01*
X68314000Y-83388795D02*
X68314000Y-83436414D01*
X68314000Y-83436414D02*
X68266381Y-83531652D01*
X68266381Y-83531652D02*
X68218762Y-83579271D01*
X68218762Y-83579271D02*
X68123524Y-83626890D01*
X68123524Y-83626890D02*
X67933048Y-83626890D01*
X67933048Y-83626890D02*
X67837810Y-83674509D01*
X67837810Y-83674509D02*
X67790191Y-83722128D01*
X67790191Y-83722128D02*
X67742572Y-83817366D01*
X67742572Y-83817366D02*
X67742572Y-84007842D01*
X67742572Y-84007842D02*
X67790191Y-84103080D01*
X67790191Y-84103080D02*
X67837810Y-84150700D01*
X67837810Y-84150700D02*
X67933048Y-84198319D01*
X67933048Y-84198319D02*
X68123524Y-84198319D01*
X68123524Y-84198319D02*
X68218762Y-84150700D01*
X68218762Y-84150700D02*
X68266381Y-84103080D01*
X68266381Y-84103080D02*
X68314000Y-84007842D01*
X68314000Y-84007842D02*
X68314000Y-83817366D01*
X68314000Y-83817366D02*
X68266381Y-83722128D01*
X68266381Y-83722128D02*
X68218762Y-83674509D01*
X68218762Y-83674509D02*
X68123524Y-83626890D01*
X70886142Y-101756080D02*
X70838523Y-101803700D01*
X70838523Y-101803700D02*
X70695666Y-101851319D01*
X70695666Y-101851319D02*
X70600428Y-101851319D01*
X70600428Y-101851319D02*
X70457571Y-101803700D01*
X70457571Y-101803700D02*
X70362333Y-101708461D01*
X70362333Y-101708461D02*
X70314714Y-101613223D01*
X70314714Y-101613223D02*
X70267095Y-101422747D01*
X70267095Y-101422747D02*
X70267095Y-101279890D01*
X70267095Y-101279890D02*
X70314714Y-101089414D01*
X70314714Y-101089414D02*
X70362333Y-100994176D01*
X70362333Y-100994176D02*
X70457571Y-100898938D01*
X70457571Y-100898938D02*
X70600428Y-100851319D01*
X70600428Y-100851319D02*
X70695666Y-100851319D01*
X70695666Y-100851319D02*
X70838523Y-100898938D01*
X70838523Y-100898938D02*
X70886142Y-100946557D01*
X71838523Y-101851319D02*
X71267095Y-101851319D01*
X71552809Y-101851319D02*
X71552809Y-100851319D01*
X71552809Y-100851319D02*
X71457571Y-100994176D01*
X71457571Y-100994176D02*
X71362333Y-101089414D01*
X71362333Y-101089414D02*
X71267095Y-101137033D01*
X72695666Y-100851319D02*
X72505190Y-100851319D01*
X72505190Y-100851319D02*
X72409952Y-100898938D01*
X72409952Y-100898938D02*
X72362333Y-100946557D01*
X72362333Y-100946557D02*
X72267095Y-101089414D01*
X72267095Y-101089414D02*
X72219476Y-101279890D01*
X72219476Y-101279890D02*
X72219476Y-101660842D01*
X72219476Y-101660842D02*
X72267095Y-101756080D01*
X72267095Y-101756080D02*
X72314714Y-101803700D01*
X72314714Y-101803700D02*
X72409952Y-101851319D01*
X72409952Y-101851319D02*
X72600428Y-101851319D01*
X72600428Y-101851319D02*
X72695666Y-101803700D01*
X72695666Y-101803700D02*
X72743285Y-101756080D01*
X72743285Y-101756080D02*
X72790904Y-101660842D01*
X72790904Y-101660842D02*
X72790904Y-101422747D01*
X72790904Y-101422747D02*
X72743285Y-101327509D01*
X72743285Y-101327509D02*
X72695666Y-101279890D01*
X72695666Y-101279890D02*
X72600428Y-101232271D01*
X72600428Y-101232271D02*
X72409952Y-101232271D01*
X72409952Y-101232271D02*
X72314714Y-101279890D01*
X72314714Y-101279890D02*
X72267095Y-101327509D01*
X72267095Y-101327509D02*
X72219476Y-101422747D01*
X74647333Y-87358319D02*
X74647333Y-86358319D01*
X74647333Y-86358319D02*
X74980666Y-87072604D01*
X74980666Y-87072604D02*
X75313999Y-86358319D01*
X75313999Y-86358319D02*
X75313999Y-87358319D01*
X76123523Y-86834509D02*
X76266380Y-86882128D01*
X76266380Y-86882128D02*
X76313999Y-86929747D01*
X76313999Y-86929747D02*
X76361618Y-87024985D01*
X76361618Y-87024985D02*
X76361618Y-87167842D01*
X76361618Y-87167842D02*
X76313999Y-87263080D01*
X76313999Y-87263080D02*
X76266380Y-87310700D01*
X76266380Y-87310700D02*
X76171142Y-87358319D01*
X76171142Y-87358319D02*
X75790190Y-87358319D01*
X75790190Y-87358319D02*
X75790190Y-86358319D01*
X75790190Y-86358319D02*
X76123523Y-86358319D01*
X76123523Y-86358319D02*
X76218761Y-86405938D01*
X76218761Y-86405938D02*
X76266380Y-86453557D01*
X76266380Y-86453557D02*
X76313999Y-86548795D01*
X76313999Y-86548795D02*
X76313999Y-86644033D01*
X76313999Y-86644033D02*
X76266380Y-86739271D01*
X76266380Y-86739271D02*
X76218761Y-86786890D01*
X76218761Y-86786890D02*
X76123523Y-86834509D01*
X76123523Y-86834509D02*
X75790190Y-86834509D01*
X76552095Y-87453557D02*
X77313999Y-87453557D01*
X77456857Y-86358319D02*
X78075904Y-86358319D01*
X78075904Y-86358319D02*
X77742571Y-86739271D01*
X77742571Y-86739271D02*
X77885428Y-86739271D01*
X77885428Y-86739271D02*
X77980666Y-86786890D01*
X77980666Y-86786890D02*
X78028285Y-86834509D01*
X78028285Y-86834509D02*
X78075904Y-86929747D01*
X78075904Y-86929747D02*
X78075904Y-87167842D01*
X78075904Y-87167842D02*
X78028285Y-87263080D01*
X78028285Y-87263080D02*
X77980666Y-87310700D01*
X77980666Y-87310700D02*
X77885428Y-87358319D01*
X77885428Y-87358319D02*
X77599714Y-87358319D01*
X77599714Y-87358319D02*
X77504476Y-87310700D01*
X77504476Y-87310700D02*
X77456857Y-87263080D01*
X78694952Y-86358319D02*
X78790190Y-86358319D01*
X78790190Y-86358319D02*
X78885428Y-86405938D01*
X78885428Y-86405938D02*
X78933047Y-86453557D01*
X78933047Y-86453557D02*
X78980666Y-86548795D01*
X78980666Y-86548795D02*
X79028285Y-86739271D01*
X79028285Y-86739271D02*
X79028285Y-86977366D01*
X79028285Y-86977366D02*
X78980666Y-87167842D01*
X78980666Y-87167842D02*
X78933047Y-87263080D01*
X78933047Y-87263080D02*
X78885428Y-87310700D01*
X78885428Y-87310700D02*
X78790190Y-87358319D01*
X78790190Y-87358319D02*
X78694952Y-87358319D01*
X78694952Y-87358319D02*
X78599714Y-87310700D01*
X78599714Y-87310700D02*
X78552095Y-87263080D01*
X78552095Y-87263080D02*
X78504476Y-87167842D01*
X78504476Y-87167842D02*
X78456857Y-86977366D01*
X78456857Y-86977366D02*
X78456857Y-86739271D01*
X78456857Y-86739271D02*
X78504476Y-86548795D01*
X78504476Y-86548795D02*
X78552095Y-86453557D01*
X78552095Y-86453557D02*
X78599714Y-86405938D01*
X78599714Y-86405938D02*
X78694952Y-86358319D01*
X65052095Y-95958319D02*
X65052095Y-96767842D01*
X65052095Y-96767842D02*
X65099714Y-96863080D01*
X65099714Y-96863080D02*
X65147333Y-96910700D01*
X65147333Y-96910700D02*
X65242571Y-96958319D01*
X65242571Y-96958319D02*
X65433047Y-96958319D01*
X65433047Y-96958319D02*
X65528285Y-96910700D01*
X65528285Y-96910700D02*
X65575904Y-96863080D01*
X65575904Y-96863080D02*
X65623523Y-96767842D01*
X65623523Y-96767842D02*
X65623523Y-95958319D01*
X66242571Y-96386890D02*
X66147333Y-96339271D01*
X66147333Y-96339271D02*
X66099714Y-96291652D01*
X66099714Y-96291652D02*
X66052095Y-96196414D01*
X66052095Y-96196414D02*
X66052095Y-96148795D01*
X66052095Y-96148795D02*
X66099714Y-96053557D01*
X66099714Y-96053557D02*
X66147333Y-96005938D01*
X66147333Y-96005938D02*
X66242571Y-95958319D01*
X66242571Y-95958319D02*
X66433047Y-95958319D01*
X66433047Y-95958319D02*
X66528285Y-96005938D01*
X66528285Y-96005938D02*
X66575904Y-96053557D01*
X66575904Y-96053557D02*
X66623523Y-96148795D01*
X66623523Y-96148795D02*
X66623523Y-96196414D01*
X66623523Y-96196414D02*
X66575904Y-96291652D01*
X66575904Y-96291652D02*
X66528285Y-96339271D01*
X66528285Y-96339271D02*
X66433047Y-96386890D01*
X66433047Y-96386890D02*
X66242571Y-96386890D01*
X66242571Y-96386890D02*
X66147333Y-96434509D01*
X66147333Y-96434509D02*
X66099714Y-96482128D01*
X66099714Y-96482128D02*
X66052095Y-96577366D01*
X66052095Y-96577366D02*
X66052095Y-96767842D01*
X66052095Y-96767842D02*
X66099714Y-96863080D01*
X66099714Y-96863080D02*
X66147333Y-96910700D01*
X66147333Y-96910700D02*
X66242571Y-96958319D01*
X66242571Y-96958319D02*
X66433047Y-96958319D01*
X66433047Y-96958319D02*
X66528285Y-96910700D01*
X66528285Y-96910700D02*
X66575904Y-96863080D01*
X66575904Y-96863080D02*
X66623523Y-96767842D01*
X66623523Y-96767842D02*
X66623523Y-96577366D01*
X66623523Y-96577366D02*
X66575904Y-96482128D01*
X66575904Y-96482128D02*
X66528285Y-96434509D01*
X66528285Y-96434509D02*
X66433047Y-96386890D01*
X68822333Y-101729819D02*
X68489000Y-101253628D01*
X68250905Y-101729819D02*
X68250905Y-100729819D01*
X68250905Y-100729819D02*
X68631857Y-100729819D01*
X68631857Y-100729819D02*
X68727095Y-100777438D01*
X68727095Y-100777438D02*
X68774714Y-100825057D01*
X68774714Y-100825057D02*
X68822333Y-100920295D01*
X68822333Y-100920295D02*
X68822333Y-101063152D01*
X68822333Y-101063152D02*
X68774714Y-101158390D01*
X68774714Y-101158390D02*
X68727095Y-101206009D01*
X68727095Y-101206009D02*
X68631857Y-101253628D01*
X68631857Y-101253628D02*
X68250905Y-101253628D01*
X69393762Y-101158390D02*
X69298524Y-101110771D01*
X69298524Y-101110771D02*
X69250905Y-101063152D01*
X69250905Y-101063152D02*
X69203286Y-100967914D01*
X69203286Y-100967914D02*
X69203286Y-100920295D01*
X69203286Y-100920295D02*
X69250905Y-100825057D01*
X69250905Y-100825057D02*
X69298524Y-100777438D01*
X69298524Y-100777438D02*
X69393762Y-100729819D01*
X69393762Y-100729819D02*
X69584238Y-100729819D01*
X69584238Y-100729819D02*
X69679476Y-100777438D01*
X69679476Y-100777438D02*
X69727095Y-100825057D01*
X69727095Y-100825057D02*
X69774714Y-100920295D01*
X69774714Y-100920295D02*
X69774714Y-100967914D01*
X69774714Y-100967914D02*
X69727095Y-101063152D01*
X69727095Y-101063152D02*
X69679476Y-101110771D01*
X69679476Y-101110771D02*
X69584238Y-101158390D01*
X69584238Y-101158390D02*
X69393762Y-101158390D01*
X69393762Y-101158390D02*
X69298524Y-101206009D01*
X69298524Y-101206009D02*
X69250905Y-101253628D01*
X69250905Y-101253628D02*
X69203286Y-101348866D01*
X69203286Y-101348866D02*
X69203286Y-101539342D01*
X69203286Y-101539342D02*
X69250905Y-101634580D01*
X69250905Y-101634580D02*
X69298524Y-101682200D01*
X69298524Y-101682200D02*
X69393762Y-101729819D01*
X69393762Y-101729819D02*
X69584238Y-101729819D01*
X69584238Y-101729819D02*
X69679476Y-101682200D01*
X69679476Y-101682200D02*
X69727095Y-101634580D01*
X69727095Y-101634580D02*
X69774714Y-101539342D01*
X69774714Y-101539342D02*
X69774714Y-101348866D01*
X69774714Y-101348866D02*
X69727095Y-101253628D01*
X69727095Y-101253628D02*
X69679476Y-101206009D01*
X69679476Y-101206009D02*
X69584238Y-101158390D01*
X74647333Y-101158319D02*
X74647333Y-100158319D01*
X74647333Y-100158319D02*
X74980666Y-100872604D01*
X74980666Y-100872604D02*
X75313999Y-100158319D01*
X75313999Y-100158319D02*
X75313999Y-101158319D01*
X76123523Y-100634509D02*
X76266380Y-100682128D01*
X76266380Y-100682128D02*
X76313999Y-100729747D01*
X76313999Y-100729747D02*
X76361618Y-100824985D01*
X76361618Y-100824985D02*
X76361618Y-100967842D01*
X76361618Y-100967842D02*
X76313999Y-101063080D01*
X76313999Y-101063080D02*
X76266380Y-101110700D01*
X76266380Y-101110700D02*
X76171142Y-101158319D01*
X76171142Y-101158319D02*
X75790190Y-101158319D01*
X75790190Y-101158319D02*
X75790190Y-100158319D01*
X75790190Y-100158319D02*
X76123523Y-100158319D01*
X76123523Y-100158319D02*
X76218761Y-100205938D01*
X76218761Y-100205938D02*
X76266380Y-100253557D01*
X76266380Y-100253557D02*
X76313999Y-100348795D01*
X76313999Y-100348795D02*
X76313999Y-100444033D01*
X76313999Y-100444033D02*
X76266380Y-100539271D01*
X76266380Y-100539271D02*
X76218761Y-100586890D01*
X76218761Y-100586890D02*
X76123523Y-100634509D01*
X76123523Y-100634509D02*
X75790190Y-100634509D01*
X76552095Y-101253557D02*
X77313999Y-101253557D01*
X77456857Y-100158319D02*
X78075904Y-100158319D01*
X78075904Y-100158319D02*
X77742571Y-100539271D01*
X77742571Y-100539271D02*
X77885428Y-100539271D01*
X77885428Y-100539271D02*
X77980666Y-100586890D01*
X77980666Y-100586890D02*
X78028285Y-100634509D01*
X78028285Y-100634509D02*
X78075904Y-100729747D01*
X78075904Y-100729747D02*
X78075904Y-100967842D01*
X78075904Y-100967842D02*
X78028285Y-101063080D01*
X78028285Y-101063080D02*
X77980666Y-101110700D01*
X77980666Y-101110700D02*
X77885428Y-101158319D01*
X77885428Y-101158319D02*
X77599714Y-101158319D01*
X77599714Y-101158319D02*
X77504476Y-101110700D01*
X77504476Y-101110700D02*
X77456857Y-101063080D01*
X78456857Y-100253557D02*
X78504476Y-100205938D01*
X78504476Y-100205938D02*
X78599714Y-100158319D01*
X78599714Y-100158319D02*
X78837809Y-100158319D01*
X78837809Y-100158319D02*
X78933047Y-100205938D01*
X78933047Y-100205938D02*
X78980666Y-100253557D01*
X78980666Y-100253557D02*
X79028285Y-100348795D01*
X79028285Y-100348795D02*
X79028285Y-100444033D01*
X79028285Y-100444033D02*
X78980666Y-100586890D01*
X78980666Y-100586890D02*
X78409238Y-101158319D01*
X78409238Y-101158319D02*
X79028285Y-101158319D01*
X63380142Y-100110580D02*
X63332523Y-100158200D01*
X63332523Y-100158200D02*
X63189666Y-100205819D01*
X63189666Y-100205819D02*
X63094428Y-100205819D01*
X63094428Y-100205819D02*
X62951571Y-100158200D01*
X62951571Y-100158200D02*
X62856333Y-100062961D01*
X62856333Y-100062961D02*
X62808714Y-99967723D01*
X62808714Y-99967723D02*
X62761095Y-99777247D01*
X62761095Y-99777247D02*
X62761095Y-99634390D01*
X62761095Y-99634390D02*
X62808714Y-99443914D01*
X62808714Y-99443914D02*
X62856333Y-99348676D01*
X62856333Y-99348676D02*
X62951571Y-99253438D01*
X62951571Y-99253438D02*
X63094428Y-99205819D01*
X63094428Y-99205819D02*
X63189666Y-99205819D01*
X63189666Y-99205819D02*
X63332523Y-99253438D01*
X63332523Y-99253438D02*
X63380142Y-99301057D01*
X64332523Y-100205819D02*
X63761095Y-100205819D01*
X64046809Y-100205819D02*
X64046809Y-99205819D01*
X64046809Y-99205819D02*
X63951571Y-99348676D01*
X63951571Y-99348676D02*
X63856333Y-99443914D01*
X63856333Y-99443914D02*
X63761095Y-99491533D01*
X65237285Y-99205819D02*
X64761095Y-99205819D01*
X64761095Y-99205819D02*
X64713476Y-99682009D01*
X64713476Y-99682009D02*
X64761095Y-99634390D01*
X64761095Y-99634390D02*
X64856333Y-99586771D01*
X64856333Y-99586771D02*
X65094428Y-99586771D01*
X65094428Y-99586771D02*
X65189666Y-99634390D01*
X65189666Y-99634390D02*
X65237285Y-99682009D01*
X65237285Y-99682009D02*
X65284904Y-99777247D01*
X65284904Y-99777247D02*
X65284904Y-100015342D01*
X65284904Y-100015342D02*
X65237285Y-100110580D01*
X65237285Y-100110580D02*
X65189666Y-100158200D01*
X65189666Y-100158200D02*
X65094428Y-100205819D01*
X65094428Y-100205819D02*
X64856333Y-100205819D01*
X64856333Y-100205819D02*
X64761095Y-100158200D01*
X64761095Y-100158200D02*
X64713476Y-100110580D01*
X52647333Y-87358319D02*
X52647333Y-86358319D01*
X52647333Y-86358319D02*
X52980666Y-87072604D01*
X52980666Y-87072604D02*
X53313999Y-86358319D01*
X53313999Y-86358319D02*
X53313999Y-87358319D01*
X54123523Y-86834509D02*
X54266380Y-86882128D01*
X54266380Y-86882128D02*
X54313999Y-86929747D01*
X54313999Y-86929747D02*
X54361618Y-87024985D01*
X54361618Y-87024985D02*
X54361618Y-87167842D01*
X54361618Y-87167842D02*
X54313999Y-87263080D01*
X54313999Y-87263080D02*
X54266380Y-87310700D01*
X54266380Y-87310700D02*
X54171142Y-87358319D01*
X54171142Y-87358319D02*
X53790190Y-87358319D01*
X53790190Y-87358319D02*
X53790190Y-86358319D01*
X53790190Y-86358319D02*
X54123523Y-86358319D01*
X54123523Y-86358319D02*
X54218761Y-86405938D01*
X54218761Y-86405938D02*
X54266380Y-86453557D01*
X54266380Y-86453557D02*
X54313999Y-86548795D01*
X54313999Y-86548795D02*
X54313999Y-86644033D01*
X54313999Y-86644033D02*
X54266380Y-86739271D01*
X54266380Y-86739271D02*
X54218761Y-86786890D01*
X54218761Y-86786890D02*
X54123523Y-86834509D01*
X54123523Y-86834509D02*
X53790190Y-86834509D01*
X54552095Y-87453557D02*
X55313999Y-87453557D01*
X55504476Y-86453557D02*
X55552095Y-86405938D01*
X55552095Y-86405938D02*
X55647333Y-86358319D01*
X55647333Y-86358319D02*
X55885428Y-86358319D01*
X55885428Y-86358319D02*
X55980666Y-86405938D01*
X55980666Y-86405938D02*
X56028285Y-86453557D01*
X56028285Y-86453557D02*
X56075904Y-86548795D01*
X56075904Y-86548795D02*
X56075904Y-86644033D01*
X56075904Y-86644033D02*
X56028285Y-86786890D01*
X56028285Y-86786890D02*
X55456857Y-87358319D01*
X55456857Y-87358319D02*
X56075904Y-87358319D01*
X56552095Y-87358319D02*
X56742571Y-87358319D01*
X56742571Y-87358319D02*
X56837809Y-87310700D01*
X56837809Y-87310700D02*
X56885428Y-87263080D01*
X56885428Y-87263080D02*
X56980666Y-87120223D01*
X56980666Y-87120223D02*
X57028285Y-86929747D01*
X57028285Y-86929747D02*
X57028285Y-86548795D01*
X57028285Y-86548795D02*
X56980666Y-86453557D01*
X56980666Y-86453557D02*
X56933047Y-86405938D01*
X56933047Y-86405938D02*
X56837809Y-86358319D01*
X56837809Y-86358319D02*
X56647333Y-86358319D01*
X56647333Y-86358319D02*
X56552095Y-86405938D01*
X56552095Y-86405938D02*
X56504476Y-86453557D01*
X56504476Y-86453557D02*
X56456857Y-86548795D01*
X56456857Y-86548795D02*
X56456857Y-86786890D01*
X56456857Y-86786890D02*
X56504476Y-86882128D01*
X56504476Y-86882128D02*
X56552095Y-86929747D01*
X56552095Y-86929747D02*
X56647333Y-86977366D01*
X56647333Y-86977366D02*
X56837809Y-86977366D01*
X56837809Y-86977366D02*
X56933047Y-86929747D01*
X56933047Y-86929747D02*
X56980666Y-86882128D01*
X56980666Y-86882128D02*
X57028285Y-86786890D01*
X40138819Y-106936833D02*
X40853104Y-106936833D01*
X40853104Y-106936833D02*
X40995961Y-106984452D01*
X40995961Y-106984452D02*
X41091200Y-107079690D01*
X41091200Y-107079690D02*
X41138819Y-107222547D01*
X41138819Y-107222547D02*
X41138819Y-107317785D01*
X40138819Y-106555880D02*
X40138819Y-105889214D01*
X40138819Y-105889214D02*
X41138819Y-106317785D01*
X22647333Y-101158319D02*
X22647333Y-100158319D01*
X22647333Y-100158319D02*
X22980666Y-100872604D01*
X22980666Y-100872604D02*
X23313999Y-100158319D01*
X23313999Y-100158319D02*
X23313999Y-101158319D01*
X24123523Y-100634509D02*
X24266380Y-100682128D01*
X24266380Y-100682128D02*
X24313999Y-100729747D01*
X24313999Y-100729747D02*
X24361618Y-100824985D01*
X24361618Y-100824985D02*
X24361618Y-100967842D01*
X24361618Y-100967842D02*
X24313999Y-101063080D01*
X24313999Y-101063080D02*
X24266380Y-101110700D01*
X24266380Y-101110700D02*
X24171142Y-101158319D01*
X24171142Y-101158319D02*
X23790190Y-101158319D01*
X23790190Y-101158319D02*
X23790190Y-100158319D01*
X23790190Y-100158319D02*
X24123523Y-100158319D01*
X24123523Y-100158319D02*
X24218761Y-100205938D01*
X24218761Y-100205938D02*
X24266380Y-100253557D01*
X24266380Y-100253557D02*
X24313999Y-100348795D01*
X24313999Y-100348795D02*
X24313999Y-100444033D01*
X24313999Y-100444033D02*
X24266380Y-100539271D01*
X24266380Y-100539271D02*
X24218761Y-100586890D01*
X24218761Y-100586890D02*
X24123523Y-100634509D01*
X24123523Y-100634509D02*
X23790190Y-100634509D01*
X24552095Y-101253557D02*
X25313999Y-101253557D01*
X25504476Y-100253557D02*
X25552095Y-100205938D01*
X25552095Y-100205938D02*
X25647333Y-100158319D01*
X25647333Y-100158319D02*
X25885428Y-100158319D01*
X25885428Y-100158319D02*
X25980666Y-100205938D01*
X25980666Y-100205938D02*
X26028285Y-100253557D01*
X26028285Y-100253557D02*
X26075904Y-100348795D01*
X26075904Y-100348795D02*
X26075904Y-100444033D01*
X26075904Y-100444033D02*
X26028285Y-100586890D01*
X26028285Y-100586890D02*
X25456857Y-101158319D01*
X25456857Y-101158319D02*
X26075904Y-101158319D01*
X26409238Y-100158319D02*
X27075904Y-100158319D01*
X27075904Y-100158319D02*
X26647333Y-101158319D01*
X33361619Y-84198319D02*
X33361619Y-83198319D01*
X33361619Y-83198319D02*
X33694952Y-83912604D01*
X33694952Y-83912604D02*
X34028285Y-83198319D01*
X34028285Y-83198319D02*
X34028285Y-84198319D01*
X34647333Y-84198319D02*
X34552095Y-84150700D01*
X34552095Y-84150700D02*
X34504476Y-84103080D01*
X34504476Y-84103080D02*
X34456857Y-84007842D01*
X34456857Y-84007842D02*
X34456857Y-83722128D01*
X34456857Y-83722128D02*
X34504476Y-83626890D01*
X34504476Y-83626890D02*
X34552095Y-83579271D01*
X34552095Y-83579271D02*
X34647333Y-83531652D01*
X34647333Y-83531652D02*
X34790190Y-83531652D01*
X34790190Y-83531652D02*
X34885428Y-83579271D01*
X34885428Y-83579271D02*
X34933047Y-83626890D01*
X34933047Y-83626890D02*
X34980666Y-83722128D01*
X34980666Y-83722128D02*
X34980666Y-84007842D01*
X34980666Y-84007842D02*
X34933047Y-84103080D01*
X34933047Y-84103080D02*
X34885428Y-84150700D01*
X34885428Y-84150700D02*
X34790190Y-84198319D01*
X34790190Y-84198319D02*
X34647333Y-84198319D01*
X35837809Y-83531652D02*
X35837809Y-84198319D01*
X35409238Y-83531652D02*
X35409238Y-84055461D01*
X35409238Y-84055461D02*
X35456857Y-84150700D01*
X35456857Y-84150700D02*
X35552095Y-84198319D01*
X35552095Y-84198319D02*
X35694952Y-84198319D01*
X35694952Y-84198319D02*
X35790190Y-84150700D01*
X35790190Y-84150700D02*
X35837809Y-84103080D01*
X36314000Y-83531652D02*
X36314000Y-84198319D01*
X36314000Y-83626890D02*
X36361619Y-83579271D01*
X36361619Y-83579271D02*
X36456857Y-83531652D01*
X36456857Y-83531652D02*
X36599714Y-83531652D01*
X36599714Y-83531652D02*
X36694952Y-83579271D01*
X36694952Y-83579271D02*
X36742571Y-83674509D01*
X36742571Y-83674509D02*
X36742571Y-84198319D01*
X37075905Y-83531652D02*
X37456857Y-83531652D01*
X37218762Y-83198319D02*
X37218762Y-84055461D01*
X37218762Y-84055461D02*
X37266381Y-84150700D01*
X37266381Y-84150700D02*
X37361619Y-84198319D01*
X37361619Y-84198319D02*
X37456857Y-84198319D01*
X37694953Y-83198319D02*
X38361619Y-83198319D01*
X38361619Y-83198319D02*
X37933048Y-84198319D01*
X40886142Y-101756080D02*
X40838523Y-101803700D01*
X40838523Y-101803700D02*
X40695666Y-101851319D01*
X40695666Y-101851319D02*
X40600428Y-101851319D01*
X40600428Y-101851319D02*
X40457571Y-101803700D01*
X40457571Y-101803700D02*
X40362333Y-101708461D01*
X40362333Y-101708461D02*
X40314714Y-101613223D01*
X40314714Y-101613223D02*
X40267095Y-101422747D01*
X40267095Y-101422747D02*
X40267095Y-101279890D01*
X40267095Y-101279890D02*
X40314714Y-101089414D01*
X40314714Y-101089414D02*
X40362333Y-100994176D01*
X40362333Y-100994176D02*
X40457571Y-100898938D01*
X40457571Y-100898938D02*
X40600428Y-100851319D01*
X40600428Y-100851319D02*
X40695666Y-100851319D01*
X40695666Y-100851319D02*
X40838523Y-100898938D01*
X40838523Y-100898938D02*
X40886142Y-100946557D01*
X41838523Y-101851319D02*
X41267095Y-101851319D01*
X41552809Y-101851319D02*
X41552809Y-100851319D01*
X41552809Y-100851319D02*
X41457571Y-100994176D01*
X41457571Y-100994176D02*
X41362333Y-101089414D01*
X41362333Y-101089414D02*
X41267095Y-101137033D01*
X42695666Y-101184652D02*
X42695666Y-101851319D01*
X42457571Y-100803700D02*
X42219476Y-101517985D01*
X42219476Y-101517985D02*
X42838523Y-101517985D01*
X44647333Y-87358319D02*
X44647333Y-86358319D01*
X44647333Y-86358319D02*
X44980666Y-87072604D01*
X44980666Y-87072604D02*
X45313999Y-86358319D01*
X45313999Y-86358319D02*
X45313999Y-87358319D01*
X46123523Y-86834509D02*
X46266380Y-86882128D01*
X46266380Y-86882128D02*
X46313999Y-86929747D01*
X46313999Y-86929747D02*
X46361618Y-87024985D01*
X46361618Y-87024985D02*
X46361618Y-87167842D01*
X46361618Y-87167842D02*
X46313999Y-87263080D01*
X46313999Y-87263080D02*
X46266380Y-87310700D01*
X46266380Y-87310700D02*
X46171142Y-87358319D01*
X46171142Y-87358319D02*
X45790190Y-87358319D01*
X45790190Y-87358319D02*
X45790190Y-86358319D01*
X45790190Y-86358319D02*
X46123523Y-86358319D01*
X46123523Y-86358319D02*
X46218761Y-86405938D01*
X46218761Y-86405938D02*
X46266380Y-86453557D01*
X46266380Y-86453557D02*
X46313999Y-86548795D01*
X46313999Y-86548795D02*
X46313999Y-86644033D01*
X46313999Y-86644033D02*
X46266380Y-86739271D01*
X46266380Y-86739271D02*
X46218761Y-86786890D01*
X46218761Y-86786890D02*
X46123523Y-86834509D01*
X46123523Y-86834509D02*
X45790190Y-86834509D01*
X46552095Y-87453557D02*
X47313999Y-87453557D01*
X47504476Y-86453557D02*
X47552095Y-86405938D01*
X47552095Y-86405938D02*
X47647333Y-86358319D01*
X47647333Y-86358319D02*
X47885428Y-86358319D01*
X47885428Y-86358319D02*
X47980666Y-86405938D01*
X47980666Y-86405938D02*
X48028285Y-86453557D01*
X48028285Y-86453557D02*
X48075904Y-86548795D01*
X48075904Y-86548795D02*
X48075904Y-86644033D01*
X48075904Y-86644033D02*
X48028285Y-86786890D01*
X48028285Y-86786890D02*
X47456857Y-87358319D01*
X47456857Y-87358319D02*
X48075904Y-87358319D01*
X48933047Y-86358319D02*
X48742571Y-86358319D01*
X48742571Y-86358319D02*
X48647333Y-86405938D01*
X48647333Y-86405938D02*
X48599714Y-86453557D01*
X48599714Y-86453557D02*
X48504476Y-86596414D01*
X48504476Y-86596414D02*
X48456857Y-86786890D01*
X48456857Y-86786890D02*
X48456857Y-87167842D01*
X48456857Y-87167842D02*
X48504476Y-87263080D01*
X48504476Y-87263080D02*
X48552095Y-87310700D01*
X48552095Y-87310700D02*
X48647333Y-87358319D01*
X48647333Y-87358319D02*
X48837809Y-87358319D01*
X48837809Y-87358319D02*
X48933047Y-87310700D01*
X48933047Y-87310700D02*
X48980666Y-87263080D01*
X48980666Y-87263080D02*
X49028285Y-87167842D01*
X49028285Y-87167842D02*
X49028285Y-86929747D01*
X49028285Y-86929747D02*
X48980666Y-86834509D01*
X48980666Y-86834509D02*
X48933047Y-86786890D01*
X48933047Y-86786890D02*
X48837809Y-86739271D01*
X48837809Y-86739271D02*
X48647333Y-86739271D01*
X48647333Y-86739271D02*
X48552095Y-86786890D01*
X48552095Y-86786890D02*
X48504476Y-86834509D01*
X48504476Y-86834509D02*
X48456857Y-86929747D01*
X35052095Y-95958319D02*
X35052095Y-96767842D01*
X35052095Y-96767842D02*
X35099714Y-96863080D01*
X35099714Y-96863080D02*
X35147333Y-96910700D01*
X35147333Y-96910700D02*
X35242571Y-96958319D01*
X35242571Y-96958319D02*
X35433047Y-96958319D01*
X35433047Y-96958319D02*
X35528285Y-96910700D01*
X35528285Y-96910700D02*
X35575904Y-96863080D01*
X35575904Y-96863080D02*
X35623523Y-96767842D01*
X35623523Y-96767842D02*
X35623523Y-95958319D01*
X36004476Y-95958319D02*
X36671142Y-95958319D01*
X36671142Y-95958319D02*
X36242571Y-96958319D01*
X38822333Y-101729819D02*
X38489000Y-101253628D01*
X38250905Y-101729819D02*
X38250905Y-100729819D01*
X38250905Y-100729819D02*
X38631857Y-100729819D01*
X38631857Y-100729819D02*
X38727095Y-100777438D01*
X38727095Y-100777438D02*
X38774714Y-100825057D01*
X38774714Y-100825057D02*
X38822333Y-100920295D01*
X38822333Y-100920295D02*
X38822333Y-101063152D01*
X38822333Y-101063152D02*
X38774714Y-101158390D01*
X38774714Y-101158390D02*
X38727095Y-101206009D01*
X38727095Y-101206009D02*
X38631857Y-101253628D01*
X38631857Y-101253628D02*
X38250905Y-101253628D01*
X39155667Y-100729819D02*
X39822333Y-100729819D01*
X39822333Y-100729819D02*
X39393762Y-101729819D01*
X44647333Y-101158319D02*
X44647333Y-100158319D01*
X44647333Y-100158319D02*
X44980666Y-100872604D01*
X44980666Y-100872604D02*
X45313999Y-100158319D01*
X45313999Y-100158319D02*
X45313999Y-101158319D01*
X46123523Y-100634509D02*
X46266380Y-100682128D01*
X46266380Y-100682128D02*
X46313999Y-100729747D01*
X46313999Y-100729747D02*
X46361618Y-100824985D01*
X46361618Y-100824985D02*
X46361618Y-100967842D01*
X46361618Y-100967842D02*
X46313999Y-101063080D01*
X46313999Y-101063080D02*
X46266380Y-101110700D01*
X46266380Y-101110700D02*
X46171142Y-101158319D01*
X46171142Y-101158319D02*
X45790190Y-101158319D01*
X45790190Y-101158319D02*
X45790190Y-100158319D01*
X45790190Y-100158319D02*
X46123523Y-100158319D01*
X46123523Y-100158319D02*
X46218761Y-100205938D01*
X46218761Y-100205938D02*
X46266380Y-100253557D01*
X46266380Y-100253557D02*
X46313999Y-100348795D01*
X46313999Y-100348795D02*
X46313999Y-100444033D01*
X46313999Y-100444033D02*
X46266380Y-100539271D01*
X46266380Y-100539271D02*
X46218761Y-100586890D01*
X46218761Y-100586890D02*
X46123523Y-100634509D01*
X46123523Y-100634509D02*
X45790190Y-100634509D01*
X46552095Y-101253557D02*
X47313999Y-101253557D01*
X47504476Y-100253557D02*
X47552095Y-100205938D01*
X47552095Y-100205938D02*
X47647333Y-100158319D01*
X47647333Y-100158319D02*
X47885428Y-100158319D01*
X47885428Y-100158319D02*
X47980666Y-100205938D01*
X47980666Y-100205938D02*
X48028285Y-100253557D01*
X48028285Y-100253557D02*
X48075904Y-100348795D01*
X48075904Y-100348795D02*
X48075904Y-100444033D01*
X48075904Y-100444033D02*
X48028285Y-100586890D01*
X48028285Y-100586890D02*
X47456857Y-101158319D01*
X47456857Y-101158319D02*
X48075904Y-101158319D01*
X48647333Y-100586890D02*
X48552095Y-100539271D01*
X48552095Y-100539271D02*
X48504476Y-100491652D01*
X48504476Y-100491652D02*
X48456857Y-100396414D01*
X48456857Y-100396414D02*
X48456857Y-100348795D01*
X48456857Y-100348795D02*
X48504476Y-100253557D01*
X48504476Y-100253557D02*
X48552095Y-100205938D01*
X48552095Y-100205938D02*
X48647333Y-100158319D01*
X48647333Y-100158319D02*
X48837809Y-100158319D01*
X48837809Y-100158319D02*
X48933047Y-100205938D01*
X48933047Y-100205938D02*
X48980666Y-100253557D01*
X48980666Y-100253557D02*
X49028285Y-100348795D01*
X49028285Y-100348795D02*
X49028285Y-100396414D01*
X49028285Y-100396414D02*
X48980666Y-100491652D01*
X48980666Y-100491652D02*
X48933047Y-100539271D01*
X48933047Y-100539271D02*
X48837809Y-100586890D01*
X48837809Y-100586890D02*
X48647333Y-100586890D01*
X48647333Y-100586890D02*
X48552095Y-100634509D01*
X48552095Y-100634509D02*
X48504476Y-100682128D01*
X48504476Y-100682128D02*
X48456857Y-100777366D01*
X48456857Y-100777366D02*
X48456857Y-100967842D01*
X48456857Y-100967842D02*
X48504476Y-101063080D01*
X48504476Y-101063080D02*
X48552095Y-101110700D01*
X48552095Y-101110700D02*
X48647333Y-101158319D01*
X48647333Y-101158319D02*
X48837809Y-101158319D01*
X48837809Y-101158319D02*
X48933047Y-101110700D01*
X48933047Y-101110700D02*
X48980666Y-101063080D01*
X48980666Y-101063080D02*
X49028285Y-100967842D01*
X49028285Y-100967842D02*
X49028285Y-100777366D01*
X49028285Y-100777366D02*
X48980666Y-100682128D01*
X48980666Y-100682128D02*
X48933047Y-100634509D01*
X48933047Y-100634509D02*
X48837809Y-100586890D01*
X33380142Y-100110580D02*
X33332523Y-100158200D01*
X33332523Y-100158200D02*
X33189666Y-100205819D01*
X33189666Y-100205819D02*
X33094428Y-100205819D01*
X33094428Y-100205819D02*
X32951571Y-100158200D01*
X32951571Y-100158200D02*
X32856333Y-100062961D01*
X32856333Y-100062961D02*
X32808714Y-99967723D01*
X32808714Y-99967723D02*
X32761095Y-99777247D01*
X32761095Y-99777247D02*
X32761095Y-99634390D01*
X32761095Y-99634390D02*
X32808714Y-99443914D01*
X32808714Y-99443914D02*
X32856333Y-99348676D01*
X32856333Y-99348676D02*
X32951571Y-99253438D01*
X32951571Y-99253438D02*
X33094428Y-99205819D01*
X33094428Y-99205819D02*
X33189666Y-99205819D01*
X33189666Y-99205819D02*
X33332523Y-99253438D01*
X33332523Y-99253438D02*
X33380142Y-99301057D01*
X34332523Y-100205819D02*
X33761095Y-100205819D01*
X34046809Y-100205819D02*
X34046809Y-99205819D01*
X34046809Y-99205819D02*
X33951571Y-99348676D01*
X33951571Y-99348676D02*
X33856333Y-99443914D01*
X33856333Y-99443914D02*
X33761095Y-99491533D01*
X34665857Y-99205819D02*
X35284904Y-99205819D01*
X35284904Y-99205819D02*
X34951571Y-99586771D01*
X34951571Y-99586771D02*
X35094428Y-99586771D01*
X35094428Y-99586771D02*
X35189666Y-99634390D01*
X35189666Y-99634390D02*
X35237285Y-99682009D01*
X35237285Y-99682009D02*
X35284904Y-99777247D01*
X35284904Y-99777247D02*
X35284904Y-100015342D01*
X35284904Y-100015342D02*
X35237285Y-100110580D01*
X35237285Y-100110580D02*
X35189666Y-100158200D01*
X35189666Y-100158200D02*
X35094428Y-100205819D01*
X35094428Y-100205819D02*
X34808714Y-100205819D01*
X34808714Y-100205819D02*
X34713476Y-100158200D01*
X34713476Y-100158200D02*
X34665857Y-100110580D01*
X22647333Y-87358319D02*
X22647333Y-86358319D01*
X22647333Y-86358319D02*
X22980666Y-87072604D01*
X22980666Y-87072604D02*
X23313999Y-86358319D01*
X23313999Y-86358319D02*
X23313999Y-87358319D01*
X24123523Y-86834509D02*
X24266380Y-86882128D01*
X24266380Y-86882128D02*
X24313999Y-86929747D01*
X24313999Y-86929747D02*
X24361618Y-87024985D01*
X24361618Y-87024985D02*
X24361618Y-87167842D01*
X24361618Y-87167842D02*
X24313999Y-87263080D01*
X24313999Y-87263080D02*
X24266380Y-87310700D01*
X24266380Y-87310700D02*
X24171142Y-87358319D01*
X24171142Y-87358319D02*
X23790190Y-87358319D01*
X23790190Y-87358319D02*
X23790190Y-86358319D01*
X23790190Y-86358319D02*
X24123523Y-86358319D01*
X24123523Y-86358319D02*
X24218761Y-86405938D01*
X24218761Y-86405938D02*
X24266380Y-86453557D01*
X24266380Y-86453557D02*
X24313999Y-86548795D01*
X24313999Y-86548795D02*
X24313999Y-86644033D01*
X24313999Y-86644033D02*
X24266380Y-86739271D01*
X24266380Y-86739271D02*
X24218761Y-86786890D01*
X24218761Y-86786890D02*
X24123523Y-86834509D01*
X24123523Y-86834509D02*
X23790190Y-86834509D01*
X24552095Y-87453557D02*
X25313999Y-87453557D01*
X25504476Y-86453557D02*
X25552095Y-86405938D01*
X25552095Y-86405938D02*
X25647333Y-86358319D01*
X25647333Y-86358319D02*
X25885428Y-86358319D01*
X25885428Y-86358319D02*
X25980666Y-86405938D01*
X25980666Y-86405938D02*
X26028285Y-86453557D01*
X26028285Y-86453557D02*
X26075904Y-86548795D01*
X26075904Y-86548795D02*
X26075904Y-86644033D01*
X26075904Y-86644033D02*
X26028285Y-86786890D01*
X26028285Y-86786890D02*
X25456857Y-87358319D01*
X25456857Y-87358319D02*
X26075904Y-87358319D01*
X26980666Y-86358319D02*
X26504476Y-86358319D01*
X26504476Y-86358319D02*
X26456857Y-86834509D01*
X26456857Y-86834509D02*
X26504476Y-86786890D01*
X26504476Y-86786890D02*
X26599714Y-86739271D01*
X26599714Y-86739271D02*
X26837809Y-86739271D01*
X26837809Y-86739271D02*
X26933047Y-86786890D01*
X26933047Y-86786890D02*
X26980666Y-86834509D01*
X26980666Y-86834509D02*
X27028285Y-86929747D01*
X27028285Y-86929747D02*
X27028285Y-87167842D01*
X27028285Y-87167842D02*
X26980666Y-87263080D01*
X26980666Y-87263080D02*
X26933047Y-87310700D01*
X26933047Y-87310700D02*
X26837809Y-87358319D01*
X26837809Y-87358319D02*
X26599714Y-87358319D01*
X26599714Y-87358319D02*
X26504476Y-87310700D01*
X26504476Y-87310700D02*
X26456857Y-87263080D01*
X100138819Y-76936833D02*
X100853104Y-76936833D01*
X100853104Y-76936833D02*
X100995961Y-76984452D01*
X100995961Y-76984452D02*
X101091200Y-77079690D01*
X101091200Y-77079690D02*
X101138819Y-77222547D01*
X101138819Y-77222547D02*
X101138819Y-77317785D01*
X100138819Y-76032071D02*
X100138819Y-76222547D01*
X100138819Y-76222547D02*
X100186438Y-76317785D01*
X100186438Y-76317785D02*
X100234057Y-76365404D01*
X100234057Y-76365404D02*
X100376914Y-76460642D01*
X100376914Y-76460642D02*
X100567390Y-76508261D01*
X100567390Y-76508261D02*
X100948342Y-76508261D01*
X100948342Y-76508261D02*
X101043580Y-76460642D01*
X101043580Y-76460642D02*
X101091200Y-76413023D01*
X101091200Y-76413023D02*
X101138819Y-76317785D01*
X101138819Y-76317785D02*
X101138819Y-76127309D01*
X101138819Y-76127309D02*
X101091200Y-76032071D01*
X101091200Y-76032071D02*
X101043580Y-75984452D01*
X101043580Y-75984452D02*
X100948342Y-75936833D01*
X100948342Y-75936833D02*
X100710247Y-75936833D01*
X100710247Y-75936833D02*
X100615009Y-75984452D01*
X100615009Y-75984452D02*
X100567390Y-76032071D01*
X100567390Y-76032071D02*
X100519771Y-76127309D01*
X100519771Y-76127309D02*
X100519771Y-76317785D01*
X100519771Y-76317785D02*
X100567390Y-76413023D01*
X100567390Y-76413023D02*
X100615009Y-76460642D01*
X100615009Y-76460642D02*
X100710247Y-76508261D01*
X82647333Y-71158319D02*
X82647333Y-70158319D01*
X82647333Y-70158319D02*
X82980666Y-70872604D01*
X82980666Y-70872604D02*
X83313999Y-70158319D01*
X83313999Y-70158319D02*
X83313999Y-71158319D01*
X84123523Y-70634509D02*
X84266380Y-70682128D01*
X84266380Y-70682128D02*
X84313999Y-70729747D01*
X84313999Y-70729747D02*
X84361618Y-70824985D01*
X84361618Y-70824985D02*
X84361618Y-70967842D01*
X84361618Y-70967842D02*
X84313999Y-71063080D01*
X84313999Y-71063080D02*
X84266380Y-71110700D01*
X84266380Y-71110700D02*
X84171142Y-71158319D01*
X84171142Y-71158319D02*
X83790190Y-71158319D01*
X83790190Y-71158319D02*
X83790190Y-70158319D01*
X83790190Y-70158319D02*
X84123523Y-70158319D01*
X84123523Y-70158319D02*
X84218761Y-70205938D01*
X84218761Y-70205938D02*
X84266380Y-70253557D01*
X84266380Y-70253557D02*
X84313999Y-70348795D01*
X84313999Y-70348795D02*
X84313999Y-70444033D01*
X84313999Y-70444033D02*
X84266380Y-70539271D01*
X84266380Y-70539271D02*
X84218761Y-70586890D01*
X84218761Y-70586890D02*
X84123523Y-70634509D01*
X84123523Y-70634509D02*
X83790190Y-70634509D01*
X84552095Y-71253557D02*
X85313999Y-71253557D01*
X85504476Y-70253557D02*
X85552095Y-70205938D01*
X85552095Y-70205938D02*
X85647333Y-70158319D01*
X85647333Y-70158319D02*
X85885428Y-70158319D01*
X85885428Y-70158319D02*
X85980666Y-70205938D01*
X85980666Y-70205938D02*
X86028285Y-70253557D01*
X86028285Y-70253557D02*
X86075904Y-70348795D01*
X86075904Y-70348795D02*
X86075904Y-70444033D01*
X86075904Y-70444033D02*
X86028285Y-70586890D01*
X86028285Y-70586890D02*
X85456857Y-71158319D01*
X85456857Y-71158319D02*
X86075904Y-71158319D01*
X86409238Y-70158319D02*
X87028285Y-70158319D01*
X87028285Y-70158319D02*
X86694952Y-70539271D01*
X86694952Y-70539271D02*
X86837809Y-70539271D01*
X86837809Y-70539271D02*
X86933047Y-70586890D01*
X86933047Y-70586890D02*
X86980666Y-70634509D01*
X86980666Y-70634509D02*
X87028285Y-70729747D01*
X87028285Y-70729747D02*
X87028285Y-70967842D01*
X87028285Y-70967842D02*
X86980666Y-71063080D01*
X86980666Y-71063080D02*
X86933047Y-71110700D01*
X86933047Y-71110700D02*
X86837809Y-71158319D01*
X86837809Y-71158319D02*
X86552095Y-71158319D01*
X86552095Y-71158319D02*
X86456857Y-71110700D01*
X86456857Y-71110700D02*
X86409238Y-71063080D01*
X93361619Y-54198319D02*
X93361619Y-53198319D01*
X93361619Y-53198319D02*
X93694952Y-53912604D01*
X93694952Y-53912604D02*
X94028285Y-53198319D01*
X94028285Y-53198319D02*
X94028285Y-54198319D01*
X94647333Y-54198319D02*
X94552095Y-54150700D01*
X94552095Y-54150700D02*
X94504476Y-54103080D01*
X94504476Y-54103080D02*
X94456857Y-54007842D01*
X94456857Y-54007842D02*
X94456857Y-53722128D01*
X94456857Y-53722128D02*
X94504476Y-53626890D01*
X94504476Y-53626890D02*
X94552095Y-53579271D01*
X94552095Y-53579271D02*
X94647333Y-53531652D01*
X94647333Y-53531652D02*
X94790190Y-53531652D01*
X94790190Y-53531652D02*
X94885428Y-53579271D01*
X94885428Y-53579271D02*
X94933047Y-53626890D01*
X94933047Y-53626890D02*
X94980666Y-53722128D01*
X94980666Y-53722128D02*
X94980666Y-54007842D01*
X94980666Y-54007842D02*
X94933047Y-54103080D01*
X94933047Y-54103080D02*
X94885428Y-54150700D01*
X94885428Y-54150700D02*
X94790190Y-54198319D01*
X94790190Y-54198319D02*
X94647333Y-54198319D01*
X95837809Y-53531652D02*
X95837809Y-54198319D01*
X95409238Y-53531652D02*
X95409238Y-54055461D01*
X95409238Y-54055461D02*
X95456857Y-54150700D01*
X95456857Y-54150700D02*
X95552095Y-54198319D01*
X95552095Y-54198319D02*
X95694952Y-54198319D01*
X95694952Y-54198319D02*
X95790190Y-54150700D01*
X95790190Y-54150700D02*
X95837809Y-54103080D01*
X96314000Y-53531652D02*
X96314000Y-54198319D01*
X96314000Y-53626890D02*
X96361619Y-53579271D01*
X96361619Y-53579271D02*
X96456857Y-53531652D01*
X96456857Y-53531652D02*
X96599714Y-53531652D01*
X96599714Y-53531652D02*
X96694952Y-53579271D01*
X96694952Y-53579271D02*
X96742571Y-53674509D01*
X96742571Y-53674509D02*
X96742571Y-54198319D01*
X97075905Y-53531652D02*
X97456857Y-53531652D01*
X97218762Y-53198319D02*
X97218762Y-54055461D01*
X97218762Y-54055461D02*
X97266381Y-54150700D01*
X97266381Y-54150700D02*
X97361619Y-54198319D01*
X97361619Y-54198319D02*
X97456857Y-54198319D01*
X98218762Y-53198319D02*
X98028286Y-53198319D01*
X98028286Y-53198319D02*
X97933048Y-53245938D01*
X97933048Y-53245938D02*
X97885429Y-53293557D01*
X97885429Y-53293557D02*
X97790191Y-53436414D01*
X97790191Y-53436414D02*
X97742572Y-53626890D01*
X97742572Y-53626890D02*
X97742572Y-54007842D01*
X97742572Y-54007842D02*
X97790191Y-54103080D01*
X97790191Y-54103080D02*
X97837810Y-54150700D01*
X97837810Y-54150700D02*
X97933048Y-54198319D01*
X97933048Y-54198319D02*
X98123524Y-54198319D01*
X98123524Y-54198319D02*
X98218762Y-54150700D01*
X98218762Y-54150700D02*
X98266381Y-54103080D01*
X98266381Y-54103080D02*
X98314000Y-54007842D01*
X98314000Y-54007842D02*
X98314000Y-53769747D01*
X98314000Y-53769747D02*
X98266381Y-53674509D01*
X98266381Y-53674509D02*
X98218762Y-53626890D01*
X98218762Y-53626890D02*
X98123524Y-53579271D01*
X98123524Y-53579271D02*
X97933048Y-53579271D01*
X97933048Y-53579271D02*
X97837810Y-53626890D01*
X97837810Y-53626890D02*
X97790191Y-53674509D01*
X97790191Y-53674509D02*
X97742572Y-53769747D01*
X100886142Y-71756080D02*
X100838523Y-71803700D01*
X100838523Y-71803700D02*
X100695666Y-71851319D01*
X100695666Y-71851319D02*
X100600428Y-71851319D01*
X100600428Y-71851319D02*
X100457571Y-71803700D01*
X100457571Y-71803700D02*
X100362333Y-71708461D01*
X100362333Y-71708461D02*
X100314714Y-71613223D01*
X100314714Y-71613223D02*
X100267095Y-71422747D01*
X100267095Y-71422747D02*
X100267095Y-71279890D01*
X100267095Y-71279890D02*
X100314714Y-71089414D01*
X100314714Y-71089414D02*
X100362333Y-70994176D01*
X100362333Y-70994176D02*
X100457571Y-70898938D01*
X100457571Y-70898938D02*
X100600428Y-70851319D01*
X100600428Y-70851319D02*
X100695666Y-70851319D01*
X100695666Y-70851319D02*
X100838523Y-70898938D01*
X100838523Y-70898938D02*
X100886142Y-70946557D01*
X101838523Y-71851319D02*
X101267095Y-71851319D01*
X101552809Y-71851319D02*
X101552809Y-70851319D01*
X101552809Y-70851319D02*
X101457571Y-70994176D01*
X101457571Y-70994176D02*
X101362333Y-71089414D01*
X101362333Y-71089414D02*
X101267095Y-71137033D01*
X102219476Y-70946557D02*
X102267095Y-70898938D01*
X102267095Y-70898938D02*
X102362333Y-70851319D01*
X102362333Y-70851319D02*
X102600428Y-70851319D01*
X102600428Y-70851319D02*
X102695666Y-70898938D01*
X102695666Y-70898938D02*
X102743285Y-70946557D01*
X102743285Y-70946557D02*
X102790904Y-71041795D01*
X102790904Y-71041795D02*
X102790904Y-71137033D01*
X102790904Y-71137033D02*
X102743285Y-71279890D01*
X102743285Y-71279890D02*
X102171857Y-71851319D01*
X102171857Y-71851319D02*
X102790904Y-71851319D01*
X104647333Y-57358319D02*
X104647333Y-56358319D01*
X104647333Y-56358319D02*
X104980666Y-57072604D01*
X104980666Y-57072604D02*
X105313999Y-56358319D01*
X105313999Y-56358319D02*
X105313999Y-57358319D01*
X106123523Y-56834509D02*
X106266380Y-56882128D01*
X106266380Y-56882128D02*
X106313999Y-56929747D01*
X106313999Y-56929747D02*
X106361618Y-57024985D01*
X106361618Y-57024985D02*
X106361618Y-57167842D01*
X106361618Y-57167842D02*
X106313999Y-57263080D01*
X106313999Y-57263080D02*
X106266380Y-57310700D01*
X106266380Y-57310700D02*
X106171142Y-57358319D01*
X106171142Y-57358319D02*
X105790190Y-57358319D01*
X105790190Y-57358319D02*
X105790190Y-56358319D01*
X105790190Y-56358319D02*
X106123523Y-56358319D01*
X106123523Y-56358319D02*
X106218761Y-56405938D01*
X106218761Y-56405938D02*
X106266380Y-56453557D01*
X106266380Y-56453557D02*
X106313999Y-56548795D01*
X106313999Y-56548795D02*
X106313999Y-56644033D01*
X106313999Y-56644033D02*
X106266380Y-56739271D01*
X106266380Y-56739271D02*
X106218761Y-56786890D01*
X106218761Y-56786890D02*
X106123523Y-56834509D01*
X106123523Y-56834509D02*
X105790190Y-56834509D01*
X106552095Y-57453557D02*
X107313999Y-57453557D01*
X107504476Y-56453557D02*
X107552095Y-56405938D01*
X107552095Y-56405938D02*
X107647333Y-56358319D01*
X107647333Y-56358319D02*
X107885428Y-56358319D01*
X107885428Y-56358319D02*
X107980666Y-56405938D01*
X107980666Y-56405938D02*
X108028285Y-56453557D01*
X108028285Y-56453557D02*
X108075904Y-56548795D01*
X108075904Y-56548795D02*
X108075904Y-56644033D01*
X108075904Y-56644033D02*
X108028285Y-56786890D01*
X108028285Y-56786890D02*
X107456857Y-57358319D01*
X107456857Y-57358319D02*
X108075904Y-57358319D01*
X108456857Y-56453557D02*
X108504476Y-56405938D01*
X108504476Y-56405938D02*
X108599714Y-56358319D01*
X108599714Y-56358319D02*
X108837809Y-56358319D01*
X108837809Y-56358319D02*
X108933047Y-56405938D01*
X108933047Y-56405938D02*
X108980666Y-56453557D01*
X108980666Y-56453557D02*
X109028285Y-56548795D01*
X109028285Y-56548795D02*
X109028285Y-56644033D01*
X109028285Y-56644033D02*
X108980666Y-56786890D01*
X108980666Y-56786890D02*
X108409238Y-57358319D01*
X108409238Y-57358319D02*
X109028285Y-57358319D01*
X95052095Y-65958319D02*
X95052095Y-66767842D01*
X95052095Y-66767842D02*
X95099714Y-66863080D01*
X95099714Y-66863080D02*
X95147333Y-66910700D01*
X95147333Y-66910700D02*
X95242571Y-66958319D01*
X95242571Y-66958319D02*
X95433047Y-66958319D01*
X95433047Y-66958319D02*
X95528285Y-66910700D01*
X95528285Y-66910700D02*
X95575904Y-66863080D01*
X95575904Y-66863080D02*
X95623523Y-66767842D01*
X95623523Y-66767842D02*
X95623523Y-65958319D01*
X96528285Y-65958319D02*
X96337809Y-65958319D01*
X96337809Y-65958319D02*
X96242571Y-66005938D01*
X96242571Y-66005938D02*
X96194952Y-66053557D01*
X96194952Y-66053557D02*
X96099714Y-66196414D01*
X96099714Y-66196414D02*
X96052095Y-66386890D01*
X96052095Y-66386890D02*
X96052095Y-66767842D01*
X96052095Y-66767842D02*
X96099714Y-66863080D01*
X96099714Y-66863080D02*
X96147333Y-66910700D01*
X96147333Y-66910700D02*
X96242571Y-66958319D01*
X96242571Y-66958319D02*
X96433047Y-66958319D01*
X96433047Y-66958319D02*
X96528285Y-66910700D01*
X96528285Y-66910700D02*
X96575904Y-66863080D01*
X96575904Y-66863080D02*
X96623523Y-66767842D01*
X96623523Y-66767842D02*
X96623523Y-66529747D01*
X96623523Y-66529747D02*
X96575904Y-66434509D01*
X96575904Y-66434509D02*
X96528285Y-66386890D01*
X96528285Y-66386890D02*
X96433047Y-66339271D01*
X96433047Y-66339271D02*
X96242571Y-66339271D01*
X96242571Y-66339271D02*
X96147333Y-66386890D01*
X96147333Y-66386890D02*
X96099714Y-66434509D01*
X96099714Y-66434509D02*
X96052095Y-66529747D01*
X98822333Y-71729819D02*
X98489000Y-71253628D01*
X98250905Y-71729819D02*
X98250905Y-70729819D01*
X98250905Y-70729819D02*
X98631857Y-70729819D01*
X98631857Y-70729819D02*
X98727095Y-70777438D01*
X98727095Y-70777438D02*
X98774714Y-70825057D01*
X98774714Y-70825057D02*
X98822333Y-70920295D01*
X98822333Y-70920295D02*
X98822333Y-71063152D01*
X98822333Y-71063152D02*
X98774714Y-71158390D01*
X98774714Y-71158390D02*
X98727095Y-71206009D01*
X98727095Y-71206009D02*
X98631857Y-71253628D01*
X98631857Y-71253628D02*
X98250905Y-71253628D01*
X99679476Y-70729819D02*
X99489000Y-70729819D01*
X99489000Y-70729819D02*
X99393762Y-70777438D01*
X99393762Y-70777438D02*
X99346143Y-70825057D01*
X99346143Y-70825057D02*
X99250905Y-70967914D01*
X99250905Y-70967914D02*
X99203286Y-71158390D01*
X99203286Y-71158390D02*
X99203286Y-71539342D01*
X99203286Y-71539342D02*
X99250905Y-71634580D01*
X99250905Y-71634580D02*
X99298524Y-71682200D01*
X99298524Y-71682200D02*
X99393762Y-71729819D01*
X99393762Y-71729819D02*
X99584238Y-71729819D01*
X99584238Y-71729819D02*
X99679476Y-71682200D01*
X99679476Y-71682200D02*
X99727095Y-71634580D01*
X99727095Y-71634580D02*
X99774714Y-71539342D01*
X99774714Y-71539342D02*
X99774714Y-71301247D01*
X99774714Y-71301247D02*
X99727095Y-71206009D01*
X99727095Y-71206009D02*
X99679476Y-71158390D01*
X99679476Y-71158390D02*
X99584238Y-71110771D01*
X99584238Y-71110771D02*
X99393762Y-71110771D01*
X99393762Y-71110771D02*
X99298524Y-71158390D01*
X99298524Y-71158390D02*
X99250905Y-71206009D01*
X99250905Y-71206009D02*
X99203286Y-71301247D01*
X104647333Y-71158319D02*
X104647333Y-70158319D01*
X104647333Y-70158319D02*
X104980666Y-70872604D01*
X104980666Y-70872604D02*
X105313999Y-70158319D01*
X105313999Y-70158319D02*
X105313999Y-71158319D01*
X106123523Y-70634509D02*
X106266380Y-70682128D01*
X106266380Y-70682128D02*
X106313999Y-70729747D01*
X106313999Y-70729747D02*
X106361618Y-70824985D01*
X106361618Y-70824985D02*
X106361618Y-70967842D01*
X106361618Y-70967842D02*
X106313999Y-71063080D01*
X106313999Y-71063080D02*
X106266380Y-71110700D01*
X106266380Y-71110700D02*
X106171142Y-71158319D01*
X106171142Y-71158319D02*
X105790190Y-71158319D01*
X105790190Y-71158319D02*
X105790190Y-70158319D01*
X105790190Y-70158319D02*
X106123523Y-70158319D01*
X106123523Y-70158319D02*
X106218761Y-70205938D01*
X106218761Y-70205938D02*
X106266380Y-70253557D01*
X106266380Y-70253557D02*
X106313999Y-70348795D01*
X106313999Y-70348795D02*
X106313999Y-70444033D01*
X106313999Y-70444033D02*
X106266380Y-70539271D01*
X106266380Y-70539271D02*
X106218761Y-70586890D01*
X106218761Y-70586890D02*
X106123523Y-70634509D01*
X106123523Y-70634509D02*
X105790190Y-70634509D01*
X106552095Y-71253557D02*
X107313999Y-71253557D01*
X107504476Y-70253557D02*
X107552095Y-70205938D01*
X107552095Y-70205938D02*
X107647333Y-70158319D01*
X107647333Y-70158319D02*
X107885428Y-70158319D01*
X107885428Y-70158319D02*
X107980666Y-70205938D01*
X107980666Y-70205938D02*
X108028285Y-70253557D01*
X108028285Y-70253557D02*
X108075904Y-70348795D01*
X108075904Y-70348795D02*
X108075904Y-70444033D01*
X108075904Y-70444033D02*
X108028285Y-70586890D01*
X108028285Y-70586890D02*
X107456857Y-71158319D01*
X107456857Y-71158319D02*
X108075904Y-71158319D01*
X108933047Y-70491652D02*
X108933047Y-71158319D01*
X108694952Y-70110700D02*
X108456857Y-70824985D01*
X108456857Y-70824985D02*
X109075904Y-70824985D01*
X93380142Y-70110580D02*
X93332523Y-70158200D01*
X93332523Y-70158200D02*
X93189666Y-70205819D01*
X93189666Y-70205819D02*
X93094428Y-70205819D01*
X93094428Y-70205819D02*
X92951571Y-70158200D01*
X92951571Y-70158200D02*
X92856333Y-70062961D01*
X92856333Y-70062961D02*
X92808714Y-69967723D01*
X92808714Y-69967723D02*
X92761095Y-69777247D01*
X92761095Y-69777247D02*
X92761095Y-69634390D01*
X92761095Y-69634390D02*
X92808714Y-69443914D01*
X92808714Y-69443914D02*
X92856333Y-69348676D01*
X92856333Y-69348676D02*
X92951571Y-69253438D01*
X92951571Y-69253438D02*
X93094428Y-69205819D01*
X93094428Y-69205819D02*
X93189666Y-69205819D01*
X93189666Y-69205819D02*
X93332523Y-69253438D01*
X93332523Y-69253438D02*
X93380142Y-69301057D01*
X94332523Y-70205819D02*
X93761095Y-70205819D01*
X94046809Y-70205819D02*
X94046809Y-69205819D01*
X94046809Y-69205819D02*
X93951571Y-69348676D01*
X93951571Y-69348676D02*
X93856333Y-69443914D01*
X93856333Y-69443914D02*
X93761095Y-69491533D01*
X95284904Y-70205819D02*
X94713476Y-70205819D01*
X94999190Y-70205819D02*
X94999190Y-69205819D01*
X94999190Y-69205819D02*
X94903952Y-69348676D01*
X94903952Y-69348676D02*
X94808714Y-69443914D01*
X94808714Y-69443914D02*
X94713476Y-69491533D01*
X82647333Y-57358319D02*
X82647333Y-56358319D01*
X82647333Y-56358319D02*
X82980666Y-57072604D01*
X82980666Y-57072604D02*
X83313999Y-56358319D01*
X83313999Y-56358319D02*
X83313999Y-57358319D01*
X84123523Y-56834509D02*
X84266380Y-56882128D01*
X84266380Y-56882128D02*
X84313999Y-56929747D01*
X84313999Y-56929747D02*
X84361618Y-57024985D01*
X84361618Y-57024985D02*
X84361618Y-57167842D01*
X84361618Y-57167842D02*
X84313999Y-57263080D01*
X84313999Y-57263080D02*
X84266380Y-57310700D01*
X84266380Y-57310700D02*
X84171142Y-57358319D01*
X84171142Y-57358319D02*
X83790190Y-57358319D01*
X83790190Y-57358319D02*
X83790190Y-56358319D01*
X83790190Y-56358319D02*
X84123523Y-56358319D01*
X84123523Y-56358319D02*
X84218761Y-56405938D01*
X84218761Y-56405938D02*
X84266380Y-56453557D01*
X84266380Y-56453557D02*
X84313999Y-56548795D01*
X84313999Y-56548795D02*
X84313999Y-56644033D01*
X84313999Y-56644033D02*
X84266380Y-56739271D01*
X84266380Y-56739271D02*
X84218761Y-56786890D01*
X84218761Y-56786890D02*
X84123523Y-56834509D01*
X84123523Y-56834509D02*
X83790190Y-56834509D01*
X84552095Y-57453557D02*
X85313999Y-57453557D01*
X85504476Y-56453557D02*
X85552095Y-56405938D01*
X85552095Y-56405938D02*
X85647333Y-56358319D01*
X85647333Y-56358319D02*
X85885428Y-56358319D01*
X85885428Y-56358319D02*
X85980666Y-56405938D01*
X85980666Y-56405938D02*
X86028285Y-56453557D01*
X86028285Y-56453557D02*
X86075904Y-56548795D01*
X86075904Y-56548795D02*
X86075904Y-56644033D01*
X86075904Y-56644033D02*
X86028285Y-56786890D01*
X86028285Y-56786890D02*
X85456857Y-57358319D01*
X85456857Y-57358319D02*
X86075904Y-57358319D01*
X87028285Y-57358319D02*
X86456857Y-57358319D01*
X86742571Y-57358319D02*
X86742571Y-56358319D01*
X86742571Y-56358319D02*
X86647333Y-56501176D01*
X86647333Y-56501176D02*
X86552095Y-56596414D01*
X86552095Y-56596414D02*
X86456857Y-56644033D01*
X70138819Y-76936833D02*
X70853104Y-76936833D01*
X70853104Y-76936833D02*
X70995961Y-76984452D01*
X70995961Y-76984452D02*
X71091200Y-77079690D01*
X71091200Y-77079690D02*
X71138819Y-77222547D01*
X71138819Y-77222547D02*
X71138819Y-77317785D01*
X70138819Y-75984452D02*
X70138819Y-76460642D01*
X70138819Y-76460642D02*
X70615009Y-76508261D01*
X70615009Y-76508261D02*
X70567390Y-76460642D01*
X70567390Y-76460642D02*
X70519771Y-76365404D01*
X70519771Y-76365404D02*
X70519771Y-76127309D01*
X70519771Y-76127309D02*
X70567390Y-76032071D01*
X70567390Y-76032071D02*
X70615009Y-75984452D01*
X70615009Y-75984452D02*
X70710247Y-75936833D01*
X70710247Y-75936833D02*
X70948342Y-75936833D01*
X70948342Y-75936833D02*
X71043580Y-75984452D01*
X71043580Y-75984452D02*
X71091200Y-76032071D01*
X71091200Y-76032071D02*
X71138819Y-76127309D01*
X71138819Y-76127309D02*
X71138819Y-76365404D01*
X71138819Y-76365404D02*
X71091200Y-76460642D01*
X71091200Y-76460642D02*
X71043580Y-76508261D01*
X52647333Y-71158319D02*
X52647333Y-70158319D01*
X52647333Y-70158319D02*
X52980666Y-70872604D01*
X52980666Y-70872604D02*
X53313999Y-70158319D01*
X53313999Y-70158319D02*
X53313999Y-71158319D01*
X54123523Y-70634509D02*
X54266380Y-70682128D01*
X54266380Y-70682128D02*
X54313999Y-70729747D01*
X54313999Y-70729747D02*
X54361618Y-70824985D01*
X54361618Y-70824985D02*
X54361618Y-70967842D01*
X54361618Y-70967842D02*
X54313999Y-71063080D01*
X54313999Y-71063080D02*
X54266380Y-71110700D01*
X54266380Y-71110700D02*
X54171142Y-71158319D01*
X54171142Y-71158319D02*
X53790190Y-71158319D01*
X53790190Y-71158319D02*
X53790190Y-70158319D01*
X53790190Y-70158319D02*
X54123523Y-70158319D01*
X54123523Y-70158319D02*
X54218761Y-70205938D01*
X54218761Y-70205938D02*
X54266380Y-70253557D01*
X54266380Y-70253557D02*
X54313999Y-70348795D01*
X54313999Y-70348795D02*
X54313999Y-70444033D01*
X54313999Y-70444033D02*
X54266380Y-70539271D01*
X54266380Y-70539271D02*
X54218761Y-70586890D01*
X54218761Y-70586890D02*
X54123523Y-70634509D01*
X54123523Y-70634509D02*
X53790190Y-70634509D01*
X54552095Y-71253557D02*
X55313999Y-71253557D01*
X56075904Y-71158319D02*
X55504476Y-71158319D01*
X55790190Y-71158319D02*
X55790190Y-70158319D01*
X55790190Y-70158319D02*
X55694952Y-70301176D01*
X55694952Y-70301176D02*
X55599714Y-70396414D01*
X55599714Y-70396414D02*
X55504476Y-70444033D01*
X56552095Y-71158319D02*
X56742571Y-71158319D01*
X56742571Y-71158319D02*
X56837809Y-71110700D01*
X56837809Y-71110700D02*
X56885428Y-71063080D01*
X56885428Y-71063080D02*
X56980666Y-70920223D01*
X56980666Y-70920223D02*
X57028285Y-70729747D01*
X57028285Y-70729747D02*
X57028285Y-70348795D01*
X57028285Y-70348795D02*
X56980666Y-70253557D01*
X56980666Y-70253557D02*
X56933047Y-70205938D01*
X56933047Y-70205938D02*
X56837809Y-70158319D01*
X56837809Y-70158319D02*
X56647333Y-70158319D01*
X56647333Y-70158319D02*
X56552095Y-70205938D01*
X56552095Y-70205938D02*
X56504476Y-70253557D01*
X56504476Y-70253557D02*
X56456857Y-70348795D01*
X56456857Y-70348795D02*
X56456857Y-70586890D01*
X56456857Y-70586890D02*
X56504476Y-70682128D01*
X56504476Y-70682128D02*
X56552095Y-70729747D01*
X56552095Y-70729747D02*
X56647333Y-70777366D01*
X56647333Y-70777366D02*
X56837809Y-70777366D01*
X56837809Y-70777366D02*
X56933047Y-70729747D01*
X56933047Y-70729747D02*
X56980666Y-70682128D01*
X56980666Y-70682128D02*
X57028285Y-70586890D01*
X63361619Y-54198319D02*
X63361619Y-53198319D01*
X63361619Y-53198319D02*
X63694952Y-53912604D01*
X63694952Y-53912604D02*
X64028285Y-53198319D01*
X64028285Y-53198319D02*
X64028285Y-54198319D01*
X64647333Y-54198319D02*
X64552095Y-54150700D01*
X64552095Y-54150700D02*
X64504476Y-54103080D01*
X64504476Y-54103080D02*
X64456857Y-54007842D01*
X64456857Y-54007842D02*
X64456857Y-53722128D01*
X64456857Y-53722128D02*
X64504476Y-53626890D01*
X64504476Y-53626890D02*
X64552095Y-53579271D01*
X64552095Y-53579271D02*
X64647333Y-53531652D01*
X64647333Y-53531652D02*
X64790190Y-53531652D01*
X64790190Y-53531652D02*
X64885428Y-53579271D01*
X64885428Y-53579271D02*
X64933047Y-53626890D01*
X64933047Y-53626890D02*
X64980666Y-53722128D01*
X64980666Y-53722128D02*
X64980666Y-54007842D01*
X64980666Y-54007842D02*
X64933047Y-54103080D01*
X64933047Y-54103080D02*
X64885428Y-54150700D01*
X64885428Y-54150700D02*
X64790190Y-54198319D01*
X64790190Y-54198319D02*
X64647333Y-54198319D01*
X65837809Y-53531652D02*
X65837809Y-54198319D01*
X65409238Y-53531652D02*
X65409238Y-54055461D01*
X65409238Y-54055461D02*
X65456857Y-54150700D01*
X65456857Y-54150700D02*
X65552095Y-54198319D01*
X65552095Y-54198319D02*
X65694952Y-54198319D01*
X65694952Y-54198319D02*
X65790190Y-54150700D01*
X65790190Y-54150700D02*
X65837809Y-54103080D01*
X66314000Y-53531652D02*
X66314000Y-54198319D01*
X66314000Y-53626890D02*
X66361619Y-53579271D01*
X66361619Y-53579271D02*
X66456857Y-53531652D01*
X66456857Y-53531652D02*
X66599714Y-53531652D01*
X66599714Y-53531652D02*
X66694952Y-53579271D01*
X66694952Y-53579271D02*
X66742571Y-53674509D01*
X66742571Y-53674509D02*
X66742571Y-54198319D01*
X67075905Y-53531652D02*
X67456857Y-53531652D01*
X67218762Y-53198319D02*
X67218762Y-54055461D01*
X67218762Y-54055461D02*
X67266381Y-54150700D01*
X67266381Y-54150700D02*
X67361619Y-54198319D01*
X67361619Y-54198319D02*
X67456857Y-54198319D01*
X68266381Y-53198319D02*
X67790191Y-53198319D01*
X67790191Y-53198319D02*
X67742572Y-53674509D01*
X67742572Y-53674509D02*
X67790191Y-53626890D01*
X67790191Y-53626890D02*
X67885429Y-53579271D01*
X67885429Y-53579271D02*
X68123524Y-53579271D01*
X68123524Y-53579271D02*
X68218762Y-53626890D01*
X68218762Y-53626890D02*
X68266381Y-53674509D01*
X68266381Y-53674509D02*
X68314000Y-53769747D01*
X68314000Y-53769747D02*
X68314000Y-54007842D01*
X68314000Y-54007842D02*
X68266381Y-54103080D01*
X68266381Y-54103080D02*
X68218762Y-54150700D01*
X68218762Y-54150700D02*
X68123524Y-54198319D01*
X68123524Y-54198319D02*
X67885429Y-54198319D01*
X67885429Y-54198319D02*
X67790191Y-54150700D01*
X67790191Y-54150700D02*
X67742572Y-54103080D01*
X70886142Y-71756080D02*
X70838523Y-71803700D01*
X70838523Y-71803700D02*
X70695666Y-71851319D01*
X70695666Y-71851319D02*
X70600428Y-71851319D01*
X70600428Y-71851319D02*
X70457571Y-71803700D01*
X70457571Y-71803700D02*
X70362333Y-71708461D01*
X70362333Y-71708461D02*
X70314714Y-71613223D01*
X70314714Y-71613223D02*
X70267095Y-71422747D01*
X70267095Y-71422747D02*
X70267095Y-71279890D01*
X70267095Y-71279890D02*
X70314714Y-71089414D01*
X70314714Y-71089414D02*
X70362333Y-70994176D01*
X70362333Y-70994176D02*
X70457571Y-70898938D01*
X70457571Y-70898938D02*
X70600428Y-70851319D01*
X70600428Y-70851319D02*
X70695666Y-70851319D01*
X70695666Y-70851319D02*
X70838523Y-70898938D01*
X70838523Y-70898938D02*
X70886142Y-70946557D01*
X71838523Y-71851319D02*
X71267095Y-71851319D01*
X71552809Y-71851319D02*
X71552809Y-70851319D01*
X71552809Y-70851319D02*
X71457571Y-70994176D01*
X71457571Y-70994176D02*
X71362333Y-71089414D01*
X71362333Y-71089414D02*
X71267095Y-71137033D01*
X72457571Y-70851319D02*
X72552809Y-70851319D01*
X72552809Y-70851319D02*
X72648047Y-70898938D01*
X72648047Y-70898938D02*
X72695666Y-70946557D01*
X72695666Y-70946557D02*
X72743285Y-71041795D01*
X72743285Y-71041795D02*
X72790904Y-71232271D01*
X72790904Y-71232271D02*
X72790904Y-71470366D01*
X72790904Y-71470366D02*
X72743285Y-71660842D01*
X72743285Y-71660842D02*
X72695666Y-71756080D01*
X72695666Y-71756080D02*
X72648047Y-71803700D01*
X72648047Y-71803700D02*
X72552809Y-71851319D01*
X72552809Y-71851319D02*
X72457571Y-71851319D01*
X72457571Y-71851319D02*
X72362333Y-71803700D01*
X72362333Y-71803700D02*
X72314714Y-71756080D01*
X72314714Y-71756080D02*
X72267095Y-71660842D01*
X72267095Y-71660842D02*
X72219476Y-71470366D01*
X72219476Y-71470366D02*
X72219476Y-71232271D01*
X72219476Y-71232271D02*
X72267095Y-71041795D01*
X72267095Y-71041795D02*
X72314714Y-70946557D01*
X72314714Y-70946557D02*
X72362333Y-70898938D01*
X72362333Y-70898938D02*
X72457571Y-70851319D01*
X74647333Y-57358319D02*
X74647333Y-56358319D01*
X74647333Y-56358319D02*
X74980666Y-57072604D01*
X74980666Y-57072604D02*
X75313999Y-56358319D01*
X75313999Y-56358319D02*
X75313999Y-57358319D01*
X76123523Y-56834509D02*
X76266380Y-56882128D01*
X76266380Y-56882128D02*
X76313999Y-56929747D01*
X76313999Y-56929747D02*
X76361618Y-57024985D01*
X76361618Y-57024985D02*
X76361618Y-57167842D01*
X76361618Y-57167842D02*
X76313999Y-57263080D01*
X76313999Y-57263080D02*
X76266380Y-57310700D01*
X76266380Y-57310700D02*
X76171142Y-57358319D01*
X76171142Y-57358319D02*
X75790190Y-57358319D01*
X75790190Y-57358319D02*
X75790190Y-56358319D01*
X75790190Y-56358319D02*
X76123523Y-56358319D01*
X76123523Y-56358319D02*
X76218761Y-56405938D01*
X76218761Y-56405938D02*
X76266380Y-56453557D01*
X76266380Y-56453557D02*
X76313999Y-56548795D01*
X76313999Y-56548795D02*
X76313999Y-56644033D01*
X76313999Y-56644033D02*
X76266380Y-56739271D01*
X76266380Y-56739271D02*
X76218761Y-56786890D01*
X76218761Y-56786890D02*
X76123523Y-56834509D01*
X76123523Y-56834509D02*
X75790190Y-56834509D01*
X76552095Y-57453557D02*
X77313999Y-57453557D01*
X78075904Y-57358319D02*
X77504476Y-57358319D01*
X77790190Y-57358319D02*
X77790190Y-56358319D01*
X77790190Y-56358319D02*
X77694952Y-56501176D01*
X77694952Y-56501176D02*
X77599714Y-56596414D01*
X77599714Y-56596414D02*
X77504476Y-56644033D01*
X78647333Y-56786890D02*
X78552095Y-56739271D01*
X78552095Y-56739271D02*
X78504476Y-56691652D01*
X78504476Y-56691652D02*
X78456857Y-56596414D01*
X78456857Y-56596414D02*
X78456857Y-56548795D01*
X78456857Y-56548795D02*
X78504476Y-56453557D01*
X78504476Y-56453557D02*
X78552095Y-56405938D01*
X78552095Y-56405938D02*
X78647333Y-56358319D01*
X78647333Y-56358319D02*
X78837809Y-56358319D01*
X78837809Y-56358319D02*
X78933047Y-56405938D01*
X78933047Y-56405938D02*
X78980666Y-56453557D01*
X78980666Y-56453557D02*
X79028285Y-56548795D01*
X79028285Y-56548795D02*
X79028285Y-56596414D01*
X79028285Y-56596414D02*
X78980666Y-56691652D01*
X78980666Y-56691652D02*
X78933047Y-56739271D01*
X78933047Y-56739271D02*
X78837809Y-56786890D01*
X78837809Y-56786890D02*
X78647333Y-56786890D01*
X78647333Y-56786890D02*
X78552095Y-56834509D01*
X78552095Y-56834509D02*
X78504476Y-56882128D01*
X78504476Y-56882128D02*
X78456857Y-56977366D01*
X78456857Y-56977366D02*
X78456857Y-57167842D01*
X78456857Y-57167842D02*
X78504476Y-57263080D01*
X78504476Y-57263080D02*
X78552095Y-57310700D01*
X78552095Y-57310700D02*
X78647333Y-57358319D01*
X78647333Y-57358319D02*
X78837809Y-57358319D01*
X78837809Y-57358319D02*
X78933047Y-57310700D01*
X78933047Y-57310700D02*
X78980666Y-57263080D01*
X78980666Y-57263080D02*
X79028285Y-57167842D01*
X79028285Y-57167842D02*
X79028285Y-56977366D01*
X79028285Y-56977366D02*
X78980666Y-56882128D01*
X78980666Y-56882128D02*
X78933047Y-56834509D01*
X78933047Y-56834509D02*
X78837809Y-56786890D01*
X65052095Y-65958319D02*
X65052095Y-66767842D01*
X65052095Y-66767842D02*
X65099714Y-66863080D01*
X65099714Y-66863080D02*
X65147333Y-66910700D01*
X65147333Y-66910700D02*
X65242571Y-66958319D01*
X65242571Y-66958319D02*
X65433047Y-66958319D01*
X65433047Y-66958319D02*
X65528285Y-66910700D01*
X65528285Y-66910700D02*
X65575904Y-66863080D01*
X65575904Y-66863080D02*
X65623523Y-66767842D01*
X65623523Y-66767842D02*
X65623523Y-65958319D01*
X66575904Y-65958319D02*
X66099714Y-65958319D01*
X66099714Y-65958319D02*
X66052095Y-66434509D01*
X66052095Y-66434509D02*
X66099714Y-66386890D01*
X66099714Y-66386890D02*
X66194952Y-66339271D01*
X66194952Y-66339271D02*
X66433047Y-66339271D01*
X66433047Y-66339271D02*
X66528285Y-66386890D01*
X66528285Y-66386890D02*
X66575904Y-66434509D01*
X66575904Y-66434509D02*
X66623523Y-66529747D01*
X66623523Y-66529747D02*
X66623523Y-66767842D01*
X66623523Y-66767842D02*
X66575904Y-66863080D01*
X66575904Y-66863080D02*
X66528285Y-66910700D01*
X66528285Y-66910700D02*
X66433047Y-66958319D01*
X66433047Y-66958319D02*
X66194952Y-66958319D01*
X66194952Y-66958319D02*
X66099714Y-66910700D01*
X66099714Y-66910700D02*
X66052095Y-66863080D01*
X68822333Y-71729819D02*
X68489000Y-71253628D01*
X68250905Y-71729819D02*
X68250905Y-70729819D01*
X68250905Y-70729819D02*
X68631857Y-70729819D01*
X68631857Y-70729819D02*
X68727095Y-70777438D01*
X68727095Y-70777438D02*
X68774714Y-70825057D01*
X68774714Y-70825057D02*
X68822333Y-70920295D01*
X68822333Y-70920295D02*
X68822333Y-71063152D01*
X68822333Y-71063152D02*
X68774714Y-71158390D01*
X68774714Y-71158390D02*
X68727095Y-71206009D01*
X68727095Y-71206009D02*
X68631857Y-71253628D01*
X68631857Y-71253628D02*
X68250905Y-71253628D01*
X69727095Y-70729819D02*
X69250905Y-70729819D01*
X69250905Y-70729819D02*
X69203286Y-71206009D01*
X69203286Y-71206009D02*
X69250905Y-71158390D01*
X69250905Y-71158390D02*
X69346143Y-71110771D01*
X69346143Y-71110771D02*
X69584238Y-71110771D01*
X69584238Y-71110771D02*
X69679476Y-71158390D01*
X69679476Y-71158390D02*
X69727095Y-71206009D01*
X69727095Y-71206009D02*
X69774714Y-71301247D01*
X69774714Y-71301247D02*
X69774714Y-71539342D01*
X69774714Y-71539342D02*
X69727095Y-71634580D01*
X69727095Y-71634580D02*
X69679476Y-71682200D01*
X69679476Y-71682200D02*
X69584238Y-71729819D01*
X69584238Y-71729819D02*
X69346143Y-71729819D01*
X69346143Y-71729819D02*
X69250905Y-71682200D01*
X69250905Y-71682200D02*
X69203286Y-71634580D01*
X74647333Y-71158319D02*
X74647333Y-70158319D01*
X74647333Y-70158319D02*
X74980666Y-70872604D01*
X74980666Y-70872604D02*
X75313999Y-70158319D01*
X75313999Y-70158319D02*
X75313999Y-71158319D01*
X76123523Y-70634509D02*
X76266380Y-70682128D01*
X76266380Y-70682128D02*
X76313999Y-70729747D01*
X76313999Y-70729747D02*
X76361618Y-70824985D01*
X76361618Y-70824985D02*
X76361618Y-70967842D01*
X76361618Y-70967842D02*
X76313999Y-71063080D01*
X76313999Y-71063080D02*
X76266380Y-71110700D01*
X76266380Y-71110700D02*
X76171142Y-71158319D01*
X76171142Y-71158319D02*
X75790190Y-71158319D01*
X75790190Y-71158319D02*
X75790190Y-70158319D01*
X75790190Y-70158319D02*
X76123523Y-70158319D01*
X76123523Y-70158319D02*
X76218761Y-70205938D01*
X76218761Y-70205938D02*
X76266380Y-70253557D01*
X76266380Y-70253557D02*
X76313999Y-70348795D01*
X76313999Y-70348795D02*
X76313999Y-70444033D01*
X76313999Y-70444033D02*
X76266380Y-70539271D01*
X76266380Y-70539271D02*
X76218761Y-70586890D01*
X76218761Y-70586890D02*
X76123523Y-70634509D01*
X76123523Y-70634509D02*
X75790190Y-70634509D01*
X76552095Y-71253557D02*
X77313999Y-71253557D01*
X77504476Y-70253557D02*
X77552095Y-70205938D01*
X77552095Y-70205938D02*
X77647333Y-70158319D01*
X77647333Y-70158319D02*
X77885428Y-70158319D01*
X77885428Y-70158319D02*
X77980666Y-70205938D01*
X77980666Y-70205938D02*
X78028285Y-70253557D01*
X78028285Y-70253557D02*
X78075904Y-70348795D01*
X78075904Y-70348795D02*
X78075904Y-70444033D01*
X78075904Y-70444033D02*
X78028285Y-70586890D01*
X78028285Y-70586890D02*
X77456857Y-71158319D01*
X77456857Y-71158319D02*
X78075904Y-71158319D01*
X78694952Y-70158319D02*
X78790190Y-70158319D01*
X78790190Y-70158319D02*
X78885428Y-70205938D01*
X78885428Y-70205938D02*
X78933047Y-70253557D01*
X78933047Y-70253557D02*
X78980666Y-70348795D01*
X78980666Y-70348795D02*
X79028285Y-70539271D01*
X79028285Y-70539271D02*
X79028285Y-70777366D01*
X79028285Y-70777366D02*
X78980666Y-70967842D01*
X78980666Y-70967842D02*
X78933047Y-71063080D01*
X78933047Y-71063080D02*
X78885428Y-71110700D01*
X78885428Y-71110700D02*
X78790190Y-71158319D01*
X78790190Y-71158319D02*
X78694952Y-71158319D01*
X78694952Y-71158319D02*
X78599714Y-71110700D01*
X78599714Y-71110700D02*
X78552095Y-71063080D01*
X78552095Y-71063080D02*
X78504476Y-70967842D01*
X78504476Y-70967842D02*
X78456857Y-70777366D01*
X78456857Y-70777366D02*
X78456857Y-70539271D01*
X78456857Y-70539271D02*
X78504476Y-70348795D01*
X78504476Y-70348795D02*
X78552095Y-70253557D01*
X78552095Y-70253557D02*
X78599714Y-70205938D01*
X78599714Y-70205938D02*
X78694952Y-70158319D01*
X63856333Y-70110580D02*
X63808714Y-70158200D01*
X63808714Y-70158200D02*
X63665857Y-70205819D01*
X63665857Y-70205819D02*
X63570619Y-70205819D01*
X63570619Y-70205819D02*
X63427762Y-70158200D01*
X63427762Y-70158200D02*
X63332524Y-70062961D01*
X63332524Y-70062961D02*
X63284905Y-69967723D01*
X63284905Y-69967723D02*
X63237286Y-69777247D01*
X63237286Y-69777247D02*
X63237286Y-69634390D01*
X63237286Y-69634390D02*
X63284905Y-69443914D01*
X63284905Y-69443914D02*
X63332524Y-69348676D01*
X63332524Y-69348676D02*
X63427762Y-69253438D01*
X63427762Y-69253438D02*
X63570619Y-69205819D01*
X63570619Y-69205819D02*
X63665857Y-69205819D01*
X63665857Y-69205819D02*
X63808714Y-69253438D01*
X63808714Y-69253438D02*
X63856333Y-69301057D01*
X64332524Y-70205819D02*
X64523000Y-70205819D01*
X64523000Y-70205819D02*
X64618238Y-70158200D01*
X64618238Y-70158200D02*
X64665857Y-70110580D01*
X64665857Y-70110580D02*
X64761095Y-69967723D01*
X64761095Y-69967723D02*
X64808714Y-69777247D01*
X64808714Y-69777247D02*
X64808714Y-69396295D01*
X64808714Y-69396295D02*
X64761095Y-69301057D01*
X64761095Y-69301057D02*
X64713476Y-69253438D01*
X64713476Y-69253438D02*
X64618238Y-69205819D01*
X64618238Y-69205819D02*
X64427762Y-69205819D01*
X64427762Y-69205819D02*
X64332524Y-69253438D01*
X64332524Y-69253438D02*
X64284905Y-69301057D01*
X64284905Y-69301057D02*
X64237286Y-69396295D01*
X64237286Y-69396295D02*
X64237286Y-69634390D01*
X64237286Y-69634390D02*
X64284905Y-69729628D01*
X64284905Y-69729628D02*
X64332524Y-69777247D01*
X64332524Y-69777247D02*
X64427762Y-69824866D01*
X64427762Y-69824866D02*
X64618238Y-69824866D01*
X64618238Y-69824866D02*
X64713476Y-69777247D01*
X64713476Y-69777247D02*
X64761095Y-69729628D01*
X64761095Y-69729628D02*
X64808714Y-69634390D01*
X52647333Y-57358319D02*
X52647333Y-56358319D01*
X52647333Y-56358319D02*
X52980666Y-57072604D01*
X52980666Y-57072604D02*
X53313999Y-56358319D01*
X53313999Y-56358319D02*
X53313999Y-57358319D01*
X54123523Y-56834509D02*
X54266380Y-56882128D01*
X54266380Y-56882128D02*
X54313999Y-56929747D01*
X54313999Y-56929747D02*
X54361618Y-57024985D01*
X54361618Y-57024985D02*
X54361618Y-57167842D01*
X54361618Y-57167842D02*
X54313999Y-57263080D01*
X54313999Y-57263080D02*
X54266380Y-57310700D01*
X54266380Y-57310700D02*
X54171142Y-57358319D01*
X54171142Y-57358319D02*
X53790190Y-57358319D01*
X53790190Y-57358319D02*
X53790190Y-56358319D01*
X53790190Y-56358319D02*
X54123523Y-56358319D01*
X54123523Y-56358319D02*
X54218761Y-56405938D01*
X54218761Y-56405938D02*
X54266380Y-56453557D01*
X54266380Y-56453557D02*
X54313999Y-56548795D01*
X54313999Y-56548795D02*
X54313999Y-56644033D01*
X54313999Y-56644033D02*
X54266380Y-56739271D01*
X54266380Y-56739271D02*
X54218761Y-56786890D01*
X54218761Y-56786890D02*
X54123523Y-56834509D01*
X54123523Y-56834509D02*
X53790190Y-56834509D01*
X54552095Y-57453557D02*
X55313999Y-57453557D01*
X56075904Y-57358319D02*
X55504476Y-57358319D01*
X55790190Y-57358319D02*
X55790190Y-56358319D01*
X55790190Y-56358319D02*
X55694952Y-56501176D01*
X55694952Y-56501176D02*
X55599714Y-56596414D01*
X55599714Y-56596414D02*
X55504476Y-56644033D01*
X56409238Y-56358319D02*
X57075904Y-56358319D01*
X57075904Y-56358319D02*
X56647333Y-57358319D01*
X40138819Y-76936833D02*
X40853104Y-76936833D01*
X40853104Y-76936833D02*
X40995961Y-76984452D01*
X40995961Y-76984452D02*
X41091200Y-77079690D01*
X41091200Y-77079690D02*
X41138819Y-77222547D01*
X41138819Y-77222547D02*
X41138819Y-77317785D01*
X40472152Y-76032071D02*
X41138819Y-76032071D01*
X40091200Y-76270166D02*
X40805485Y-76508261D01*
X40805485Y-76508261D02*
X40805485Y-75889214D01*
X22647333Y-71158319D02*
X22647333Y-70158319D01*
X22647333Y-70158319D02*
X22980666Y-70872604D01*
X22980666Y-70872604D02*
X23313999Y-70158319D01*
X23313999Y-70158319D02*
X23313999Y-71158319D01*
X24123523Y-70634509D02*
X24266380Y-70682128D01*
X24266380Y-70682128D02*
X24313999Y-70729747D01*
X24313999Y-70729747D02*
X24361618Y-70824985D01*
X24361618Y-70824985D02*
X24361618Y-70967842D01*
X24361618Y-70967842D02*
X24313999Y-71063080D01*
X24313999Y-71063080D02*
X24266380Y-71110700D01*
X24266380Y-71110700D02*
X24171142Y-71158319D01*
X24171142Y-71158319D02*
X23790190Y-71158319D01*
X23790190Y-71158319D02*
X23790190Y-70158319D01*
X23790190Y-70158319D02*
X24123523Y-70158319D01*
X24123523Y-70158319D02*
X24218761Y-70205938D01*
X24218761Y-70205938D02*
X24266380Y-70253557D01*
X24266380Y-70253557D02*
X24313999Y-70348795D01*
X24313999Y-70348795D02*
X24313999Y-70444033D01*
X24313999Y-70444033D02*
X24266380Y-70539271D01*
X24266380Y-70539271D02*
X24218761Y-70586890D01*
X24218761Y-70586890D02*
X24123523Y-70634509D01*
X24123523Y-70634509D02*
X23790190Y-70634509D01*
X24552095Y-71253557D02*
X25313999Y-71253557D01*
X26075904Y-71158319D02*
X25504476Y-71158319D01*
X25790190Y-71158319D02*
X25790190Y-70158319D01*
X25790190Y-70158319D02*
X25694952Y-70301176D01*
X25694952Y-70301176D02*
X25599714Y-70396414D01*
X25599714Y-70396414D02*
X25504476Y-70444033D01*
X26980666Y-70158319D02*
X26504476Y-70158319D01*
X26504476Y-70158319D02*
X26456857Y-70634509D01*
X26456857Y-70634509D02*
X26504476Y-70586890D01*
X26504476Y-70586890D02*
X26599714Y-70539271D01*
X26599714Y-70539271D02*
X26837809Y-70539271D01*
X26837809Y-70539271D02*
X26933047Y-70586890D01*
X26933047Y-70586890D02*
X26980666Y-70634509D01*
X26980666Y-70634509D02*
X27028285Y-70729747D01*
X27028285Y-70729747D02*
X27028285Y-70967842D01*
X27028285Y-70967842D02*
X26980666Y-71063080D01*
X26980666Y-71063080D02*
X26933047Y-71110700D01*
X26933047Y-71110700D02*
X26837809Y-71158319D01*
X26837809Y-71158319D02*
X26599714Y-71158319D01*
X26599714Y-71158319D02*
X26504476Y-71110700D01*
X26504476Y-71110700D02*
X26456857Y-71063080D01*
X33361619Y-54198319D02*
X33361619Y-53198319D01*
X33361619Y-53198319D02*
X33694952Y-53912604D01*
X33694952Y-53912604D02*
X34028285Y-53198319D01*
X34028285Y-53198319D02*
X34028285Y-54198319D01*
X34647333Y-54198319D02*
X34552095Y-54150700D01*
X34552095Y-54150700D02*
X34504476Y-54103080D01*
X34504476Y-54103080D02*
X34456857Y-54007842D01*
X34456857Y-54007842D02*
X34456857Y-53722128D01*
X34456857Y-53722128D02*
X34504476Y-53626890D01*
X34504476Y-53626890D02*
X34552095Y-53579271D01*
X34552095Y-53579271D02*
X34647333Y-53531652D01*
X34647333Y-53531652D02*
X34790190Y-53531652D01*
X34790190Y-53531652D02*
X34885428Y-53579271D01*
X34885428Y-53579271D02*
X34933047Y-53626890D01*
X34933047Y-53626890D02*
X34980666Y-53722128D01*
X34980666Y-53722128D02*
X34980666Y-54007842D01*
X34980666Y-54007842D02*
X34933047Y-54103080D01*
X34933047Y-54103080D02*
X34885428Y-54150700D01*
X34885428Y-54150700D02*
X34790190Y-54198319D01*
X34790190Y-54198319D02*
X34647333Y-54198319D01*
X35837809Y-53531652D02*
X35837809Y-54198319D01*
X35409238Y-53531652D02*
X35409238Y-54055461D01*
X35409238Y-54055461D02*
X35456857Y-54150700D01*
X35456857Y-54150700D02*
X35552095Y-54198319D01*
X35552095Y-54198319D02*
X35694952Y-54198319D01*
X35694952Y-54198319D02*
X35790190Y-54150700D01*
X35790190Y-54150700D02*
X35837809Y-54103080D01*
X36314000Y-53531652D02*
X36314000Y-54198319D01*
X36314000Y-53626890D02*
X36361619Y-53579271D01*
X36361619Y-53579271D02*
X36456857Y-53531652D01*
X36456857Y-53531652D02*
X36599714Y-53531652D01*
X36599714Y-53531652D02*
X36694952Y-53579271D01*
X36694952Y-53579271D02*
X36742571Y-53674509D01*
X36742571Y-53674509D02*
X36742571Y-54198319D01*
X37075905Y-53531652D02*
X37456857Y-53531652D01*
X37218762Y-53198319D02*
X37218762Y-54055461D01*
X37218762Y-54055461D02*
X37266381Y-54150700D01*
X37266381Y-54150700D02*
X37361619Y-54198319D01*
X37361619Y-54198319D02*
X37456857Y-54198319D01*
X38218762Y-53531652D02*
X38218762Y-54198319D01*
X37980667Y-53150700D02*
X37742572Y-53864985D01*
X37742572Y-53864985D02*
X38361619Y-53864985D01*
X41362333Y-71756080D02*
X41314714Y-71803700D01*
X41314714Y-71803700D02*
X41171857Y-71851319D01*
X41171857Y-71851319D02*
X41076619Y-71851319D01*
X41076619Y-71851319D02*
X40933762Y-71803700D01*
X40933762Y-71803700D02*
X40838524Y-71708461D01*
X40838524Y-71708461D02*
X40790905Y-71613223D01*
X40790905Y-71613223D02*
X40743286Y-71422747D01*
X40743286Y-71422747D02*
X40743286Y-71279890D01*
X40743286Y-71279890D02*
X40790905Y-71089414D01*
X40790905Y-71089414D02*
X40838524Y-70994176D01*
X40838524Y-70994176D02*
X40933762Y-70898938D01*
X40933762Y-70898938D02*
X41076619Y-70851319D01*
X41076619Y-70851319D02*
X41171857Y-70851319D01*
X41171857Y-70851319D02*
X41314714Y-70898938D01*
X41314714Y-70898938D02*
X41362333Y-70946557D01*
X41933762Y-71279890D02*
X41838524Y-71232271D01*
X41838524Y-71232271D02*
X41790905Y-71184652D01*
X41790905Y-71184652D02*
X41743286Y-71089414D01*
X41743286Y-71089414D02*
X41743286Y-71041795D01*
X41743286Y-71041795D02*
X41790905Y-70946557D01*
X41790905Y-70946557D02*
X41838524Y-70898938D01*
X41838524Y-70898938D02*
X41933762Y-70851319D01*
X41933762Y-70851319D02*
X42124238Y-70851319D01*
X42124238Y-70851319D02*
X42219476Y-70898938D01*
X42219476Y-70898938D02*
X42267095Y-70946557D01*
X42267095Y-70946557D02*
X42314714Y-71041795D01*
X42314714Y-71041795D02*
X42314714Y-71089414D01*
X42314714Y-71089414D02*
X42267095Y-71184652D01*
X42267095Y-71184652D02*
X42219476Y-71232271D01*
X42219476Y-71232271D02*
X42124238Y-71279890D01*
X42124238Y-71279890D02*
X41933762Y-71279890D01*
X41933762Y-71279890D02*
X41838524Y-71327509D01*
X41838524Y-71327509D02*
X41790905Y-71375128D01*
X41790905Y-71375128D02*
X41743286Y-71470366D01*
X41743286Y-71470366D02*
X41743286Y-71660842D01*
X41743286Y-71660842D02*
X41790905Y-71756080D01*
X41790905Y-71756080D02*
X41838524Y-71803700D01*
X41838524Y-71803700D02*
X41933762Y-71851319D01*
X41933762Y-71851319D02*
X42124238Y-71851319D01*
X42124238Y-71851319D02*
X42219476Y-71803700D01*
X42219476Y-71803700D02*
X42267095Y-71756080D01*
X42267095Y-71756080D02*
X42314714Y-71660842D01*
X42314714Y-71660842D02*
X42314714Y-71470366D01*
X42314714Y-71470366D02*
X42267095Y-71375128D01*
X42267095Y-71375128D02*
X42219476Y-71327509D01*
X42219476Y-71327509D02*
X42124238Y-71279890D01*
X44647333Y-57358319D02*
X44647333Y-56358319D01*
X44647333Y-56358319D02*
X44980666Y-57072604D01*
X44980666Y-57072604D02*
X45313999Y-56358319D01*
X45313999Y-56358319D02*
X45313999Y-57358319D01*
X46123523Y-56834509D02*
X46266380Y-56882128D01*
X46266380Y-56882128D02*
X46313999Y-56929747D01*
X46313999Y-56929747D02*
X46361618Y-57024985D01*
X46361618Y-57024985D02*
X46361618Y-57167842D01*
X46361618Y-57167842D02*
X46313999Y-57263080D01*
X46313999Y-57263080D02*
X46266380Y-57310700D01*
X46266380Y-57310700D02*
X46171142Y-57358319D01*
X46171142Y-57358319D02*
X45790190Y-57358319D01*
X45790190Y-57358319D02*
X45790190Y-56358319D01*
X45790190Y-56358319D02*
X46123523Y-56358319D01*
X46123523Y-56358319D02*
X46218761Y-56405938D01*
X46218761Y-56405938D02*
X46266380Y-56453557D01*
X46266380Y-56453557D02*
X46313999Y-56548795D01*
X46313999Y-56548795D02*
X46313999Y-56644033D01*
X46313999Y-56644033D02*
X46266380Y-56739271D01*
X46266380Y-56739271D02*
X46218761Y-56786890D01*
X46218761Y-56786890D02*
X46123523Y-56834509D01*
X46123523Y-56834509D02*
X45790190Y-56834509D01*
X46552095Y-57453557D02*
X47313999Y-57453557D01*
X48075904Y-57358319D02*
X47504476Y-57358319D01*
X47790190Y-57358319D02*
X47790190Y-56358319D01*
X47790190Y-56358319D02*
X47694952Y-56501176D01*
X47694952Y-56501176D02*
X47599714Y-56596414D01*
X47599714Y-56596414D02*
X47504476Y-56644033D01*
X48933047Y-56691652D02*
X48933047Y-57358319D01*
X48694952Y-56310700D02*
X48456857Y-57024985D01*
X48456857Y-57024985D02*
X49075904Y-57024985D01*
X35052095Y-65958319D02*
X35052095Y-66767842D01*
X35052095Y-66767842D02*
X35099714Y-66863080D01*
X35099714Y-66863080D02*
X35147333Y-66910700D01*
X35147333Y-66910700D02*
X35242571Y-66958319D01*
X35242571Y-66958319D02*
X35433047Y-66958319D01*
X35433047Y-66958319D02*
X35528285Y-66910700D01*
X35528285Y-66910700D02*
X35575904Y-66863080D01*
X35575904Y-66863080D02*
X35623523Y-66767842D01*
X35623523Y-66767842D02*
X35623523Y-65958319D01*
X36528285Y-66291652D02*
X36528285Y-66958319D01*
X36290190Y-65910700D02*
X36052095Y-66624985D01*
X36052095Y-66624985D02*
X36671142Y-66624985D01*
X38822333Y-71729819D02*
X38489000Y-71253628D01*
X38250905Y-71729819D02*
X38250905Y-70729819D01*
X38250905Y-70729819D02*
X38631857Y-70729819D01*
X38631857Y-70729819D02*
X38727095Y-70777438D01*
X38727095Y-70777438D02*
X38774714Y-70825057D01*
X38774714Y-70825057D02*
X38822333Y-70920295D01*
X38822333Y-70920295D02*
X38822333Y-71063152D01*
X38822333Y-71063152D02*
X38774714Y-71158390D01*
X38774714Y-71158390D02*
X38727095Y-71206009D01*
X38727095Y-71206009D02*
X38631857Y-71253628D01*
X38631857Y-71253628D02*
X38250905Y-71253628D01*
X39679476Y-71063152D02*
X39679476Y-71729819D01*
X39441381Y-70682200D02*
X39203286Y-71396485D01*
X39203286Y-71396485D02*
X39822333Y-71396485D01*
X44647333Y-71158319D02*
X44647333Y-70158319D01*
X44647333Y-70158319D02*
X44980666Y-70872604D01*
X44980666Y-70872604D02*
X45313999Y-70158319D01*
X45313999Y-70158319D02*
X45313999Y-71158319D01*
X46123523Y-70634509D02*
X46266380Y-70682128D01*
X46266380Y-70682128D02*
X46313999Y-70729747D01*
X46313999Y-70729747D02*
X46361618Y-70824985D01*
X46361618Y-70824985D02*
X46361618Y-70967842D01*
X46361618Y-70967842D02*
X46313999Y-71063080D01*
X46313999Y-71063080D02*
X46266380Y-71110700D01*
X46266380Y-71110700D02*
X46171142Y-71158319D01*
X46171142Y-71158319D02*
X45790190Y-71158319D01*
X45790190Y-71158319D02*
X45790190Y-70158319D01*
X45790190Y-70158319D02*
X46123523Y-70158319D01*
X46123523Y-70158319D02*
X46218761Y-70205938D01*
X46218761Y-70205938D02*
X46266380Y-70253557D01*
X46266380Y-70253557D02*
X46313999Y-70348795D01*
X46313999Y-70348795D02*
X46313999Y-70444033D01*
X46313999Y-70444033D02*
X46266380Y-70539271D01*
X46266380Y-70539271D02*
X46218761Y-70586890D01*
X46218761Y-70586890D02*
X46123523Y-70634509D01*
X46123523Y-70634509D02*
X45790190Y-70634509D01*
X46552095Y-71253557D02*
X47313999Y-71253557D01*
X48075904Y-71158319D02*
X47504476Y-71158319D01*
X47790190Y-71158319D02*
X47790190Y-70158319D01*
X47790190Y-70158319D02*
X47694952Y-70301176D01*
X47694952Y-70301176D02*
X47599714Y-70396414D01*
X47599714Y-70396414D02*
X47504476Y-70444033D01*
X48933047Y-70158319D02*
X48742571Y-70158319D01*
X48742571Y-70158319D02*
X48647333Y-70205938D01*
X48647333Y-70205938D02*
X48599714Y-70253557D01*
X48599714Y-70253557D02*
X48504476Y-70396414D01*
X48504476Y-70396414D02*
X48456857Y-70586890D01*
X48456857Y-70586890D02*
X48456857Y-70967842D01*
X48456857Y-70967842D02*
X48504476Y-71063080D01*
X48504476Y-71063080D02*
X48552095Y-71110700D01*
X48552095Y-71110700D02*
X48647333Y-71158319D01*
X48647333Y-71158319D02*
X48837809Y-71158319D01*
X48837809Y-71158319D02*
X48933047Y-71110700D01*
X48933047Y-71110700D02*
X48980666Y-71063080D01*
X48980666Y-71063080D02*
X49028285Y-70967842D01*
X49028285Y-70967842D02*
X49028285Y-70729747D01*
X49028285Y-70729747D02*
X48980666Y-70634509D01*
X48980666Y-70634509D02*
X48933047Y-70586890D01*
X48933047Y-70586890D02*
X48837809Y-70539271D01*
X48837809Y-70539271D02*
X48647333Y-70539271D01*
X48647333Y-70539271D02*
X48552095Y-70586890D01*
X48552095Y-70586890D02*
X48504476Y-70634509D01*
X48504476Y-70634509D02*
X48456857Y-70729747D01*
X33856333Y-70110580D02*
X33808714Y-70158200D01*
X33808714Y-70158200D02*
X33665857Y-70205819D01*
X33665857Y-70205819D02*
X33570619Y-70205819D01*
X33570619Y-70205819D02*
X33427762Y-70158200D01*
X33427762Y-70158200D02*
X33332524Y-70062961D01*
X33332524Y-70062961D02*
X33284905Y-69967723D01*
X33284905Y-69967723D02*
X33237286Y-69777247D01*
X33237286Y-69777247D02*
X33237286Y-69634390D01*
X33237286Y-69634390D02*
X33284905Y-69443914D01*
X33284905Y-69443914D02*
X33332524Y-69348676D01*
X33332524Y-69348676D02*
X33427762Y-69253438D01*
X33427762Y-69253438D02*
X33570619Y-69205819D01*
X33570619Y-69205819D02*
X33665857Y-69205819D01*
X33665857Y-69205819D02*
X33808714Y-69253438D01*
X33808714Y-69253438D02*
X33856333Y-69301057D01*
X34189667Y-69205819D02*
X34856333Y-69205819D01*
X34856333Y-69205819D02*
X34427762Y-70205819D01*
X22647333Y-57358319D02*
X22647333Y-56358319D01*
X22647333Y-56358319D02*
X22980666Y-57072604D01*
X22980666Y-57072604D02*
X23313999Y-56358319D01*
X23313999Y-56358319D02*
X23313999Y-57358319D01*
X24123523Y-56834509D02*
X24266380Y-56882128D01*
X24266380Y-56882128D02*
X24313999Y-56929747D01*
X24313999Y-56929747D02*
X24361618Y-57024985D01*
X24361618Y-57024985D02*
X24361618Y-57167842D01*
X24361618Y-57167842D02*
X24313999Y-57263080D01*
X24313999Y-57263080D02*
X24266380Y-57310700D01*
X24266380Y-57310700D02*
X24171142Y-57358319D01*
X24171142Y-57358319D02*
X23790190Y-57358319D01*
X23790190Y-57358319D02*
X23790190Y-56358319D01*
X23790190Y-56358319D02*
X24123523Y-56358319D01*
X24123523Y-56358319D02*
X24218761Y-56405938D01*
X24218761Y-56405938D02*
X24266380Y-56453557D01*
X24266380Y-56453557D02*
X24313999Y-56548795D01*
X24313999Y-56548795D02*
X24313999Y-56644033D01*
X24313999Y-56644033D02*
X24266380Y-56739271D01*
X24266380Y-56739271D02*
X24218761Y-56786890D01*
X24218761Y-56786890D02*
X24123523Y-56834509D01*
X24123523Y-56834509D02*
X23790190Y-56834509D01*
X24552095Y-57453557D02*
X25313999Y-57453557D01*
X26075904Y-57358319D02*
X25504476Y-57358319D01*
X25790190Y-57358319D02*
X25790190Y-56358319D01*
X25790190Y-56358319D02*
X25694952Y-56501176D01*
X25694952Y-56501176D02*
X25599714Y-56596414D01*
X25599714Y-56596414D02*
X25504476Y-56644033D01*
X26409238Y-56358319D02*
X27028285Y-56358319D01*
X27028285Y-56358319D02*
X26694952Y-56739271D01*
X26694952Y-56739271D02*
X26837809Y-56739271D01*
X26837809Y-56739271D02*
X26933047Y-56786890D01*
X26933047Y-56786890D02*
X26980666Y-56834509D01*
X26980666Y-56834509D02*
X27028285Y-56929747D01*
X27028285Y-56929747D02*
X27028285Y-57167842D01*
X27028285Y-57167842D02*
X26980666Y-57263080D01*
X26980666Y-57263080D02*
X26933047Y-57310700D01*
X26933047Y-57310700D02*
X26837809Y-57358319D01*
X26837809Y-57358319D02*
X26552095Y-57358319D01*
X26552095Y-57358319D02*
X26456857Y-57310700D01*
X26456857Y-57310700D02*
X26409238Y-57263080D01*
X100138819Y-46936833D02*
X100853104Y-46936833D01*
X100853104Y-46936833D02*
X100995961Y-46984452D01*
X100995961Y-46984452D02*
X101091200Y-47079690D01*
X101091200Y-47079690D02*
X101138819Y-47222547D01*
X101138819Y-47222547D02*
X101138819Y-47317785D01*
X100138819Y-46555880D02*
X100138819Y-45936833D01*
X100138819Y-45936833D02*
X100519771Y-46270166D01*
X100519771Y-46270166D02*
X100519771Y-46127309D01*
X100519771Y-46127309D02*
X100567390Y-46032071D01*
X100567390Y-46032071D02*
X100615009Y-45984452D01*
X100615009Y-45984452D02*
X100710247Y-45936833D01*
X100710247Y-45936833D02*
X100948342Y-45936833D01*
X100948342Y-45936833D02*
X101043580Y-45984452D01*
X101043580Y-45984452D02*
X101091200Y-46032071D01*
X101091200Y-46032071D02*
X101138819Y-46127309D01*
X101138819Y-46127309D02*
X101138819Y-46413023D01*
X101138819Y-46413023D02*
X101091200Y-46508261D01*
X101091200Y-46508261D02*
X101043580Y-46555880D01*
X82647333Y-41158319D02*
X82647333Y-40158319D01*
X82647333Y-40158319D02*
X82980666Y-40872604D01*
X82980666Y-40872604D02*
X83313999Y-40158319D01*
X83313999Y-40158319D02*
X83313999Y-41158319D01*
X84123523Y-40634509D02*
X84266380Y-40682128D01*
X84266380Y-40682128D02*
X84313999Y-40729747D01*
X84313999Y-40729747D02*
X84361618Y-40824985D01*
X84361618Y-40824985D02*
X84361618Y-40967842D01*
X84361618Y-40967842D02*
X84313999Y-41063080D01*
X84313999Y-41063080D02*
X84266380Y-41110700D01*
X84266380Y-41110700D02*
X84171142Y-41158319D01*
X84171142Y-41158319D02*
X83790190Y-41158319D01*
X83790190Y-41158319D02*
X83790190Y-40158319D01*
X83790190Y-40158319D02*
X84123523Y-40158319D01*
X84123523Y-40158319D02*
X84218761Y-40205938D01*
X84218761Y-40205938D02*
X84266380Y-40253557D01*
X84266380Y-40253557D02*
X84313999Y-40348795D01*
X84313999Y-40348795D02*
X84313999Y-40444033D01*
X84313999Y-40444033D02*
X84266380Y-40539271D01*
X84266380Y-40539271D02*
X84218761Y-40586890D01*
X84218761Y-40586890D02*
X84123523Y-40634509D01*
X84123523Y-40634509D02*
X83790190Y-40634509D01*
X84552095Y-41253557D02*
X85313999Y-41253557D01*
X86075904Y-41158319D02*
X85504476Y-41158319D01*
X85790190Y-41158319D02*
X85790190Y-40158319D01*
X85790190Y-40158319D02*
X85694952Y-40301176D01*
X85694952Y-40301176D02*
X85599714Y-40396414D01*
X85599714Y-40396414D02*
X85504476Y-40444033D01*
X87028285Y-41158319D02*
X86456857Y-41158319D01*
X86742571Y-41158319D02*
X86742571Y-40158319D01*
X86742571Y-40158319D02*
X86647333Y-40301176D01*
X86647333Y-40301176D02*
X86552095Y-40396414D01*
X86552095Y-40396414D02*
X86456857Y-40444033D01*
X93361619Y-24198319D02*
X93361619Y-23198319D01*
X93361619Y-23198319D02*
X93694952Y-23912604D01*
X93694952Y-23912604D02*
X94028285Y-23198319D01*
X94028285Y-23198319D02*
X94028285Y-24198319D01*
X94647333Y-24198319D02*
X94552095Y-24150700D01*
X94552095Y-24150700D02*
X94504476Y-24103080D01*
X94504476Y-24103080D02*
X94456857Y-24007842D01*
X94456857Y-24007842D02*
X94456857Y-23722128D01*
X94456857Y-23722128D02*
X94504476Y-23626890D01*
X94504476Y-23626890D02*
X94552095Y-23579271D01*
X94552095Y-23579271D02*
X94647333Y-23531652D01*
X94647333Y-23531652D02*
X94790190Y-23531652D01*
X94790190Y-23531652D02*
X94885428Y-23579271D01*
X94885428Y-23579271D02*
X94933047Y-23626890D01*
X94933047Y-23626890D02*
X94980666Y-23722128D01*
X94980666Y-23722128D02*
X94980666Y-24007842D01*
X94980666Y-24007842D02*
X94933047Y-24103080D01*
X94933047Y-24103080D02*
X94885428Y-24150700D01*
X94885428Y-24150700D02*
X94790190Y-24198319D01*
X94790190Y-24198319D02*
X94647333Y-24198319D01*
X95837809Y-23531652D02*
X95837809Y-24198319D01*
X95409238Y-23531652D02*
X95409238Y-24055461D01*
X95409238Y-24055461D02*
X95456857Y-24150700D01*
X95456857Y-24150700D02*
X95552095Y-24198319D01*
X95552095Y-24198319D02*
X95694952Y-24198319D01*
X95694952Y-24198319D02*
X95790190Y-24150700D01*
X95790190Y-24150700D02*
X95837809Y-24103080D01*
X96314000Y-23531652D02*
X96314000Y-24198319D01*
X96314000Y-23626890D02*
X96361619Y-23579271D01*
X96361619Y-23579271D02*
X96456857Y-23531652D01*
X96456857Y-23531652D02*
X96599714Y-23531652D01*
X96599714Y-23531652D02*
X96694952Y-23579271D01*
X96694952Y-23579271D02*
X96742571Y-23674509D01*
X96742571Y-23674509D02*
X96742571Y-24198319D01*
X97075905Y-23531652D02*
X97456857Y-23531652D01*
X97218762Y-23198319D02*
X97218762Y-24055461D01*
X97218762Y-24055461D02*
X97266381Y-24150700D01*
X97266381Y-24150700D02*
X97361619Y-24198319D01*
X97361619Y-24198319D02*
X97456857Y-24198319D01*
X97694953Y-23198319D02*
X98314000Y-23198319D01*
X98314000Y-23198319D02*
X97980667Y-23579271D01*
X97980667Y-23579271D02*
X98123524Y-23579271D01*
X98123524Y-23579271D02*
X98218762Y-23626890D01*
X98218762Y-23626890D02*
X98266381Y-23674509D01*
X98266381Y-23674509D02*
X98314000Y-23769747D01*
X98314000Y-23769747D02*
X98314000Y-24007842D01*
X98314000Y-24007842D02*
X98266381Y-24103080D01*
X98266381Y-24103080D02*
X98218762Y-24150700D01*
X98218762Y-24150700D02*
X98123524Y-24198319D01*
X98123524Y-24198319D02*
X97837810Y-24198319D01*
X97837810Y-24198319D02*
X97742572Y-24150700D01*
X97742572Y-24150700D02*
X97694953Y-24103080D01*
X101362333Y-41756080D02*
X101314714Y-41803700D01*
X101314714Y-41803700D02*
X101171857Y-41851319D01*
X101171857Y-41851319D02*
X101076619Y-41851319D01*
X101076619Y-41851319D02*
X100933762Y-41803700D01*
X100933762Y-41803700D02*
X100838524Y-41708461D01*
X100838524Y-41708461D02*
X100790905Y-41613223D01*
X100790905Y-41613223D02*
X100743286Y-41422747D01*
X100743286Y-41422747D02*
X100743286Y-41279890D01*
X100743286Y-41279890D02*
X100790905Y-41089414D01*
X100790905Y-41089414D02*
X100838524Y-40994176D01*
X100838524Y-40994176D02*
X100933762Y-40898938D01*
X100933762Y-40898938D02*
X101076619Y-40851319D01*
X101076619Y-40851319D02*
X101171857Y-40851319D01*
X101171857Y-40851319D02*
X101314714Y-40898938D01*
X101314714Y-40898938D02*
X101362333Y-40946557D01*
X102219476Y-40851319D02*
X102029000Y-40851319D01*
X102029000Y-40851319D02*
X101933762Y-40898938D01*
X101933762Y-40898938D02*
X101886143Y-40946557D01*
X101886143Y-40946557D02*
X101790905Y-41089414D01*
X101790905Y-41089414D02*
X101743286Y-41279890D01*
X101743286Y-41279890D02*
X101743286Y-41660842D01*
X101743286Y-41660842D02*
X101790905Y-41756080D01*
X101790905Y-41756080D02*
X101838524Y-41803700D01*
X101838524Y-41803700D02*
X101933762Y-41851319D01*
X101933762Y-41851319D02*
X102124238Y-41851319D01*
X102124238Y-41851319D02*
X102219476Y-41803700D01*
X102219476Y-41803700D02*
X102267095Y-41756080D01*
X102267095Y-41756080D02*
X102314714Y-41660842D01*
X102314714Y-41660842D02*
X102314714Y-41422747D01*
X102314714Y-41422747D02*
X102267095Y-41327509D01*
X102267095Y-41327509D02*
X102219476Y-41279890D01*
X102219476Y-41279890D02*
X102124238Y-41232271D01*
X102124238Y-41232271D02*
X101933762Y-41232271D01*
X101933762Y-41232271D02*
X101838524Y-41279890D01*
X101838524Y-41279890D02*
X101790905Y-41327509D01*
X101790905Y-41327509D02*
X101743286Y-41422747D01*
X104647333Y-27358319D02*
X104647333Y-26358319D01*
X104647333Y-26358319D02*
X104980666Y-27072604D01*
X104980666Y-27072604D02*
X105313999Y-26358319D01*
X105313999Y-26358319D02*
X105313999Y-27358319D01*
X106123523Y-26834509D02*
X106266380Y-26882128D01*
X106266380Y-26882128D02*
X106313999Y-26929747D01*
X106313999Y-26929747D02*
X106361618Y-27024985D01*
X106361618Y-27024985D02*
X106361618Y-27167842D01*
X106361618Y-27167842D02*
X106313999Y-27263080D01*
X106313999Y-27263080D02*
X106266380Y-27310700D01*
X106266380Y-27310700D02*
X106171142Y-27358319D01*
X106171142Y-27358319D02*
X105790190Y-27358319D01*
X105790190Y-27358319D02*
X105790190Y-26358319D01*
X105790190Y-26358319D02*
X106123523Y-26358319D01*
X106123523Y-26358319D02*
X106218761Y-26405938D01*
X106218761Y-26405938D02*
X106266380Y-26453557D01*
X106266380Y-26453557D02*
X106313999Y-26548795D01*
X106313999Y-26548795D02*
X106313999Y-26644033D01*
X106313999Y-26644033D02*
X106266380Y-26739271D01*
X106266380Y-26739271D02*
X106218761Y-26786890D01*
X106218761Y-26786890D02*
X106123523Y-26834509D01*
X106123523Y-26834509D02*
X105790190Y-26834509D01*
X106552095Y-27453557D02*
X107313999Y-27453557D01*
X108075904Y-27358319D02*
X107504476Y-27358319D01*
X107790190Y-27358319D02*
X107790190Y-26358319D01*
X107790190Y-26358319D02*
X107694952Y-26501176D01*
X107694952Y-26501176D02*
X107599714Y-26596414D01*
X107599714Y-26596414D02*
X107504476Y-26644033D01*
X108694952Y-26358319D02*
X108790190Y-26358319D01*
X108790190Y-26358319D02*
X108885428Y-26405938D01*
X108885428Y-26405938D02*
X108933047Y-26453557D01*
X108933047Y-26453557D02*
X108980666Y-26548795D01*
X108980666Y-26548795D02*
X109028285Y-26739271D01*
X109028285Y-26739271D02*
X109028285Y-26977366D01*
X109028285Y-26977366D02*
X108980666Y-27167842D01*
X108980666Y-27167842D02*
X108933047Y-27263080D01*
X108933047Y-27263080D02*
X108885428Y-27310700D01*
X108885428Y-27310700D02*
X108790190Y-27358319D01*
X108790190Y-27358319D02*
X108694952Y-27358319D01*
X108694952Y-27358319D02*
X108599714Y-27310700D01*
X108599714Y-27310700D02*
X108552095Y-27263080D01*
X108552095Y-27263080D02*
X108504476Y-27167842D01*
X108504476Y-27167842D02*
X108456857Y-26977366D01*
X108456857Y-26977366D02*
X108456857Y-26739271D01*
X108456857Y-26739271D02*
X108504476Y-26548795D01*
X108504476Y-26548795D02*
X108552095Y-26453557D01*
X108552095Y-26453557D02*
X108599714Y-26405938D01*
X108599714Y-26405938D02*
X108694952Y-26358319D01*
X95052095Y-35958319D02*
X95052095Y-36767842D01*
X95052095Y-36767842D02*
X95099714Y-36863080D01*
X95099714Y-36863080D02*
X95147333Y-36910700D01*
X95147333Y-36910700D02*
X95242571Y-36958319D01*
X95242571Y-36958319D02*
X95433047Y-36958319D01*
X95433047Y-36958319D02*
X95528285Y-36910700D01*
X95528285Y-36910700D02*
X95575904Y-36863080D01*
X95575904Y-36863080D02*
X95623523Y-36767842D01*
X95623523Y-36767842D02*
X95623523Y-35958319D01*
X96004476Y-35958319D02*
X96623523Y-35958319D01*
X96623523Y-35958319D02*
X96290190Y-36339271D01*
X96290190Y-36339271D02*
X96433047Y-36339271D01*
X96433047Y-36339271D02*
X96528285Y-36386890D01*
X96528285Y-36386890D02*
X96575904Y-36434509D01*
X96575904Y-36434509D02*
X96623523Y-36529747D01*
X96623523Y-36529747D02*
X96623523Y-36767842D01*
X96623523Y-36767842D02*
X96575904Y-36863080D01*
X96575904Y-36863080D02*
X96528285Y-36910700D01*
X96528285Y-36910700D02*
X96433047Y-36958319D01*
X96433047Y-36958319D02*
X96147333Y-36958319D01*
X96147333Y-36958319D02*
X96052095Y-36910700D01*
X96052095Y-36910700D02*
X96004476Y-36863080D01*
X98822333Y-41729819D02*
X98489000Y-41253628D01*
X98250905Y-41729819D02*
X98250905Y-40729819D01*
X98250905Y-40729819D02*
X98631857Y-40729819D01*
X98631857Y-40729819D02*
X98727095Y-40777438D01*
X98727095Y-40777438D02*
X98774714Y-40825057D01*
X98774714Y-40825057D02*
X98822333Y-40920295D01*
X98822333Y-40920295D02*
X98822333Y-41063152D01*
X98822333Y-41063152D02*
X98774714Y-41158390D01*
X98774714Y-41158390D02*
X98727095Y-41206009D01*
X98727095Y-41206009D02*
X98631857Y-41253628D01*
X98631857Y-41253628D02*
X98250905Y-41253628D01*
X99155667Y-40729819D02*
X99774714Y-40729819D01*
X99774714Y-40729819D02*
X99441381Y-41110771D01*
X99441381Y-41110771D02*
X99584238Y-41110771D01*
X99584238Y-41110771D02*
X99679476Y-41158390D01*
X99679476Y-41158390D02*
X99727095Y-41206009D01*
X99727095Y-41206009D02*
X99774714Y-41301247D01*
X99774714Y-41301247D02*
X99774714Y-41539342D01*
X99774714Y-41539342D02*
X99727095Y-41634580D01*
X99727095Y-41634580D02*
X99679476Y-41682200D01*
X99679476Y-41682200D02*
X99584238Y-41729819D01*
X99584238Y-41729819D02*
X99298524Y-41729819D01*
X99298524Y-41729819D02*
X99203286Y-41682200D01*
X99203286Y-41682200D02*
X99155667Y-41634580D01*
X104647333Y-41158319D02*
X104647333Y-40158319D01*
X104647333Y-40158319D02*
X104980666Y-40872604D01*
X104980666Y-40872604D02*
X105313999Y-40158319D01*
X105313999Y-40158319D02*
X105313999Y-41158319D01*
X106123523Y-40634509D02*
X106266380Y-40682128D01*
X106266380Y-40682128D02*
X106313999Y-40729747D01*
X106313999Y-40729747D02*
X106361618Y-40824985D01*
X106361618Y-40824985D02*
X106361618Y-40967842D01*
X106361618Y-40967842D02*
X106313999Y-41063080D01*
X106313999Y-41063080D02*
X106266380Y-41110700D01*
X106266380Y-41110700D02*
X106171142Y-41158319D01*
X106171142Y-41158319D02*
X105790190Y-41158319D01*
X105790190Y-41158319D02*
X105790190Y-40158319D01*
X105790190Y-40158319D02*
X106123523Y-40158319D01*
X106123523Y-40158319D02*
X106218761Y-40205938D01*
X106218761Y-40205938D02*
X106266380Y-40253557D01*
X106266380Y-40253557D02*
X106313999Y-40348795D01*
X106313999Y-40348795D02*
X106313999Y-40444033D01*
X106313999Y-40444033D02*
X106266380Y-40539271D01*
X106266380Y-40539271D02*
X106218761Y-40586890D01*
X106218761Y-40586890D02*
X106123523Y-40634509D01*
X106123523Y-40634509D02*
X105790190Y-40634509D01*
X106552095Y-41253557D02*
X107313999Y-41253557D01*
X108075904Y-41158319D02*
X107504476Y-41158319D01*
X107790190Y-41158319D02*
X107790190Y-40158319D01*
X107790190Y-40158319D02*
X107694952Y-40301176D01*
X107694952Y-40301176D02*
X107599714Y-40396414D01*
X107599714Y-40396414D02*
X107504476Y-40444033D01*
X108456857Y-40253557D02*
X108504476Y-40205938D01*
X108504476Y-40205938D02*
X108599714Y-40158319D01*
X108599714Y-40158319D02*
X108837809Y-40158319D01*
X108837809Y-40158319D02*
X108933047Y-40205938D01*
X108933047Y-40205938D02*
X108980666Y-40253557D01*
X108980666Y-40253557D02*
X109028285Y-40348795D01*
X109028285Y-40348795D02*
X109028285Y-40444033D01*
X109028285Y-40444033D02*
X108980666Y-40586890D01*
X108980666Y-40586890D02*
X108409238Y-41158319D01*
X108409238Y-41158319D02*
X109028285Y-41158319D01*
X93856333Y-40110580D02*
X93808714Y-40158200D01*
X93808714Y-40158200D02*
X93665857Y-40205819D01*
X93665857Y-40205819D02*
X93570619Y-40205819D01*
X93570619Y-40205819D02*
X93427762Y-40158200D01*
X93427762Y-40158200D02*
X93332524Y-40062961D01*
X93332524Y-40062961D02*
X93284905Y-39967723D01*
X93284905Y-39967723D02*
X93237286Y-39777247D01*
X93237286Y-39777247D02*
X93237286Y-39634390D01*
X93237286Y-39634390D02*
X93284905Y-39443914D01*
X93284905Y-39443914D02*
X93332524Y-39348676D01*
X93332524Y-39348676D02*
X93427762Y-39253438D01*
X93427762Y-39253438D02*
X93570619Y-39205819D01*
X93570619Y-39205819D02*
X93665857Y-39205819D01*
X93665857Y-39205819D02*
X93808714Y-39253438D01*
X93808714Y-39253438D02*
X93856333Y-39301057D01*
X94761095Y-39205819D02*
X94284905Y-39205819D01*
X94284905Y-39205819D02*
X94237286Y-39682009D01*
X94237286Y-39682009D02*
X94284905Y-39634390D01*
X94284905Y-39634390D02*
X94380143Y-39586771D01*
X94380143Y-39586771D02*
X94618238Y-39586771D01*
X94618238Y-39586771D02*
X94713476Y-39634390D01*
X94713476Y-39634390D02*
X94761095Y-39682009D01*
X94761095Y-39682009D02*
X94808714Y-39777247D01*
X94808714Y-39777247D02*
X94808714Y-40015342D01*
X94808714Y-40015342D02*
X94761095Y-40110580D01*
X94761095Y-40110580D02*
X94713476Y-40158200D01*
X94713476Y-40158200D02*
X94618238Y-40205819D01*
X94618238Y-40205819D02*
X94380143Y-40205819D01*
X94380143Y-40205819D02*
X94284905Y-40158200D01*
X94284905Y-40158200D02*
X94237286Y-40110580D01*
X83123524Y-27358319D02*
X83123524Y-26358319D01*
X83123524Y-26358319D02*
X83456857Y-27072604D01*
X83456857Y-27072604D02*
X83790190Y-26358319D01*
X83790190Y-26358319D02*
X83790190Y-27358319D01*
X84599714Y-26834509D02*
X84742571Y-26882128D01*
X84742571Y-26882128D02*
X84790190Y-26929747D01*
X84790190Y-26929747D02*
X84837809Y-27024985D01*
X84837809Y-27024985D02*
X84837809Y-27167842D01*
X84837809Y-27167842D02*
X84790190Y-27263080D01*
X84790190Y-27263080D02*
X84742571Y-27310700D01*
X84742571Y-27310700D02*
X84647333Y-27358319D01*
X84647333Y-27358319D02*
X84266381Y-27358319D01*
X84266381Y-27358319D02*
X84266381Y-26358319D01*
X84266381Y-26358319D02*
X84599714Y-26358319D01*
X84599714Y-26358319D02*
X84694952Y-26405938D01*
X84694952Y-26405938D02*
X84742571Y-26453557D01*
X84742571Y-26453557D02*
X84790190Y-26548795D01*
X84790190Y-26548795D02*
X84790190Y-26644033D01*
X84790190Y-26644033D02*
X84742571Y-26739271D01*
X84742571Y-26739271D02*
X84694952Y-26786890D01*
X84694952Y-26786890D02*
X84599714Y-26834509D01*
X84599714Y-26834509D02*
X84266381Y-26834509D01*
X85028286Y-27453557D02*
X85790190Y-27453557D01*
X86075905Y-27358319D02*
X86266381Y-27358319D01*
X86266381Y-27358319D02*
X86361619Y-27310700D01*
X86361619Y-27310700D02*
X86409238Y-27263080D01*
X86409238Y-27263080D02*
X86504476Y-27120223D01*
X86504476Y-27120223D02*
X86552095Y-26929747D01*
X86552095Y-26929747D02*
X86552095Y-26548795D01*
X86552095Y-26548795D02*
X86504476Y-26453557D01*
X86504476Y-26453557D02*
X86456857Y-26405938D01*
X86456857Y-26405938D02*
X86361619Y-26358319D01*
X86361619Y-26358319D02*
X86171143Y-26358319D01*
X86171143Y-26358319D02*
X86075905Y-26405938D01*
X86075905Y-26405938D02*
X86028286Y-26453557D01*
X86028286Y-26453557D02*
X85980667Y-26548795D01*
X85980667Y-26548795D02*
X85980667Y-26786890D01*
X85980667Y-26786890D02*
X86028286Y-26882128D01*
X86028286Y-26882128D02*
X86075905Y-26929747D01*
X86075905Y-26929747D02*
X86171143Y-26977366D01*
X86171143Y-26977366D02*
X86361619Y-26977366D01*
X86361619Y-26977366D02*
X86456857Y-26929747D01*
X86456857Y-26929747D02*
X86504476Y-26882128D01*
X86504476Y-26882128D02*
X86552095Y-26786890D01*
X70138819Y-46936833D02*
X70853104Y-46936833D01*
X70853104Y-46936833D02*
X70995961Y-46984452D01*
X70995961Y-46984452D02*
X71091200Y-47079690D01*
X71091200Y-47079690D02*
X71138819Y-47222547D01*
X71138819Y-47222547D02*
X71138819Y-47317785D01*
X70234057Y-46508261D02*
X70186438Y-46460642D01*
X70186438Y-46460642D02*
X70138819Y-46365404D01*
X70138819Y-46365404D02*
X70138819Y-46127309D01*
X70138819Y-46127309D02*
X70186438Y-46032071D01*
X70186438Y-46032071D02*
X70234057Y-45984452D01*
X70234057Y-45984452D02*
X70329295Y-45936833D01*
X70329295Y-45936833D02*
X70424533Y-45936833D01*
X70424533Y-45936833D02*
X70567390Y-45984452D01*
X70567390Y-45984452D02*
X71138819Y-46555880D01*
X71138819Y-46555880D02*
X71138819Y-45936833D01*
X53123524Y-41158319D02*
X53123524Y-40158319D01*
X53123524Y-40158319D02*
X53456857Y-40872604D01*
X53456857Y-40872604D02*
X53790190Y-40158319D01*
X53790190Y-40158319D02*
X53790190Y-41158319D01*
X54599714Y-40634509D02*
X54742571Y-40682128D01*
X54742571Y-40682128D02*
X54790190Y-40729747D01*
X54790190Y-40729747D02*
X54837809Y-40824985D01*
X54837809Y-40824985D02*
X54837809Y-40967842D01*
X54837809Y-40967842D02*
X54790190Y-41063080D01*
X54790190Y-41063080D02*
X54742571Y-41110700D01*
X54742571Y-41110700D02*
X54647333Y-41158319D01*
X54647333Y-41158319D02*
X54266381Y-41158319D01*
X54266381Y-41158319D02*
X54266381Y-40158319D01*
X54266381Y-40158319D02*
X54599714Y-40158319D01*
X54599714Y-40158319D02*
X54694952Y-40205938D01*
X54694952Y-40205938D02*
X54742571Y-40253557D01*
X54742571Y-40253557D02*
X54790190Y-40348795D01*
X54790190Y-40348795D02*
X54790190Y-40444033D01*
X54790190Y-40444033D02*
X54742571Y-40539271D01*
X54742571Y-40539271D02*
X54694952Y-40586890D01*
X54694952Y-40586890D02*
X54599714Y-40634509D01*
X54599714Y-40634509D02*
X54266381Y-40634509D01*
X55028286Y-41253557D02*
X55790190Y-41253557D01*
X55933048Y-40158319D02*
X56599714Y-40158319D01*
X56599714Y-40158319D02*
X56171143Y-41158319D01*
X63361619Y-24198319D02*
X63361619Y-23198319D01*
X63361619Y-23198319D02*
X63694952Y-23912604D01*
X63694952Y-23912604D02*
X64028285Y-23198319D01*
X64028285Y-23198319D02*
X64028285Y-24198319D01*
X64647333Y-24198319D02*
X64552095Y-24150700D01*
X64552095Y-24150700D02*
X64504476Y-24103080D01*
X64504476Y-24103080D02*
X64456857Y-24007842D01*
X64456857Y-24007842D02*
X64456857Y-23722128D01*
X64456857Y-23722128D02*
X64504476Y-23626890D01*
X64504476Y-23626890D02*
X64552095Y-23579271D01*
X64552095Y-23579271D02*
X64647333Y-23531652D01*
X64647333Y-23531652D02*
X64790190Y-23531652D01*
X64790190Y-23531652D02*
X64885428Y-23579271D01*
X64885428Y-23579271D02*
X64933047Y-23626890D01*
X64933047Y-23626890D02*
X64980666Y-23722128D01*
X64980666Y-23722128D02*
X64980666Y-24007842D01*
X64980666Y-24007842D02*
X64933047Y-24103080D01*
X64933047Y-24103080D02*
X64885428Y-24150700D01*
X64885428Y-24150700D02*
X64790190Y-24198319D01*
X64790190Y-24198319D02*
X64647333Y-24198319D01*
X65837809Y-23531652D02*
X65837809Y-24198319D01*
X65409238Y-23531652D02*
X65409238Y-24055461D01*
X65409238Y-24055461D02*
X65456857Y-24150700D01*
X65456857Y-24150700D02*
X65552095Y-24198319D01*
X65552095Y-24198319D02*
X65694952Y-24198319D01*
X65694952Y-24198319D02*
X65790190Y-24150700D01*
X65790190Y-24150700D02*
X65837809Y-24103080D01*
X66314000Y-23531652D02*
X66314000Y-24198319D01*
X66314000Y-23626890D02*
X66361619Y-23579271D01*
X66361619Y-23579271D02*
X66456857Y-23531652D01*
X66456857Y-23531652D02*
X66599714Y-23531652D01*
X66599714Y-23531652D02*
X66694952Y-23579271D01*
X66694952Y-23579271D02*
X66742571Y-23674509D01*
X66742571Y-23674509D02*
X66742571Y-24198319D01*
X67075905Y-23531652D02*
X67456857Y-23531652D01*
X67218762Y-23198319D02*
X67218762Y-24055461D01*
X67218762Y-24055461D02*
X67266381Y-24150700D01*
X67266381Y-24150700D02*
X67361619Y-24198319D01*
X67361619Y-24198319D02*
X67456857Y-24198319D01*
X67742572Y-23293557D02*
X67790191Y-23245938D01*
X67790191Y-23245938D02*
X67885429Y-23198319D01*
X67885429Y-23198319D02*
X68123524Y-23198319D01*
X68123524Y-23198319D02*
X68218762Y-23245938D01*
X68218762Y-23245938D02*
X68266381Y-23293557D01*
X68266381Y-23293557D02*
X68314000Y-23388795D01*
X68314000Y-23388795D02*
X68314000Y-23484033D01*
X68314000Y-23484033D02*
X68266381Y-23626890D01*
X68266381Y-23626890D02*
X67694953Y-24198319D01*
X67694953Y-24198319D02*
X68314000Y-24198319D01*
X71362333Y-41756080D02*
X71314714Y-41803700D01*
X71314714Y-41803700D02*
X71171857Y-41851319D01*
X71171857Y-41851319D02*
X71076619Y-41851319D01*
X71076619Y-41851319D02*
X70933762Y-41803700D01*
X70933762Y-41803700D02*
X70838524Y-41708461D01*
X70838524Y-41708461D02*
X70790905Y-41613223D01*
X70790905Y-41613223D02*
X70743286Y-41422747D01*
X70743286Y-41422747D02*
X70743286Y-41279890D01*
X70743286Y-41279890D02*
X70790905Y-41089414D01*
X70790905Y-41089414D02*
X70838524Y-40994176D01*
X70838524Y-40994176D02*
X70933762Y-40898938D01*
X70933762Y-40898938D02*
X71076619Y-40851319D01*
X71076619Y-40851319D02*
X71171857Y-40851319D01*
X71171857Y-40851319D02*
X71314714Y-40898938D01*
X71314714Y-40898938D02*
X71362333Y-40946557D01*
X72219476Y-41184652D02*
X72219476Y-41851319D01*
X71981381Y-40803700D02*
X71743286Y-41517985D01*
X71743286Y-41517985D02*
X72362333Y-41517985D01*
X75123524Y-27358319D02*
X75123524Y-26358319D01*
X75123524Y-26358319D02*
X75456857Y-27072604D01*
X75456857Y-27072604D02*
X75790190Y-26358319D01*
X75790190Y-26358319D02*
X75790190Y-27358319D01*
X76599714Y-26834509D02*
X76742571Y-26882128D01*
X76742571Y-26882128D02*
X76790190Y-26929747D01*
X76790190Y-26929747D02*
X76837809Y-27024985D01*
X76837809Y-27024985D02*
X76837809Y-27167842D01*
X76837809Y-27167842D02*
X76790190Y-27263080D01*
X76790190Y-27263080D02*
X76742571Y-27310700D01*
X76742571Y-27310700D02*
X76647333Y-27358319D01*
X76647333Y-27358319D02*
X76266381Y-27358319D01*
X76266381Y-27358319D02*
X76266381Y-26358319D01*
X76266381Y-26358319D02*
X76599714Y-26358319D01*
X76599714Y-26358319D02*
X76694952Y-26405938D01*
X76694952Y-26405938D02*
X76742571Y-26453557D01*
X76742571Y-26453557D02*
X76790190Y-26548795D01*
X76790190Y-26548795D02*
X76790190Y-26644033D01*
X76790190Y-26644033D02*
X76742571Y-26739271D01*
X76742571Y-26739271D02*
X76694952Y-26786890D01*
X76694952Y-26786890D02*
X76599714Y-26834509D01*
X76599714Y-26834509D02*
X76266381Y-26834509D01*
X77028286Y-27453557D02*
X77790190Y-27453557D01*
X78456857Y-26358319D02*
X78266381Y-26358319D01*
X78266381Y-26358319D02*
X78171143Y-26405938D01*
X78171143Y-26405938D02*
X78123524Y-26453557D01*
X78123524Y-26453557D02*
X78028286Y-26596414D01*
X78028286Y-26596414D02*
X77980667Y-26786890D01*
X77980667Y-26786890D02*
X77980667Y-27167842D01*
X77980667Y-27167842D02*
X78028286Y-27263080D01*
X78028286Y-27263080D02*
X78075905Y-27310700D01*
X78075905Y-27310700D02*
X78171143Y-27358319D01*
X78171143Y-27358319D02*
X78361619Y-27358319D01*
X78361619Y-27358319D02*
X78456857Y-27310700D01*
X78456857Y-27310700D02*
X78504476Y-27263080D01*
X78504476Y-27263080D02*
X78552095Y-27167842D01*
X78552095Y-27167842D02*
X78552095Y-26929747D01*
X78552095Y-26929747D02*
X78504476Y-26834509D01*
X78504476Y-26834509D02*
X78456857Y-26786890D01*
X78456857Y-26786890D02*
X78361619Y-26739271D01*
X78361619Y-26739271D02*
X78171143Y-26739271D01*
X78171143Y-26739271D02*
X78075905Y-26786890D01*
X78075905Y-26786890D02*
X78028286Y-26834509D01*
X78028286Y-26834509D02*
X77980667Y-26929747D01*
X65052095Y-35958319D02*
X65052095Y-36767842D01*
X65052095Y-36767842D02*
X65099714Y-36863080D01*
X65099714Y-36863080D02*
X65147333Y-36910700D01*
X65147333Y-36910700D02*
X65242571Y-36958319D01*
X65242571Y-36958319D02*
X65433047Y-36958319D01*
X65433047Y-36958319D02*
X65528285Y-36910700D01*
X65528285Y-36910700D02*
X65575904Y-36863080D01*
X65575904Y-36863080D02*
X65623523Y-36767842D01*
X65623523Y-36767842D02*
X65623523Y-35958319D01*
X66052095Y-36053557D02*
X66099714Y-36005938D01*
X66099714Y-36005938D02*
X66194952Y-35958319D01*
X66194952Y-35958319D02*
X66433047Y-35958319D01*
X66433047Y-35958319D02*
X66528285Y-36005938D01*
X66528285Y-36005938D02*
X66575904Y-36053557D01*
X66575904Y-36053557D02*
X66623523Y-36148795D01*
X66623523Y-36148795D02*
X66623523Y-36244033D01*
X66623523Y-36244033D02*
X66575904Y-36386890D01*
X66575904Y-36386890D02*
X66004476Y-36958319D01*
X66004476Y-36958319D02*
X66623523Y-36958319D01*
X68822333Y-41729819D02*
X68489000Y-41253628D01*
X68250905Y-41729819D02*
X68250905Y-40729819D01*
X68250905Y-40729819D02*
X68631857Y-40729819D01*
X68631857Y-40729819D02*
X68727095Y-40777438D01*
X68727095Y-40777438D02*
X68774714Y-40825057D01*
X68774714Y-40825057D02*
X68822333Y-40920295D01*
X68822333Y-40920295D02*
X68822333Y-41063152D01*
X68822333Y-41063152D02*
X68774714Y-41158390D01*
X68774714Y-41158390D02*
X68727095Y-41206009D01*
X68727095Y-41206009D02*
X68631857Y-41253628D01*
X68631857Y-41253628D02*
X68250905Y-41253628D01*
X69203286Y-40825057D02*
X69250905Y-40777438D01*
X69250905Y-40777438D02*
X69346143Y-40729819D01*
X69346143Y-40729819D02*
X69584238Y-40729819D01*
X69584238Y-40729819D02*
X69679476Y-40777438D01*
X69679476Y-40777438D02*
X69727095Y-40825057D01*
X69727095Y-40825057D02*
X69774714Y-40920295D01*
X69774714Y-40920295D02*
X69774714Y-41015533D01*
X69774714Y-41015533D02*
X69727095Y-41158390D01*
X69727095Y-41158390D02*
X69155667Y-41729819D01*
X69155667Y-41729819D02*
X69774714Y-41729819D01*
X75123524Y-41158319D02*
X75123524Y-40158319D01*
X75123524Y-40158319D02*
X75456857Y-40872604D01*
X75456857Y-40872604D02*
X75790190Y-40158319D01*
X75790190Y-40158319D02*
X75790190Y-41158319D01*
X76599714Y-40634509D02*
X76742571Y-40682128D01*
X76742571Y-40682128D02*
X76790190Y-40729747D01*
X76790190Y-40729747D02*
X76837809Y-40824985D01*
X76837809Y-40824985D02*
X76837809Y-40967842D01*
X76837809Y-40967842D02*
X76790190Y-41063080D01*
X76790190Y-41063080D02*
X76742571Y-41110700D01*
X76742571Y-41110700D02*
X76647333Y-41158319D01*
X76647333Y-41158319D02*
X76266381Y-41158319D01*
X76266381Y-41158319D02*
X76266381Y-40158319D01*
X76266381Y-40158319D02*
X76599714Y-40158319D01*
X76599714Y-40158319D02*
X76694952Y-40205938D01*
X76694952Y-40205938D02*
X76742571Y-40253557D01*
X76742571Y-40253557D02*
X76790190Y-40348795D01*
X76790190Y-40348795D02*
X76790190Y-40444033D01*
X76790190Y-40444033D02*
X76742571Y-40539271D01*
X76742571Y-40539271D02*
X76694952Y-40586890D01*
X76694952Y-40586890D02*
X76599714Y-40634509D01*
X76599714Y-40634509D02*
X76266381Y-40634509D01*
X77028286Y-41253557D02*
X77790190Y-41253557D01*
X78171143Y-40586890D02*
X78075905Y-40539271D01*
X78075905Y-40539271D02*
X78028286Y-40491652D01*
X78028286Y-40491652D02*
X77980667Y-40396414D01*
X77980667Y-40396414D02*
X77980667Y-40348795D01*
X77980667Y-40348795D02*
X78028286Y-40253557D01*
X78028286Y-40253557D02*
X78075905Y-40205938D01*
X78075905Y-40205938D02*
X78171143Y-40158319D01*
X78171143Y-40158319D02*
X78361619Y-40158319D01*
X78361619Y-40158319D02*
X78456857Y-40205938D01*
X78456857Y-40205938D02*
X78504476Y-40253557D01*
X78504476Y-40253557D02*
X78552095Y-40348795D01*
X78552095Y-40348795D02*
X78552095Y-40396414D01*
X78552095Y-40396414D02*
X78504476Y-40491652D01*
X78504476Y-40491652D02*
X78456857Y-40539271D01*
X78456857Y-40539271D02*
X78361619Y-40586890D01*
X78361619Y-40586890D02*
X78171143Y-40586890D01*
X78171143Y-40586890D02*
X78075905Y-40634509D01*
X78075905Y-40634509D02*
X78028286Y-40682128D01*
X78028286Y-40682128D02*
X77980667Y-40777366D01*
X77980667Y-40777366D02*
X77980667Y-40967842D01*
X77980667Y-40967842D02*
X78028286Y-41063080D01*
X78028286Y-41063080D02*
X78075905Y-41110700D01*
X78075905Y-41110700D02*
X78171143Y-41158319D01*
X78171143Y-41158319D02*
X78361619Y-41158319D01*
X78361619Y-41158319D02*
X78456857Y-41110700D01*
X78456857Y-41110700D02*
X78504476Y-41063080D01*
X78504476Y-41063080D02*
X78552095Y-40967842D01*
X78552095Y-40967842D02*
X78552095Y-40777366D01*
X78552095Y-40777366D02*
X78504476Y-40682128D01*
X78504476Y-40682128D02*
X78456857Y-40634509D01*
X78456857Y-40634509D02*
X78361619Y-40586890D01*
X63856333Y-40110580D02*
X63808714Y-40158200D01*
X63808714Y-40158200D02*
X63665857Y-40205819D01*
X63665857Y-40205819D02*
X63570619Y-40205819D01*
X63570619Y-40205819D02*
X63427762Y-40158200D01*
X63427762Y-40158200D02*
X63332524Y-40062961D01*
X63332524Y-40062961D02*
X63284905Y-39967723D01*
X63284905Y-39967723D02*
X63237286Y-39777247D01*
X63237286Y-39777247D02*
X63237286Y-39634390D01*
X63237286Y-39634390D02*
X63284905Y-39443914D01*
X63284905Y-39443914D02*
X63332524Y-39348676D01*
X63332524Y-39348676D02*
X63427762Y-39253438D01*
X63427762Y-39253438D02*
X63570619Y-39205819D01*
X63570619Y-39205819D02*
X63665857Y-39205819D01*
X63665857Y-39205819D02*
X63808714Y-39253438D01*
X63808714Y-39253438D02*
X63856333Y-39301057D01*
X64189667Y-39205819D02*
X64808714Y-39205819D01*
X64808714Y-39205819D02*
X64475381Y-39586771D01*
X64475381Y-39586771D02*
X64618238Y-39586771D01*
X64618238Y-39586771D02*
X64713476Y-39634390D01*
X64713476Y-39634390D02*
X64761095Y-39682009D01*
X64761095Y-39682009D02*
X64808714Y-39777247D01*
X64808714Y-39777247D02*
X64808714Y-40015342D01*
X64808714Y-40015342D02*
X64761095Y-40110580D01*
X64761095Y-40110580D02*
X64713476Y-40158200D01*
X64713476Y-40158200D02*
X64618238Y-40205819D01*
X64618238Y-40205819D02*
X64332524Y-40205819D01*
X64332524Y-40205819D02*
X64237286Y-40158200D01*
X64237286Y-40158200D02*
X64189667Y-40110580D01*
X53123524Y-27358319D02*
X53123524Y-26358319D01*
X53123524Y-26358319D02*
X53456857Y-27072604D01*
X53456857Y-27072604D02*
X53790190Y-26358319D01*
X53790190Y-26358319D02*
X53790190Y-27358319D01*
X54599714Y-26834509D02*
X54742571Y-26882128D01*
X54742571Y-26882128D02*
X54790190Y-26929747D01*
X54790190Y-26929747D02*
X54837809Y-27024985D01*
X54837809Y-27024985D02*
X54837809Y-27167842D01*
X54837809Y-27167842D02*
X54790190Y-27263080D01*
X54790190Y-27263080D02*
X54742571Y-27310700D01*
X54742571Y-27310700D02*
X54647333Y-27358319D01*
X54647333Y-27358319D02*
X54266381Y-27358319D01*
X54266381Y-27358319D02*
X54266381Y-26358319D01*
X54266381Y-26358319D02*
X54599714Y-26358319D01*
X54599714Y-26358319D02*
X54694952Y-26405938D01*
X54694952Y-26405938D02*
X54742571Y-26453557D01*
X54742571Y-26453557D02*
X54790190Y-26548795D01*
X54790190Y-26548795D02*
X54790190Y-26644033D01*
X54790190Y-26644033D02*
X54742571Y-26739271D01*
X54742571Y-26739271D02*
X54694952Y-26786890D01*
X54694952Y-26786890D02*
X54599714Y-26834509D01*
X54599714Y-26834509D02*
X54266381Y-26834509D01*
X55028286Y-27453557D02*
X55790190Y-27453557D01*
X56504476Y-26358319D02*
X56028286Y-26358319D01*
X56028286Y-26358319D02*
X55980667Y-26834509D01*
X55980667Y-26834509D02*
X56028286Y-26786890D01*
X56028286Y-26786890D02*
X56123524Y-26739271D01*
X56123524Y-26739271D02*
X56361619Y-26739271D01*
X56361619Y-26739271D02*
X56456857Y-26786890D01*
X56456857Y-26786890D02*
X56504476Y-26834509D01*
X56504476Y-26834509D02*
X56552095Y-26929747D01*
X56552095Y-26929747D02*
X56552095Y-27167842D01*
X56552095Y-27167842D02*
X56504476Y-27263080D01*
X56504476Y-27263080D02*
X56456857Y-27310700D01*
X56456857Y-27310700D02*
X56361619Y-27358319D01*
X56361619Y-27358319D02*
X56123524Y-27358319D01*
X56123524Y-27358319D02*
X56028286Y-27310700D01*
X56028286Y-27310700D02*
X55980667Y-27263080D01*
X33361619Y-24198319D02*
X33361619Y-23198319D01*
X33361619Y-23198319D02*
X33694952Y-23912604D01*
X33694952Y-23912604D02*
X34028285Y-23198319D01*
X34028285Y-23198319D02*
X34028285Y-24198319D01*
X34647333Y-24198319D02*
X34552095Y-24150700D01*
X34552095Y-24150700D02*
X34504476Y-24103080D01*
X34504476Y-24103080D02*
X34456857Y-24007842D01*
X34456857Y-24007842D02*
X34456857Y-23722128D01*
X34456857Y-23722128D02*
X34504476Y-23626890D01*
X34504476Y-23626890D02*
X34552095Y-23579271D01*
X34552095Y-23579271D02*
X34647333Y-23531652D01*
X34647333Y-23531652D02*
X34790190Y-23531652D01*
X34790190Y-23531652D02*
X34885428Y-23579271D01*
X34885428Y-23579271D02*
X34933047Y-23626890D01*
X34933047Y-23626890D02*
X34980666Y-23722128D01*
X34980666Y-23722128D02*
X34980666Y-24007842D01*
X34980666Y-24007842D02*
X34933047Y-24103080D01*
X34933047Y-24103080D02*
X34885428Y-24150700D01*
X34885428Y-24150700D02*
X34790190Y-24198319D01*
X34790190Y-24198319D02*
X34647333Y-24198319D01*
X35837809Y-23531652D02*
X35837809Y-24198319D01*
X35409238Y-23531652D02*
X35409238Y-24055461D01*
X35409238Y-24055461D02*
X35456857Y-24150700D01*
X35456857Y-24150700D02*
X35552095Y-24198319D01*
X35552095Y-24198319D02*
X35694952Y-24198319D01*
X35694952Y-24198319D02*
X35790190Y-24150700D01*
X35790190Y-24150700D02*
X35837809Y-24103080D01*
X36314000Y-23531652D02*
X36314000Y-24198319D01*
X36314000Y-23626890D02*
X36361619Y-23579271D01*
X36361619Y-23579271D02*
X36456857Y-23531652D01*
X36456857Y-23531652D02*
X36599714Y-23531652D01*
X36599714Y-23531652D02*
X36694952Y-23579271D01*
X36694952Y-23579271D02*
X36742571Y-23674509D01*
X36742571Y-23674509D02*
X36742571Y-24198319D01*
X37075905Y-23531652D02*
X37456857Y-23531652D01*
X37218762Y-23198319D02*
X37218762Y-24055461D01*
X37218762Y-24055461D02*
X37266381Y-24150700D01*
X37266381Y-24150700D02*
X37361619Y-24198319D01*
X37361619Y-24198319D02*
X37456857Y-24198319D01*
X38314000Y-24198319D02*
X37742572Y-24198319D01*
X38028286Y-24198319D02*
X38028286Y-23198319D01*
X38028286Y-23198319D02*
X37933048Y-23341176D01*
X37933048Y-23341176D02*
X37837810Y-23436414D01*
X37837810Y-23436414D02*
X37742572Y-23484033D01*
X23123524Y-27358319D02*
X23123524Y-26358319D01*
X23123524Y-26358319D02*
X23456857Y-27072604D01*
X23456857Y-27072604D02*
X23790190Y-26358319D01*
X23790190Y-26358319D02*
X23790190Y-27358319D01*
X24599714Y-26834509D02*
X24742571Y-26882128D01*
X24742571Y-26882128D02*
X24790190Y-26929747D01*
X24790190Y-26929747D02*
X24837809Y-27024985D01*
X24837809Y-27024985D02*
X24837809Y-27167842D01*
X24837809Y-27167842D02*
X24790190Y-27263080D01*
X24790190Y-27263080D02*
X24742571Y-27310700D01*
X24742571Y-27310700D02*
X24647333Y-27358319D01*
X24647333Y-27358319D02*
X24266381Y-27358319D01*
X24266381Y-27358319D02*
X24266381Y-26358319D01*
X24266381Y-26358319D02*
X24599714Y-26358319D01*
X24599714Y-26358319D02*
X24694952Y-26405938D01*
X24694952Y-26405938D02*
X24742571Y-26453557D01*
X24742571Y-26453557D02*
X24790190Y-26548795D01*
X24790190Y-26548795D02*
X24790190Y-26644033D01*
X24790190Y-26644033D02*
X24742571Y-26739271D01*
X24742571Y-26739271D02*
X24694952Y-26786890D01*
X24694952Y-26786890D02*
X24599714Y-26834509D01*
X24599714Y-26834509D02*
X24266381Y-26834509D01*
X25028286Y-27453557D02*
X25790190Y-27453557D01*
X26552095Y-27358319D02*
X25980667Y-27358319D01*
X26266381Y-27358319D02*
X26266381Y-26358319D01*
X26266381Y-26358319D02*
X26171143Y-26501176D01*
X26171143Y-26501176D02*
X26075905Y-26596414D01*
X26075905Y-26596414D02*
X25980667Y-26644033D01*
X35052095Y-35958319D02*
X35052095Y-36767842D01*
X35052095Y-36767842D02*
X35099714Y-36863080D01*
X35099714Y-36863080D02*
X35147333Y-36910700D01*
X35147333Y-36910700D02*
X35242571Y-36958319D01*
X35242571Y-36958319D02*
X35433047Y-36958319D01*
X35433047Y-36958319D02*
X35528285Y-36910700D01*
X35528285Y-36910700D02*
X35575904Y-36863080D01*
X35575904Y-36863080D02*
X35623523Y-36767842D01*
X35623523Y-36767842D02*
X35623523Y-35958319D01*
X36623523Y-36958319D02*
X36052095Y-36958319D01*
X36337809Y-36958319D02*
X36337809Y-35958319D01*
X36337809Y-35958319D02*
X36242571Y-36101176D01*
X36242571Y-36101176D02*
X36147333Y-36196414D01*
X36147333Y-36196414D02*
X36052095Y-36244033D01*
X45123524Y-27358319D02*
X45123524Y-26358319D01*
X45123524Y-26358319D02*
X45456857Y-27072604D01*
X45456857Y-27072604D02*
X45790190Y-26358319D01*
X45790190Y-26358319D02*
X45790190Y-27358319D01*
X46599714Y-26834509D02*
X46742571Y-26882128D01*
X46742571Y-26882128D02*
X46790190Y-26929747D01*
X46790190Y-26929747D02*
X46837809Y-27024985D01*
X46837809Y-27024985D02*
X46837809Y-27167842D01*
X46837809Y-27167842D02*
X46790190Y-27263080D01*
X46790190Y-27263080D02*
X46742571Y-27310700D01*
X46742571Y-27310700D02*
X46647333Y-27358319D01*
X46647333Y-27358319D02*
X46266381Y-27358319D01*
X46266381Y-27358319D02*
X46266381Y-26358319D01*
X46266381Y-26358319D02*
X46599714Y-26358319D01*
X46599714Y-26358319D02*
X46694952Y-26405938D01*
X46694952Y-26405938D02*
X46742571Y-26453557D01*
X46742571Y-26453557D02*
X46790190Y-26548795D01*
X46790190Y-26548795D02*
X46790190Y-26644033D01*
X46790190Y-26644033D02*
X46742571Y-26739271D01*
X46742571Y-26739271D02*
X46694952Y-26786890D01*
X46694952Y-26786890D02*
X46599714Y-26834509D01*
X46599714Y-26834509D02*
X46266381Y-26834509D01*
X47028286Y-27453557D02*
X47790190Y-27453557D01*
X47980667Y-26453557D02*
X48028286Y-26405938D01*
X48028286Y-26405938D02*
X48123524Y-26358319D01*
X48123524Y-26358319D02*
X48361619Y-26358319D01*
X48361619Y-26358319D02*
X48456857Y-26405938D01*
X48456857Y-26405938D02*
X48504476Y-26453557D01*
X48504476Y-26453557D02*
X48552095Y-26548795D01*
X48552095Y-26548795D02*
X48552095Y-26644033D01*
X48552095Y-26644033D02*
X48504476Y-26786890D01*
X48504476Y-26786890D02*
X47933048Y-27358319D01*
X47933048Y-27358319D02*
X48552095Y-27358319D01*
X38822333Y-41729819D02*
X38489000Y-41253628D01*
X38250905Y-41729819D02*
X38250905Y-40729819D01*
X38250905Y-40729819D02*
X38631857Y-40729819D01*
X38631857Y-40729819D02*
X38727095Y-40777438D01*
X38727095Y-40777438D02*
X38774714Y-40825057D01*
X38774714Y-40825057D02*
X38822333Y-40920295D01*
X38822333Y-40920295D02*
X38822333Y-41063152D01*
X38822333Y-41063152D02*
X38774714Y-41158390D01*
X38774714Y-41158390D02*
X38727095Y-41206009D01*
X38727095Y-41206009D02*
X38631857Y-41253628D01*
X38631857Y-41253628D02*
X38250905Y-41253628D01*
X39774714Y-41729819D02*
X39203286Y-41729819D01*
X39489000Y-41729819D02*
X39489000Y-40729819D01*
X39489000Y-40729819D02*
X39393762Y-40872676D01*
X39393762Y-40872676D02*
X39298524Y-40967914D01*
X39298524Y-40967914D02*
X39203286Y-41015533D01*
X33856333Y-40110580D02*
X33808714Y-40158200D01*
X33808714Y-40158200D02*
X33665857Y-40205819D01*
X33665857Y-40205819D02*
X33570619Y-40205819D01*
X33570619Y-40205819D02*
X33427762Y-40158200D01*
X33427762Y-40158200D02*
X33332524Y-40062961D01*
X33332524Y-40062961D02*
X33284905Y-39967723D01*
X33284905Y-39967723D02*
X33237286Y-39777247D01*
X33237286Y-39777247D02*
X33237286Y-39634390D01*
X33237286Y-39634390D02*
X33284905Y-39443914D01*
X33284905Y-39443914D02*
X33332524Y-39348676D01*
X33332524Y-39348676D02*
X33427762Y-39253438D01*
X33427762Y-39253438D02*
X33570619Y-39205819D01*
X33570619Y-39205819D02*
X33665857Y-39205819D01*
X33665857Y-39205819D02*
X33808714Y-39253438D01*
X33808714Y-39253438D02*
X33856333Y-39301057D01*
X34808714Y-40205819D02*
X34237286Y-40205819D01*
X34523000Y-40205819D02*
X34523000Y-39205819D01*
X34523000Y-39205819D02*
X34427762Y-39348676D01*
X34427762Y-39348676D02*
X34332524Y-39443914D01*
X34332524Y-39443914D02*
X34237286Y-39491533D01*
X41362333Y-41756080D02*
X41314714Y-41803700D01*
X41314714Y-41803700D02*
X41171857Y-41851319D01*
X41171857Y-41851319D02*
X41076619Y-41851319D01*
X41076619Y-41851319D02*
X40933762Y-41803700D01*
X40933762Y-41803700D02*
X40838524Y-41708461D01*
X40838524Y-41708461D02*
X40790905Y-41613223D01*
X40790905Y-41613223D02*
X40743286Y-41422747D01*
X40743286Y-41422747D02*
X40743286Y-41279890D01*
X40743286Y-41279890D02*
X40790905Y-41089414D01*
X40790905Y-41089414D02*
X40838524Y-40994176D01*
X40838524Y-40994176D02*
X40933762Y-40898938D01*
X40933762Y-40898938D02*
X41076619Y-40851319D01*
X41076619Y-40851319D02*
X41171857Y-40851319D01*
X41171857Y-40851319D02*
X41314714Y-40898938D01*
X41314714Y-40898938D02*
X41362333Y-40946557D01*
X41743286Y-40946557D02*
X41790905Y-40898938D01*
X41790905Y-40898938D02*
X41886143Y-40851319D01*
X41886143Y-40851319D02*
X42124238Y-40851319D01*
X42124238Y-40851319D02*
X42219476Y-40898938D01*
X42219476Y-40898938D02*
X42267095Y-40946557D01*
X42267095Y-40946557D02*
X42314714Y-41041795D01*
X42314714Y-41041795D02*
X42314714Y-41137033D01*
X42314714Y-41137033D02*
X42267095Y-41279890D01*
X42267095Y-41279890D02*
X41695667Y-41851319D01*
X41695667Y-41851319D02*
X42314714Y-41851319D01*
X45123524Y-41158319D02*
X45123524Y-40158319D01*
X45123524Y-40158319D02*
X45456857Y-40872604D01*
X45456857Y-40872604D02*
X45790190Y-40158319D01*
X45790190Y-40158319D02*
X45790190Y-41158319D01*
X46599714Y-40634509D02*
X46742571Y-40682128D01*
X46742571Y-40682128D02*
X46790190Y-40729747D01*
X46790190Y-40729747D02*
X46837809Y-40824985D01*
X46837809Y-40824985D02*
X46837809Y-40967842D01*
X46837809Y-40967842D02*
X46790190Y-41063080D01*
X46790190Y-41063080D02*
X46742571Y-41110700D01*
X46742571Y-41110700D02*
X46647333Y-41158319D01*
X46647333Y-41158319D02*
X46266381Y-41158319D01*
X46266381Y-41158319D02*
X46266381Y-40158319D01*
X46266381Y-40158319D02*
X46599714Y-40158319D01*
X46599714Y-40158319D02*
X46694952Y-40205938D01*
X46694952Y-40205938D02*
X46742571Y-40253557D01*
X46742571Y-40253557D02*
X46790190Y-40348795D01*
X46790190Y-40348795D02*
X46790190Y-40444033D01*
X46790190Y-40444033D02*
X46742571Y-40539271D01*
X46742571Y-40539271D02*
X46694952Y-40586890D01*
X46694952Y-40586890D02*
X46599714Y-40634509D01*
X46599714Y-40634509D02*
X46266381Y-40634509D01*
X47028286Y-41253557D02*
X47790190Y-41253557D01*
X48456857Y-40491652D02*
X48456857Y-41158319D01*
X48218762Y-40110700D02*
X47980667Y-40824985D01*
X47980667Y-40824985D02*
X48599714Y-40824985D01*
X23123524Y-41158319D02*
X23123524Y-40158319D01*
X23123524Y-40158319D02*
X23456857Y-40872604D01*
X23456857Y-40872604D02*
X23790190Y-40158319D01*
X23790190Y-40158319D02*
X23790190Y-41158319D01*
X24599714Y-40634509D02*
X24742571Y-40682128D01*
X24742571Y-40682128D02*
X24790190Y-40729747D01*
X24790190Y-40729747D02*
X24837809Y-40824985D01*
X24837809Y-40824985D02*
X24837809Y-40967842D01*
X24837809Y-40967842D02*
X24790190Y-41063080D01*
X24790190Y-41063080D02*
X24742571Y-41110700D01*
X24742571Y-41110700D02*
X24647333Y-41158319D01*
X24647333Y-41158319D02*
X24266381Y-41158319D01*
X24266381Y-41158319D02*
X24266381Y-40158319D01*
X24266381Y-40158319D02*
X24599714Y-40158319D01*
X24599714Y-40158319D02*
X24694952Y-40205938D01*
X24694952Y-40205938D02*
X24742571Y-40253557D01*
X24742571Y-40253557D02*
X24790190Y-40348795D01*
X24790190Y-40348795D02*
X24790190Y-40444033D01*
X24790190Y-40444033D02*
X24742571Y-40539271D01*
X24742571Y-40539271D02*
X24694952Y-40586890D01*
X24694952Y-40586890D02*
X24599714Y-40634509D01*
X24599714Y-40634509D02*
X24266381Y-40634509D01*
X25028286Y-41253557D02*
X25790190Y-41253557D01*
X25933048Y-40158319D02*
X26552095Y-40158319D01*
X26552095Y-40158319D02*
X26218762Y-40539271D01*
X26218762Y-40539271D02*
X26361619Y-40539271D01*
X26361619Y-40539271D02*
X26456857Y-40586890D01*
X26456857Y-40586890D02*
X26504476Y-40634509D01*
X26504476Y-40634509D02*
X26552095Y-40729747D01*
X26552095Y-40729747D02*
X26552095Y-40967842D01*
X26552095Y-40967842D02*
X26504476Y-41063080D01*
X26504476Y-41063080D02*
X26456857Y-41110700D01*
X26456857Y-41110700D02*
X26361619Y-41158319D01*
X26361619Y-41158319D02*
X26075905Y-41158319D01*
X26075905Y-41158319D02*
X25980667Y-41110700D01*
X25980667Y-41110700D02*
X25933048Y-41063080D01*
X40138819Y-46936833D02*
X40853104Y-46936833D01*
X40853104Y-46936833D02*
X40995961Y-46984452D01*
X40995961Y-46984452D02*
X41091200Y-47079690D01*
X41091200Y-47079690D02*
X41138819Y-47222547D01*
X41138819Y-47222547D02*
X41138819Y-47317785D01*
X41138819Y-45936833D02*
X41138819Y-46508261D01*
X41138819Y-46222547D02*
X40138819Y-46222547D01*
X40138819Y-46222547D02*
X40281676Y-46317785D01*
X40281676Y-46317785D02*
X40376914Y-46413023D01*
X40376914Y-46413023D02*
X40424533Y-46508261D01*
D11*
G04 #@! TO.C,J9*
X99684000Y-105273500D02*
X99684000Y-106603500D01*
X98354000Y-105273500D02*
X99684000Y-105273500D01*
X97084000Y-107933500D02*
X91944000Y-107933500D01*
X97084000Y-105273500D02*
X97084000Y-107933500D01*
X97084000Y-105273500D02*
X91944000Y-105273500D01*
X91944000Y-105273500D02*
X91944000Y-107933500D01*
G04 #@! TO.C,Mount9*
X94544000Y-79873500D02*
X99684000Y-79873500D01*
X99684000Y-82533500D02*
X99684000Y-79873500D01*
X94544000Y-82533500D02*
X94544000Y-79873500D01*
X94544000Y-82533500D02*
X99684000Y-82533500D01*
X93274000Y-82533500D02*
X91944000Y-82533500D01*
X91944000Y-82533500D02*
X91944000Y-81203500D01*
G04 #@! TO.C,C18*
X102039000Y-99142580D02*
X102039000Y-98861420D01*
X101019000Y-99142580D02*
X101019000Y-98861420D01*
G04 #@! TO.C,U9*
X97374000Y-93703500D02*
X97374000Y-94353500D01*
X97374000Y-93703500D02*
X97374000Y-93053500D01*
X94254000Y-93703500D02*
X94254000Y-95378500D01*
X94254000Y-93703500D02*
X94254000Y-93053500D01*
G04 #@! TO.C,R9*
X99511500Y-99162258D02*
X99511500Y-98687742D01*
X98466500Y-99162258D02*
X98466500Y-98687742D01*
G04 #@! TO.C,C17*
X93882420Y-98356000D02*
X94163580Y-98356000D01*
X93882420Y-97336000D02*
X94163580Y-97336000D01*
G04 #@! TO.C,J8*
X69684000Y-105273500D02*
X69684000Y-106603500D01*
X68354000Y-105273500D02*
X69684000Y-105273500D01*
X67084000Y-107933500D02*
X61944000Y-107933500D01*
X67084000Y-105273500D02*
X67084000Y-107933500D01*
X67084000Y-105273500D02*
X61944000Y-105273500D01*
X61944000Y-105273500D02*
X61944000Y-107933500D01*
G04 #@! TO.C,Mount8*
X64544000Y-79873500D02*
X69684000Y-79873500D01*
X69684000Y-82533500D02*
X69684000Y-79873500D01*
X64544000Y-82533500D02*
X64544000Y-79873500D01*
X64544000Y-82533500D02*
X69684000Y-82533500D01*
X63274000Y-82533500D02*
X61944000Y-82533500D01*
X61944000Y-82533500D02*
X61944000Y-81203500D01*
G04 #@! TO.C,C16*
X72039000Y-99142580D02*
X72039000Y-98861420D01*
X71019000Y-99142580D02*
X71019000Y-98861420D01*
G04 #@! TO.C,U8*
X67374000Y-93703500D02*
X67374000Y-94353500D01*
X67374000Y-93703500D02*
X67374000Y-93053500D01*
X64254000Y-93703500D02*
X64254000Y-95378500D01*
X64254000Y-93703500D02*
X64254000Y-93053500D01*
G04 #@! TO.C,R8*
X69511500Y-99162258D02*
X69511500Y-98687742D01*
X68466500Y-99162258D02*
X68466500Y-98687742D01*
G04 #@! TO.C,C15*
X63882420Y-98356000D02*
X64163580Y-98356000D01*
X63882420Y-97336000D02*
X64163580Y-97336000D01*
G04 #@! TO.C,J7*
X39684000Y-105273500D02*
X39684000Y-106603500D01*
X38354000Y-105273500D02*
X39684000Y-105273500D01*
X37084000Y-107933500D02*
X31944000Y-107933500D01*
X37084000Y-105273500D02*
X37084000Y-107933500D01*
X37084000Y-105273500D02*
X31944000Y-105273500D01*
X31944000Y-105273500D02*
X31944000Y-107933500D01*
G04 #@! TO.C,Mount7*
X34544000Y-79873500D02*
X39684000Y-79873500D01*
X39684000Y-82533500D02*
X39684000Y-79873500D01*
X34544000Y-82533500D02*
X34544000Y-79873500D01*
X34544000Y-82533500D02*
X39684000Y-82533500D01*
X33274000Y-82533500D02*
X31944000Y-82533500D01*
X31944000Y-82533500D02*
X31944000Y-81203500D01*
G04 #@! TO.C,C14*
X42039000Y-99142580D02*
X42039000Y-98861420D01*
X41019000Y-99142580D02*
X41019000Y-98861420D01*
G04 #@! TO.C,U7*
X37374000Y-93703500D02*
X37374000Y-94353500D01*
X37374000Y-93703500D02*
X37374000Y-93053500D01*
X34254000Y-93703500D02*
X34254000Y-95378500D01*
X34254000Y-93703500D02*
X34254000Y-93053500D01*
G04 #@! TO.C,R7*
X39511500Y-99162258D02*
X39511500Y-98687742D01*
X38466500Y-99162258D02*
X38466500Y-98687742D01*
G04 #@! TO.C,C13*
X33882420Y-98356000D02*
X34163580Y-98356000D01*
X33882420Y-97336000D02*
X34163580Y-97336000D01*
G04 #@! TO.C,J6*
X99684000Y-75273500D02*
X99684000Y-76603500D01*
X98354000Y-75273500D02*
X99684000Y-75273500D01*
X97084000Y-77933500D02*
X91944000Y-77933500D01*
X97084000Y-75273500D02*
X97084000Y-77933500D01*
X97084000Y-75273500D02*
X91944000Y-75273500D01*
X91944000Y-75273500D02*
X91944000Y-77933500D01*
G04 #@! TO.C,Mount6*
X94544000Y-49873500D02*
X99684000Y-49873500D01*
X99684000Y-52533500D02*
X99684000Y-49873500D01*
X94544000Y-52533500D02*
X94544000Y-49873500D01*
X94544000Y-52533500D02*
X99684000Y-52533500D01*
X93274000Y-52533500D02*
X91944000Y-52533500D01*
X91944000Y-52533500D02*
X91944000Y-51203500D01*
G04 #@! TO.C,C12*
X102039000Y-69142580D02*
X102039000Y-68861420D01*
X101019000Y-69142580D02*
X101019000Y-68861420D01*
G04 #@! TO.C,U6*
X97374000Y-63703500D02*
X97374000Y-64353500D01*
X97374000Y-63703500D02*
X97374000Y-63053500D01*
X94254000Y-63703500D02*
X94254000Y-65378500D01*
X94254000Y-63703500D02*
X94254000Y-63053500D01*
G04 #@! TO.C,R6*
X99511500Y-69162258D02*
X99511500Y-68687742D01*
X98466500Y-69162258D02*
X98466500Y-68687742D01*
G04 #@! TO.C,C11*
X93882420Y-68356000D02*
X94163580Y-68356000D01*
X93882420Y-67336000D02*
X94163580Y-67336000D01*
G04 #@! TO.C,J5*
X69684000Y-75273500D02*
X69684000Y-76603500D01*
X68354000Y-75273500D02*
X69684000Y-75273500D01*
X67084000Y-77933500D02*
X61944000Y-77933500D01*
X67084000Y-75273500D02*
X67084000Y-77933500D01*
X67084000Y-75273500D02*
X61944000Y-75273500D01*
X61944000Y-75273500D02*
X61944000Y-77933500D01*
G04 #@! TO.C,Mount5*
X64544000Y-49873500D02*
X69684000Y-49873500D01*
X69684000Y-52533500D02*
X69684000Y-49873500D01*
X64544000Y-52533500D02*
X64544000Y-49873500D01*
X64544000Y-52533500D02*
X69684000Y-52533500D01*
X63274000Y-52533500D02*
X61944000Y-52533500D01*
X61944000Y-52533500D02*
X61944000Y-51203500D01*
G04 #@! TO.C,C10*
X72039000Y-69142580D02*
X72039000Y-68861420D01*
X71019000Y-69142580D02*
X71019000Y-68861420D01*
G04 #@! TO.C,U5*
X67374000Y-63703500D02*
X67374000Y-64353500D01*
X67374000Y-63703500D02*
X67374000Y-63053500D01*
X64254000Y-63703500D02*
X64254000Y-65378500D01*
X64254000Y-63703500D02*
X64254000Y-63053500D01*
G04 #@! TO.C,R5*
X69511500Y-69162258D02*
X69511500Y-68687742D01*
X68466500Y-69162258D02*
X68466500Y-68687742D01*
G04 #@! TO.C,C9*
X63882420Y-68356000D02*
X64163580Y-68356000D01*
X63882420Y-67336000D02*
X64163580Y-67336000D01*
G04 #@! TO.C,J4*
X39684000Y-75273500D02*
X39684000Y-76603500D01*
X38354000Y-75273500D02*
X39684000Y-75273500D01*
X37084000Y-77933500D02*
X31944000Y-77933500D01*
X37084000Y-75273500D02*
X37084000Y-77933500D01*
X37084000Y-75273500D02*
X31944000Y-75273500D01*
X31944000Y-75273500D02*
X31944000Y-77933500D01*
G04 #@! TO.C,Mount4*
X34544000Y-49873500D02*
X39684000Y-49873500D01*
X39684000Y-52533500D02*
X39684000Y-49873500D01*
X34544000Y-52533500D02*
X34544000Y-49873500D01*
X34544000Y-52533500D02*
X39684000Y-52533500D01*
X33274000Y-52533500D02*
X31944000Y-52533500D01*
X31944000Y-52533500D02*
X31944000Y-51203500D01*
G04 #@! TO.C,C8*
X42039000Y-69142580D02*
X42039000Y-68861420D01*
X41019000Y-69142580D02*
X41019000Y-68861420D01*
G04 #@! TO.C,U4*
X37374000Y-63703500D02*
X37374000Y-64353500D01*
X37374000Y-63703500D02*
X37374000Y-63053500D01*
X34254000Y-63703500D02*
X34254000Y-65378500D01*
X34254000Y-63703500D02*
X34254000Y-63053500D01*
G04 #@! TO.C,R4*
X39511500Y-69162258D02*
X39511500Y-68687742D01*
X38466500Y-69162258D02*
X38466500Y-68687742D01*
G04 #@! TO.C,C7*
X33882420Y-68356000D02*
X34163580Y-68356000D01*
X33882420Y-67336000D02*
X34163580Y-67336000D01*
G04 #@! TO.C,J3*
X99684000Y-45273500D02*
X99684000Y-46603500D01*
X98354000Y-45273500D02*
X99684000Y-45273500D01*
X97084000Y-47933500D02*
X91944000Y-47933500D01*
X97084000Y-45273500D02*
X97084000Y-47933500D01*
X97084000Y-45273500D02*
X91944000Y-45273500D01*
X91944000Y-45273500D02*
X91944000Y-47933500D01*
G04 #@! TO.C,Mount3*
X94544000Y-19873500D02*
X99684000Y-19873500D01*
X99684000Y-22533500D02*
X99684000Y-19873500D01*
X94544000Y-22533500D02*
X94544000Y-19873500D01*
X94544000Y-22533500D02*
X99684000Y-22533500D01*
X93274000Y-22533500D02*
X91944000Y-22533500D01*
X91944000Y-22533500D02*
X91944000Y-21203500D01*
G04 #@! TO.C,C6*
X102039000Y-39142580D02*
X102039000Y-38861420D01*
X101019000Y-39142580D02*
X101019000Y-38861420D01*
G04 #@! TO.C,U3*
X97374000Y-33703500D02*
X97374000Y-34353500D01*
X97374000Y-33703500D02*
X97374000Y-33053500D01*
X94254000Y-33703500D02*
X94254000Y-35378500D01*
X94254000Y-33703500D02*
X94254000Y-33053500D01*
G04 #@! TO.C,R3*
X99511500Y-39162258D02*
X99511500Y-38687742D01*
X98466500Y-39162258D02*
X98466500Y-38687742D01*
G04 #@! TO.C,C5*
X93882420Y-38356000D02*
X94163580Y-38356000D01*
X93882420Y-37336000D02*
X94163580Y-37336000D01*
G04 #@! TO.C,J2*
X69684000Y-45273500D02*
X69684000Y-46603500D01*
X68354000Y-45273500D02*
X69684000Y-45273500D01*
X67084000Y-47933500D02*
X61944000Y-47933500D01*
X67084000Y-45273500D02*
X67084000Y-47933500D01*
X67084000Y-45273500D02*
X61944000Y-45273500D01*
X61944000Y-45273500D02*
X61944000Y-47933500D01*
G04 #@! TO.C,Mount2*
X64544000Y-19873500D02*
X69684000Y-19873500D01*
X69684000Y-22533500D02*
X69684000Y-19873500D01*
X64544000Y-22533500D02*
X64544000Y-19873500D01*
X64544000Y-22533500D02*
X69684000Y-22533500D01*
X63274000Y-22533500D02*
X61944000Y-22533500D01*
X61944000Y-22533500D02*
X61944000Y-21203500D01*
G04 #@! TO.C,C4*
X72039000Y-39142580D02*
X72039000Y-38861420D01*
X71019000Y-39142580D02*
X71019000Y-38861420D01*
G04 #@! TO.C,U2*
X67374000Y-33703500D02*
X67374000Y-34353500D01*
X67374000Y-33703500D02*
X67374000Y-33053500D01*
X64254000Y-33703500D02*
X64254000Y-35378500D01*
X64254000Y-33703500D02*
X64254000Y-33053500D01*
G04 #@! TO.C,R2*
X69511500Y-39162258D02*
X69511500Y-38687742D01*
X68466500Y-39162258D02*
X68466500Y-38687742D01*
G04 #@! TO.C,C3*
X63882420Y-38356000D02*
X64163580Y-38356000D01*
X63882420Y-37336000D02*
X64163580Y-37336000D01*
G04 #@! TO.C,Mount1*
X34544000Y-19873500D02*
X39684000Y-19873500D01*
X39684000Y-22533500D02*
X39684000Y-19873500D01*
X34544000Y-22533500D02*
X34544000Y-19873500D01*
X34544000Y-22533500D02*
X39684000Y-22533500D01*
X33274000Y-22533500D02*
X31944000Y-22533500D01*
X31944000Y-22533500D02*
X31944000Y-21203500D01*
G04 #@! TO.C,U1*
X37374000Y-33703500D02*
X37374000Y-34353500D01*
X37374000Y-33703500D02*
X37374000Y-33053500D01*
X34254000Y-33703500D02*
X34254000Y-35378500D01*
X34254000Y-33703500D02*
X34254000Y-33053500D01*
G04 #@! TO.C,R1*
X39511500Y-39162258D02*
X39511500Y-38687742D01*
X38466500Y-39162258D02*
X38466500Y-38687742D01*
G04 #@! TO.C,C1*
X33882420Y-38356000D02*
X34163580Y-38356000D01*
X33882420Y-37336000D02*
X34163580Y-37336000D01*
G04 #@! TO.C,C2*
X42039000Y-39142580D02*
X42039000Y-38861420D01*
X41019000Y-39142580D02*
X41019000Y-38861420D01*
G04 #@! TO.C,J1*
X39684000Y-45273500D02*
X39684000Y-46603500D01*
X38354000Y-45273500D02*
X39684000Y-45273500D01*
X37084000Y-47933500D02*
X31944000Y-47933500D01*
X37084000Y-45273500D02*
X37084000Y-47933500D01*
X37084000Y-45273500D02*
X31944000Y-45273500D01*
X31944000Y-45273500D02*
X31944000Y-47933500D01*
G04 #@! TD*
M02*
