G04 #@! TF.GenerationSoftware,KiCad,Pcbnew,8.0.3*
G04 #@! TF.CreationDate,2024-06-06T13:43:45+09:00*
G04 #@! TF.ProjectId,analog_switch_tester,616e616c-6f67-45f7-9377-697463685f74,1*
G04 #@! TF.SameCoordinates,Original*
G04 #@! TF.FileFunction,Soldermask,Top*
G04 #@! TF.FilePolarity,Negative*
%FSLAX46Y46*%
G04 Gerber Fmt 4.6, Leading zero omitted, Abs format (unit mm)*
G04 Created by KiCad (PCBNEW 8.0.3) date 2024-06-06 13:43:45*
%MOMM*%
%LPD*%
G01*
G04 APERTURE LIST*
G04 Aperture macros list*
%AMRoundRect*
0 Rectangle with rounded corners*
0 $1 Rounding radius*
0 $2 $3 $4 $5 $6 $7 $8 $9 X,Y pos of 4 corners*
0 Add a 4 corners polygon primitive as box body*
4,1,4,$2,$3,$4,$5,$6,$7,$8,$9,$2,$3,0*
0 Add four circle primitives for the rounded corners*
1,1,$1+$1,$2,$3*
1,1,$1+$1,$4,$5*
1,1,$1+$1,$6,$7*
1,1,$1+$1,$8,$9*
0 Add four rect primitives between the rounded corners*
20,1,$1+$1,$2,$3,$4,$5,0*
20,1,$1+$1,$4,$5,$6,$7,0*
20,1,$1+$1,$6,$7,$8,$9,0*
20,1,$1+$1,$8,$9,$2,$3,0*%
G04 Aperture macros list end*
%ADD10O,1.700000X1.700000*%
%ADD11R,1.700000X1.700000*%
%ADD12C,3.200000*%
%ADD13RoundRect,0.225000X0.250000X-0.225000X0.250000X0.225000X-0.250000X0.225000X-0.250000X-0.225000X0*%
%ADD14RoundRect,0.150000X0.150000X-0.587500X0.150000X0.587500X-0.150000X0.587500X-0.150000X-0.587500X0*%
%ADD15C,1.750000*%
%ADD16RoundRect,0.200000X0.275000X-0.200000X0.275000X0.200000X-0.275000X0.200000X-0.275000X-0.200000X0*%
%ADD17RoundRect,0.225000X-0.225000X-0.250000X0.225000X-0.250000X0.225000X0.250000X-0.225000X0.250000X0*%
G04 APERTURE END LIST*
D10*
G04 #@! TO.C,J9*
X93274000Y-106603500D03*
X95814000Y-106603500D03*
D11*
X98354000Y-106603500D03*
G04 #@! TD*
D12*
G04 #@! TO.C,MB_35*
X84814000Y-104903500D03*
G04 #@! TD*
D10*
G04 #@! TO.C,Mount9*
X98354000Y-81203500D03*
X95814000Y-81203500D03*
D11*
X93274000Y-81203500D03*
G04 #@! TD*
D13*
G04 #@! TO.C,C18*
X101529000Y-98227000D03*
X101529000Y-99777000D03*
G04 #@! TD*
D12*
G04 #@! TO.C,MB_34*
X106814000Y-82903500D03*
G04 #@! TD*
D14*
G04 #@! TO.C,U9*
X95814000Y-92766000D03*
X96764000Y-94641000D03*
X94864000Y-94641000D03*
D15*
X90734000Y-93903500D03*
X100894000Y-93903500D03*
G04 #@! TD*
D16*
G04 #@! TO.C,R9*
X98989000Y-98100000D03*
X98989000Y-99750000D03*
G04 #@! TD*
D12*
G04 #@! TO.C,MB_36*
X106814000Y-104903500D03*
G04 #@! TD*
D17*
G04 #@! TO.C,C17*
X94798000Y-97846000D03*
X93248000Y-97846000D03*
G04 #@! TD*
D12*
G04 #@! TO.C,MB_33*
X84814000Y-82903500D03*
G04 #@! TD*
D10*
G04 #@! TO.C,J8*
X63274000Y-106603500D03*
X65814000Y-106603500D03*
D11*
X68354000Y-106603500D03*
G04 #@! TD*
D12*
G04 #@! TO.C,MB_31*
X54814000Y-104903500D03*
G04 #@! TD*
D10*
G04 #@! TO.C,Mount8*
X68354000Y-81203500D03*
X65814000Y-81203500D03*
D11*
X63274000Y-81203500D03*
G04 #@! TD*
D13*
G04 #@! TO.C,C16*
X71529000Y-98227000D03*
X71529000Y-99777000D03*
G04 #@! TD*
D12*
G04 #@! TO.C,MB_30*
X76814000Y-82903500D03*
G04 #@! TD*
D14*
G04 #@! TO.C,U8*
X65814000Y-92766000D03*
X66764000Y-94641000D03*
X64864000Y-94641000D03*
D15*
X60734000Y-93903500D03*
X70894000Y-93903500D03*
G04 #@! TD*
D16*
G04 #@! TO.C,R8*
X68989000Y-98100000D03*
X68989000Y-99750000D03*
G04 #@! TD*
D12*
G04 #@! TO.C,MB_32*
X76814000Y-104903500D03*
G04 #@! TD*
D17*
G04 #@! TO.C,C15*
X64798000Y-97846000D03*
X63248000Y-97846000D03*
G04 #@! TD*
D12*
G04 #@! TO.C,MB_29*
X54814000Y-82903500D03*
G04 #@! TD*
D10*
G04 #@! TO.C,J7*
X33274000Y-106603500D03*
X35814000Y-106603500D03*
D11*
X38354000Y-106603500D03*
G04 #@! TD*
D12*
G04 #@! TO.C,MB_27*
X24814000Y-104903500D03*
G04 #@! TD*
D10*
G04 #@! TO.C,Mount7*
X38354000Y-81203500D03*
X35814000Y-81203500D03*
D11*
X33274000Y-81203500D03*
G04 #@! TD*
D13*
G04 #@! TO.C,C14*
X41529000Y-98227000D03*
X41529000Y-99777000D03*
G04 #@! TD*
D12*
G04 #@! TO.C,MB_26*
X46814000Y-82903500D03*
G04 #@! TD*
D14*
G04 #@! TO.C,U7*
X35814000Y-92766000D03*
X36764000Y-94641000D03*
X34864000Y-94641000D03*
D15*
X30734000Y-93903500D03*
X40894000Y-93903500D03*
G04 #@! TD*
D16*
G04 #@! TO.C,R7*
X38989000Y-98100000D03*
X38989000Y-99750000D03*
G04 #@! TD*
D12*
G04 #@! TO.C,MB_28*
X46814000Y-104903500D03*
G04 #@! TD*
D17*
G04 #@! TO.C,C13*
X34798000Y-97846000D03*
X33248000Y-97846000D03*
G04 #@! TD*
D12*
G04 #@! TO.C,MB_25*
X24814000Y-82903500D03*
G04 #@! TD*
D10*
G04 #@! TO.C,J6*
X93274000Y-76603500D03*
X95814000Y-76603500D03*
D11*
X98354000Y-76603500D03*
G04 #@! TD*
D12*
G04 #@! TO.C,MB_23*
X84814000Y-74903500D03*
G04 #@! TD*
D10*
G04 #@! TO.C,Mount6*
X98354000Y-51203500D03*
X95814000Y-51203500D03*
D11*
X93274000Y-51203500D03*
G04 #@! TD*
D13*
G04 #@! TO.C,C12*
X101529000Y-68227000D03*
X101529000Y-69777000D03*
G04 #@! TD*
D12*
G04 #@! TO.C,MB_22*
X106814000Y-52903500D03*
G04 #@! TD*
D14*
G04 #@! TO.C,U6*
X95814000Y-62766000D03*
X96764000Y-64641000D03*
X94864000Y-64641000D03*
D15*
X90734000Y-63903500D03*
X100894000Y-63903500D03*
G04 #@! TD*
D16*
G04 #@! TO.C,R6*
X98989000Y-68100000D03*
X98989000Y-69750000D03*
G04 #@! TD*
D12*
G04 #@! TO.C,MB_24*
X106814000Y-74903500D03*
G04 #@! TD*
D17*
G04 #@! TO.C,C11*
X94798000Y-67846000D03*
X93248000Y-67846000D03*
G04 #@! TD*
D12*
G04 #@! TO.C,MB_21*
X84814000Y-52903500D03*
G04 #@! TD*
D10*
G04 #@! TO.C,J5*
X63274000Y-76603500D03*
X65814000Y-76603500D03*
D11*
X68354000Y-76603500D03*
G04 #@! TD*
D12*
G04 #@! TO.C,MB_19*
X54814000Y-74903500D03*
G04 #@! TD*
D10*
G04 #@! TO.C,Mount5*
X68354000Y-51203500D03*
X65814000Y-51203500D03*
D11*
X63274000Y-51203500D03*
G04 #@! TD*
D13*
G04 #@! TO.C,C10*
X71529000Y-68227000D03*
X71529000Y-69777000D03*
G04 #@! TD*
D12*
G04 #@! TO.C,MB_18*
X76814000Y-52903500D03*
G04 #@! TD*
D14*
G04 #@! TO.C,U5*
X65814000Y-62766000D03*
X66764000Y-64641000D03*
X64864000Y-64641000D03*
D15*
X60734000Y-63903500D03*
X70894000Y-63903500D03*
G04 #@! TD*
D16*
G04 #@! TO.C,R5*
X68989000Y-68100000D03*
X68989000Y-69750000D03*
G04 #@! TD*
D12*
G04 #@! TO.C,MB_20*
X76814000Y-74903500D03*
G04 #@! TD*
D17*
G04 #@! TO.C,C9*
X64798000Y-67846000D03*
X63248000Y-67846000D03*
G04 #@! TD*
D12*
G04 #@! TO.C,MB_17*
X54814000Y-52903500D03*
G04 #@! TD*
D10*
G04 #@! TO.C,J4*
X33274000Y-76603500D03*
X35814000Y-76603500D03*
D11*
X38354000Y-76603500D03*
G04 #@! TD*
D12*
G04 #@! TO.C,MB_15*
X24814000Y-74903500D03*
G04 #@! TD*
D10*
G04 #@! TO.C,Mount4*
X38354000Y-51203500D03*
X35814000Y-51203500D03*
D11*
X33274000Y-51203500D03*
G04 #@! TD*
D13*
G04 #@! TO.C,C8*
X41529000Y-68227000D03*
X41529000Y-69777000D03*
G04 #@! TD*
D12*
G04 #@! TO.C,MB_14*
X46814000Y-52903500D03*
G04 #@! TD*
D14*
G04 #@! TO.C,U4*
X35814000Y-62766000D03*
X36764000Y-64641000D03*
X34864000Y-64641000D03*
D15*
X30734000Y-63903500D03*
X40894000Y-63903500D03*
G04 #@! TD*
D16*
G04 #@! TO.C,R4*
X38989000Y-68100000D03*
X38989000Y-69750000D03*
G04 #@! TD*
D12*
G04 #@! TO.C,MB_16*
X46814000Y-74903500D03*
G04 #@! TD*
D17*
G04 #@! TO.C,C7*
X34798000Y-67846000D03*
X33248000Y-67846000D03*
G04 #@! TD*
D12*
G04 #@! TO.C,MB_13*
X24814000Y-52903500D03*
G04 #@! TD*
D10*
G04 #@! TO.C,J3*
X93274000Y-46603500D03*
X95814000Y-46603500D03*
D11*
X98354000Y-46603500D03*
G04 #@! TD*
D12*
G04 #@! TO.C,MB_11*
X84814000Y-44903500D03*
G04 #@! TD*
D10*
G04 #@! TO.C,Mount3*
X98354000Y-21203500D03*
X95814000Y-21203500D03*
D11*
X93274000Y-21203500D03*
G04 #@! TD*
D13*
G04 #@! TO.C,C6*
X101529000Y-38227000D03*
X101529000Y-39777000D03*
G04 #@! TD*
D12*
G04 #@! TO.C,MB_10*
X106814000Y-22903500D03*
G04 #@! TD*
D14*
G04 #@! TO.C,U3*
X95814000Y-32766000D03*
X96764000Y-34641000D03*
X94864000Y-34641000D03*
D15*
X90734000Y-33903500D03*
X100894000Y-33903500D03*
G04 #@! TD*
D16*
G04 #@! TO.C,R3*
X98989000Y-38100000D03*
X98989000Y-39750000D03*
G04 #@! TD*
D12*
G04 #@! TO.C,MB_12*
X106814000Y-44903500D03*
G04 #@! TD*
D17*
G04 #@! TO.C,C5*
X94798000Y-37846000D03*
X93248000Y-37846000D03*
G04 #@! TD*
D12*
G04 #@! TO.C,MB_9*
X84814000Y-22903500D03*
G04 #@! TD*
D10*
G04 #@! TO.C,J2*
X63274000Y-46603500D03*
X65814000Y-46603500D03*
D11*
X68354000Y-46603500D03*
G04 #@! TD*
D12*
G04 #@! TO.C,MB_7*
X54814000Y-44903500D03*
G04 #@! TD*
D10*
G04 #@! TO.C,Mount2*
X68354000Y-21203500D03*
X65814000Y-21203500D03*
D11*
X63274000Y-21203500D03*
G04 #@! TD*
D13*
G04 #@! TO.C,C4*
X71529000Y-38227000D03*
X71529000Y-39777000D03*
G04 #@! TD*
D12*
G04 #@! TO.C,MB_6*
X76814000Y-22903500D03*
G04 #@! TD*
D14*
G04 #@! TO.C,U2*
X65814000Y-32766000D03*
X66764000Y-34641000D03*
X64864000Y-34641000D03*
D15*
X60734000Y-33903500D03*
X70894000Y-33903500D03*
G04 #@! TD*
D16*
G04 #@! TO.C,R2*
X68989000Y-38100000D03*
X68989000Y-39750000D03*
G04 #@! TD*
D12*
G04 #@! TO.C,MB_8*
X76814000Y-44903500D03*
G04 #@! TD*
D17*
G04 #@! TO.C,C3*
X64798000Y-37846000D03*
X63248000Y-37846000D03*
G04 #@! TD*
D12*
G04 #@! TO.C,MB_5*
X54814000Y-22903500D03*
G04 #@! TD*
D10*
G04 #@! TO.C,Mount1*
X38354000Y-21203500D03*
X35814000Y-21203500D03*
D11*
X33274000Y-21203500D03*
G04 #@! TD*
D12*
G04 #@! TO.C,MB_1*
X24814000Y-22903500D03*
G04 #@! TD*
D14*
G04 #@! TO.C,U1*
X35814000Y-32766000D03*
X36764000Y-34641000D03*
X34864000Y-34641000D03*
D15*
X30734000Y-33903500D03*
X40894000Y-33903500D03*
G04 #@! TD*
D12*
G04 #@! TO.C,MB_2*
X46814000Y-22903500D03*
G04 #@! TD*
D16*
G04 #@! TO.C,R1*
X38989000Y-38100000D03*
X38989000Y-39750000D03*
G04 #@! TD*
D17*
G04 #@! TO.C,C1*
X34798000Y-37846000D03*
X33248000Y-37846000D03*
G04 #@! TD*
D13*
G04 #@! TO.C,C2*
X41529000Y-38227000D03*
X41529000Y-39777000D03*
G04 #@! TD*
D12*
G04 #@! TO.C,MB_4*
X46814000Y-44903500D03*
G04 #@! TD*
G04 #@! TO.C,MB_3*
X24814000Y-44903500D03*
G04 #@! TD*
D10*
G04 #@! TO.C,J1*
X33274000Y-46603500D03*
X35814000Y-46603500D03*
D11*
X38354000Y-46603500D03*
G04 #@! TD*
M02*
