M48
; DRILL file {KiCad 8.0.3} date 2024-06-06T13:16:29+0900
; FORMAT={-:-/ absolute / inch / decimal}
; #@! TF.CreationDate,2024-06-06T13:16:29+09:00
; #@! TF.GenerationSoftware,Kicad,Pcbnew,8.0.3
; #@! TF.FileFunction,NonPlated,1,2,NPTH
FMAT,2
INCH
; #@! TA.AperFunction,NonPlated,NPTH,ComponentDrill
T1C0.0689
; #@! TA.AperFunction,NonPlated,NPTH,ComponentDrill
T2C0.1260
%
G90
G05
T1
X1.21Y-1.3348
X1.21Y-2.5159
X1.21Y-3.697
X1.61Y-1.3348
X1.61Y-2.5159
X1.61Y-3.697
X2.3911Y-1.3348
X2.3911Y-2.5159
X2.3911Y-3.697
X2.7911Y-1.3348
X2.7911Y-2.5159
X2.7911Y-3.697
X3.5722Y-1.3348
X3.5722Y-2.5159
X3.5722Y-3.697
X3.9722Y-1.3348
X3.9722Y-2.5159
X3.9722Y-3.697
T2
X0.9769Y-0.9017
X0.9769Y-1.7679
X0.9769Y-2.0828
X0.9769Y-2.949
X0.9769Y-3.2639
X0.9769Y-4.1301
X1.8431Y-0.9017
X1.8431Y-1.7679
X1.8431Y-2.0828
X1.8431Y-2.949
X1.8431Y-3.2639
X1.8431Y-4.1301
X2.158Y-0.9017
X2.158Y-1.7679
X2.158Y-2.0828
X2.158Y-2.949
X2.158Y-3.2639
X2.158Y-4.1301
X3.0242Y-0.9017
X3.0242Y-1.7679
X3.0242Y-2.0828
X3.0242Y-2.949
X3.0242Y-3.2639
X3.0242Y-4.1301
X3.3391Y-0.9017
X3.3391Y-1.7679
X3.3391Y-2.0828
X3.3391Y-2.949
X3.3391Y-3.2639
X3.3391Y-4.1301
X4.2053Y-0.9017
X4.2053Y-1.7679
X4.2053Y-2.0828
X4.2053Y-2.949
X4.2053Y-3.2639
X4.2053Y-4.1301
M30
