M48
; DRILL file {KiCad 8.0.3} date 2024-06-06T13:44:03+0900
; FORMAT={-:-/ absolute / inch / decimal}
; #@! TF.CreationDate,2024-06-06T13:44:03+09:00
; #@! TF.GenerationSoftware,Kicad,Pcbnew,8.0.3
; #@! TF.FileFunction,Plated,1,2,PTH
FMAT,2
INCH
; #@! TA.AperFunction,Plated,PTH,ComponentDrill
T1C0.0394
%
G90
G05
T1
X1.31Y-0.8348
X1.31Y-1.8348
X1.31Y-2.0159
X1.31Y-3.0159
X1.31Y-3.197
X1.31Y-4.197
X1.41Y-0.8348
X1.41Y-1.8348
X1.41Y-2.0159
X1.41Y-3.0159
X1.41Y-3.197
X1.41Y-4.197
X1.51Y-0.8348
X1.51Y-1.8348
X1.51Y-2.0159
X1.51Y-3.0159
X1.51Y-3.197
X1.51Y-4.197
X2.4911Y-0.8348
X2.4911Y-1.8348
X2.4911Y-2.0159
X2.4911Y-3.0159
X2.4911Y-3.197
X2.4911Y-4.197
X2.5911Y-0.8348
X2.5911Y-1.8348
X2.5911Y-2.0159
X2.5911Y-3.0159
X2.5911Y-3.197
X2.5911Y-4.197
X2.6911Y-0.8348
X2.6911Y-1.8348
X2.6911Y-2.0159
X2.6911Y-3.0159
X2.6911Y-3.197
X2.6911Y-4.197
X3.6722Y-0.8348
X3.6722Y-1.8348
X3.6722Y-2.0159
X3.6722Y-3.0159
X3.6722Y-3.197
X3.6722Y-4.197
X3.7722Y-0.8348
X3.7722Y-1.8348
X3.7722Y-2.0159
X3.7722Y-3.0159
X3.7722Y-3.197
X3.7722Y-4.197
X3.8722Y-0.8348
X3.8722Y-1.8348
X3.8722Y-2.0159
X3.8722Y-3.0159
X3.8722Y-3.197
X3.8722Y-4.197
M30
