G04 #@! TF.GenerationSoftware,KiCad,Pcbnew,8.0.3*
G04 #@! TF.CreationDate,2024-06-06T13:43:45+09:00*
G04 #@! TF.ProjectId,analog_switch_tester,616e616c-6f67-45f7-9377-697463685f74,1*
G04 #@! TF.SameCoordinates,Original*
G04 #@! TF.FileFunction,Soldermask,Bot*
G04 #@! TF.FilePolarity,Negative*
%FSLAX46Y46*%
G04 Gerber Fmt 4.6, Leading zero omitted, Abs format (unit mm)*
G04 Created by KiCad (PCBNEW 8.0.3) date 2024-06-06 13:43:45*
%MOMM*%
%LPD*%
G01*
G04 APERTURE LIST*
%ADD10O,1.700000X1.700000*%
%ADD11R,1.700000X1.700000*%
%ADD12C,3.200000*%
%ADD13C,1.750000*%
G04 APERTURE END LIST*
D10*
G04 #@! TO.C,J9*
X93274000Y-106603500D03*
X95814000Y-106603500D03*
D11*
X98354000Y-106603500D03*
G04 #@! TD*
D12*
G04 #@! TO.C,MB_35*
X84814000Y-104903500D03*
G04 #@! TD*
D10*
G04 #@! TO.C,Mount9*
X98354000Y-81203500D03*
X95814000Y-81203500D03*
D11*
X93274000Y-81203500D03*
G04 #@! TD*
D12*
G04 #@! TO.C,MB_34*
X106814000Y-82903500D03*
G04 #@! TD*
D13*
G04 #@! TO.C,U9*
X90734000Y-93903500D03*
X100894000Y-93903500D03*
G04 #@! TD*
D12*
G04 #@! TO.C,MB_36*
X106814000Y-104903500D03*
G04 #@! TD*
G04 #@! TO.C,MB_33*
X84814000Y-82903500D03*
G04 #@! TD*
D10*
G04 #@! TO.C,J8*
X63274000Y-106603500D03*
X65814000Y-106603500D03*
D11*
X68354000Y-106603500D03*
G04 #@! TD*
D12*
G04 #@! TO.C,MB_31*
X54814000Y-104903500D03*
G04 #@! TD*
D10*
G04 #@! TO.C,Mount8*
X68354000Y-81203500D03*
X65814000Y-81203500D03*
D11*
X63274000Y-81203500D03*
G04 #@! TD*
D12*
G04 #@! TO.C,MB_30*
X76814000Y-82903500D03*
G04 #@! TD*
D13*
G04 #@! TO.C,U8*
X60734000Y-93903500D03*
X70894000Y-93903500D03*
G04 #@! TD*
D12*
G04 #@! TO.C,MB_32*
X76814000Y-104903500D03*
G04 #@! TD*
G04 #@! TO.C,MB_29*
X54814000Y-82903500D03*
G04 #@! TD*
D10*
G04 #@! TO.C,J7*
X33274000Y-106603500D03*
X35814000Y-106603500D03*
D11*
X38354000Y-106603500D03*
G04 #@! TD*
D12*
G04 #@! TO.C,MB_27*
X24814000Y-104903500D03*
G04 #@! TD*
D10*
G04 #@! TO.C,Mount7*
X38354000Y-81203500D03*
X35814000Y-81203500D03*
D11*
X33274000Y-81203500D03*
G04 #@! TD*
D12*
G04 #@! TO.C,MB_26*
X46814000Y-82903500D03*
G04 #@! TD*
D13*
G04 #@! TO.C,U7*
X30734000Y-93903500D03*
X40894000Y-93903500D03*
G04 #@! TD*
D12*
G04 #@! TO.C,MB_28*
X46814000Y-104903500D03*
G04 #@! TD*
G04 #@! TO.C,MB_25*
X24814000Y-82903500D03*
G04 #@! TD*
D10*
G04 #@! TO.C,J6*
X93274000Y-76603500D03*
X95814000Y-76603500D03*
D11*
X98354000Y-76603500D03*
G04 #@! TD*
D12*
G04 #@! TO.C,MB_23*
X84814000Y-74903500D03*
G04 #@! TD*
D10*
G04 #@! TO.C,Mount6*
X98354000Y-51203500D03*
X95814000Y-51203500D03*
D11*
X93274000Y-51203500D03*
G04 #@! TD*
D12*
G04 #@! TO.C,MB_22*
X106814000Y-52903500D03*
G04 #@! TD*
D13*
G04 #@! TO.C,U6*
X90734000Y-63903500D03*
X100894000Y-63903500D03*
G04 #@! TD*
D12*
G04 #@! TO.C,MB_24*
X106814000Y-74903500D03*
G04 #@! TD*
G04 #@! TO.C,MB_21*
X84814000Y-52903500D03*
G04 #@! TD*
D10*
G04 #@! TO.C,J5*
X63274000Y-76603500D03*
X65814000Y-76603500D03*
D11*
X68354000Y-76603500D03*
G04 #@! TD*
D12*
G04 #@! TO.C,MB_19*
X54814000Y-74903500D03*
G04 #@! TD*
D10*
G04 #@! TO.C,Mount5*
X68354000Y-51203500D03*
X65814000Y-51203500D03*
D11*
X63274000Y-51203500D03*
G04 #@! TD*
D12*
G04 #@! TO.C,MB_18*
X76814000Y-52903500D03*
G04 #@! TD*
D13*
G04 #@! TO.C,U5*
X60734000Y-63903500D03*
X70894000Y-63903500D03*
G04 #@! TD*
D12*
G04 #@! TO.C,MB_20*
X76814000Y-74903500D03*
G04 #@! TD*
G04 #@! TO.C,MB_17*
X54814000Y-52903500D03*
G04 #@! TD*
D10*
G04 #@! TO.C,J4*
X33274000Y-76603500D03*
X35814000Y-76603500D03*
D11*
X38354000Y-76603500D03*
G04 #@! TD*
D12*
G04 #@! TO.C,MB_15*
X24814000Y-74903500D03*
G04 #@! TD*
D10*
G04 #@! TO.C,Mount4*
X38354000Y-51203500D03*
X35814000Y-51203500D03*
D11*
X33274000Y-51203500D03*
G04 #@! TD*
D12*
G04 #@! TO.C,MB_14*
X46814000Y-52903500D03*
G04 #@! TD*
D13*
G04 #@! TO.C,U4*
X30734000Y-63903500D03*
X40894000Y-63903500D03*
G04 #@! TD*
D12*
G04 #@! TO.C,MB_16*
X46814000Y-74903500D03*
G04 #@! TD*
G04 #@! TO.C,MB_13*
X24814000Y-52903500D03*
G04 #@! TD*
D10*
G04 #@! TO.C,J3*
X93274000Y-46603500D03*
X95814000Y-46603500D03*
D11*
X98354000Y-46603500D03*
G04 #@! TD*
D12*
G04 #@! TO.C,MB_11*
X84814000Y-44903500D03*
G04 #@! TD*
D10*
G04 #@! TO.C,Mount3*
X98354000Y-21203500D03*
X95814000Y-21203500D03*
D11*
X93274000Y-21203500D03*
G04 #@! TD*
D12*
G04 #@! TO.C,MB_10*
X106814000Y-22903500D03*
G04 #@! TD*
D13*
G04 #@! TO.C,U3*
X90734000Y-33903500D03*
X100894000Y-33903500D03*
G04 #@! TD*
D12*
G04 #@! TO.C,MB_12*
X106814000Y-44903500D03*
G04 #@! TD*
G04 #@! TO.C,MB_9*
X84814000Y-22903500D03*
G04 #@! TD*
D10*
G04 #@! TO.C,J2*
X63274000Y-46603500D03*
X65814000Y-46603500D03*
D11*
X68354000Y-46603500D03*
G04 #@! TD*
D12*
G04 #@! TO.C,MB_7*
X54814000Y-44903500D03*
G04 #@! TD*
D10*
G04 #@! TO.C,Mount2*
X68354000Y-21203500D03*
X65814000Y-21203500D03*
D11*
X63274000Y-21203500D03*
G04 #@! TD*
D12*
G04 #@! TO.C,MB_6*
X76814000Y-22903500D03*
G04 #@! TD*
D13*
G04 #@! TO.C,U2*
X60734000Y-33903500D03*
X70894000Y-33903500D03*
G04 #@! TD*
D12*
G04 #@! TO.C,MB_8*
X76814000Y-44903500D03*
G04 #@! TD*
G04 #@! TO.C,MB_5*
X54814000Y-22903500D03*
G04 #@! TD*
D10*
G04 #@! TO.C,Mount1*
X38354000Y-21203500D03*
X35814000Y-21203500D03*
D11*
X33274000Y-21203500D03*
G04 #@! TD*
D12*
G04 #@! TO.C,MB_1*
X24814000Y-22903500D03*
G04 #@! TD*
D13*
G04 #@! TO.C,U1*
X30734000Y-33903500D03*
X40894000Y-33903500D03*
G04 #@! TD*
D12*
G04 #@! TO.C,MB_2*
X46814000Y-22903500D03*
G04 #@! TD*
G04 #@! TO.C,MB_4*
X46814000Y-44903500D03*
G04 #@! TD*
G04 #@! TO.C,MB_3*
X24814000Y-44903500D03*
G04 #@! TD*
D10*
G04 #@! TO.C,J1*
X33274000Y-46603500D03*
X35814000Y-46603500D03*
D11*
X38354000Y-46603500D03*
G04 #@! TD*
M02*
