G04 #@! TF.GenerationSoftware,KiCad,Pcbnew,8.0.3*
G04 #@! TF.CreationDate,2024-06-06T13:43:45+09:00*
G04 #@! TF.ProjectId,analog_switch_tester,616e616c-6f67-45f7-9377-697463685f74,1*
G04 #@! TF.SameCoordinates,Original*
G04 #@! TF.FileFunction,Profile,NP*
%FSLAX46Y46*%
G04 Gerber Fmt 4.6, Leading zero omitted, Abs format (unit mm)*
G04 Created by KiCad (PCBNEW 8.0.3) date 2024-06-06 13:43:45*
%MOMM*%
%LPD*%
G01*
G04 APERTURE LIST*
%ADD10C,0.300000*%
G04 #@! TA.AperFunction,Profile*
%ADD11C,0.500000*%
G04 #@! TD*
G04 #@! TA.AperFunction,Profile*
%ADD12C,0.050000*%
G04 #@! TD*
G04 APERTURE END LIST*
D10*
X49553638Y-123015655D02*
X51553638Y-122348989D01*
X51553638Y-122348989D02*
X49553638Y-121682322D01*
X50791733Y-121015655D02*
X50791733Y-119491846D01*
X51363161Y-117396608D02*
X51458400Y-117491846D01*
X51458400Y-117491846D02*
X51553638Y-117777560D01*
X51553638Y-117777560D02*
X51553638Y-117968036D01*
X51553638Y-117968036D02*
X51458400Y-118253751D01*
X51458400Y-118253751D02*
X51267923Y-118444227D01*
X51267923Y-118444227D02*
X51077447Y-118539465D01*
X51077447Y-118539465D02*
X50696495Y-118634703D01*
X50696495Y-118634703D02*
X50410780Y-118634703D01*
X50410780Y-118634703D02*
X50029828Y-118539465D01*
X50029828Y-118539465D02*
X49839352Y-118444227D01*
X49839352Y-118444227D02*
X49648876Y-118253751D01*
X49648876Y-118253751D02*
X49553638Y-117968036D01*
X49553638Y-117968036D02*
X49553638Y-117777560D01*
X49553638Y-117777560D02*
X49648876Y-117491846D01*
X49648876Y-117491846D02*
X49744114Y-117396608D01*
X49553638Y-116539465D02*
X51172685Y-116539465D01*
X51172685Y-116539465D02*
X51363161Y-116444227D01*
X51363161Y-116444227D02*
X51458400Y-116348989D01*
X51458400Y-116348989D02*
X51553638Y-116158513D01*
X51553638Y-116158513D02*
X51553638Y-115777560D01*
X51553638Y-115777560D02*
X51458400Y-115587084D01*
X51458400Y-115587084D02*
X51363161Y-115491846D01*
X51363161Y-115491846D02*
X51172685Y-115396608D01*
X51172685Y-115396608D02*
X49553638Y-115396608D01*
X49553638Y-114729941D02*
X49553638Y-113587084D01*
X51553638Y-114158513D02*
X49553638Y-114158513D01*
X50220304Y-111396607D02*
X50791733Y-109872798D01*
X50791733Y-109872798D02*
X51363161Y-111396607D01*
X79553638Y-122515655D02*
X81553638Y-121848989D01*
X81553638Y-121848989D02*
X79553638Y-121182322D01*
X80791733Y-120515655D02*
X80791733Y-118991846D01*
X81363161Y-116896608D02*
X81458400Y-116991846D01*
X81458400Y-116991846D02*
X81553638Y-117277560D01*
X81553638Y-117277560D02*
X81553638Y-117468036D01*
X81553638Y-117468036D02*
X81458400Y-117753751D01*
X81458400Y-117753751D02*
X81267923Y-117944227D01*
X81267923Y-117944227D02*
X81077447Y-118039465D01*
X81077447Y-118039465D02*
X80696495Y-118134703D01*
X80696495Y-118134703D02*
X80410780Y-118134703D01*
X80410780Y-118134703D02*
X80029828Y-118039465D01*
X80029828Y-118039465D02*
X79839352Y-117944227D01*
X79839352Y-117944227D02*
X79648876Y-117753751D01*
X79648876Y-117753751D02*
X79553638Y-117468036D01*
X79553638Y-117468036D02*
X79553638Y-117277560D01*
X79553638Y-117277560D02*
X79648876Y-116991846D01*
X79648876Y-116991846D02*
X79744114Y-116896608D01*
X79553638Y-116039465D02*
X81172685Y-116039465D01*
X81172685Y-116039465D02*
X81363161Y-115944227D01*
X81363161Y-115944227D02*
X81458400Y-115848989D01*
X81458400Y-115848989D02*
X81553638Y-115658513D01*
X81553638Y-115658513D02*
X81553638Y-115277560D01*
X81553638Y-115277560D02*
X81458400Y-115087084D01*
X81458400Y-115087084D02*
X81363161Y-114991846D01*
X81363161Y-114991846D02*
X81172685Y-114896608D01*
X81172685Y-114896608D02*
X79553638Y-114896608D01*
X79553638Y-114229941D02*
X79553638Y-113087084D01*
X81553638Y-113658513D02*
X79553638Y-113658513D01*
X80220304Y-110896607D02*
X80791733Y-109372798D01*
X80791733Y-109372798D02*
X81363161Y-110896607D01*
X82074361Y-4791344D02*
X80074361Y-5458010D01*
X80074361Y-5458010D02*
X82074361Y-6124677D01*
X80836266Y-6791344D02*
X80836266Y-8315154D01*
X80264838Y-10410391D02*
X80169600Y-10315153D01*
X80169600Y-10315153D02*
X80074361Y-10029439D01*
X80074361Y-10029439D02*
X80074361Y-9838963D01*
X80074361Y-9838963D02*
X80169600Y-9553248D01*
X80169600Y-9553248D02*
X80360076Y-9362772D01*
X80360076Y-9362772D02*
X80550552Y-9267534D01*
X80550552Y-9267534D02*
X80931504Y-9172296D01*
X80931504Y-9172296D02*
X81217219Y-9172296D01*
X81217219Y-9172296D02*
X81598171Y-9267534D01*
X81598171Y-9267534D02*
X81788647Y-9362772D01*
X81788647Y-9362772D02*
X81979123Y-9553248D01*
X81979123Y-9553248D02*
X82074361Y-9838963D01*
X82074361Y-9838963D02*
X82074361Y-10029439D01*
X82074361Y-10029439D02*
X81979123Y-10315153D01*
X81979123Y-10315153D02*
X81883885Y-10410391D01*
X82074361Y-11267534D02*
X80455314Y-11267534D01*
X80455314Y-11267534D02*
X80264838Y-11362772D01*
X80264838Y-11362772D02*
X80169600Y-11458010D01*
X80169600Y-11458010D02*
X80074361Y-11648486D01*
X80074361Y-11648486D02*
X80074361Y-12029439D01*
X80074361Y-12029439D02*
X80169600Y-12219915D01*
X80169600Y-12219915D02*
X80264838Y-12315153D01*
X80264838Y-12315153D02*
X80455314Y-12410391D01*
X80455314Y-12410391D02*
X82074361Y-12410391D01*
X82074361Y-13077058D02*
X82074361Y-14219915D01*
X80074361Y-13648486D02*
X82074361Y-13648486D01*
X81407695Y-16410392D02*
X80836266Y-17934202D01*
X80836266Y-17934202D02*
X80264838Y-16410392D01*
X52074361Y-5291344D02*
X50074361Y-5958010D01*
X50074361Y-5958010D02*
X52074361Y-6624677D01*
X50836266Y-7291344D02*
X50836266Y-8815154D01*
X50264838Y-10910391D02*
X50169600Y-10815153D01*
X50169600Y-10815153D02*
X50074361Y-10529439D01*
X50074361Y-10529439D02*
X50074361Y-10338963D01*
X50074361Y-10338963D02*
X50169600Y-10053248D01*
X50169600Y-10053248D02*
X50360076Y-9862772D01*
X50360076Y-9862772D02*
X50550552Y-9767534D01*
X50550552Y-9767534D02*
X50931504Y-9672296D01*
X50931504Y-9672296D02*
X51217219Y-9672296D01*
X51217219Y-9672296D02*
X51598171Y-9767534D01*
X51598171Y-9767534D02*
X51788647Y-9862772D01*
X51788647Y-9862772D02*
X51979123Y-10053248D01*
X51979123Y-10053248D02*
X52074361Y-10338963D01*
X52074361Y-10338963D02*
X52074361Y-10529439D01*
X52074361Y-10529439D02*
X51979123Y-10815153D01*
X51979123Y-10815153D02*
X51883885Y-10910391D01*
X52074361Y-11767534D02*
X50455314Y-11767534D01*
X50455314Y-11767534D02*
X50264838Y-11862772D01*
X50264838Y-11862772D02*
X50169600Y-11958010D01*
X50169600Y-11958010D02*
X50074361Y-12148486D01*
X50074361Y-12148486D02*
X50074361Y-12529439D01*
X50074361Y-12529439D02*
X50169600Y-12719915D01*
X50169600Y-12719915D02*
X50264838Y-12815153D01*
X50264838Y-12815153D02*
X50455314Y-12910391D01*
X50455314Y-12910391D02*
X52074361Y-12910391D01*
X52074361Y-13577058D02*
X52074361Y-14719915D01*
X50074361Y-14148486D02*
X52074361Y-14148486D01*
X51407695Y-16910392D02*
X50836266Y-18434202D01*
X50836266Y-18434202D02*
X50264838Y-16910392D01*
X114511368Y-48309804D02*
X112987558Y-48881233D01*
X112987558Y-48881233D02*
X114511368Y-49452661D01*
X116701844Y-47643138D02*
X117368510Y-49643138D01*
X117368510Y-49643138D02*
X118035177Y-47643138D01*
X118701844Y-48881233D02*
X120225654Y-48881233D01*
X122320891Y-49452661D02*
X122225653Y-49547900D01*
X122225653Y-49547900D02*
X121939939Y-49643138D01*
X121939939Y-49643138D02*
X121749463Y-49643138D01*
X121749463Y-49643138D02*
X121463748Y-49547900D01*
X121463748Y-49547900D02*
X121273272Y-49357423D01*
X121273272Y-49357423D02*
X121178034Y-49166947D01*
X121178034Y-49166947D02*
X121082796Y-48785995D01*
X121082796Y-48785995D02*
X121082796Y-48500280D01*
X121082796Y-48500280D02*
X121178034Y-48119328D01*
X121178034Y-48119328D02*
X121273272Y-47928852D01*
X121273272Y-47928852D02*
X121463748Y-47738376D01*
X121463748Y-47738376D02*
X121749463Y-47643138D01*
X121749463Y-47643138D02*
X121939939Y-47643138D01*
X121939939Y-47643138D02*
X122225653Y-47738376D01*
X122225653Y-47738376D02*
X122320891Y-47833614D01*
X123178034Y-47643138D02*
X123178034Y-49262185D01*
X123178034Y-49262185D02*
X123273272Y-49452661D01*
X123273272Y-49452661D02*
X123368510Y-49547900D01*
X123368510Y-49547900D02*
X123558986Y-49643138D01*
X123558986Y-49643138D02*
X123939939Y-49643138D01*
X123939939Y-49643138D02*
X124130415Y-49547900D01*
X124130415Y-49547900D02*
X124225653Y-49452661D01*
X124225653Y-49452661D02*
X124320891Y-49262185D01*
X124320891Y-49262185D02*
X124320891Y-47643138D01*
X124987558Y-47643138D02*
X126130415Y-47643138D01*
X125558986Y-49643138D02*
X125558986Y-47643138D01*
X115011368Y-78309804D02*
X113487558Y-78881233D01*
X113487558Y-78881233D02*
X115011368Y-79452661D01*
X117201844Y-77643138D02*
X117868510Y-79643138D01*
X117868510Y-79643138D02*
X118535177Y-77643138D01*
X119201844Y-78881233D02*
X120725654Y-78881233D01*
X122820891Y-79452661D02*
X122725653Y-79547900D01*
X122725653Y-79547900D02*
X122439939Y-79643138D01*
X122439939Y-79643138D02*
X122249463Y-79643138D01*
X122249463Y-79643138D02*
X121963748Y-79547900D01*
X121963748Y-79547900D02*
X121773272Y-79357423D01*
X121773272Y-79357423D02*
X121678034Y-79166947D01*
X121678034Y-79166947D02*
X121582796Y-78785995D01*
X121582796Y-78785995D02*
X121582796Y-78500280D01*
X121582796Y-78500280D02*
X121678034Y-78119328D01*
X121678034Y-78119328D02*
X121773272Y-77928852D01*
X121773272Y-77928852D02*
X121963748Y-77738376D01*
X121963748Y-77738376D02*
X122249463Y-77643138D01*
X122249463Y-77643138D02*
X122439939Y-77643138D01*
X122439939Y-77643138D02*
X122725653Y-77738376D01*
X122725653Y-77738376D02*
X122820891Y-77833614D01*
X123678034Y-77643138D02*
X123678034Y-79262185D01*
X123678034Y-79262185D02*
X123773272Y-79452661D01*
X123773272Y-79452661D02*
X123868510Y-79547900D01*
X123868510Y-79547900D02*
X124058986Y-79643138D01*
X124058986Y-79643138D02*
X124439939Y-79643138D01*
X124439939Y-79643138D02*
X124630415Y-79547900D01*
X124630415Y-79547900D02*
X124725653Y-79452661D01*
X124725653Y-79452661D02*
X124820891Y-79262185D01*
X124820891Y-79262185D02*
X124820891Y-77643138D01*
X125487558Y-77643138D02*
X126630415Y-77643138D01*
X126058986Y-79643138D02*
X126058986Y-77643138D01*
X4201844Y-77643138D02*
X4868510Y-79643138D01*
X4868510Y-79643138D02*
X5535177Y-77643138D01*
X6201844Y-78881233D02*
X7725654Y-78881233D01*
X9820891Y-79452661D02*
X9725653Y-79547900D01*
X9725653Y-79547900D02*
X9439939Y-79643138D01*
X9439939Y-79643138D02*
X9249463Y-79643138D01*
X9249463Y-79643138D02*
X8963748Y-79547900D01*
X8963748Y-79547900D02*
X8773272Y-79357423D01*
X8773272Y-79357423D02*
X8678034Y-79166947D01*
X8678034Y-79166947D02*
X8582796Y-78785995D01*
X8582796Y-78785995D02*
X8582796Y-78500280D01*
X8582796Y-78500280D02*
X8678034Y-78119328D01*
X8678034Y-78119328D02*
X8773272Y-77928852D01*
X8773272Y-77928852D02*
X8963748Y-77738376D01*
X8963748Y-77738376D02*
X9249463Y-77643138D01*
X9249463Y-77643138D02*
X9439939Y-77643138D01*
X9439939Y-77643138D02*
X9725653Y-77738376D01*
X9725653Y-77738376D02*
X9820891Y-77833614D01*
X10678034Y-77643138D02*
X10678034Y-79262185D01*
X10678034Y-79262185D02*
X10773272Y-79452661D01*
X10773272Y-79452661D02*
X10868510Y-79547900D01*
X10868510Y-79547900D02*
X11058986Y-79643138D01*
X11058986Y-79643138D02*
X11439939Y-79643138D01*
X11439939Y-79643138D02*
X11630415Y-79547900D01*
X11630415Y-79547900D02*
X11725653Y-79452661D01*
X11725653Y-79452661D02*
X11820891Y-79262185D01*
X11820891Y-79262185D02*
X11820891Y-77643138D01*
X12487558Y-77643138D02*
X13630415Y-77643138D01*
X13058986Y-79643138D02*
X13058986Y-77643138D01*
X15820892Y-78309804D02*
X17344702Y-78881233D01*
X17344702Y-78881233D02*
X15820892Y-79452661D01*
X3701844Y-47643138D02*
X4368510Y-49643138D01*
X4368510Y-49643138D02*
X5035177Y-47643138D01*
X5701844Y-48881233D02*
X7225654Y-48881233D01*
X9320891Y-49452661D02*
X9225653Y-49547900D01*
X9225653Y-49547900D02*
X8939939Y-49643138D01*
X8939939Y-49643138D02*
X8749463Y-49643138D01*
X8749463Y-49643138D02*
X8463748Y-49547900D01*
X8463748Y-49547900D02*
X8273272Y-49357423D01*
X8273272Y-49357423D02*
X8178034Y-49166947D01*
X8178034Y-49166947D02*
X8082796Y-48785995D01*
X8082796Y-48785995D02*
X8082796Y-48500280D01*
X8082796Y-48500280D02*
X8178034Y-48119328D01*
X8178034Y-48119328D02*
X8273272Y-47928852D01*
X8273272Y-47928852D02*
X8463748Y-47738376D01*
X8463748Y-47738376D02*
X8749463Y-47643138D01*
X8749463Y-47643138D02*
X8939939Y-47643138D01*
X8939939Y-47643138D02*
X9225653Y-47738376D01*
X9225653Y-47738376D02*
X9320891Y-47833614D01*
X10178034Y-47643138D02*
X10178034Y-49262185D01*
X10178034Y-49262185D02*
X10273272Y-49452661D01*
X10273272Y-49452661D02*
X10368510Y-49547900D01*
X10368510Y-49547900D02*
X10558986Y-49643138D01*
X10558986Y-49643138D02*
X10939939Y-49643138D01*
X10939939Y-49643138D02*
X11130415Y-49547900D01*
X11130415Y-49547900D02*
X11225653Y-49452661D01*
X11225653Y-49452661D02*
X11320891Y-49262185D01*
X11320891Y-49262185D02*
X11320891Y-47643138D01*
X11987558Y-47643138D02*
X13130415Y-47643138D01*
X12558986Y-49643138D02*
X12558986Y-47643138D01*
X15320892Y-48309804D02*
X16844702Y-48881233D01*
X16844702Y-48881233D02*
X15320892Y-49452661D01*
D11*
X20814000Y-78903500D02*
X110814000Y-78903500D01*
X20814000Y-48903500D02*
X110814000Y-48903500D01*
X80814000Y-18903500D02*
X80814000Y-108903500D01*
X50814000Y-18903500D02*
X50814000Y-108903500D01*
D12*
X20814000Y-18903500D02*
X110814000Y-18903500D01*
X110814000Y-108903500D01*
X20814000Y-108903500D01*
X20814000Y-18903500D01*
M02*
