G04 #@! TF.GenerationSoftware,KiCad,Pcbnew,8.0.3*
G04 #@! TF.CreationDate,2024-08-17T21:49:42+09:00*
G04 #@! TF.ProjectId,mainboard_top_plate,6d61696e-626f-4617-9264-5f746f705f70,rev?*
G04 #@! TF.SameCoordinates,Original*
G04 #@! TF.FileFunction,Legend,Bot*
G04 #@! TF.FilePolarity,Positive*
%FSLAX46Y46*%
G04 Gerber Fmt 4.6, Leading zero omitted, Abs format (unit mm)*
G04 Created by KiCad (PCBNEW 8.0.3) date 2024-08-17 21:49:42*
%MOMM*%
%LPD*%
G01*
G04 APERTURE LIST*
%ADD10C,0.400000*%
%ADD11C,0.000000*%
%ADD12C,0.120000*%
G04 APERTURE END LIST*
D10*
X89843985Y-255686819D02*
X89558271Y-255782057D01*
X89558271Y-255782057D02*
X89463033Y-255877295D01*
X89463033Y-255877295D02*
X89367795Y-256067771D01*
X89367795Y-256067771D02*
X89367795Y-256353485D01*
X89367795Y-256353485D02*
X89463033Y-256543961D01*
X89463033Y-256543961D02*
X89558271Y-256639200D01*
X89558271Y-256639200D02*
X89748747Y-256734438D01*
X89748747Y-256734438D02*
X90510652Y-256734438D01*
X90510652Y-256734438D02*
X90510652Y-254734438D01*
X90510652Y-254734438D02*
X89843985Y-254734438D01*
X89843985Y-254734438D02*
X89653509Y-254829676D01*
X89653509Y-254829676D02*
X89558271Y-254924914D01*
X89558271Y-254924914D02*
X89463033Y-255115390D01*
X89463033Y-255115390D02*
X89463033Y-255305866D01*
X89463033Y-255305866D02*
X89558271Y-255496342D01*
X89558271Y-255496342D02*
X89653509Y-255591580D01*
X89653509Y-255591580D02*
X89843985Y-255686819D01*
X89843985Y-255686819D02*
X90510652Y-255686819D01*
X88224938Y-256734438D02*
X88415414Y-256639200D01*
X88415414Y-256639200D02*
X88510652Y-256543961D01*
X88510652Y-256543961D02*
X88605890Y-256353485D01*
X88605890Y-256353485D02*
X88605890Y-255782057D01*
X88605890Y-255782057D02*
X88510652Y-255591580D01*
X88510652Y-255591580D02*
X88415414Y-255496342D01*
X88415414Y-255496342D02*
X88224938Y-255401104D01*
X88224938Y-255401104D02*
X87939223Y-255401104D01*
X87939223Y-255401104D02*
X87748747Y-255496342D01*
X87748747Y-255496342D02*
X87653509Y-255591580D01*
X87653509Y-255591580D02*
X87558271Y-255782057D01*
X87558271Y-255782057D02*
X87558271Y-256353485D01*
X87558271Y-256353485D02*
X87653509Y-256543961D01*
X87653509Y-256543961D02*
X87748747Y-256639200D01*
X87748747Y-256639200D02*
X87939223Y-256734438D01*
X87939223Y-256734438D02*
X88224938Y-256734438D01*
X85843985Y-256734438D02*
X85843985Y-255686819D01*
X85843985Y-255686819D02*
X85939223Y-255496342D01*
X85939223Y-255496342D02*
X86129699Y-255401104D01*
X86129699Y-255401104D02*
X86510652Y-255401104D01*
X86510652Y-255401104D02*
X86701128Y-255496342D01*
X85843985Y-256639200D02*
X86034461Y-256734438D01*
X86034461Y-256734438D02*
X86510652Y-256734438D01*
X86510652Y-256734438D02*
X86701128Y-256639200D01*
X86701128Y-256639200D02*
X86796366Y-256448723D01*
X86796366Y-256448723D02*
X86796366Y-256258247D01*
X86796366Y-256258247D02*
X86701128Y-256067771D01*
X86701128Y-256067771D02*
X86510652Y-255972533D01*
X86510652Y-255972533D02*
X86034461Y-255972533D01*
X86034461Y-255972533D02*
X85843985Y-255877295D01*
X84891604Y-256734438D02*
X84891604Y-255401104D01*
X84891604Y-255782057D02*
X84796366Y-255591580D01*
X84796366Y-255591580D02*
X84701128Y-255496342D01*
X84701128Y-255496342D02*
X84510652Y-255401104D01*
X84510652Y-255401104D02*
X84320175Y-255401104D01*
X82796366Y-256734438D02*
X82796366Y-254734438D01*
X82796366Y-256639200D02*
X82986842Y-256734438D01*
X82986842Y-256734438D02*
X83367795Y-256734438D01*
X83367795Y-256734438D02*
X83558271Y-256639200D01*
X83558271Y-256639200D02*
X83653509Y-256543961D01*
X83653509Y-256543961D02*
X83748747Y-256353485D01*
X83748747Y-256353485D02*
X83748747Y-255782057D01*
X83748747Y-255782057D02*
X83653509Y-255591580D01*
X83653509Y-255591580D02*
X83558271Y-255496342D01*
X83558271Y-255496342D02*
X83367795Y-255401104D01*
X83367795Y-255401104D02*
X82986842Y-255401104D01*
X82986842Y-255401104D02*
X82796366Y-255496342D01*
X80510651Y-255401104D02*
X80034461Y-256734438D01*
X80034461Y-256734438D02*
X79558270Y-255401104D01*
X78034460Y-256639200D02*
X78224936Y-256734438D01*
X78224936Y-256734438D02*
X78605889Y-256734438D01*
X78605889Y-256734438D02*
X78796365Y-256639200D01*
X78796365Y-256639200D02*
X78891603Y-256448723D01*
X78891603Y-256448723D02*
X78891603Y-255686819D01*
X78891603Y-255686819D02*
X78796365Y-255496342D01*
X78796365Y-255496342D02*
X78605889Y-255401104D01*
X78605889Y-255401104D02*
X78224936Y-255401104D01*
X78224936Y-255401104D02*
X78034460Y-255496342D01*
X78034460Y-255496342D02*
X77939222Y-255686819D01*
X77939222Y-255686819D02*
X77939222Y-255877295D01*
X77939222Y-255877295D02*
X78891603Y-256067771D01*
X77082079Y-256734438D02*
X77082079Y-255401104D01*
X77082079Y-255782057D02*
X76986841Y-255591580D01*
X76986841Y-255591580D02*
X76891603Y-255496342D01*
X76891603Y-255496342D02*
X76701127Y-255401104D01*
X76701127Y-255401104D02*
X76510650Y-255401104D01*
X75843984Y-256543961D02*
X75748746Y-256639200D01*
X75748746Y-256639200D02*
X75843984Y-256734438D01*
X75843984Y-256734438D02*
X75939222Y-256639200D01*
X75939222Y-256639200D02*
X75843984Y-256543961D01*
X75843984Y-256543961D02*
X75843984Y-256734438D01*
X73843984Y-256734438D02*
X74986841Y-256734438D01*
X74415413Y-256734438D02*
X74415413Y-254734438D01*
X74415413Y-254734438D02*
X74605889Y-255020152D01*
X74605889Y-255020152D02*
X74796365Y-255210628D01*
X74796365Y-255210628D02*
X74986841Y-255305866D01*
X72986841Y-256543961D02*
X72891603Y-256639200D01*
X72891603Y-256639200D02*
X72986841Y-256734438D01*
X72986841Y-256734438D02*
X73082079Y-256639200D01*
X73082079Y-256639200D02*
X72986841Y-256543961D01*
X72986841Y-256543961D02*
X72986841Y-256734438D01*
X71653508Y-254734438D02*
X71463031Y-254734438D01*
X71463031Y-254734438D02*
X71272555Y-254829676D01*
X71272555Y-254829676D02*
X71177317Y-254924914D01*
X71177317Y-254924914D02*
X71082079Y-255115390D01*
X71082079Y-255115390D02*
X70986841Y-255496342D01*
X70986841Y-255496342D02*
X70986841Y-255972533D01*
X70986841Y-255972533D02*
X71082079Y-256353485D01*
X71082079Y-256353485D02*
X71177317Y-256543961D01*
X71177317Y-256543961D02*
X71272555Y-256639200D01*
X71272555Y-256639200D02*
X71463031Y-256734438D01*
X71463031Y-256734438D02*
X71653508Y-256734438D01*
X71653508Y-256734438D02*
X71843984Y-256639200D01*
X71843984Y-256639200D02*
X71939222Y-256543961D01*
X71939222Y-256543961D02*
X72034460Y-256353485D01*
X72034460Y-256353485D02*
X72129698Y-255972533D01*
X72129698Y-255972533D02*
X72129698Y-255496342D01*
X72129698Y-255496342D02*
X72034460Y-255115390D01*
X72034460Y-255115390D02*
X71939222Y-254924914D01*
X71939222Y-254924914D02*
X71843984Y-254829676D01*
X71843984Y-254829676D02*
X71653508Y-254734438D01*
D11*
G04 #@! TO.C,G\u002A\u002A\u002A*
G36*
X88936973Y-247734633D02*
G01*
X88936973Y-251588426D01*
X88148697Y-251588426D01*
X87360421Y-251588426D01*
X87360421Y-249229621D01*
X87360421Y-246870815D01*
X87480852Y-246719187D01*
X87497558Y-246697698D01*
X87600475Y-246550955D01*
X87687880Y-246406614D01*
X87709520Y-246368215D01*
X87768498Y-246280639D01*
X87808311Y-246245668D01*
X87818464Y-246243407D01*
X87842145Y-246196816D01*
X87843466Y-246189084D01*
X87876075Y-246117736D01*
X87943516Y-246000151D01*
X88033875Y-245857419D01*
X88049832Y-245833033D01*
X88144291Y-245680208D01*
X88218724Y-245546119D01*
X88258200Y-245457392D01*
X88287900Y-245376950D01*
X88331620Y-245296748D01*
X88333337Y-245294548D01*
X88384181Y-245189328D01*
X88433367Y-245021269D01*
X88476622Y-244814254D01*
X88509675Y-244592171D01*
X88528252Y-244378904D01*
X88528082Y-244198340D01*
X88505796Y-243880840D01*
X88721384Y-243880840D01*
X88936973Y-243880840D01*
X88936973Y-247734633D01*
G37*
G36*
X82258993Y-243883459D02*
G01*
X82304132Y-243906195D01*
X82321420Y-243971541D01*
X82324214Y-244101980D01*
X82324888Y-244139063D01*
X82357151Y-244351272D01*
X82431852Y-244519544D01*
X82540754Y-244624025D01*
X82577347Y-244637903D01*
X82697590Y-244660284D01*
X82843724Y-244669116D01*
X82928653Y-244672460D01*
X83084419Y-244710664D01*
X83172406Y-244795939D01*
X83200076Y-244933831D01*
X83185723Y-245027731D01*
X83141052Y-245169375D01*
X83078713Y-245317555D01*
X83011737Y-245441784D01*
X82953154Y-245511574D01*
X82912402Y-245563247D01*
X82873604Y-245662179D01*
X82834853Y-245768341D01*
X82767394Y-245892652D01*
X82716282Y-245980371D01*
X82625276Y-246219282D01*
X82559089Y-246513205D01*
X82518870Y-246842109D01*
X82505764Y-247185960D01*
X82520919Y-247524726D01*
X82565482Y-247838375D01*
X82640601Y-248106875D01*
X82682196Y-248202062D01*
X82810794Y-248427937D01*
X82980619Y-248671584D01*
X83172741Y-248908803D01*
X83368232Y-249115392D01*
X83548162Y-249267153D01*
X83673253Y-249349051D01*
X83933384Y-249490582D01*
X84199625Y-249603510D01*
X84447853Y-249678276D01*
X84653944Y-249705323D01*
X84668109Y-249705564D01*
X84784680Y-249724822D01*
X84859607Y-249765462D01*
X84866108Y-249774299D01*
X84886461Y-249854163D01*
X84866661Y-249932654D01*
X84815736Y-249968082D01*
X84804750Y-249969985D01*
X84776628Y-250015195D01*
X84775944Y-250019776D01*
X84745213Y-250083677D01*
X84678645Y-250194748D01*
X84589832Y-250332743D01*
X84492365Y-250477417D01*
X84399836Y-250608524D01*
X84325835Y-250705820D01*
X84283955Y-250749059D01*
X84278172Y-250752309D01*
X84251111Y-250807120D01*
X84250679Y-250810434D01*
X84221372Y-250871180D01*
X84155574Y-250980239D01*
X84066663Y-251117745D01*
X83968020Y-251263832D01*
X83873024Y-251398633D01*
X83795054Y-251502281D01*
X83747490Y-251554911D01*
X83747471Y-251554925D01*
X83691544Y-251565097D01*
X83562572Y-251574017D01*
X83375075Y-251581135D01*
X83143570Y-251585898D01*
X82882576Y-251587756D01*
X82061455Y-251588426D01*
X82061455Y-247734633D01*
X82061455Y-243880840D01*
X82192835Y-243880840D01*
X82258993Y-243883459D01*
G37*
G36*
X121838504Y-243890850D02*
G01*
X122679559Y-243902737D01*
X122690870Y-246418288D01*
X122692354Y-246822130D01*
X122693059Y-247377141D01*
X122691868Y-247851818D01*
X122688797Y-248244955D01*
X122683862Y-248555347D01*
X122677078Y-248781788D01*
X122668460Y-248923073D01*
X122658025Y-248977995D01*
X122628360Y-249040133D01*
X122613869Y-249146617D01*
X122608085Y-249235063D01*
X122583581Y-249403311D01*
X122545586Y-249597751D01*
X122500341Y-249790128D01*
X122454087Y-249952186D01*
X122413066Y-250055668D01*
X122391720Y-250096012D01*
X122330137Y-250224857D01*
X122266744Y-250369941D01*
X122201947Y-250492410D01*
X122062680Y-250685616D01*
X121883441Y-250889105D01*
X121684281Y-251082301D01*
X121485250Y-251244626D01*
X121306400Y-251355503D01*
X121188296Y-251411736D01*
X121085253Y-251458977D01*
X121037318Y-251478478D01*
X121005568Y-251490865D01*
X120927835Y-251530709D01*
X120916719Y-251536103D01*
X120818386Y-251567031D01*
X120666815Y-251601167D01*
X120489904Y-251632053D01*
X120448683Y-251638435D01*
X120280082Y-251668371D01*
X120146511Y-251697948D01*
X120073869Y-251721592D01*
X120009745Y-251737749D01*
X119880872Y-251750441D01*
X119711331Y-251757988D01*
X119522473Y-251760426D01*
X119335653Y-251757792D01*
X119172222Y-251750120D01*
X119053533Y-251737446D01*
X119000938Y-251719806D01*
X118953041Y-251690531D01*
X118856026Y-251675252D01*
X118777265Y-251670715D01*
X118572497Y-251638924D01*
X118336866Y-251583776D01*
X118103389Y-251513558D01*
X117905081Y-251436557D01*
X117581834Y-251250481D01*
X117270094Y-250999290D01*
X116990501Y-250703354D01*
X116761215Y-250381913D01*
X116600391Y-250054204D01*
X116578075Y-249991156D01*
X116541090Y-249868873D01*
X116526358Y-249791445D01*
X116509144Y-249714663D01*
X116464221Y-249608630D01*
X116463030Y-249606330D01*
X116431284Y-249528991D01*
X116403934Y-249425412D01*
X116380691Y-249289460D01*
X116361265Y-249115001D01*
X116345365Y-248895903D01*
X116332702Y-248626032D01*
X116322986Y-248299254D01*
X116315926Y-247909436D01*
X116311233Y-247450445D01*
X116308616Y-246916147D01*
X116307786Y-246300409D01*
X116307662Y-243880840D01*
X117161628Y-243880840D01*
X118015593Y-243880840D01*
X118015924Y-246322306D01*
X118016324Y-246805255D01*
X118017894Y-247317189D01*
X118020986Y-247754284D01*
X118025956Y-248123523D01*
X118033157Y-248431895D01*
X118042945Y-248686383D01*
X118055675Y-248893975D01*
X118071700Y-249061656D01*
X118091376Y-249196412D01*
X118115056Y-249305228D01*
X118143096Y-249395092D01*
X118175851Y-249472988D01*
X118280691Y-249643827D01*
X118435826Y-249830038D01*
X118610286Y-249995258D01*
X118776358Y-250110082D01*
X118830387Y-250136365D01*
X118929325Y-250171138D01*
X119048849Y-250192255D01*
X119211262Y-250202960D01*
X119438869Y-250206500D01*
X119572551Y-250205107D01*
X119792708Y-250194842D01*
X119979626Y-250176531D01*
X120106170Y-250152375D01*
X120159659Y-250133166D01*
X120355267Y-250017793D01*
X120541304Y-249847091D01*
X120695244Y-249644575D01*
X120794559Y-249433763D01*
X120824569Y-249342985D01*
X120876545Y-249205302D01*
X120919223Y-249114116D01*
X120920211Y-249112318D01*
X120932110Y-249063405D01*
X120942560Y-248963523D01*
X120951671Y-248808094D01*
X120959558Y-248592543D01*
X120966331Y-248312291D01*
X120972103Y-247962762D01*
X120976987Y-247539380D01*
X120981095Y-247037567D01*
X120984538Y-246452746D01*
X120997449Y-243878963D01*
X121838504Y-243890850D01*
G37*
G36*
X86285100Y-242193345D02*
G01*
X86381929Y-242239025D01*
X86512933Y-242308175D01*
X86643888Y-242380097D01*
X86850006Y-242493092D01*
X87039310Y-242596669D01*
X87110710Y-242637038D01*
X87442187Y-242868065D01*
X87702662Y-243129858D01*
X87884595Y-243415117D01*
X88010130Y-243745936D01*
X88084632Y-244158499D01*
X88073715Y-244575542D01*
X87976841Y-244987925D01*
X87930556Y-245115411D01*
X87861654Y-245279214D01*
X87777027Y-245449125D01*
X87667831Y-245641402D01*
X87525224Y-245872302D01*
X87340364Y-246158082D01*
X87302386Y-246216056D01*
X87160377Y-246433752D01*
X87025422Y-246641904D01*
X86911234Y-246819313D01*
X86831523Y-246944782D01*
X86767857Y-247044778D01*
X86660831Y-247210372D01*
X86526218Y-247417036D01*
X86374971Y-247647960D01*
X86218045Y-247886333D01*
X86072787Y-248106777D01*
X85926780Y-248329155D01*
X85798854Y-248524797D01*
X85699097Y-248678272D01*
X85637599Y-248774146D01*
X85574790Y-248865019D01*
X85453154Y-249019519D01*
X85325244Y-249163720D01*
X85129753Y-249367746D01*
X84876552Y-249339778D01*
X84682604Y-249310613D01*
X84311389Y-249201628D01*
X83970164Y-249020904D01*
X83642124Y-248760554D01*
X83559588Y-248680676D01*
X83281473Y-248341688D01*
X83083743Y-247971360D01*
X82966799Y-247573348D01*
X82931042Y-247151310D01*
X82976874Y-246708903D01*
X83104695Y-246249785D01*
X83314906Y-245777612D01*
X83409829Y-245589399D01*
X83515849Y-245338311D01*
X83575277Y-245119847D01*
X83593302Y-244912404D01*
X83575112Y-244694383D01*
X83571732Y-244673183D01*
X83532446Y-244536322D01*
X83458124Y-244441201D01*
X83331269Y-244372807D01*
X83134387Y-244316122D01*
X83110992Y-244310587D01*
X82943886Y-244266044D01*
X82843308Y-244223914D01*
X82791306Y-244173816D01*
X82769928Y-244105369D01*
X82769763Y-244074265D01*
X82819615Y-243992751D01*
X82930694Y-243932321D01*
X83084442Y-243896082D01*
X83262300Y-243887145D01*
X83445709Y-243908618D01*
X83616111Y-243963611D01*
X83827134Y-244098115D01*
X83994956Y-244300214D01*
X84096397Y-244558329D01*
X84130536Y-244870837D01*
X84127693Y-244992769D01*
X84112048Y-245139937D01*
X84077543Y-245288790D01*
X84018387Y-245458117D01*
X83928786Y-245666707D01*
X83802947Y-245933351D01*
X83696275Y-246162957D01*
X83574052Y-246469515D01*
X83498168Y-246740027D01*
X83464886Y-246995084D01*
X83470469Y-247255280D01*
X83511181Y-247541209D01*
X83515044Y-247561663D01*
X83566749Y-247782139D01*
X83635774Y-247957136D01*
X83738938Y-248120308D01*
X83893060Y-248305305D01*
X83918626Y-248333575D01*
X84059394Y-248471519D01*
X84191988Y-248560482D01*
X84348452Y-248622805D01*
X84518575Y-248670477D01*
X84665895Y-248690436D01*
X84747077Y-248664284D01*
X84768186Y-248589526D01*
X84735286Y-248463667D01*
X84651081Y-248141503D01*
X84630171Y-247766360D01*
X84677567Y-247377592D01*
X84788208Y-246988798D01*
X84957031Y-246613579D01*
X85178974Y-246265535D01*
X85448976Y-245958266D01*
X85761973Y-245705371D01*
X85798358Y-245681170D01*
X85954902Y-245576742D01*
X86099044Y-245480216D01*
X86139118Y-245452598D01*
X86393341Y-245237328D01*
X86584722Y-244999650D01*
X86705350Y-244751468D01*
X86747318Y-244504683D01*
X86725955Y-244438962D01*
X86639075Y-244346297D01*
X86506980Y-244266248D01*
X86353180Y-244216031D01*
X86209056Y-244177702D01*
X86026201Y-244083503D01*
X85906521Y-243957055D01*
X85858142Y-243808318D01*
X85889191Y-243647254D01*
X85894849Y-243634196D01*
X85944369Y-243488532D01*
X85980585Y-243333426D01*
X86017104Y-243211305D01*
X86094823Y-243091384D01*
X86230025Y-242950470D01*
X86450224Y-242742687D01*
X86340269Y-242468746D01*
X86339804Y-242467587D01*
X86286456Y-242328231D01*
X86251859Y-242225310D01*
X86243483Y-242181030D01*
X86285100Y-242193345D01*
G37*
G36*
X111534214Y-251588426D02*
G01*
X109967462Y-251588426D01*
X109465313Y-251586531D01*
X108939265Y-251579196D01*
X108500471Y-251566335D01*
X108148847Y-251547944D01*
X107884306Y-251524018D01*
X107706763Y-251494552D01*
X107616131Y-251459541D01*
X107611593Y-251456264D01*
X107533346Y-251423358D01*
X107417662Y-251393676D01*
X107299446Y-251364073D01*
X107125792Y-251307216D01*
X106936444Y-251235163D01*
X106751189Y-251156402D01*
X106589813Y-251079422D01*
X106472104Y-251012711D01*
X106417848Y-250964758D01*
X106415593Y-250961023D01*
X106361434Y-250918786D01*
X106264572Y-250865643D01*
X106254930Y-250860777D01*
X106149109Y-250789994D01*
X106011974Y-250677247D01*
X105857526Y-250536644D01*
X105699765Y-250382290D01*
X105552690Y-250228291D01*
X105430303Y-250088753D01*
X105346604Y-249977783D01*
X105315593Y-249909488D01*
X105302873Y-249877023D01*
X105254695Y-249787269D01*
X105182919Y-249666187D01*
X105136397Y-249585371D01*
X105046468Y-249404222D01*
X104979643Y-249238547D01*
X104953621Y-249163524D01*
X104908737Y-249047423D01*
X104877226Y-248982737D01*
X104846724Y-248919655D01*
X104806447Y-248762124D01*
X104772741Y-248538813D01*
X104747025Y-248262628D01*
X104730723Y-247946473D01*
X104726255Y-247666038D01*
X106498338Y-247666038D01*
X106505933Y-247881565D01*
X106526054Y-248107520D01*
X106555320Y-248319289D01*
X106590350Y-248492408D01*
X106627761Y-248602411D01*
X106656091Y-248662774D01*
X106708497Y-248785753D01*
X106768312Y-248934102D01*
X106799582Y-249006501D01*
X106964069Y-249278778D01*
X107188666Y-249538990D01*
X107452742Y-249765736D01*
X107735667Y-249937615D01*
X107933332Y-250020500D01*
X108151540Y-250093041D01*
X108340905Y-250138568D01*
X108348047Y-250139740D01*
X108508688Y-250158155D01*
X108727403Y-250173192D01*
X108976357Y-250183330D01*
X109227715Y-250187047D01*
X109826283Y-250187047D01*
X109826283Y-247734633D01*
X109826283Y-245282219D01*
X109224128Y-245282550D01*
X109060472Y-245284081D01*
X108759002Y-245294656D01*
X108489320Y-245314041D01*
X108265363Y-245340766D01*
X108101067Y-245373365D01*
X108010371Y-245410369D01*
X107996899Y-245419121D01*
X107910753Y-245458506D01*
X107789904Y-245501808D01*
X107727249Y-245524720D01*
X107505171Y-245643203D01*
X107276362Y-245812158D01*
X107063085Y-246011484D01*
X106887598Y-246221078D01*
X106772163Y-246420840D01*
X106770504Y-246424838D01*
X106708878Y-246570110D01*
X106649505Y-246705495D01*
X106592969Y-246873040D01*
X106543173Y-247113856D01*
X106510144Y-247387625D01*
X106498338Y-247666038D01*
X104726255Y-247666038D01*
X104725255Y-247603254D01*
X104728527Y-247362281D01*
X104740086Y-247074327D01*
X104758635Y-246810079D01*
X104782770Y-246582313D01*
X104811083Y-246403805D01*
X104842170Y-246287331D01*
X104874625Y-246245668D01*
X104894416Y-246221908D01*
X104929203Y-246133272D01*
X104966031Y-246001546D01*
X104969868Y-245986568D01*
X105018037Y-245851185D01*
X105092272Y-245688931D01*
X105180604Y-245521344D01*
X105271063Y-245369958D01*
X105351677Y-245256309D01*
X105410478Y-245201932D01*
X105421928Y-245194656D01*
X105446973Y-245134182D01*
X105464414Y-245091111D01*
X105541671Y-244997347D01*
X105668196Y-244876487D01*
X105830308Y-244741304D01*
X106014324Y-244604570D01*
X106033302Y-244591500D01*
X106179952Y-244499608D01*
X106349100Y-244404939D01*
X106516596Y-244319859D01*
X106658287Y-244256732D01*
X106750022Y-244227923D01*
X106763159Y-244224514D01*
X106827104Y-244186854D01*
X106845881Y-244177165D01*
X106939071Y-244147970D01*
X107086160Y-244112023D01*
X107265035Y-244074975D01*
X107348314Y-244058903D01*
X107520480Y-244024358D01*
X107653631Y-243995854D01*
X107724214Y-243978348D01*
X107730971Y-243976385D01*
X107824547Y-243965307D01*
X107949673Y-243965598D01*
X107971637Y-243966371D01*
X108079404Y-243956312D01*
X108138378Y-243927660D01*
X108149245Y-243921538D01*
X108229950Y-243908903D01*
X108389478Y-243898673D01*
X108629576Y-243890800D01*
X108951992Y-243885235D01*
X109358472Y-243881931D01*
X109850764Y-243880840D01*
X111534214Y-243880840D01*
X111534214Y-247734633D01*
X111534214Y-251588426D01*
G37*
G36*
X73626868Y-243757623D02*
G01*
X73980032Y-243775768D01*
X74288180Y-243809791D01*
X74562577Y-243863205D01*
X74877860Y-243947600D01*
X75185443Y-244050761D01*
X75458823Y-244163726D01*
X75671496Y-244277534D01*
X75752711Y-244326981D01*
X75861119Y-244384106D01*
X75925640Y-244406357D01*
X75948488Y-244417410D01*
X76026963Y-244479182D01*
X76144770Y-244584048D01*
X76288943Y-244719200D01*
X76446512Y-244871834D01*
X76604512Y-245029142D01*
X76749973Y-245178319D01*
X76869929Y-245306560D01*
X76951413Y-245401057D01*
X76981455Y-245449007D01*
X77000857Y-245505693D01*
X77054232Y-245614637D01*
X77129667Y-245750649D01*
X77197157Y-245875171D01*
X77290126Y-246071192D01*
X77359581Y-246245668D01*
X77396910Y-246350342D01*
X77440342Y-246458016D01*
X77467736Y-246508426D01*
X77468842Y-246509546D01*
X77490799Y-246565912D01*
X77521734Y-246682930D01*
X77555322Y-246836875D01*
X77581336Y-247005873D01*
X77603284Y-247256837D01*
X77615110Y-247543049D01*
X77617397Y-247849176D01*
X77610731Y-248159885D01*
X77595695Y-248459842D01*
X77572874Y-248733714D01*
X77542851Y-248966170D01*
X77506212Y-249141874D01*
X77463540Y-249245495D01*
X77436903Y-249300597D01*
X77392055Y-249416087D01*
X77340571Y-249563679D01*
X77290221Y-249698659D01*
X77221174Y-249849702D01*
X77159269Y-249952774D01*
X77155526Y-249957580D01*
X77094318Y-250052212D01*
X77069042Y-250122310D01*
X77064426Y-250138340D01*
X77013148Y-250215394D01*
X76915869Y-250332324D01*
X76786097Y-250475258D01*
X76637336Y-250630323D01*
X76483095Y-250783648D01*
X76336878Y-250921361D01*
X76212192Y-251029588D01*
X76122542Y-251094459D01*
X76092791Y-251111321D01*
X75811086Y-251261495D01*
X75542949Y-251388642D01*
X75317318Y-251478944D01*
X75299850Y-251485602D01*
X75229731Y-251514737D01*
X75225056Y-251516702D01*
X75103090Y-251555547D01*
X74929476Y-251597577D01*
X74737647Y-251636051D01*
X74561041Y-251664228D01*
X74433092Y-251675365D01*
X74409849Y-251675901D01*
X74302207Y-251690872D01*
X74244387Y-251719806D01*
X74193159Y-251737144D01*
X74067982Y-251751142D01*
X73883268Y-251760310D01*
X73653180Y-251763599D01*
X73427880Y-251760454D01*
X73241975Y-251751408D01*
X73115284Y-251737509D01*
X73061973Y-251719806D01*
X73048794Y-251708644D01*
X72967477Y-251685306D01*
X72845260Y-251676013D01*
X72797554Y-251674721D01*
X72638939Y-251660398D01*
X72450737Y-251633735D01*
X72256276Y-251599136D01*
X72078883Y-251561000D01*
X71941885Y-251523731D01*
X71868611Y-251491729D01*
X71840084Y-251472879D01*
X71813869Y-251478944D01*
X71806096Y-251489525D01*
X71759128Y-251468448D01*
X71685393Y-251430279D01*
X71573007Y-251394246D01*
X71476807Y-251362992D01*
X71328325Y-251302763D01*
X71167921Y-251228919D01*
X70894214Y-251094679D01*
X70894214Y-249151897D01*
X70894214Y-247209116D01*
X72515671Y-247209116D01*
X74137128Y-247209116D01*
X74125068Y-247898857D01*
X74113007Y-248588599D01*
X73357576Y-248600581D01*
X72602145Y-248612564D01*
X72602145Y-249375850D01*
X72602145Y-250139137D01*
X72766369Y-250184744D01*
X72785665Y-250189932D01*
X72920351Y-250218722D01*
X73026543Y-250230596D01*
X73088511Y-250239262D01*
X73149559Y-250274633D01*
X73187305Y-250291813D01*
X73294120Y-250307200D01*
X73444425Y-250315683D01*
X73613852Y-250317155D01*
X73778031Y-250311506D01*
X73912593Y-250298626D01*
X73993170Y-250278408D01*
X74042527Y-250258822D01*
X74164885Y-250223404D01*
X74314408Y-250189162D01*
X74547819Y-250120107D01*
X74859139Y-249959639D01*
X75140938Y-249736017D01*
X75372762Y-249463271D01*
X75400815Y-249421606D01*
X75497647Y-249267767D01*
X75571596Y-249135056D01*
X75608485Y-249048426D01*
X75618807Y-249012236D01*
X75663530Y-248886219D01*
X75721734Y-248745415D01*
X75735116Y-248712057D01*
X75781194Y-248530647D01*
X75813180Y-248292798D01*
X75831157Y-248018934D01*
X75835209Y-247729481D01*
X75825421Y-247444865D01*
X75801875Y-247185510D01*
X75764656Y-246971843D01*
X75713847Y-246824290D01*
X75684991Y-246762932D01*
X75632199Y-246639160D01*
X75572171Y-246490267D01*
X75457331Y-246260965D01*
X75240339Y-245972900D01*
X74964041Y-245713943D01*
X74644361Y-245496338D01*
X74297226Y-245332331D01*
X73938561Y-245234166D01*
X73710480Y-245209108D01*
X73433724Y-245200633D01*
X73129413Y-245207425D01*
X72816710Y-245227836D01*
X72514777Y-245260214D01*
X72242778Y-245302912D01*
X72019874Y-245354278D01*
X71865229Y-245412663D01*
X71806644Y-245441492D01*
X71685819Y-245497144D01*
X71540162Y-245561775D01*
X71288352Y-245671512D01*
X71288352Y-244863762D01*
X71289718Y-244640605D01*
X71294991Y-244401151D01*
X71303712Y-244216654D01*
X71315330Y-244097985D01*
X71329294Y-244056013D01*
X71392711Y-244041668D01*
X71493518Y-244005391D01*
X71591278Y-243968636D01*
X71660593Y-243948843D01*
X71673963Y-243946418D01*
X71759260Y-243925605D01*
X71879559Y-243892459D01*
X71927341Y-243879596D01*
X72187782Y-243829265D01*
X72509143Y-243791175D01*
X72870235Y-243766053D01*
X73249873Y-243754627D01*
X73626868Y-243757623D01*
G37*
G36*
X100784836Y-247829744D02*
G01*
X100777298Y-248165132D01*
X100759079Y-248485619D01*
X100730772Y-248776737D01*
X100692968Y-249024016D01*
X100646261Y-249212988D01*
X100591243Y-249329184D01*
X100571099Y-249365124D01*
X100527304Y-249469525D01*
X100478902Y-249606273D01*
X100446035Y-249698705D01*
X100398179Y-249808226D01*
X100362228Y-249861531D01*
X100346620Y-249876645D01*
X100294538Y-249955168D01*
X100234276Y-250070584D01*
X100211045Y-250115292D01*
X100098896Y-250283385D01*
X99940685Y-250478919D01*
X99754128Y-250682229D01*
X99556939Y-250873652D01*
X99366832Y-251033522D01*
X99246734Y-251119740D01*
X98875539Y-251336355D01*
X98476411Y-251506848D01*
X98083817Y-251615581D01*
X98026148Y-251626954D01*
X97856503Y-251663792D01*
X97723445Y-251697593D01*
X97651800Y-251722228D01*
X97587603Y-251738201D01*
X97458633Y-251750729D01*
X97289042Y-251758125D01*
X97100176Y-251760436D01*
X96913380Y-251757712D01*
X96750000Y-251750000D01*
X96631381Y-251737348D01*
X96578869Y-251719806D01*
X96577932Y-251718404D01*
X96516663Y-251688417D01*
X96411180Y-251676013D01*
X96202956Y-251654377D01*
X95930072Y-251586910D01*
X95630931Y-251482273D01*
X95327752Y-251349310D01*
X95042751Y-251196869D01*
X94798148Y-251033795D01*
X94660206Y-250920272D01*
X94480612Y-250753582D01*
X94303268Y-250571994D01*
X94144503Y-250393165D01*
X94020645Y-250234755D01*
X93948023Y-250114421D01*
X93942604Y-250102225D01*
X93892766Y-250007937D01*
X93853837Y-249961146D01*
X93842350Y-249951312D01*
X93805263Y-249892231D01*
X93747345Y-249774626D01*
X93664927Y-249590807D01*
X93554344Y-249333082D01*
X93533579Y-249276529D01*
X93488129Y-249116881D01*
X93441675Y-248918227D01*
X93400595Y-248711340D01*
X93371269Y-248526994D01*
X93360076Y-248395961D01*
X93347657Y-248297367D01*
X93316283Y-248238254D01*
X93311527Y-248232538D01*
X93295232Y-248161720D01*
X93283286Y-248029998D01*
X93280051Y-247955777D01*
X95118242Y-247955777D01*
X95147293Y-248399587D01*
X95221149Y-248784990D01*
X95342827Y-249122684D01*
X95515345Y-249423364D01*
X95741718Y-249697726D01*
X95805689Y-249762432D01*
X96045000Y-249965628D01*
X96285338Y-250101413D01*
X96548180Y-250182700D01*
X96881632Y-250225443D01*
X97307766Y-250213912D01*
X97717490Y-250133160D01*
X97771178Y-250115082D01*
X97999702Y-249996571D01*
X98231791Y-249819805D01*
X98447204Y-249604388D01*
X98625701Y-249369923D01*
X98747044Y-249136013D01*
X98754579Y-249116414D01*
X98800766Y-249006752D01*
X98835819Y-248938944D01*
X98844526Y-248925064D01*
X98890235Y-248798970D01*
X98928444Y-248605934D01*
X98958421Y-248363314D01*
X98979434Y-248088468D01*
X98990750Y-247798754D01*
X98991638Y-247511530D01*
X98981365Y-247244153D01*
X98959200Y-247013981D01*
X98924411Y-246838372D01*
X98891232Y-246733889D01*
X98781870Y-246462079D01*
X98645056Y-246193280D01*
X98492999Y-245947975D01*
X98337908Y-245746644D01*
X98191992Y-245609768D01*
X97914579Y-245439978D01*
X97572724Y-245308431D01*
X97203767Y-245250095D01*
X96959723Y-245243386D01*
X96614820Y-245274520D01*
X96314528Y-245362798D01*
X96040856Y-245514334D01*
X95775815Y-245735240D01*
X95756547Y-245754093D01*
X95539992Y-246009734D01*
X95372676Y-246303125D01*
X95250669Y-246645059D01*
X95170044Y-247046326D01*
X95126870Y-247517718D01*
X95118242Y-247955777D01*
X93280051Y-247955777D01*
X93275814Y-247858563D01*
X93272940Y-247668606D01*
X93274788Y-247481318D01*
X93281482Y-247317889D01*
X93293145Y-247199509D01*
X93309902Y-247147370D01*
X93330667Y-247104830D01*
X93355438Y-246996949D01*
X93375901Y-246850746D01*
X93395469Y-246703377D01*
X93428471Y-246515651D01*
X93468030Y-246328160D01*
X93509166Y-246162485D01*
X93546896Y-246040208D01*
X93576239Y-245982909D01*
X93591588Y-245961710D01*
X93633498Y-245875993D01*
X93683752Y-245752196D01*
X93712482Y-245680257D01*
X93768643Y-245560390D01*
X93813394Y-245489438D01*
X93861697Y-245421976D01*
X93917572Y-245316025D01*
X93978851Y-245218765D01*
X94093270Y-245077823D01*
X94243858Y-244912076D01*
X94414861Y-244737579D01*
X94590526Y-244570384D01*
X94755102Y-244426546D01*
X94892835Y-244322118D01*
X95011214Y-244247958D01*
X95184074Y-244151604D01*
X95330766Y-244082163D01*
X95385678Y-244059626D01*
X95528747Y-243997720D01*
X95637318Y-243946581D01*
X95669530Y-243931024D01*
X95879243Y-243861375D01*
X96159364Y-243812204D01*
X96514963Y-243782840D01*
X96951111Y-243772612D01*
X97138488Y-243774320D01*
X97452486Y-243786354D01*
X97739433Y-243808476D01*
X97984212Y-243839031D01*
X98171707Y-243876364D01*
X98286800Y-243918821D01*
X98299121Y-243925890D01*
X98352490Y-243948520D01*
X98362840Y-243951530D01*
X98434216Y-243979297D01*
X98543959Y-244025829D01*
X98584655Y-244043174D01*
X98689137Y-244083637D01*
X98747062Y-244099806D01*
X98787279Y-244116913D01*
X98881128Y-244172436D01*
X99003417Y-244253082D01*
X99108948Y-244323536D01*
X99205911Y-244383360D01*
X99253838Y-244406357D01*
X99254879Y-244406427D01*
X99299977Y-244439823D01*
X99367555Y-244515840D01*
X99369187Y-244517903D01*
X99443754Y-244593841D01*
X99503153Y-244625323D01*
X99553858Y-244648458D01*
X99641042Y-244715795D01*
X99735210Y-244803548D01*
X99810601Y-244887497D01*
X99841455Y-244943419D01*
X99866860Y-244994356D01*
X99933741Y-245091681D01*
X100027576Y-245214204D01*
X100210596Y-245462404D01*
X100410696Y-245812782D01*
X100528920Y-246147133D01*
X100550969Y-246208832D01*
X100585611Y-246245668D01*
X100596647Y-246258779D01*
X100625683Y-246338962D01*
X100662230Y-246475887D01*
X100700936Y-246650754D01*
X100737435Y-246878870D01*
X100765497Y-247172144D01*
X100781100Y-247493926D01*
X100781296Y-247511530D01*
X100784836Y-247829744D01*
G37*
D12*
G04 #@! TO.C,U13*
X138900000Y-88900000D02*
X138900000Y-103100000D01*
X138900000Y-103100000D02*
X153100000Y-103100000D01*
X153100000Y-88900000D02*
X138900000Y-88900000D01*
X153100000Y-103100000D02*
X153100000Y-88900000D01*
G04 #@! TO.C,U15*
X108900000Y-90900000D02*
X108900000Y-105100000D01*
X108900000Y-105100000D02*
X123100000Y-105100000D01*
X123100000Y-90900000D02*
X108900000Y-90900000D01*
X123100000Y-105100000D02*
X123100000Y-90900000D01*
G04 #@! TO.C,U6*
X80900000Y-108900000D02*
X80900000Y-123100000D01*
X80900000Y-123100000D02*
X95100000Y-123100000D01*
X95100000Y-108900000D02*
X80900000Y-108900000D01*
X95100000Y-123100000D02*
X95100000Y-108900000D01*
G04 #@! TO.C,U10*
X168900000Y-90900000D02*
X168900000Y-105100000D01*
X168900000Y-105100000D02*
X183100000Y-105100000D01*
X183100000Y-90900000D02*
X168900000Y-90900000D01*
X183100000Y-105100000D02*
X183100000Y-90900000D01*
G04 #@! TO.C,U19*
X80900000Y-138900000D02*
X80900000Y-153100000D01*
X80900000Y-153100000D02*
X95100000Y-153100000D01*
X95100000Y-138900000D02*
X80900000Y-138900000D01*
X95100000Y-153100000D02*
X95100000Y-138900000D01*
G04 #@! TO.C,SW4*
X168900000Y-122900000D02*
X168900000Y-137100000D01*
X168900000Y-137100000D02*
X183100000Y-137100000D01*
X183100000Y-122900000D02*
X168900000Y-122900000D01*
X183100000Y-137100000D02*
X183100000Y-122900000D01*
G04 #@! TO.C,U12*
X108900000Y-122900000D02*
X108900000Y-137100000D01*
X108900000Y-137100000D02*
X123100000Y-137100000D01*
X123100000Y-122900000D02*
X108900000Y-122900000D01*
X123100000Y-137100000D02*
X123100000Y-122900000D01*
G04 #@! TO.C,U14*
X138900000Y-120900000D02*
X138900000Y-135100000D01*
X138900000Y-135100000D02*
X153100000Y-135100000D01*
X153100000Y-120900000D02*
X138900000Y-120900000D01*
X153100000Y-135100000D02*
X153100000Y-120900000D01*
G04 #@! TO.C,U17*
X328900000Y-134900000D02*
X328900000Y-149100000D01*
X328900000Y-149100000D02*
X343100000Y-149100000D01*
X343100000Y-134900000D02*
X328900000Y-134900000D01*
X343100000Y-149100000D02*
X343100000Y-134900000D01*
G04 #@! TO.C,U16*
X182900000Y-160900000D02*
X182900000Y-175100000D01*
X182900000Y-175100000D02*
X197100000Y-175100000D01*
X197100000Y-160900000D02*
X182900000Y-160900000D01*
X197100000Y-175100000D02*
X197100000Y-160900000D01*
G04 #@! TO.C,U8*
X196900000Y-104900000D02*
X196900000Y-119100000D01*
X196900000Y-119100000D02*
X211100000Y-119100000D01*
X211100000Y-104900000D02*
X196900000Y-104900000D01*
X211100000Y-119100000D02*
X211100000Y-104900000D01*
G04 #@! TO.C,U9*
X272900000Y-82900000D02*
X272900000Y-97100000D01*
X272900000Y-97100000D02*
X287100000Y-97100000D01*
X287100000Y-82900000D02*
X272900000Y-82900000D01*
X287100000Y-97100000D02*
X287100000Y-82900000D01*
G04 #@! TO.C,U21*
X212900000Y-170900000D02*
X212900000Y-185100000D01*
X212900000Y-185100000D02*
X227100000Y-185100000D01*
X227100000Y-170900000D02*
X212900000Y-170900000D01*
X227100000Y-185100000D02*
X227100000Y-170900000D01*
G04 #@! TO.C,SW3*
X302900000Y-110900000D02*
X302900000Y-125100000D01*
X302900000Y-125100000D02*
X317100000Y-125100000D01*
X317100000Y-110900000D02*
X302900000Y-110900000D01*
X317100000Y-125100000D02*
X317100000Y-110900000D01*
G04 #@! TO.C,U11*
X242900000Y-110900000D02*
X242900000Y-125100000D01*
X242900000Y-125100000D02*
X257100000Y-125100000D01*
X257100000Y-110900000D02*
X242900000Y-110900000D01*
X257100000Y-125100000D02*
X257100000Y-110900000D01*
G04 #@! TO.C,U20*
X272900000Y-108900000D02*
X272900000Y-123100000D01*
X272900000Y-123100000D02*
X287100000Y-123100000D01*
X287100000Y-108900000D02*
X272900000Y-108900000D01*
X287100000Y-123100000D02*
X287100000Y-108900000D01*
G04 #@! TO.C,U7*
X80900000Y-58900000D02*
X80900000Y-73100000D01*
X80900000Y-73100000D02*
X95100000Y-73100000D01*
X95100000Y-58900000D02*
X80900000Y-58900000D01*
X95100000Y-73100000D02*
X95100000Y-58900000D01*
G04 #@! TO.C,U18*
X108900000Y-58900000D02*
X108900000Y-73100000D01*
X108900000Y-73100000D02*
X123100000Y-73100000D01*
X123100000Y-58900000D02*
X108900000Y-58900000D01*
X123100000Y-73100000D02*
X123100000Y-58900000D01*
G04 #@! TD*
M02*
