G04 #@! TF.GenerationSoftware,KiCad,Pcbnew,8.0.3*
G04 #@! TF.CreationDate,2024-06-18T22:36:52+09:00*
G04 #@! TF.ProjectId,mainboard_top_plate,6d61696e-626f-4617-9264-5f746f705f70,rev?*
G04 #@! TF.SameCoordinates,Original*
G04 #@! TF.FileFunction,Legend,Top*
G04 #@! TF.FilePolarity,Positive*
%FSLAX46Y46*%
G04 Gerber Fmt 4.6, Leading zero omitted, Abs format (unit mm)*
G04 Created by KiCad (PCBNEW 8.0.3) date 2024-06-18 22:36:52*
%MOMM*%
%LPD*%
G01*
G04 APERTURE LIST*
%ADD10C,0.150000*%
G04 APERTURE END LIST*
D10*
X261388095Y-23804819D02*
X261388095Y-22804819D01*
X261388095Y-23281009D02*
X261959523Y-23281009D01*
X261959523Y-23804819D02*
X261959523Y-22804819D01*
X262864285Y-22804819D02*
X262673809Y-22804819D01*
X262673809Y-22804819D02*
X262578571Y-22852438D01*
X262578571Y-22852438D02*
X262530952Y-22900057D01*
X262530952Y-22900057D02*
X262435714Y-23042914D01*
X262435714Y-23042914D02*
X262388095Y-23233390D01*
X262388095Y-23233390D02*
X262388095Y-23614342D01*
X262388095Y-23614342D02*
X262435714Y-23709580D01*
X262435714Y-23709580D02*
X262483333Y-23757200D01*
X262483333Y-23757200D02*
X262578571Y-23804819D01*
X262578571Y-23804819D02*
X262769047Y-23804819D01*
X262769047Y-23804819D02*
X262864285Y-23757200D01*
X262864285Y-23757200D02*
X262911904Y-23709580D01*
X262911904Y-23709580D02*
X262959523Y-23614342D01*
X262959523Y-23614342D02*
X262959523Y-23376247D01*
X262959523Y-23376247D02*
X262911904Y-23281009D01*
X262911904Y-23281009D02*
X262864285Y-23233390D01*
X262864285Y-23233390D02*
X262769047Y-23185771D01*
X262769047Y-23185771D02*
X262578571Y-23185771D01*
X262578571Y-23185771D02*
X262483333Y-23233390D01*
X262483333Y-23233390D02*
X262435714Y-23281009D01*
X262435714Y-23281009D02*
X262388095Y-23376247D01*
X26388095Y-223804819D02*
X26388095Y-222804819D01*
X26388095Y-223281009D02*
X26959523Y-223281009D01*
X26959523Y-223804819D02*
X26959523Y-222804819D01*
X27388095Y-222900057D02*
X27435714Y-222852438D01*
X27435714Y-222852438D02*
X27530952Y-222804819D01*
X27530952Y-222804819D02*
X27769047Y-222804819D01*
X27769047Y-222804819D02*
X27864285Y-222852438D01*
X27864285Y-222852438D02*
X27911904Y-222900057D01*
X27911904Y-222900057D02*
X27959523Y-222995295D01*
X27959523Y-222995295D02*
X27959523Y-223090533D01*
X27959523Y-223090533D02*
X27911904Y-223233390D01*
X27911904Y-223233390D02*
X27340476Y-223804819D01*
X27340476Y-223804819D02*
X27959523Y-223804819D01*
X26388095Y-23804819D02*
X26388095Y-22804819D01*
X26388095Y-23281009D02*
X26959523Y-23281009D01*
X26959523Y-23804819D02*
X26959523Y-22804819D01*
X27959523Y-23804819D02*
X27388095Y-23804819D01*
X27673809Y-23804819D02*
X27673809Y-22804819D01*
X27673809Y-22804819D02*
X27578571Y-22947676D01*
X27578571Y-22947676D02*
X27483333Y-23042914D01*
X27483333Y-23042914D02*
X27388095Y-23090533D01*
X186388095Y-123804819D02*
X186388095Y-122804819D01*
X186388095Y-123281009D02*
X186959523Y-123281009D01*
X186959523Y-123804819D02*
X186959523Y-122804819D01*
X187483333Y-123804819D02*
X187673809Y-123804819D01*
X187673809Y-123804819D02*
X187769047Y-123757200D01*
X187769047Y-123757200D02*
X187816666Y-123709580D01*
X187816666Y-123709580D02*
X187911904Y-123566723D01*
X187911904Y-123566723D02*
X187959523Y-123376247D01*
X187959523Y-123376247D02*
X187959523Y-122995295D01*
X187959523Y-122995295D02*
X187911904Y-122900057D01*
X187911904Y-122900057D02*
X187864285Y-122852438D01*
X187864285Y-122852438D02*
X187769047Y-122804819D01*
X187769047Y-122804819D02*
X187578571Y-122804819D01*
X187578571Y-122804819D02*
X187483333Y-122852438D01*
X187483333Y-122852438D02*
X187435714Y-122900057D01*
X187435714Y-122900057D02*
X187388095Y-122995295D01*
X187388095Y-122995295D02*
X187388095Y-123233390D01*
X187388095Y-123233390D02*
X187435714Y-123328628D01*
X187435714Y-123328628D02*
X187483333Y-123376247D01*
X187483333Y-123376247D02*
X187578571Y-123423866D01*
X187578571Y-123423866D02*
X187769047Y-123423866D01*
X187769047Y-123423866D02*
X187864285Y-123376247D01*
X187864285Y-123376247D02*
X187911904Y-123328628D01*
X187911904Y-123328628D02*
X187959523Y-123233390D01*
X261388095Y-153804819D02*
X261388095Y-152804819D01*
X261388095Y-153281009D02*
X261959523Y-153281009D01*
X261959523Y-153804819D02*
X261959523Y-152804819D01*
X262340476Y-152804819D02*
X263007142Y-152804819D01*
X263007142Y-152804819D02*
X262578571Y-153804819D01*
X185911905Y-223804819D02*
X185911905Y-222804819D01*
X185911905Y-223281009D02*
X186483333Y-223281009D01*
X186483333Y-223804819D02*
X186483333Y-222804819D01*
X187483333Y-223804819D02*
X186911905Y-223804819D01*
X187197619Y-223804819D02*
X187197619Y-222804819D01*
X187197619Y-222804819D02*
X187102381Y-222947676D01*
X187102381Y-222947676D02*
X187007143Y-223042914D01*
X187007143Y-223042914D02*
X186911905Y-223090533D01*
X188102381Y-222804819D02*
X188197619Y-222804819D01*
X188197619Y-222804819D02*
X188292857Y-222852438D01*
X188292857Y-222852438D02*
X188340476Y-222900057D01*
X188340476Y-222900057D02*
X188388095Y-222995295D01*
X188388095Y-222995295D02*
X188435714Y-223185771D01*
X188435714Y-223185771D02*
X188435714Y-223423866D01*
X188435714Y-223423866D02*
X188388095Y-223614342D01*
X188388095Y-223614342D02*
X188340476Y-223709580D01*
X188340476Y-223709580D02*
X188292857Y-223757200D01*
X188292857Y-223757200D02*
X188197619Y-223804819D01*
X188197619Y-223804819D02*
X188102381Y-223804819D01*
X188102381Y-223804819D02*
X188007143Y-223757200D01*
X188007143Y-223757200D02*
X187959524Y-223709580D01*
X187959524Y-223709580D02*
X187911905Y-223614342D01*
X187911905Y-223614342D02*
X187864286Y-223423866D01*
X187864286Y-223423866D02*
X187864286Y-223185771D01*
X187864286Y-223185771D02*
X187911905Y-222995295D01*
X187911905Y-222995295D02*
X187959524Y-222900057D01*
X187959524Y-222900057D02*
X188007143Y-222852438D01*
X188007143Y-222852438D02*
X188102381Y-222804819D01*
X346388095Y-223804819D02*
X346388095Y-222804819D01*
X346388095Y-223281009D02*
X346959523Y-223281009D01*
X346959523Y-223804819D02*
X346959523Y-222804819D01*
X347340476Y-222804819D02*
X347959523Y-222804819D01*
X347959523Y-222804819D02*
X347626190Y-223185771D01*
X347626190Y-223185771D02*
X347769047Y-223185771D01*
X347769047Y-223185771D02*
X347864285Y-223233390D01*
X347864285Y-223233390D02*
X347911904Y-223281009D01*
X347911904Y-223281009D02*
X347959523Y-223376247D01*
X347959523Y-223376247D02*
X347959523Y-223614342D01*
X347959523Y-223614342D02*
X347911904Y-223709580D01*
X347911904Y-223709580D02*
X347864285Y-223757200D01*
X347864285Y-223757200D02*
X347769047Y-223804819D01*
X347769047Y-223804819D02*
X347483333Y-223804819D01*
X347483333Y-223804819D02*
X347388095Y-223757200D01*
X347388095Y-223757200D02*
X347340476Y-223709580D01*
X111388095Y-23804819D02*
X111388095Y-22804819D01*
X111388095Y-23281009D02*
X111959523Y-23281009D01*
X111959523Y-23804819D02*
X111959523Y-22804819D01*
X112911904Y-22804819D02*
X112435714Y-22804819D01*
X112435714Y-22804819D02*
X112388095Y-23281009D01*
X112388095Y-23281009D02*
X112435714Y-23233390D01*
X112435714Y-23233390D02*
X112530952Y-23185771D01*
X112530952Y-23185771D02*
X112769047Y-23185771D01*
X112769047Y-23185771D02*
X112864285Y-23233390D01*
X112864285Y-23233390D02*
X112911904Y-23281009D01*
X112911904Y-23281009D02*
X112959523Y-23376247D01*
X112959523Y-23376247D02*
X112959523Y-23614342D01*
X112959523Y-23614342D02*
X112911904Y-23709580D01*
X112911904Y-23709580D02*
X112864285Y-23757200D01*
X112864285Y-23757200D02*
X112769047Y-23804819D01*
X112769047Y-23804819D02*
X112530952Y-23804819D01*
X112530952Y-23804819D02*
X112435714Y-23757200D01*
X112435714Y-23757200D02*
X112388095Y-23709580D01*
X342513095Y-30229819D02*
X342513095Y-29229819D01*
X342513095Y-29706009D02*
X343084523Y-29706009D01*
X343084523Y-30229819D02*
X343084523Y-29229819D01*
X343989285Y-29563152D02*
X343989285Y-30229819D01*
X343751190Y-29182200D02*
X343513095Y-29896485D01*
X343513095Y-29896485D02*
X344132142Y-29896485D01*
X111388095Y-153804819D02*
X111388095Y-152804819D01*
X111388095Y-153281009D02*
X111959523Y-153281009D01*
X111959523Y-153804819D02*
X111959523Y-152804819D01*
X112578571Y-153233390D02*
X112483333Y-153185771D01*
X112483333Y-153185771D02*
X112435714Y-153138152D01*
X112435714Y-153138152D02*
X112388095Y-153042914D01*
X112388095Y-153042914D02*
X112388095Y-152995295D01*
X112388095Y-152995295D02*
X112435714Y-152900057D01*
X112435714Y-152900057D02*
X112483333Y-152852438D01*
X112483333Y-152852438D02*
X112578571Y-152804819D01*
X112578571Y-152804819D02*
X112769047Y-152804819D01*
X112769047Y-152804819D02*
X112864285Y-152852438D01*
X112864285Y-152852438D02*
X112911904Y-152900057D01*
X112911904Y-152900057D02*
X112959523Y-152995295D01*
X112959523Y-152995295D02*
X112959523Y-153042914D01*
X112959523Y-153042914D02*
X112911904Y-153138152D01*
X112911904Y-153138152D02*
X112864285Y-153185771D01*
X112864285Y-153185771D02*
X112769047Y-153233390D01*
X112769047Y-153233390D02*
X112578571Y-153233390D01*
X112578571Y-153233390D02*
X112483333Y-153281009D01*
X112483333Y-153281009D02*
X112435714Y-153328628D01*
X112435714Y-153328628D02*
X112388095Y-153423866D01*
X112388095Y-153423866D02*
X112388095Y-153614342D01*
X112388095Y-153614342D02*
X112435714Y-153709580D01*
X112435714Y-153709580D02*
X112483333Y-153757200D01*
X112483333Y-153757200D02*
X112578571Y-153804819D01*
X112578571Y-153804819D02*
X112769047Y-153804819D01*
X112769047Y-153804819D02*
X112864285Y-153757200D01*
X112864285Y-153757200D02*
X112911904Y-153709580D01*
X112911904Y-153709580D02*
X112959523Y-153614342D01*
X112959523Y-153614342D02*
X112959523Y-153423866D01*
X112959523Y-153423866D02*
X112911904Y-153328628D01*
X112911904Y-153328628D02*
X112864285Y-153281009D01*
X112864285Y-153281009D02*
X112769047Y-153233390D01*
M02*
