G04 #@! TF.GenerationSoftware,KiCad,Pcbnew,8.0.3*
G04 #@! TF.CreationDate,2024-06-18T22:36:52+09:00*
G04 #@! TF.ProjectId,mainboard_top_plate,6d61696e-626f-4617-9264-5f746f705f70,rev?*
G04 #@! TF.SameCoordinates,Original*
G04 #@! TF.FileFunction,Profile,NP*
%FSLAX46Y46*%
G04 Gerber Fmt 4.6, Leading zero omitted, Abs format (unit mm)*
G04 Created by KiCad (PCBNEW 8.0.3) date 2024-06-18 22:36:52*
%MOMM*%
%LPD*%
G01*
G04 APERTURE LIST*
G04 #@! TA.AperFunction,Profile*
%ADD10C,0.050000*%
G04 #@! TD*
G04 APERTURE END LIST*
D10*
X17150000Y-17050000D02*
X357150000Y-17050000D01*
X357150000Y-237050000D01*
X17150000Y-237050000D01*
X17150000Y-17050000D01*
G04 #@! TO.C,U13*
X115150000Y-121350000D02*
X115150000Y-107750000D01*
X115350000Y-107550000D02*
X128950001Y-107549999D01*
X115350000Y-121550000D02*
X128950000Y-121550000D01*
X129150001Y-107749999D02*
X129150000Y-121350000D01*
X115150000Y-107750000D02*
G75*
G02*
X115350000Y-107550000I200001J-1D01*
G01*
X115350000Y-121550000D02*
G75*
G02*
X115150000Y-121350000I1J200001D01*
G01*
X128950001Y-107549999D02*
G75*
G02*
X129150001Y-107749999I-1J-200001D01*
G01*
X129150000Y-121350000D02*
G75*
G02*
X128950000Y-121550000I-200000J0D01*
G01*
G04 #@! TO.C,U15*
X160070000Y-151350000D02*
X160070000Y-137750000D01*
X160270000Y-137550000D02*
X173870001Y-137549999D01*
X160270000Y-151550000D02*
X173870000Y-151550000D01*
X174070001Y-137749999D02*
X174070000Y-151350000D01*
X160070000Y-137750000D02*
G75*
G02*
X160270000Y-137550000I200001J-1D01*
G01*
X160270000Y-151550000D02*
G75*
G02*
X160070000Y-151350000I1J200001D01*
G01*
X173870001Y-137549999D02*
G75*
G02*
X174070001Y-137749999I-1J-200001D01*
G01*
X174070000Y-151350000D02*
G75*
G02*
X173870000Y-151550000I-200000J0D01*
G01*
G04 #@! TO.C,U6*
X115095000Y-88850000D02*
X115095000Y-75250000D01*
X115295000Y-75050000D02*
X128895001Y-75049999D01*
X115295000Y-89050000D02*
X128895000Y-89050000D01*
X129095001Y-75249999D02*
X129095000Y-88850000D01*
X115095000Y-75250000D02*
G75*
G02*
X115295000Y-75050000I200001J-1D01*
G01*
X115295000Y-89050000D02*
G75*
G02*
X115095000Y-88850000I1J200001D01*
G01*
X128895001Y-75049999D02*
G75*
G02*
X129095001Y-75249999I-1J-200001D01*
G01*
X129095000Y-88850000D02*
G75*
G02*
X128895000Y-89050000I-200000J0D01*
G01*
G04 #@! TO.C,U10*
X55070000Y-131350000D02*
X55070000Y-117750000D01*
X55270000Y-117550000D02*
X68870001Y-117549999D01*
X55270000Y-131550000D02*
X68870000Y-131550000D01*
X69070001Y-117749999D02*
X69070000Y-131350000D01*
X55070000Y-117750000D02*
G75*
G02*
X55270000Y-117550000I200001J-1D01*
G01*
X55270000Y-131550000D02*
G75*
G02*
X55070000Y-131350000I1J200001D01*
G01*
X68870001Y-117549999D02*
G75*
G02*
X69070001Y-117749999I-1J-200001D01*
G01*
X69070000Y-131350000D02*
G75*
G02*
X68870000Y-131550000I-200000J0D01*
G01*
G04 #@! TO.C,U19*
X280070000Y-101350000D02*
X280070000Y-87750000D01*
X280270000Y-87550000D02*
X293870001Y-87549999D01*
X280270000Y-101550000D02*
X293870000Y-101550000D01*
X294070001Y-87749999D02*
X294070000Y-101350000D01*
X280070000Y-87750000D02*
G75*
G02*
X280270000Y-87550000I200001J-1D01*
G01*
X280270000Y-101550000D02*
G75*
G02*
X280070000Y-101350000I1J200001D01*
G01*
X293870001Y-87549999D02*
G75*
G02*
X294070001Y-87749999I-1J-200001D01*
G01*
X294070000Y-101350000D02*
G75*
G02*
X293870000Y-101550000I-200000J0D01*
G01*
G04 #@! TO.C,SW4*
X336995000Y-27977500D02*
X336995000Y-41577500D01*
X336795000Y-41777500D02*
X323194999Y-41777501D01*
X336795000Y-27777500D02*
X323195000Y-27777500D01*
X322994999Y-41577501D02*
X322995000Y-27977500D01*
X336995000Y-41577500D02*
G75*
G02*
X336795000Y-41777500I-200001J1D01*
G01*
X336795000Y-27777500D02*
G75*
G02*
X336995000Y-27977500I-1J-200001D01*
G01*
X323194999Y-41777501D02*
G75*
G02*
X322994999Y-41577501I1J200001D01*
G01*
X322995000Y-27977500D02*
G75*
G02*
X323195000Y-27777500I200000J0D01*
G01*
G04 #@! TO.C,U12*
X85150000Y-126350000D02*
X85150000Y-112750000D01*
X85350000Y-112550000D02*
X98950001Y-112549999D01*
X85350000Y-126550000D02*
X98950000Y-126550000D01*
X99150001Y-112749999D02*
X99150000Y-126350000D01*
X85150000Y-112750000D02*
G75*
G02*
X85350000Y-112550000I200001J-1D01*
G01*
X85350000Y-126550000D02*
G75*
G02*
X85150000Y-126350000I1J200001D01*
G01*
X98950001Y-112549999D02*
G75*
G02*
X99150001Y-112749999I-1J-200001D01*
G01*
X99150000Y-126350000D02*
G75*
G02*
X98950000Y-126550000I-200000J0D01*
G01*
G04 #@! TO.C,U14*
X305070000Y-126350000D02*
X305070000Y-112750000D01*
X305270000Y-112550000D02*
X318870001Y-112549999D01*
X305270000Y-126550000D02*
X318870000Y-126550000D01*
X319070001Y-112749999D02*
X319070000Y-126350000D01*
X305070000Y-112750000D02*
G75*
G02*
X305270000Y-112550000I200001J-1D01*
G01*
X305270000Y-126550000D02*
G75*
G02*
X305070000Y-126350000I1J200001D01*
G01*
X318870001Y-112549999D02*
G75*
G02*
X319070001Y-112749999I-1J-200001D01*
G01*
X319070000Y-126350000D02*
G75*
G02*
X318870000Y-126550000I-200000J0D01*
G01*
G04 #@! TO.C,U17*
X250150000Y-61350000D02*
X250150000Y-47750000D01*
X250350000Y-47550000D02*
X263950001Y-47549999D01*
X250350000Y-61550000D02*
X263950000Y-61550000D01*
X264150001Y-47749999D02*
X264150000Y-61350000D01*
X250150000Y-47750000D02*
G75*
G02*
X250350000Y-47550000I200001J-1D01*
G01*
X250350000Y-61550000D02*
G75*
G02*
X250150000Y-61350000I1J200001D01*
G01*
X263950001Y-47549999D02*
G75*
G02*
X264150001Y-47749999I-1J-200001D01*
G01*
X264150000Y-61350000D02*
G75*
G02*
X263950000Y-61550000I-200000J0D01*
G01*
G04 #@! TO.C,U16*
X175150000Y-103850000D02*
X175150000Y-90250000D01*
X175350000Y-90050000D02*
X188950001Y-90049999D01*
X175350000Y-104050000D02*
X188950000Y-104050000D01*
X189150001Y-90249999D02*
X189150000Y-103850000D01*
X175150000Y-90250000D02*
G75*
G02*
X175350000Y-90050000I200001J-1D01*
G01*
X175350000Y-104050000D02*
G75*
G02*
X175150000Y-103850000I1J200001D01*
G01*
X188950001Y-90049999D02*
G75*
G02*
X189150001Y-90249999I-1J-200001D01*
G01*
X189150000Y-103850000D02*
G75*
G02*
X188950000Y-104050000I-200000J0D01*
G01*
G04 #@! TO.C,U8*
X55095000Y-98850000D02*
X55095000Y-85250000D01*
X55295000Y-85050000D02*
X68895001Y-85049999D01*
X55295000Y-99050000D02*
X68895000Y-99050000D01*
X69095001Y-85249999D02*
X69095000Y-98850000D01*
X55095000Y-85250000D02*
G75*
G02*
X55295000Y-85050000I200001J-1D01*
G01*
X55295000Y-99050000D02*
G75*
G02*
X55095000Y-98850000I1J200001D01*
G01*
X68895001Y-85049999D02*
G75*
G02*
X69095001Y-85249999I-1J-200001D01*
G01*
X69095000Y-98850000D02*
G75*
G02*
X68895000Y-99050000I-200000J0D01*
G01*
G04 #@! TO.C,U9*
X145095000Y-93850000D02*
X145095000Y-80250000D01*
X145295000Y-80050000D02*
X158895001Y-80049999D01*
X145295000Y-94050000D02*
X158895000Y-94050000D01*
X159095001Y-80249999D02*
X159095000Y-93850000D01*
X145095000Y-80250000D02*
G75*
G02*
X145295000Y-80050000I200001J-1D01*
G01*
X145295000Y-94050000D02*
G75*
G02*
X145095000Y-93850000I1J200001D01*
G01*
X158895001Y-80049999D02*
G75*
G02*
X159095001Y-80249999I-1J-200001D01*
G01*
X159095000Y-93850000D02*
G75*
G02*
X158895000Y-94050000I-200000J0D01*
G01*
G04 #@! TO.C,U21*
X250070000Y-91350000D02*
X250070000Y-77750000D01*
X250270000Y-77550000D02*
X263870001Y-77549999D01*
X250270000Y-91550000D02*
X263870000Y-91550000D01*
X264070001Y-77749999D02*
X264070000Y-91350000D01*
X250070000Y-77750000D02*
G75*
G02*
X250270000Y-77550000I200001J-1D01*
G01*
X250270000Y-91550000D02*
G75*
G02*
X250070000Y-91350000I1J200001D01*
G01*
X263870001Y-77549999D02*
G75*
G02*
X264070001Y-77749999I-1J-200001D01*
G01*
X264070000Y-91350000D02*
G75*
G02*
X263870000Y-91550000I-200000J0D01*
G01*
G04 #@! TO.C,SW3*
X314480000Y-28032500D02*
X314480000Y-41632500D01*
X314280000Y-41832500D02*
X300679999Y-41832501D01*
X314280000Y-27832500D02*
X300680000Y-27832500D01*
X300479999Y-41632501D02*
X300480000Y-28032500D01*
X314480000Y-41632500D02*
G75*
G02*
X314280000Y-41832500I-200001J1D01*
G01*
X314280000Y-27832500D02*
G75*
G02*
X314480000Y-28032500I-1J-200001D01*
G01*
X300679999Y-41832501D02*
G75*
G02*
X300479999Y-41632501I1J200001D01*
G01*
X300480000Y-28032500D02*
G75*
G02*
X300680000Y-27832500I200000J0D01*
G01*
G04 #@! TO.C,U11*
X145095000Y-126350000D02*
X145095000Y-112750000D01*
X145295000Y-112550000D02*
X158895001Y-112549999D01*
X145295000Y-126550000D02*
X158895000Y-126550000D01*
X159095001Y-112749999D02*
X159095000Y-126350000D01*
X145095000Y-112750000D02*
G75*
G02*
X145295000Y-112550000I200001J-1D01*
G01*
X145295000Y-126550000D02*
G75*
G02*
X145095000Y-126350000I1J200001D01*
G01*
X158895001Y-112549999D02*
G75*
G02*
X159095001Y-112749999I-1J-200001D01*
G01*
X159095000Y-126350000D02*
G75*
G02*
X158895000Y-126550000I-200000J0D01*
G01*
G04 #@! TO.C,U20*
X220070000Y-101350000D02*
X220070000Y-87750000D01*
X220270000Y-87550000D02*
X233870001Y-87549999D01*
X220270000Y-101550000D02*
X233870000Y-101550000D01*
X234070001Y-87749999D02*
X234070000Y-101350000D01*
X220070000Y-87750000D02*
G75*
G02*
X220270000Y-87550000I200001J-1D01*
G01*
X220270000Y-101550000D02*
G75*
G02*
X220070000Y-101350000I1J200001D01*
G01*
X233870001Y-87549999D02*
G75*
G02*
X234070001Y-87749999I-1J-200001D01*
G01*
X234070000Y-101350000D02*
G75*
G02*
X233870000Y-101550000I-200000J0D01*
G01*
G04 #@! TO.C,U7*
X85095000Y-93850000D02*
X85095000Y-80250000D01*
X85295000Y-80050000D02*
X98895001Y-80049999D01*
X85295000Y-94050000D02*
X98895000Y-94050000D01*
X99095001Y-80249999D02*
X99095000Y-93850000D01*
X85095000Y-80250000D02*
G75*
G02*
X85295000Y-80050000I200001J-1D01*
G01*
X85295000Y-94050000D02*
G75*
G02*
X85095000Y-93850000I1J200001D01*
G01*
X98895001Y-80049999D02*
G75*
G02*
X99095001Y-80249999I-1J-200001D01*
G01*
X99095000Y-93850000D02*
G75*
G02*
X98895000Y-94050000I-200000J0D01*
G01*
G04 #@! TO.C,U18*
X190150000Y-161350000D02*
X190150000Y-147750000D01*
X190350000Y-147550000D02*
X203950001Y-147549999D01*
X190350000Y-161550000D02*
X203950000Y-161550000D01*
X204150001Y-147749999D02*
X204150000Y-161350000D01*
X190150000Y-147750000D02*
G75*
G02*
X190350000Y-147550000I200001J-1D01*
G01*
X190350000Y-161550000D02*
G75*
G02*
X190150000Y-161350000I1J200001D01*
G01*
X203950001Y-147549999D02*
G75*
G02*
X204150001Y-147749999I-1J-200001D01*
G01*
X204150000Y-161350000D02*
G75*
G02*
X203950000Y-161550000I-200000J0D01*
G01*
G04 #@! TD*
M02*
