M48
; DRILL file {KiCad 8.0.3} date 2024-07-10T18:00:05+0900
; FORMAT={-:-/ absolute / inch / decimal}
; #@! TF.CreationDate,2024-07-10T18:00:05+09:00
; #@! TF.GenerationSoftware,Kicad,Pcbnew,8.0.3
; #@! TF.FileFunction,Plated,1,2,PTH
FMAT,2
INCH
; #@! TA.AperFunction,Plated,PTH,ComponentDrill
T1C0.0197
; #@! TA.AperFunction,Plated,PTH,ComponentDrill
T2C0.1457
%
G90
G05
T1
X5.4026Y-2.7559
X5.4026Y-6.2992
X5.4346Y-2.6787
X5.4346Y-2.8332
X5.4346Y-6.222
X5.4346Y-6.3765
X5.5118Y-2.6467
X5.5118Y-2.8652
X5.5118Y-6.19
X5.5118Y-6.4085
X5.5891Y-2.6787
X5.5891Y-2.8332
X5.5891Y-6.222
X5.5891Y-6.3765
X5.6211Y-2.7559
X5.6211Y-6.2992
X8.1585Y-5.1181
X8.1905Y-5.0409
X8.1905Y-5.1954
X8.2677Y-5.0089
X8.2677Y-5.2274
X8.345Y-5.0409
X8.345Y-5.1954
X8.377Y-5.1181
X10.9144Y-2.7559
X10.9144Y-6.2992
X10.9464Y-2.6787
X10.9464Y-2.8332
X10.9464Y-6.222
X10.9464Y-6.3765
X11.0236Y-2.6467
X11.0236Y-2.8652
X11.0236Y-6.19
X11.0236Y-6.4085
X11.1009Y-2.6787
X11.1009Y-2.8332
X11.1009Y-6.222
X11.1009Y-6.3765
X11.1329Y-2.7559
X11.1329Y-6.2992
T2
X5.5118Y-2.7559
X5.5118Y-6.2992
X8.2677Y-5.1181
X11.0236Y-2.7559
X11.0236Y-6.2992
M30
