G04 #@! TF.GenerationSoftware,KiCad,Pcbnew,8.0.3*
G04 #@! TF.CreationDate,2024-07-10T18:00:01+09:00*
G04 #@! TF.ProjectId,mainboard_top_plate,6d61696e-626f-4617-9264-5f746f705f70,rev?*
G04 #@! TF.SameCoordinates,Original*
G04 #@! TF.FileFunction,Legend,Top*
G04 #@! TF.FilePolarity,Positive*
%FSLAX46Y46*%
G04 Gerber Fmt 4.6, Leading zero omitted, Abs format (unit mm)*
G04 Created by KiCad (PCBNEW 8.0.3) date 2024-07-10 18:00:01*
%MOMM*%
%LPD*%
G01*
G04 APERTURE LIST*
%ADD10C,0.150000*%
G04 APERTURE END LIST*
D10*
X139238095Y-155754819D02*
X139238095Y-154754819D01*
X139238095Y-155231009D02*
X139809523Y-155231009D01*
X139809523Y-155754819D02*
X139809523Y-154754819D01*
X140714285Y-155088152D02*
X140714285Y-155754819D01*
X140476190Y-154707200D02*
X140238095Y-155421485D01*
X140238095Y-155421485D02*
X140857142Y-155421485D01*
X58666666Y-45754819D02*
X58333333Y-45278628D01*
X58095238Y-45754819D02*
X58095238Y-44754819D01*
X58095238Y-44754819D02*
X58476190Y-44754819D01*
X58476190Y-44754819D02*
X58571428Y-44802438D01*
X58571428Y-44802438D02*
X58619047Y-44850057D01*
X58619047Y-44850057D02*
X58666666Y-44945295D01*
X58666666Y-44945295D02*
X58666666Y-45088152D01*
X58666666Y-45088152D02*
X58619047Y-45183390D01*
X58619047Y-45183390D02*
X58571428Y-45231009D01*
X58571428Y-45231009D02*
X58476190Y-45278628D01*
X58476190Y-45278628D02*
X58095238Y-45278628D01*
X59095238Y-45231009D02*
X59428571Y-45231009D01*
X59571428Y-45754819D02*
X59095238Y-45754819D01*
X59095238Y-45754819D02*
X59095238Y-44754819D01*
X59095238Y-44754819D02*
X59571428Y-44754819D01*
X60333333Y-45231009D02*
X60000000Y-45231009D01*
X60000000Y-45754819D02*
X60000000Y-44754819D01*
X60000000Y-44754819D02*
X60476190Y-44754819D01*
X61000000Y-44754819D02*
X61000000Y-44992914D01*
X60761905Y-44897676D02*
X61000000Y-44992914D01*
X61000000Y-44992914D02*
X61238095Y-44897676D01*
X60857143Y-45183390D02*
X61000000Y-44992914D01*
X61000000Y-44992914D02*
X61142857Y-45183390D01*
X61761905Y-44754819D02*
X61761905Y-44992914D01*
X61523810Y-44897676D02*
X61761905Y-44992914D01*
X61761905Y-44992914D02*
X62000000Y-44897676D01*
X61619048Y-45183390D02*
X61761905Y-44992914D01*
X61761905Y-44992914D02*
X61904762Y-45183390D01*
X358666666Y-255754819D02*
X358333333Y-255278628D01*
X358095238Y-255754819D02*
X358095238Y-254754819D01*
X358095238Y-254754819D02*
X358476190Y-254754819D01*
X358476190Y-254754819D02*
X358571428Y-254802438D01*
X358571428Y-254802438D02*
X358619047Y-254850057D01*
X358619047Y-254850057D02*
X358666666Y-254945295D01*
X358666666Y-254945295D02*
X358666666Y-255088152D01*
X358666666Y-255088152D02*
X358619047Y-255183390D01*
X358619047Y-255183390D02*
X358571428Y-255231009D01*
X358571428Y-255231009D02*
X358476190Y-255278628D01*
X358476190Y-255278628D02*
X358095238Y-255278628D01*
X359095238Y-255231009D02*
X359428571Y-255231009D01*
X359571428Y-255754819D02*
X359095238Y-255754819D01*
X359095238Y-255754819D02*
X359095238Y-254754819D01*
X359095238Y-254754819D02*
X359571428Y-254754819D01*
X360333333Y-255231009D02*
X360000000Y-255231009D01*
X360000000Y-255754819D02*
X360000000Y-254754819D01*
X360000000Y-254754819D02*
X360476190Y-254754819D01*
X361000000Y-254754819D02*
X361000000Y-254992914D01*
X360761905Y-254897676D02*
X361000000Y-254992914D01*
X361000000Y-254992914D02*
X361238095Y-254897676D01*
X360857143Y-255183390D02*
X361000000Y-254992914D01*
X361000000Y-254992914D02*
X361142857Y-255183390D01*
X361761905Y-254754819D02*
X361761905Y-254992914D01*
X361523810Y-254897676D02*
X361761905Y-254992914D01*
X361761905Y-254992914D02*
X362000000Y-254897676D01*
X361619048Y-255183390D02*
X361761905Y-254992914D01*
X361761905Y-254992914D02*
X361904762Y-255183390D01*
X279238095Y-65754819D02*
X279238095Y-64754819D01*
X279238095Y-65231009D02*
X279809523Y-65231009D01*
X279809523Y-65754819D02*
X279809523Y-64754819D01*
X280238095Y-64850057D02*
X280285714Y-64802438D01*
X280285714Y-64802438D02*
X280380952Y-64754819D01*
X280380952Y-64754819D02*
X280619047Y-64754819D01*
X280619047Y-64754819D02*
X280714285Y-64802438D01*
X280714285Y-64802438D02*
X280761904Y-64850057D01*
X280761904Y-64850057D02*
X280809523Y-64945295D01*
X280809523Y-64945295D02*
X280809523Y-65040533D01*
X280809523Y-65040533D02*
X280761904Y-65183390D01*
X280761904Y-65183390D02*
X280190476Y-65754819D01*
X280190476Y-65754819D02*
X280809523Y-65754819D01*
X139238095Y-65754819D02*
X139238095Y-64754819D01*
X139238095Y-65231009D02*
X139809523Y-65231009D01*
X139809523Y-65754819D02*
X139809523Y-64754819D01*
X140809523Y-65754819D02*
X140238095Y-65754819D01*
X140523809Y-65754819D02*
X140523809Y-64754819D01*
X140523809Y-64754819D02*
X140428571Y-64897676D01*
X140428571Y-64897676D02*
X140333333Y-64992914D01*
X140333333Y-64992914D02*
X140238095Y-65040533D01*
X279238095Y-155754819D02*
X279238095Y-154754819D01*
X279238095Y-155231009D02*
X279809523Y-155231009D01*
X279809523Y-155754819D02*
X279809523Y-154754819D01*
X280761904Y-154754819D02*
X280285714Y-154754819D01*
X280285714Y-154754819D02*
X280238095Y-155231009D01*
X280238095Y-155231009D02*
X280285714Y-155183390D01*
X280285714Y-155183390D02*
X280380952Y-155135771D01*
X280380952Y-155135771D02*
X280619047Y-155135771D01*
X280619047Y-155135771D02*
X280714285Y-155183390D01*
X280714285Y-155183390D02*
X280761904Y-155231009D01*
X280761904Y-155231009D02*
X280809523Y-155326247D01*
X280809523Y-155326247D02*
X280809523Y-155564342D01*
X280809523Y-155564342D02*
X280761904Y-155659580D01*
X280761904Y-155659580D02*
X280714285Y-155707200D01*
X280714285Y-155707200D02*
X280619047Y-155754819D01*
X280619047Y-155754819D02*
X280380952Y-155754819D01*
X280380952Y-155754819D02*
X280285714Y-155707200D01*
X280285714Y-155707200D02*
X280238095Y-155659580D01*
X209238095Y-125754819D02*
X209238095Y-124754819D01*
X209238095Y-125231009D02*
X209809523Y-125231009D01*
X209809523Y-125754819D02*
X209809523Y-124754819D01*
X210190476Y-124754819D02*
X210809523Y-124754819D01*
X210809523Y-124754819D02*
X210476190Y-125135771D01*
X210476190Y-125135771D02*
X210619047Y-125135771D01*
X210619047Y-125135771D02*
X210714285Y-125183390D01*
X210714285Y-125183390D02*
X210761904Y-125231009D01*
X210761904Y-125231009D02*
X210809523Y-125326247D01*
X210809523Y-125326247D02*
X210809523Y-125564342D01*
X210809523Y-125564342D02*
X210761904Y-125659580D01*
X210761904Y-125659580D02*
X210714285Y-125707200D01*
X210714285Y-125707200D02*
X210619047Y-125754819D01*
X210619047Y-125754819D02*
X210333333Y-125754819D01*
X210333333Y-125754819D02*
X210238095Y-125707200D01*
X210238095Y-125707200D02*
X210190476Y-125659580D01*
X58666666Y-255754819D02*
X58333333Y-255278628D01*
X58095238Y-255754819D02*
X58095238Y-254754819D01*
X58095238Y-254754819D02*
X58476190Y-254754819D01*
X58476190Y-254754819D02*
X58571428Y-254802438D01*
X58571428Y-254802438D02*
X58619047Y-254850057D01*
X58619047Y-254850057D02*
X58666666Y-254945295D01*
X58666666Y-254945295D02*
X58666666Y-255088152D01*
X58666666Y-255088152D02*
X58619047Y-255183390D01*
X58619047Y-255183390D02*
X58571428Y-255231009D01*
X58571428Y-255231009D02*
X58476190Y-255278628D01*
X58476190Y-255278628D02*
X58095238Y-255278628D01*
X59095238Y-255231009D02*
X59428571Y-255231009D01*
X59571428Y-255754819D02*
X59095238Y-255754819D01*
X59095238Y-255754819D02*
X59095238Y-254754819D01*
X59095238Y-254754819D02*
X59571428Y-254754819D01*
X60333333Y-255231009D02*
X60000000Y-255231009D01*
X60000000Y-255754819D02*
X60000000Y-254754819D01*
X60000000Y-254754819D02*
X60476190Y-254754819D01*
X61000000Y-254754819D02*
X61000000Y-254992914D01*
X60761905Y-254897676D02*
X61000000Y-254992914D01*
X61000000Y-254992914D02*
X61238095Y-254897676D01*
X60857143Y-255183390D02*
X61000000Y-254992914D01*
X61000000Y-254992914D02*
X61142857Y-255183390D01*
X61761905Y-254754819D02*
X61761905Y-254992914D01*
X61523810Y-254897676D02*
X61761905Y-254992914D01*
X61761905Y-254992914D02*
X62000000Y-254897676D01*
X61619048Y-255183390D02*
X61761905Y-254992914D01*
X61761905Y-254992914D02*
X61904762Y-255183390D01*
X358666666Y-45754819D02*
X358333333Y-45278628D01*
X358095238Y-45754819D02*
X358095238Y-44754819D01*
X358095238Y-44754819D02*
X358476190Y-44754819D01*
X358476190Y-44754819D02*
X358571428Y-44802438D01*
X358571428Y-44802438D02*
X358619047Y-44850057D01*
X358619047Y-44850057D02*
X358666666Y-44945295D01*
X358666666Y-44945295D02*
X358666666Y-45088152D01*
X358666666Y-45088152D02*
X358619047Y-45183390D01*
X358619047Y-45183390D02*
X358571428Y-45231009D01*
X358571428Y-45231009D02*
X358476190Y-45278628D01*
X358476190Y-45278628D02*
X358095238Y-45278628D01*
X359095238Y-45231009D02*
X359428571Y-45231009D01*
X359571428Y-45754819D02*
X359095238Y-45754819D01*
X359095238Y-45754819D02*
X359095238Y-44754819D01*
X359095238Y-44754819D02*
X359571428Y-44754819D01*
X360333333Y-45231009D02*
X360000000Y-45231009D01*
X360000000Y-45754819D02*
X360000000Y-44754819D01*
X360000000Y-44754819D02*
X360476190Y-44754819D01*
X361000000Y-44754819D02*
X361000000Y-44992914D01*
X360761905Y-44897676D02*
X361000000Y-44992914D01*
X361000000Y-44992914D02*
X361238095Y-44897676D01*
X360857143Y-45183390D02*
X361000000Y-44992914D01*
X361000000Y-44992914D02*
X361142857Y-45183390D01*
X361761905Y-44754819D02*
X361761905Y-44992914D01*
X361523810Y-44897676D02*
X361761905Y-44992914D01*
X361761905Y-44992914D02*
X362000000Y-44897676D01*
X361619048Y-45183390D02*
X361761905Y-44992914D01*
X361761905Y-44992914D02*
X361904762Y-45183390D01*
M02*
