G04 #@! TF.GenerationSoftware,KiCad,Pcbnew,8.0.3*
G04 #@! TF.CreationDate,2024-06-18T22:36:52+09:00*
G04 #@! TF.ProjectId,mainboard_top_plate,6d61696e-626f-4617-9264-5f746f705f70,rev?*
G04 #@! TF.SameCoordinates,Original*
G04 #@! TF.FileFunction,Copper,L2,Bot*
G04 #@! TF.FilePolarity,Positive*
%FSLAX46Y46*%
G04 Gerber Fmt 4.6, Leading zero omitted, Abs format (unit mm)*
G04 Created by KiCad (PCBNEW 8.0.3) date 2024-06-18 22:36:52*
%MOMM*%
%LPD*%
G01*
G04 APERTURE LIST*
G04 APERTURE END LIST*
G04 #@! TA.AperFunction,Conductor*
G04 #@! TO.N,GND*
G36*
X356592539Y-17570185D02*
G01*
X356638294Y-17622989D01*
X356649500Y-17674500D01*
X356649500Y-236425500D01*
X356629815Y-236492539D01*
X356577011Y-236538294D01*
X356525500Y-236549500D01*
X17774500Y-236549500D01*
X17707461Y-236529815D01*
X17661706Y-236477011D01*
X17650500Y-236425500D01*
X17650500Y-226924038D01*
X25549500Y-226924038D01*
X25549500Y-227175961D01*
X25588910Y-227424785D01*
X25666760Y-227664383D01*
X25781132Y-227888848D01*
X25929201Y-228092649D01*
X25929205Y-228092654D01*
X26107345Y-228270794D01*
X26107350Y-228270798D01*
X26285117Y-228399952D01*
X26311155Y-228418870D01*
X26454184Y-228491747D01*
X26535616Y-228533239D01*
X26535618Y-228533239D01*
X26535621Y-228533241D01*
X26775215Y-228611090D01*
X27024038Y-228650500D01*
X27024039Y-228650500D01*
X27275961Y-228650500D01*
X27275962Y-228650500D01*
X27524785Y-228611090D01*
X27764379Y-228533241D01*
X27988845Y-228418870D01*
X28192656Y-228270793D01*
X28370793Y-228092656D01*
X28518870Y-227888845D01*
X28633241Y-227664379D01*
X28711090Y-227424785D01*
X28750500Y-227175962D01*
X28750500Y-226924038D01*
X185549500Y-226924038D01*
X185549500Y-227175961D01*
X185588910Y-227424785D01*
X185666760Y-227664383D01*
X185781132Y-227888848D01*
X185929201Y-228092649D01*
X185929205Y-228092654D01*
X186107345Y-228270794D01*
X186107350Y-228270798D01*
X186285117Y-228399952D01*
X186311155Y-228418870D01*
X186454184Y-228491747D01*
X186535616Y-228533239D01*
X186535618Y-228533239D01*
X186535621Y-228533241D01*
X186775215Y-228611090D01*
X187024038Y-228650500D01*
X187024039Y-228650500D01*
X187275961Y-228650500D01*
X187275962Y-228650500D01*
X187524785Y-228611090D01*
X187764379Y-228533241D01*
X187988845Y-228418870D01*
X188192656Y-228270793D01*
X188370793Y-228092656D01*
X188518870Y-227888845D01*
X188633241Y-227664379D01*
X188711090Y-227424785D01*
X188750500Y-227175962D01*
X188750500Y-226924038D01*
X345549500Y-226924038D01*
X345549500Y-227175961D01*
X345588910Y-227424785D01*
X345666760Y-227664383D01*
X345781132Y-227888848D01*
X345929201Y-228092649D01*
X345929205Y-228092654D01*
X346107345Y-228270794D01*
X346107350Y-228270798D01*
X346285117Y-228399952D01*
X346311155Y-228418870D01*
X346454184Y-228491747D01*
X346535616Y-228533239D01*
X346535618Y-228533239D01*
X346535621Y-228533241D01*
X346775215Y-228611090D01*
X347024038Y-228650500D01*
X347024039Y-228650500D01*
X347275961Y-228650500D01*
X347275962Y-228650500D01*
X347524785Y-228611090D01*
X347764379Y-228533241D01*
X347988845Y-228418870D01*
X348192656Y-228270793D01*
X348370793Y-228092656D01*
X348518870Y-227888845D01*
X348633241Y-227664379D01*
X348711090Y-227424785D01*
X348750500Y-227175962D01*
X348750500Y-226924038D01*
X348711090Y-226675215D01*
X348633241Y-226435621D01*
X348633239Y-226435618D01*
X348633239Y-226435616D01*
X348591747Y-226354184D01*
X348518870Y-226211155D01*
X348499952Y-226185117D01*
X348370798Y-226007350D01*
X348370794Y-226007345D01*
X348192654Y-225829205D01*
X348192649Y-225829201D01*
X347988848Y-225681132D01*
X347988847Y-225681131D01*
X347988845Y-225681130D01*
X347918747Y-225645413D01*
X347764383Y-225566760D01*
X347524785Y-225488910D01*
X347275962Y-225449500D01*
X347024038Y-225449500D01*
X346899626Y-225469205D01*
X346775214Y-225488910D01*
X346535616Y-225566760D01*
X346311151Y-225681132D01*
X346107350Y-225829201D01*
X346107345Y-225829205D01*
X345929205Y-226007345D01*
X345929201Y-226007350D01*
X345781132Y-226211151D01*
X345666760Y-226435616D01*
X345588910Y-226675214D01*
X345549500Y-226924038D01*
X188750500Y-226924038D01*
X188711090Y-226675215D01*
X188633241Y-226435621D01*
X188633239Y-226435618D01*
X188633239Y-226435616D01*
X188591747Y-226354184D01*
X188518870Y-226211155D01*
X188499952Y-226185117D01*
X188370798Y-226007350D01*
X188370794Y-226007345D01*
X188192654Y-225829205D01*
X188192649Y-225829201D01*
X187988848Y-225681132D01*
X187988847Y-225681131D01*
X187988845Y-225681130D01*
X187918747Y-225645413D01*
X187764383Y-225566760D01*
X187524785Y-225488910D01*
X187275962Y-225449500D01*
X187024038Y-225449500D01*
X186899626Y-225469205D01*
X186775214Y-225488910D01*
X186535616Y-225566760D01*
X186311151Y-225681132D01*
X186107350Y-225829201D01*
X186107345Y-225829205D01*
X185929205Y-226007345D01*
X185929201Y-226007350D01*
X185781132Y-226211151D01*
X185666760Y-226435616D01*
X185588910Y-226675214D01*
X185549500Y-226924038D01*
X28750500Y-226924038D01*
X28711090Y-226675215D01*
X28633241Y-226435621D01*
X28633239Y-226435618D01*
X28633239Y-226435616D01*
X28591747Y-226354184D01*
X28518870Y-226211155D01*
X28499952Y-226185117D01*
X28370798Y-226007350D01*
X28370794Y-226007345D01*
X28192654Y-225829205D01*
X28192649Y-225829201D01*
X27988848Y-225681132D01*
X27988847Y-225681131D01*
X27988845Y-225681130D01*
X27918747Y-225645413D01*
X27764383Y-225566760D01*
X27524785Y-225488910D01*
X27275962Y-225449500D01*
X27024038Y-225449500D01*
X26899626Y-225469205D01*
X26775214Y-225488910D01*
X26535616Y-225566760D01*
X26311151Y-225681132D01*
X26107350Y-225829201D01*
X26107345Y-225829205D01*
X25929205Y-226007345D01*
X25929201Y-226007350D01*
X25781132Y-226211151D01*
X25666760Y-226435616D01*
X25588910Y-226675214D01*
X25549500Y-226924038D01*
X17650500Y-226924038D01*
X17650500Y-161418995D01*
X189649499Y-161418995D01*
X189676418Y-161554322D01*
X189676421Y-161554332D01*
X189729221Y-161681804D01*
X189729228Y-161681817D01*
X189805885Y-161796541D01*
X189805888Y-161796545D01*
X189903454Y-161894111D01*
X189903458Y-161894114D01*
X190018182Y-161970771D01*
X190018195Y-161970778D01*
X190145667Y-162023578D01*
X190145672Y-162023580D01*
X190145676Y-162023580D01*
X190145677Y-162023581D01*
X190281004Y-162050500D01*
X190281007Y-162050500D01*
X204018995Y-162050500D01*
X204110041Y-162032389D01*
X204154328Y-162023580D01*
X204281811Y-161970775D01*
X204396542Y-161894114D01*
X204494114Y-161796542D01*
X204570775Y-161681811D01*
X204623580Y-161554328D01*
X204650500Y-161418993D01*
X204650500Y-161350000D01*
X204650500Y-161284108D01*
X204650500Y-156924038D01*
X260549500Y-156924038D01*
X260549500Y-157175961D01*
X260588910Y-157424785D01*
X260666760Y-157664383D01*
X260781132Y-157888848D01*
X260929201Y-158092649D01*
X260929205Y-158092654D01*
X261107345Y-158270794D01*
X261107350Y-158270798D01*
X261285117Y-158399952D01*
X261311155Y-158418870D01*
X261454184Y-158491747D01*
X261535616Y-158533239D01*
X261535618Y-158533239D01*
X261535621Y-158533241D01*
X261775215Y-158611090D01*
X262024038Y-158650500D01*
X262024039Y-158650500D01*
X262275961Y-158650500D01*
X262275962Y-158650500D01*
X262524785Y-158611090D01*
X262764379Y-158533241D01*
X262988845Y-158418870D01*
X263192656Y-158270793D01*
X263370793Y-158092656D01*
X263518870Y-157888845D01*
X263633241Y-157664379D01*
X263711090Y-157424785D01*
X263750500Y-157175962D01*
X263750500Y-156924038D01*
X263711090Y-156675215D01*
X263633241Y-156435621D01*
X263633239Y-156435618D01*
X263633239Y-156435616D01*
X263591747Y-156354184D01*
X263518870Y-156211155D01*
X263499952Y-156185117D01*
X263370798Y-156007350D01*
X263370794Y-156007345D01*
X263192654Y-155829205D01*
X263192649Y-155829201D01*
X262988848Y-155681132D01*
X262988847Y-155681131D01*
X262988845Y-155681130D01*
X262918747Y-155645413D01*
X262764383Y-155566760D01*
X262524785Y-155488910D01*
X262275962Y-155449500D01*
X262024038Y-155449500D01*
X261899626Y-155469205D01*
X261775214Y-155488910D01*
X261535616Y-155566760D01*
X261311151Y-155681132D01*
X261107350Y-155829201D01*
X261107345Y-155829205D01*
X260929205Y-156007345D01*
X260929201Y-156007350D01*
X260781132Y-156211151D01*
X260666760Y-156435616D01*
X260588910Y-156675214D01*
X260549500Y-156924038D01*
X204650500Y-156924038D01*
X204650500Y-147834254D01*
X204650501Y-147834241D01*
X204650501Y-147815890D01*
X204650502Y-147815889D01*
X204650501Y-147749996D01*
X204650501Y-147743183D01*
X204650501Y-147684107D01*
X204650501Y-147681011D01*
X204650500Y-147681001D01*
X204623581Y-147545674D01*
X204623580Y-147545673D01*
X204623580Y-147545669D01*
X204570775Y-147418187D01*
X204494114Y-147303457D01*
X204494111Y-147303453D01*
X204396546Y-147205888D01*
X204396542Y-147205885D01*
X204281810Y-147129223D01*
X204154331Y-147076420D01*
X204154323Y-147076418D01*
X204018998Y-147049500D01*
X204018714Y-147049499D01*
X204015896Y-147049499D01*
X204015893Y-147049499D01*
X204015876Y-147049499D01*
X203950004Y-147049499D01*
X203884111Y-147049498D01*
X203884110Y-147049498D01*
X203876518Y-147049498D01*
X203876500Y-147049499D01*
X190284108Y-147049500D01*
X190281005Y-147049500D01*
X190145677Y-147076418D01*
X190145667Y-147076421D01*
X190018195Y-147129221D01*
X190018182Y-147129228D01*
X189903458Y-147205885D01*
X189903454Y-147205888D01*
X189805888Y-147303454D01*
X189805885Y-147303458D01*
X189729228Y-147418182D01*
X189729221Y-147418195D01*
X189676421Y-147545667D01*
X189676418Y-147545677D01*
X189649500Y-147681004D01*
X189649500Y-147681007D01*
X189649500Y-147684107D01*
X189649500Y-147684108D01*
X189649500Y-161284108D01*
X189649500Y-161350000D01*
X189649500Y-161418993D01*
X189649500Y-161418995D01*
X189649499Y-161418995D01*
X17650500Y-161418995D01*
X17650500Y-156924038D01*
X110549500Y-156924038D01*
X110549500Y-157175961D01*
X110588910Y-157424785D01*
X110666760Y-157664383D01*
X110781132Y-157888848D01*
X110929201Y-158092649D01*
X110929205Y-158092654D01*
X111107345Y-158270794D01*
X111107350Y-158270798D01*
X111285117Y-158399952D01*
X111311155Y-158418870D01*
X111454184Y-158491747D01*
X111535616Y-158533239D01*
X111535618Y-158533239D01*
X111535621Y-158533241D01*
X111775215Y-158611090D01*
X112024038Y-158650500D01*
X112024039Y-158650500D01*
X112275961Y-158650500D01*
X112275962Y-158650500D01*
X112524785Y-158611090D01*
X112764379Y-158533241D01*
X112988845Y-158418870D01*
X113192656Y-158270793D01*
X113370793Y-158092656D01*
X113518870Y-157888845D01*
X113633241Y-157664379D01*
X113711090Y-157424785D01*
X113750500Y-157175962D01*
X113750500Y-156924038D01*
X113711090Y-156675215D01*
X113633241Y-156435621D01*
X113633239Y-156435618D01*
X113633239Y-156435616D01*
X113591747Y-156354184D01*
X113518870Y-156211155D01*
X113499952Y-156185117D01*
X113370798Y-156007350D01*
X113370794Y-156007345D01*
X113192654Y-155829205D01*
X113192649Y-155829201D01*
X112988848Y-155681132D01*
X112988847Y-155681131D01*
X112988845Y-155681130D01*
X112918747Y-155645413D01*
X112764383Y-155566760D01*
X112524785Y-155488910D01*
X112275962Y-155449500D01*
X112024038Y-155449500D01*
X111899626Y-155469205D01*
X111775214Y-155488910D01*
X111535616Y-155566760D01*
X111311151Y-155681132D01*
X111107350Y-155829201D01*
X111107345Y-155829205D01*
X110929205Y-156007345D01*
X110929201Y-156007350D01*
X110781132Y-156211151D01*
X110666760Y-156435616D01*
X110588910Y-156675214D01*
X110549500Y-156924038D01*
X17650500Y-156924038D01*
X17650500Y-151418995D01*
X159569499Y-151418995D01*
X159596418Y-151554322D01*
X159596421Y-151554332D01*
X159649221Y-151681804D01*
X159649228Y-151681817D01*
X159725885Y-151796541D01*
X159725888Y-151796545D01*
X159823454Y-151894111D01*
X159823458Y-151894114D01*
X159938182Y-151970771D01*
X159938195Y-151970778D01*
X160065667Y-152023578D01*
X160065672Y-152023580D01*
X160065676Y-152023580D01*
X160065677Y-152023581D01*
X160201004Y-152050500D01*
X160201007Y-152050500D01*
X173938995Y-152050500D01*
X174030041Y-152032389D01*
X174074328Y-152023580D01*
X174201811Y-151970775D01*
X174316542Y-151894114D01*
X174414114Y-151796542D01*
X174490775Y-151681811D01*
X174543580Y-151554328D01*
X174570500Y-151418993D01*
X174570500Y-151350000D01*
X174570500Y-151284108D01*
X174570500Y-137834254D01*
X174570501Y-137834241D01*
X174570501Y-137815890D01*
X174570502Y-137815889D01*
X174570501Y-137749996D01*
X174570501Y-137743183D01*
X174570501Y-137684107D01*
X174570501Y-137681011D01*
X174570500Y-137681001D01*
X174543581Y-137545674D01*
X174543580Y-137545673D01*
X174543580Y-137545669D01*
X174490775Y-137418187D01*
X174414114Y-137303457D01*
X174414111Y-137303453D01*
X174316546Y-137205888D01*
X174316542Y-137205885D01*
X174201810Y-137129223D01*
X174074331Y-137076420D01*
X174074323Y-137076418D01*
X173938998Y-137049500D01*
X173938714Y-137049499D01*
X173935896Y-137049499D01*
X173935893Y-137049499D01*
X173935876Y-137049499D01*
X173870004Y-137049499D01*
X173804111Y-137049498D01*
X173804110Y-137049498D01*
X173796518Y-137049498D01*
X173796500Y-137049499D01*
X160204108Y-137049500D01*
X160201005Y-137049500D01*
X160065677Y-137076418D01*
X160065667Y-137076421D01*
X159938195Y-137129221D01*
X159938182Y-137129228D01*
X159823458Y-137205885D01*
X159823454Y-137205888D01*
X159725888Y-137303454D01*
X159725885Y-137303458D01*
X159649228Y-137418182D01*
X159649221Y-137418195D01*
X159596421Y-137545667D01*
X159596418Y-137545677D01*
X159569500Y-137681004D01*
X159569500Y-137681007D01*
X159569500Y-137684107D01*
X159569500Y-137684108D01*
X159569500Y-151284108D01*
X159569500Y-151350000D01*
X159569500Y-151418993D01*
X159569500Y-151418995D01*
X159569499Y-151418995D01*
X17650500Y-151418995D01*
X17650500Y-131418995D01*
X54569499Y-131418995D01*
X54596418Y-131554322D01*
X54596421Y-131554332D01*
X54649221Y-131681804D01*
X54649228Y-131681817D01*
X54725885Y-131796541D01*
X54725888Y-131796545D01*
X54823454Y-131894111D01*
X54823458Y-131894114D01*
X54938182Y-131970771D01*
X54938195Y-131970778D01*
X55065667Y-132023578D01*
X55065672Y-132023580D01*
X55065676Y-132023580D01*
X55065677Y-132023581D01*
X55201004Y-132050500D01*
X55201007Y-132050500D01*
X68938995Y-132050500D01*
X69030041Y-132032389D01*
X69074328Y-132023580D01*
X69201811Y-131970775D01*
X69316542Y-131894114D01*
X69414114Y-131796542D01*
X69490775Y-131681811D01*
X69543580Y-131554328D01*
X69570500Y-131418993D01*
X69570500Y-131350000D01*
X69570500Y-131284108D01*
X69570500Y-126418995D01*
X84649499Y-126418995D01*
X84676418Y-126554322D01*
X84676421Y-126554332D01*
X84729221Y-126681804D01*
X84729228Y-126681817D01*
X84805885Y-126796541D01*
X84805888Y-126796545D01*
X84903454Y-126894111D01*
X84903458Y-126894114D01*
X85018182Y-126970771D01*
X85018195Y-126970778D01*
X85145667Y-127023578D01*
X85145672Y-127023580D01*
X85145676Y-127023580D01*
X85145677Y-127023581D01*
X85281004Y-127050500D01*
X85281007Y-127050500D01*
X99018995Y-127050500D01*
X99110041Y-127032389D01*
X99154328Y-127023580D01*
X99281811Y-126970775D01*
X99396542Y-126894114D01*
X99494114Y-126796542D01*
X99570775Y-126681811D01*
X99623580Y-126554328D01*
X99632389Y-126510041D01*
X99650500Y-126418995D01*
X144594499Y-126418995D01*
X144621418Y-126554322D01*
X144621421Y-126554332D01*
X144674221Y-126681804D01*
X144674228Y-126681817D01*
X144750885Y-126796541D01*
X144750888Y-126796545D01*
X144848454Y-126894111D01*
X144848458Y-126894114D01*
X144963182Y-126970771D01*
X144963195Y-126970778D01*
X145090667Y-127023578D01*
X145090672Y-127023580D01*
X145090676Y-127023580D01*
X145090677Y-127023581D01*
X145226004Y-127050500D01*
X145226007Y-127050500D01*
X158963995Y-127050500D01*
X159055041Y-127032389D01*
X159099328Y-127023580D01*
X159226811Y-126970775D01*
X159296758Y-126924038D01*
X185549500Y-126924038D01*
X185549500Y-127175961D01*
X185588910Y-127424785D01*
X185666760Y-127664383D01*
X185781132Y-127888848D01*
X185929201Y-128092649D01*
X185929205Y-128092654D01*
X186107345Y-128270794D01*
X186107350Y-128270798D01*
X186285117Y-128399952D01*
X186311155Y-128418870D01*
X186454184Y-128491747D01*
X186535616Y-128533239D01*
X186535618Y-128533239D01*
X186535621Y-128533241D01*
X186775215Y-128611090D01*
X187024038Y-128650500D01*
X187024039Y-128650500D01*
X187275961Y-128650500D01*
X187275962Y-128650500D01*
X187524785Y-128611090D01*
X187764379Y-128533241D01*
X187988845Y-128418870D01*
X188192656Y-128270793D01*
X188370793Y-128092656D01*
X188518870Y-127888845D01*
X188633241Y-127664379D01*
X188711090Y-127424785D01*
X188750500Y-127175962D01*
X188750500Y-126924038D01*
X188711090Y-126675215D01*
X188633241Y-126435621D01*
X188633239Y-126435618D01*
X188633239Y-126435616D01*
X188624770Y-126418995D01*
X304569499Y-126418995D01*
X304596418Y-126554322D01*
X304596421Y-126554332D01*
X304649221Y-126681804D01*
X304649228Y-126681817D01*
X304725885Y-126796541D01*
X304725888Y-126796545D01*
X304823454Y-126894111D01*
X304823458Y-126894114D01*
X304938182Y-126970771D01*
X304938195Y-126970778D01*
X305065667Y-127023578D01*
X305065672Y-127023580D01*
X305065676Y-127023580D01*
X305065677Y-127023581D01*
X305201004Y-127050500D01*
X305201007Y-127050500D01*
X318938995Y-127050500D01*
X319030041Y-127032389D01*
X319074328Y-127023580D01*
X319201811Y-126970775D01*
X319316542Y-126894114D01*
X319414114Y-126796542D01*
X319490775Y-126681811D01*
X319543580Y-126554328D01*
X319552389Y-126510041D01*
X319570500Y-126418995D01*
X319570500Y-112834254D01*
X319570501Y-112834241D01*
X319570501Y-112815890D01*
X319570502Y-112815889D01*
X319570501Y-112749996D01*
X319570501Y-112743183D01*
X319570501Y-112684107D01*
X319570501Y-112681011D01*
X319570500Y-112681001D01*
X319543581Y-112545674D01*
X319543580Y-112545673D01*
X319543580Y-112545669D01*
X319490775Y-112418187D01*
X319414114Y-112303457D01*
X319414111Y-112303453D01*
X319316546Y-112205888D01*
X319316542Y-112205885D01*
X319201810Y-112129223D01*
X319074331Y-112076420D01*
X319074323Y-112076418D01*
X318938998Y-112049500D01*
X318938714Y-112049499D01*
X318935896Y-112049499D01*
X318935893Y-112049499D01*
X318935876Y-112049499D01*
X318870004Y-112049499D01*
X318804111Y-112049498D01*
X318804110Y-112049498D01*
X318796518Y-112049498D01*
X318796500Y-112049499D01*
X305204108Y-112049500D01*
X305201005Y-112049500D01*
X305065677Y-112076418D01*
X305065667Y-112076421D01*
X304938195Y-112129221D01*
X304938182Y-112129228D01*
X304823458Y-112205885D01*
X304823454Y-112205888D01*
X304725888Y-112303454D01*
X304725885Y-112303458D01*
X304649228Y-112418182D01*
X304649221Y-112418195D01*
X304596421Y-112545667D01*
X304596418Y-112545677D01*
X304569500Y-112681004D01*
X304569500Y-112681007D01*
X304569500Y-112684107D01*
X304569500Y-112684108D01*
X304569500Y-126284108D01*
X304569500Y-126350000D01*
X304569500Y-126418993D01*
X304569500Y-126418995D01*
X304569499Y-126418995D01*
X188624770Y-126418995D01*
X188556041Y-126284108D01*
X188518870Y-126211155D01*
X188499952Y-126185117D01*
X188370798Y-126007350D01*
X188370794Y-126007345D01*
X188192654Y-125829205D01*
X188192649Y-125829201D01*
X187988848Y-125681132D01*
X187988847Y-125681131D01*
X187988845Y-125681130D01*
X187918747Y-125645413D01*
X187764383Y-125566760D01*
X187524785Y-125488910D01*
X187275962Y-125449500D01*
X187024038Y-125449500D01*
X186899626Y-125469205D01*
X186775214Y-125488910D01*
X186535616Y-125566760D01*
X186311151Y-125681132D01*
X186107350Y-125829201D01*
X186107345Y-125829205D01*
X185929205Y-126007345D01*
X185929201Y-126007350D01*
X185781132Y-126211151D01*
X185666760Y-126435616D01*
X185588910Y-126675214D01*
X185549500Y-126924038D01*
X159296758Y-126924038D01*
X159341542Y-126894114D01*
X159439114Y-126796542D01*
X159515775Y-126681811D01*
X159568580Y-126554328D01*
X159577389Y-126510041D01*
X159595500Y-126418995D01*
X159595500Y-112834254D01*
X159595501Y-112834241D01*
X159595501Y-112815890D01*
X159595502Y-112815889D01*
X159595501Y-112749996D01*
X159595501Y-112743183D01*
X159595501Y-112684107D01*
X159595501Y-112681011D01*
X159595500Y-112681001D01*
X159568581Y-112545674D01*
X159568580Y-112545673D01*
X159568580Y-112545669D01*
X159515775Y-112418187D01*
X159439114Y-112303457D01*
X159439111Y-112303453D01*
X159341546Y-112205888D01*
X159341542Y-112205885D01*
X159226810Y-112129223D01*
X159099331Y-112076420D01*
X159099323Y-112076418D01*
X158963998Y-112049500D01*
X158963714Y-112049499D01*
X158960896Y-112049499D01*
X158960893Y-112049499D01*
X158960876Y-112049499D01*
X158895004Y-112049499D01*
X158829111Y-112049498D01*
X158829110Y-112049498D01*
X158821518Y-112049498D01*
X158821500Y-112049499D01*
X145229108Y-112049500D01*
X145226005Y-112049500D01*
X145090677Y-112076418D01*
X145090667Y-112076421D01*
X144963195Y-112129221D01*
X144963182Y-112129228D01*
X144848458Y-112205885D01*
X144848454Y-112205888D01*
X144750888Y-112303454D01*
X144750885Y-112303458D01*
X144674228Y-112418182D01*
X144674221Y-112418195D01*
X144621421Y-112545667D01*
X144621418Y-112545677D01*
X144594500Y-112681004D01*
X144594500Y-112681007D01*
X144594500Y-112684107D01*
X144594500Y-112684108D01*
X144594500Y-126284108D01*
X144594500Y-126350000D01*
X144594500Y-126418993D01*
X144594500Y-126418995D01*
X144594499Y-126418995D01*
X99650500Y-126418995D01*
X99650500Y-121418995D01*
X114649499Y-121418995D01*
X114676418Y-121554322D01*
X114676421Y-121554332D01*
X114729221Y-121681804D01*
X114729228Y-121681817D01*
X114805885Y-121796541D01*
X114805888Y-121796545D01*
X114903454Y-121894111D01*
X114903458Y-121894114D01*
X115018182Y-121970771D01*
X115018195Y-121970778D01*
X115145667Y-122023578D01*
X115145672Y-122023580D01*
X115145676Y-122023580D01*
X115145677Y-122023581D01*
X115281004Y-122050500D01*
X115281007Y-122050500D01*
X129018995Y-122050500D01*
X129110041Y-122032389D01*
X129154328Y-122023580D01*
X129281811Y-121970775D01*
X129396542Y-121894114D01*
X129494114Y-121796542D01*
X129570775Y-121681811D01*
X129623580Y-121554328D01*
X129650500Y-121418993D01*
X129650500Y-121350000D01*
X129650500Y-121284108D01*
X129650500Y-107834254D01*
X129650501Y-107834241D01*
X129650501Y-107815890D01*
X129650502Y-107815889D01*
X129650501Y-107749996D01*
X129650501Y-107743183D01*
X129650501Y-107684107D01*
X129650501Y-107681011D01*
X129650500Y-107681001D01*
X129623581Y-107545674D01*
X129623580Y-107545673D01*
X129623580Y-107545669D01*
X129570775Y-107418187D01*
X129494114Y-107303457D01*
X129494111Y-107303453D01*
X129396546Y-107205888D01*
X129396542Y-107205885D01*
X129281810Y-107129223D01*
X129154331Y-107076420D01*
X129154323Y-107076418D01*
X129018998Y-107049500D01*
X129018714Y-107049499D01*
X129015896Y-107049499D01*
X129015893Y-107049499D01*
X129015876Y-107049499D01*
X128950004Y-107049499D01*
X128884111Y-107049498D01*
X128884110Y-107049498D01*
X128876518Y-107049498D01*
X128876500Y-107049499D01*
X115284108Y-107049500D01*
X115281005Y-107049500D01*
X115145677Y-107076418D01*
X115145667Y-107076421D01*
X115018195Y-107129221D01*
X115018182Y-107129228D01*
X114903458Y-107205885D01*
X114903454Y-107205888D01*
X114805888Y-107303454D01*
X114805885Y-107303458D01*
X114729228Y-107418182D01*
X114729221Y-107418195D01*
X114676421Y-107545667D01*
X114676418Y-107545677D01*
X114649500Y-107681004D01*
X114649500Y-107681007D01*
X114649500Y-107684107D01*
X114649500Y-107684108D01*
X114649500Y-121284108D01*
X114649500Y-121350000D01*
X114649500Y-121418993D01*
X114649500Y-121418995D01*
X114649499Y-121418995D01*
X99650500Y-121418995D01*
X99650500Y-112834254D01*
X99650501Y-112834241D01*
X99650501Y-112815890D01*
X99650502Y-112815889D01*
X99650501Y-112749996D01*
X99650501Y-112743183D01*
X99650501Y-112684107D01*
X99650501Y-112681011D01*
X99650500Y-112681001D01*
X99623581Y-112545674D01*
X99623580Y-112545673D01*
X99623580Y-112545669D01*
X99570775Y-112418187D01*
X99494114Y-112303457D01*
X99494111Y-112303453D01*
X99396546Y-112205888D01*
X99396542Y-112205885D01*
X99281810Y-112129223D01*
X99154331Y-112076420D01*
X99154323Y-112076418D01*
X99018998Y-112049500D01*
X99018714Y-112049499D01*
X99015896Y-112049499D01*
X99015893Y-112049499D01*
X99015876Y-112049499D01*
X98950004Y-112049499D01*
X98884111Y-112049498D01*
X98884110Y-112049498D01*
X98876518Y-112049498D01*
X98876500Y-112049499D01*
X85284108Y-112049500D01*
X85281005Y-112049500D01*
X85145677Y-112076418D01*
X85145667Y-112076421D01*
X85018195Y-112129221D01*
X85018182Y-112129228D01*
X84903458Y-112205885D01*
X84903454Y-112205888D01*
X84805888Y-112303454D01*
X84805885Y-112303458D01*
X84729228Y-112418182D01*
X84729221Y-112418195D01*
X84676421Y-112545667D01*
X84676418Y-112545677D01*
X84649500Y-112681004D01*
X84649500Y-112681007D01*
X84649500Y-112684107D01*
X84649500Y-112684108D01*
X84649500Y-126284108D01*
X84649500Y-126350000D01*
X84649500Y-126418993D01*
X84649500Y-126418995D01*
X84649499Y-126418995D01*
X69570500Y-126418995D01*
X69570500Y-117834254D01*
X69570501Y-117834241D01*
X69570501Y-117815890D01*
X69570502Y-117815889D01*
X69570501Y-117749996D01*
X69570501Y-117743183D01*
X69570501Y-117684107D01*
X69570501Y-117681011D01*
X69570500Y-117681001D01*
X69543581Y-117545674D01*
X69543580Y-117545673D01*
X69543580Y-117545669D01*
X69490775Y-117418187D01*
X69414114Y-117303457D01*
X69414111Y-117303453D01*
X69316546Y-117205888D01*
X69316542Y-117205885D01*
X69201810Y-117129223D01*
X69074331Y-117076420D01*
X69074323Y-117076418D01*
X68938998Y-117049500D01*
X68938714Y-117049499D01*
X68935896Y-117049499D01*
X68935893Y-117049499D01*
X68935876Y-117049499D01*
X68870004Y-117049499D01*
X68804111Y-117049498D01*
X68804110Y-117049498D01*
X68796518Y-117049498D01*
X68796500Y-117049499D01*
X55204108Y-117049500D01*
X55201005Y-117049500D01*
X55065677Y-117076418D01*
X55065667Y-117076421D01*
X54938195Y-117129221D01*
X54938182Y-117129228D01*
X54823458Y-117205885D01*
X54823454Y-117205888D01*
X54725888Y-117303454D01*
X54725885Y-117303458D01*
X54649228Y-117418182D01*
X54649221Y-117418195D01*
X54596421Y-117545667D01*
X54596418Y-117545677D01*
X54569500Y-117681004D01*
X54569500Y-117681007D01*
X54569500Y-117684107D01*
X54569500Y-117684108D01*
X54569500Y-131284108D01*
X54569500Y-131350000D01*
X54569500Y-131418993D01*
X54569500Y-131418995D01*
X54569499Y-131418995D01*
X17650500Y-131418995D01*
X17650500Y-103918995D01*
X174649499Y-103918995D01*
X174676418Y-104054322D01*
X174676421Y-104054332D01*
X174729221Y-104181804D01*
X174729228Y-104181817D01*
X174805885Y-104296541D01*
X174805888Y-104296545D01*
X174903454Y-104394111D01*
X174903458Y-104394114D01*
X175018182Y-104470771D01*
X175018195Y-104470778D01*
X175145667Y-104523578D01*
X175145672Y-104523580D01*
X175145676Y-104523580D01*
X175145677Y-104523581D01*
X175281004Y-104550500D01*
X175281007Y-104550500D01*
X189018995Y-104550500D01*
X189110041Y-104532389D01*
X189154328Y-104523580D01*
X189281811Y-104470775D01*
X189396542Y-104394114D01*
X189494114Y-104296542D01*
X189570775Y-104181811D01*
X189623580Y-104054328D01*
X189650500Y-103918993D01*
X189650500Y-103850000D01*
X189650500Y-103784108D01*
X189650500Y-101418995D01*
X219569499Y-101418995D01*
X219596418Y-101554322D01*
X219596421Y-101554332D01*
X219649221Y-101681804D01*
X219649228Y-101681817D01*
X219725885Y-101796541D01*
X219725888Y-101796545D01*
X219823454Y-101894111D01*
X219823458Y-101894114D01*
X219938182Y-101970771D01*
X219938195Y-101970778D01*
X220065667Y-102023578D01*
X220065672Y-102023580D01*
X220065676Y-102023580D01*
X220065677Y-102023581D01*
X220201004Y-102050500D01*
X220201007Y-102050500D01*
X233938995Y-102050500D01*
X234030041Y-102032389D01*
X234074328Y-102023580D01*
X234201811Y-101970775D01*
X234316542Y-101894114D01*
X234414114Y-101796542D01*
X234490775Y-101681811D01*
X234543580Y-101554328D01*
X234570500Y-101418995D01*
X279569499Y-101418995D01*
X279596418Y-101554322D01*
X279596421Y-101554332D01*
X279649221Y-101681804D01*
X279649228Y-101681817D01*
X279725885Y-101796541D01*
X279725888Y-101796545D01*
X279823454Y-101894111D01*
X279823458Y-101894114D01*
X279938182Y-101970771D01*
X279938195Y-101970778D01*
X280065667Y-102023578D01*
X280065672Y-102023580D01*
X280065676Y-102023580D01*
X280065677Y-102023581D01*
X280201004Y-102050500D01*
X280201007Y-102050500D01*
X293938995Y-102050500D01*
X294030041Y-102032389D01*
X294074328Y-102023580D01*
X294201811Y-101970775D01*
X294316542Y-101894114D01*
X294414114Y-101796542D01*
X294490775Y-101681811D01*
X294543580Y-101554328D01*
X294570500Y-101418993D01*
X294570500Y-101350000D01*
X294570500Y-101284108D01*
X294570500Y-87834254D01*
X294570501Y-87834241D01*
X294570501Y-87815890D01*
X294570502Y-87815889D01*
X294570501Y-87749996D01*
X294570501Y-87743183D01*
X294570501Y-87684107D01*
X294570501Y-87681011D01*
X294570500Y-87681001D01*
X294543581Y-87545674D01*
X294543580Y-87545673D01*
X294543580Y-87545669D01*
X294490775Y-87418187D01*
X294414114Y-87303457D01*
X294414111Y-87303453D01*
X294316546Y-87205888D01*
X294316542Y-87205885D01*
X294201810Y-87129223D01*
X294074331Y-87076420D01*
X294074323Y-87076418D01*
X293938998Y-87049500D01*
X293938714Y-87049499D01*
X293935896Y-87049499D01*
X293935893Y-87049499D01*
X293935876Y-87049499D01*
X293870004Y-87049499D01*
X293804111Y-87049498D01*
X293804110Y-87049498D01*
X293796518Y-87049498D01*
X293796500Y-87049499D01*
X280204108Y-87049500D01*
X280201005Y-87049500D01*
X280065677Y-87076418D01*
X280065667Y-87076421D01*
X279938195Y-87129221D01*
X279938182Y-87129228D01*
X279823458Y-87205885D01*
X279823454Y-87205888D01*
X279725888Y-87303454D01*
X279725885Y-87303458D01*
X279649228Y-87418182D01*
X279649221Y-87418195D01*
X279596421Y-87545667D01*
X279596418Y-87545677D01*
X279569500Y-87681004D01*
X279569500Y-87681007D01*
X279569500Y-87684107D01*
X279569500Y-87684108D01*
X279569500Y-101284108D01*
X279569500Y-101350000D01*
X279569500Y-101418993D01*
X279569500Y-101418995D01*
X279569499Y-101418995D01*
X234570500Y-101418995D01*
X234570500Y-101418993D01*
X234570500Y-101350000D01*
X234570500Y-101284108D01*
X234570500Y-91418995D01*
X249569499Y-91418995D01*
X249596418Y-91554322D01*
X249596421Y-91554332D01*
X249649221Y-91681804D01*
X249649228Y-91681817D01*
X249725885Y-91796541D01*
X249725888Y-91796545D01*
X249823454Y-91894111D01*
X249823458Y-91894114D01*
X249938182Y-91970771D01*
X249938195Y-91970778D01*
X250065667Y-92023578D01*
X250065672Y-92023580D01*
X250065676Y-92023580D01*
X250065677Y-92023581D01*
X250201004Y-92050500D01*
X250201007Y-92050500D01*
X263938995Y-92050500D01*
X264030041Y-92032389D01*
X264074328Y-92023580D01*
X264201811Y-91970775D01*
X264316542Y-91894114D01*
X264414114Y-91796542D01*
X264490775Y-91681811D01*
X264543580Y-91554328D01*
X264570500Y-91418993D01*
X264570500Y-91350000D01*
X264570500Y-91284108D01*
X264570500Y-77834254D01*
X264570501Y-77834241D01*
X264570501Y-77815890D01*
X264570502Y-77815889D01*
X264570501Y-77749996D01*
X264570501Y-77743183D01*
X264570501Y-77684107D01*
X264570501Y-77681011D01*
X264570500Y-77681001D01*
X264543581Y-77545674D01*
X264543580Y-77545673D01*
X264543580Y-77545669D01*
X264490775Y-77418187D01*
X264414114Y-77303457D01*
X264414111Y-77303453D01*
X264316546Y-77205888D01*
X264316542Y-77205885D01*
X264201810Y-77129223D01*
X264074331Y-77076420D01*
X264074323Y-77076418D01*
X263938998Y-77049500D01*
X263938714Y-77049499D01*
X263935896Y-77049499D01*
X263935893Y-77049499D01*
X263935876Y-77049499D01*
X263870004Y-77049499D01*
X263804111Y-77049498D01*
X263804110Y-77049498D01*
X263796518Y-77049498D01*
X263796500Y-77049499D01*
X250204108Y-77049500D01*
X250201005Y-77049500D01*
X250065677Y-77076418D01*
X250065667Y-77076421D01*
X249938195Y-77129221D01*
X249938182Y-77129228D01*
X249823458Y-77205885D01*
X249823454Y-77205888D01*
X249725888Y-77303454D01*
X249725885Y-77303458D01*
X249649228Y-77418182D01*
X249649221Y-77418195D01*
X249596421Y-77545667D01*
X249596418Y-77545677D01*
X249569500Y-77681004D01*
X249569500Y-77681007D01*
X249569500Y-77684107D01*
X249569500Y-77684108D01*
X249569500Y-91284108D01*
X249569500Y-91350000D01*
X249569500Y-91418993D01*
X249569500Y-91418995D01*
X249569499Y-91418995D01*
X234570500Y-91418995D01*
X234570500Y-87834254D01*
X234570501Y-87834241D01*
X234570501Y-87815890D01*
X234570502Y-87815889D01*
X234570501Y-87749996D01*
X234570501Y-87743183D01*
X234570501Y-87684107D01*
X234570501Y-87681011D01*
X234570500Y-87681001D01*
X234543581Y-87545674D01*
X234543580Y-87545673D01*
X234543580Y-87545669D01*
X234490775Y-87418187D01*
X234414114Y-87303457D01*
X234414111Y-87303453D01*
X234316546Y-87205888D01*
X234316542Y-87205885D01*
X234201810Y-87129223D01*
X234074331Y-87076420D01*
X234074323Y-87076418D01*
X233938998Y-87049500D01*
X233938714Y-87049499D01*
X233935896Y-87049499D01*
X233935893Y-87049499D01*
X233935876Y-87049499D01*
X233870004Y-87049499D01*
X233804111Y-87049498D01*
X233804110Y-87049498D01*
X233796518Y-87049498D01*
X233796500Y-87049499D01*
X220204108Y-87049500D01*
X220201005Y-87049500D01*
X220065677Y-87076418D01*
X220065667Y-87076421D01*
X219938195Y-87129221D01*
X219938182Y-87129228D01*
X219823458Y-87205885D01*
X219823454Y-87205888D01*
X219725888Y-87303454D01*
X219725885Y-87303458D01*
X219649228Y-87418182D01*
X219649221Y-87418195D01*
X219596421Y-87545667D01*
X219596418Y-87545677D01*
X219569500Y-87681004D01*
X219569500Y-87681007D01*
X219569500Y-87684107D01*
X219569500Y-87684108D01*
X219569500Y-101284108D01*
X219569500Y-101350000D01*
X219569500Y-101418993D01*
X219569500Y-101418995D01*
X219569499Y-101418995D01*
X189650500Y-101418995D01*
X189650500Y-90334254D01*
X189650501Y-90334241D01*
X189650501Y-90315890D01*
X189650502Y-90315889D01*
X189650501Y-90249996D01*
X189650501Y-90243183D01*
X189650501Y-90184107D01*
X189650501Y-90181011D01*
X189650500Y-90181001D01*
X189623581Y-90045674D01*
X189623580Y-90045673D01*
X189623580Y-90045669D01*
X189570775Y-89918187D01*
X189494114Y-89803457D01*
X189494111Y-89803453D01*
X189396546Y-89705888D01*
X189396542Y-89705885D01*
X189281810Y-89629223D01*
X189154331Y-89576420D01*
X189154323Y-89576418D01*
X189018998Y-89549500D01*
X189018714Y-89549499D01*
X189015896Y-89549499D01*
X189015893Y-89549499D01*
X189015876Y-89549499D01*
X188950004Y-89549499D01*
X188884111Y-89549498D01*
X188884110Y-89549498D01*
X188876518Y-89549498D01*
X188876500Y-89549499D01*
X175284108Y-89549500D01*
X175281005Y-89549500D01*
X175145677Y-89576418D01*
X175145667Y-89576421D01*
X175018195Y-89629221D01*
X175018182Y-89629228D01*
X174903458Y-89705885D01*
X174903454Y-89705888D01*
X174805888Y-89803454D01*
X174805885Y-89803458D01*
X174729228Y-89918182D01*
X174729221Y-89918195D01*
X174676421Y-90045667D01*
X174676418Y-90045677D01*
X174649500Y-90181004D01*
X174649500Y-90181007D01*
X174649500Y-90184107D01*
X174649500Y-90184108D01*
X174649500Y-103784108D01*
X174649500Y-103850000D01*
X174649500Y-103918993D01*
X174649500Y-103918995D01*
X174649499Y-103918995D01*
X17650500Y-103918995D01*
X17650500Y-98918995D01*
X54594499Y-98918995D01*
X54621418Y-99054322D01*
X54621421Y-99054332D01*
X54674221Y-99181804D01*
X54674228Y-99181817D01*
X54750885Y-99296541D01*
X54750888Y-99296545D01*
X54848454Y-99394111D01*
X54848458Y-99394114D01*
X54963182Y-99470771D01*
X54963195Y-99470778D01*
X55090667Y-99523578D01*
X55090672Y-99523580D01*
X55090676Y-99523580D01*
X55090677Y-99523581D01*
X55226004Y-99550500D01*
X55226007Y-99550500D01*
X68963995Y-99550500D01*
X69055041Y-99532389D01*
X69099328Y-99523580D01*
X69226811Y-99470775D01*
X69341542Y-99394114D01*
X69439114Y-99296542D01*
X69515775Y-99181811D01*
X69568580Y-99054328D01*
X69595500Y-98918993D01*
X69595500Y-98850000D01*
X69595500Y-98784108D01*
X69595500Y-93918995D01*
X84594499Y-93918995D01*
X84621418Y-94054322D01*
X84621421Y-94054332D01*
X84674221Y-94181804D01*
X84674228Y-94181817D01*
X84750885Y-94296541D01*
X84750888Y-94296545D01*
X84848454Y-94394111D01*
X84848458Y-94394114D01*
X84963182Y-94470771D01*
X84963195Y-94470778D01*
X85090667Y-94523578D01*
X85090672Y-94523580D01*
X85090676Y-94523580D01*
X85090677Y-94523581D01*
X85226004Y-94550500D01*
X85226007Y-94550500D01*
X98963995Y-94550500D01*
X99055041Y-94532389D01*
X99099328Y-94523580D01*
X99226811Y-94470775D01*
X99341542Y-94394114D01*
X99439114Y-94296542D01*
X99515775Y-94181811D01*
X99568580Y-94054328D01*
X99595500Y-93918995D01*
X144594499Y-93918995D01*
X144621418Y-94054322D01*
X144621421Y-94054332D01*
X144674221Y-94181804D01*
X144674228Y-94181817D01*
X144750885Y-94296541D01*
X144750888Y-94296545D01*
X144848454Y-94394111D01*
X144848458Y-94394114D01*
X144963182Y-94470771D01*
X144963195Y-94470778D01*
X145090667Y-94523578D01*
X145090672Y-94523580D01*
X145090676Y-94523580D01*
X145090677Y-94523581D01*
X145226004Y-94550500D01*
X145226007Y-94550500D01*
X158963995Y-94550500D01*
X159055041Y-94532389D01*
X159099328Y-94523580D01*
X159226811Y-94470775D01*
X159341542Y-94394114D01*
X159439114Y-94296542D01*
X159515775Y-94181811D01*
X159568580Y-94054328D01*
X159595500Y-93918993D01*
X159595500Y-93850000D01*
X159595500Y-93784108D01*
X159595500Y-80334254D01*
X159595501Y-80334241D01*
X159595501Y-80315890D01*
X159595502Y-80315889D01*
X159595501Y-80249996D01*
X159595501Y-80243183D01*
X159595501Y-80184107D01*
X159595501Y-80181011D01*
X159595500Y-80181001D01*
X159568581Y-80045674D01*
X159568580Y-80045673D01*
X159568580Y-80045669D01*
X159515775Y-79918187D01*
X159439114Y-79803457D01*
X159439111Y-79803453D01*
X159341546Y-79705888D01*
X159341542Y-79705885D01*
X159226810Y-79629223D01*
X159099331Y-79576420D01*
X159099323Y-79576418D01*
X158963998Y-79549500D01*
X158963714Y-79549499D01*
X158960896Y-79549499D01*
X158960893Y-79549499D01*
X158960876Y-79549499D01*
X158895004Y-79549499D01*
X158829111Y-79549498D01*
X158829110Y-79549498D01*
X158821518Y-79549498D01*
X158821500Y-79549499D01*
X145229108Y-79549500D01*
X145226005Y-79549500D01*
X145090677Y-79576418D01*
X145090667Y-79576421D01*
X144963195Y-79629221D01*
X144963182Y-79629228D01*
X144848458Y-79705885D01*
X144848454Y-79705888D01*
X144750888Y-79803454D01*
X144750885Y-79803458D01*
X144674228Y-79918182D01*
X144674221Y-79918195D01*
X144621421Y-80045667D01*
X144621418Y-80045677D01*
X144594500Y-80181004D01*
X144594500Y-80181007D01*
X144594500Y-80184107D01*
X144594500Y-80184108D01*
X144594500Y-93784108D01*
X144594500Y-93850000D01*
X144594500Y-93918993D01*
X144594500Y-93918995D01*
X144594499Y-93918995D01*
X99595500Y-93918995D01*
X99595500Y-93918993D01*
X99595500Y-93850000D01*
X99595500Y-93784108D01*
X99595500Y-88918995D01*
X114594499Y-88918995D01*
X114621418Y-89054322D01*
X114621421Y-89054332D01*
X114674221Y-89181804D01*
X114674228Y-89181817D01*
X114750885Y-89296541D01*
X114750888Y-89296545D01*
X114848454Y-89394111D01*
X114848458Y-89394114D01*
X114963182Y-89470771D01*
X114963195Y-89470778D01*
X115090667Y-89523578D01*
X115090672Y-89523580D01*
X115090676Y-89523580D01*
X115090677Y-89523581D01*
X115226004Y-89550500D01*
X115226007Y-89550500D01*
X128963995Y-89550500D01*
X129055041Y-89532389D01*
X129099328Y-89523580D01*
X129226811Y-89470775D01*
X129341542Y-89394114D01*
X129439114Y-89296542D01*
X129515775Y-89181811D01*
X129568580Y-89054328D01*
X129595500Y-88918993D01*
X129595500Y-88850000D01*
X129595500Y-88784108D01*
X129595500Y-75334254D01*
X129595501Y-75334241D01*
X129595501Y-75315890D01*
X129595502Y-75315889D01*
X129595501Y-75249996D01*
X129595501Y-75243183D01*
X129595501Y-75184107D01*
X129595501Y-75181011D01*
X129595500Y-75181001D01*
X129568581Y-75045674D01*
X129568580Y-75045673D01*
X129568580Y-75045669D01*
X129515775Y-74918187D01*
X129439114Y-74803457D01*
X129439111Y-74803453D01*
X129341546Y-74705888D01*
X129341542Y-74705885D01*
X129226810Y-74629223D01*
X129099331Y-74576420D01*
X129099323Y-74576418D01*
X128963998Y-74549500D01*
X128963714Y-74549499D01*
X128960896Y-74549499D01*
X128960893Y-74549499D01*
X128960876Y-74549499D01*
X128895004Y-74549499D01*
X128829111Y-74549498D01*
X128829110Y-74549498D01*
X128821518Y-74549498D01*
X128821500Y-74549499D01*
X115229108Y-74549500D01*
X115226005Y-74549500D01*
X115090677Y-74576418D01*
X115090667Y-74576421D01*
X114963195Y-74629221D01*
X114963182Y-74629228D01*
X114848458Y-74705885D01*
X114848454Y-74705888D01*
X114750888Y-74803454D01*
X114750885Y-74803458D01*
X114674228Y-74918182D01*
X114674221Y-74918195D01*
X114621421Y-75045667D01*
X114621418Y-75045677D01*
X114594500Y-75181004D01*
X114594500Y-75181007D01*
X114594500Y-75184107D01*
X114594500Y-75184108D01*
X114594500Y-88784108D01*
X114594500Y-88850000D01*
X114594500Y-88918993D01*
X114594500Y-88918995D01*
X114594499Y-88918995D01*
X99595500Y-88918995D01*
X99595500Y-80334254D01*
X99595501Y-80334241D01*
X99595501Y-80315890D01*
X99595502Y-80315889D01*
X99595501Y-80249996D01*
X99595501Y-80243183D01*
X99595501Y-80184107D01*
X99595501Y-80181011D01*
X99595500Y-80181001D01*
X99568581Y-80045674D01*
X99568580Y-80045673D01*
X99568580Y-80045669D01*
X99515775Y-79918187D01*
X99439114Y-79803457D01*
X99439111Y-79803453D01*
X99341546Y-79705888D01*
X99341542Y-79705885D01*
X99226810Y-79629223D01*
X99099331Y-79576420D01*
X99099323Y-79576418D01*
X98963998Y-79549500D01*
X98963714Y-79549499D01*
X98960896Y-79549499D01*
X98960893Y-79549499D01*
X98960876Y-79549499D01*
X98895004Y-79549499D01*
X98829111Y-79549498D01*
X98829110Y-79549498D01*
X98821518Y-79549498D01*
X98821500Y-79549499D01*
X85229108Y-79549500D01*
X85226005Y-79549500D01*
X85090677Y-79576418D01*
X85090667Y-79576421D01*
X84963195Y-79629221D01*
X84963182Y-79629228D01*
X84848458Y-79705885D01*
X84848454Y-79705888D01*
X84750888Y-79803454D01*
X84750885Y-79803458D01*
X84674228Y-79918182D01*
X84674221Y-79918195D01*
X84621421Y-80045667D01*
X84621418Y-80045677D01*
X84594500Y-80181004D01*
X84594500Y-80181007D01*
X84594500Y-80184107D01*
X84594500Y-80184108D01*
X84594500Y-93784108D01*
X84594500Y-93850000D01*
X84594500Y-93918993D01*
X84594500Y-93918995D01*
X84594499Y-93918995D01*
X69595500Y-93918995D01*
X69595500Y-85334254D01*
X69595501Y-85334241D01*
X69595501Y-85315890D01*
X69595502Y-85315889D01*
X69595501Y-85249996D01*
X69595501Y-85243183D01*
X69595501Y-85184107D01*
X69595501Y-85181011D01*
X69595500Y-85181001D01*
X69568581Y-85045674D01*
X69568580Y-85045673D01*
X69568580Y-85045669D01*
X69515775Y-84918187D01*
X69439114Y-84803457D01*
X69439111Y-84803453D01*
X69341546Y-84705888D01*
X69341542Y-84705885D01*
X69226810Y-84629223D01*
X69099331Y-84576420D01*
X69099323Y-84576418D01*
X68963998Y-84549500D01*
X68963714Y-84549499D01*
X68960896Y-84549499D01*
X68960893Y-84549499D01*
X68960876Y-84549499D01*
X68895004Y-84549499D01*
X68829111Y-84549498D01*
X68829110Y-84549498D01*
X68821518Y-84549498D01*
X68821500Y-84549499D01*
X55229108Y-84549500D01*
X55226005Y-84549500D01*
X55090677Y-84576418D01*
X55090667Y-84576421D01*
X54963195Y-84629221D01*
X54963182Y-84629228D01*
X54848458Y-84705885D01*
X54848454Y-84705888D01*
X54750888Y-84803454D01*
X54750885Y-84803458D01*
X54674228Y-84918182D01*
X54674221Y-84918195D01*
X54621421Y-85045667D01*
X54621418Y-85045677D01*
X54594500Y-85181004D01*
X54594500Y-85181007D01*
X54594500Y-85184107D01*
X54594500Y-85184108D01*
X54594500Y-98784108D01*
X54594500Y-98850000D01*
X54594500Y-98918993D01*
X54594500Y-98918995D01*
X54594499Y-98918995D01*
X17650500Y-98918995D01*
X17650500Y-61418995D01*
X249649499Y-61418995D01*
X249676418Y-61554322D01*
X249676421Y-61554332D01*
X249729221Y-61681804D01*
X249729228Y-61681817D01*
X249805885Y-61796541D01*
X249805888Y-61796545D01*
X249903454Y-61894111D01*
X249903458Y-61894114D01*
X250018182Y-61970771D01*
X250018195Y-61970778D01*
X250145667Y-62023578D01*
X250145672Y-62023580D01*
X250145676Y-62023580D01*
X250145677Y-62023581D01*
X250281004Y-62050500D01*
X250281007Y-62050500D01*
X264018995Y-62050500D01*
X264110041Y-62032389D01*
X264154328Y-62023580D01*
X264281811Y-61970775D01*
X264396542Y-61894114D01*
X264494114Y-61796542D01*
X264570775Y-61681811D01*
X264623580Y-61554328D01*
X264650500Y-61418993D01*
X264650500Y-61350000D01*
X264650500Y-61284108D01*
X264650500Y-47834254D01*
X264650501Y-47834241D01*
X264650501Y-47815890D01*
X264650502Y-47815889D01*
X264650501Y-47749996D01*
X264650501Y-47743183D01*
X264650501Y-47684107D01*
X264650501Y-47681011D01*
X264650500Y-47681001D01*
X264623581Y-47545674D01*
X264623580Y-47545673D01*
X264623580Y-47545669D01*
X264570775Y-47418187D01*
X264494114Y-47303457D01*
X264494111Y-47303453D01*
X264396546Y-47205888D01*
X264396542Y-47205885D01*
X264281810Y-47129223D01*
X264154331Y-47076420D01*
X264154323Y-47076418D01*
X264018998Y-47049500D01*
X264018714Y-47049499D01*
X264015896Y-47049499D01*
X264015893Y-47049499D01*
X264015876Y-47049499D01*
X263950004Y-47049499D01*
X263884111Y-47049498D01*
X263884110Y-47049498D01*
X263876518Y-47049498D01*
X263876500Y-47049499D01*
X250284108Y-47049500D01*
X250281005Y-47049500D01*
X250145677Y-47076418D01*
X250145667Y-47076421D01*
X250018195Y-47129221D01*
X250018182Y-47129228D01*
X249903458Y-47205885D01*
X249903454Y-47205888D01*
X249805888Y-47303454D01*
X249805885Y-47303458D01*
X249729228Y-47418182D01*
X249729221Y-47418195D01*
X249676421Y-47545667D01*
X249676418Y-47545677D01*
X249649500Y-47681004D01*
X249649500Y-47681007D01*
X249649500Y-47684107D01*
X249649500Y-47684108D01*
X249649500Y-61284108D01*
X249649500Y-61350000D01*
X249649500Y-61418993D01*
X249649500Y-61418995D01*
X249649499Y-61418995D01*
X17650500Y-61418995D01*
X17650500Y-41560499D01*
X299979498Y-41560499D01*
X299979499Y-41632498D01*
X299979499Y-41698416D01*
X299979500Y-41701497D01*
X299979500Y-41701499D01*
X300006418Y-41836823D01*
X300006420Y-41836831D01*
X300059223Y-41964310D01*
X300135885Y-42079042D01*
X300135888Y-42079046D01*
X300233453Y-42176611D01*
X300233457Y-42176614D01*
X300348187Y-42253275D01*
X300475669Y-42306080D01*
X300475673Y-42306080D01*
X300475674Y-42306081D01*
X300611001Y-42333000D01*
X300614103Y-42333000D01*
X300614107Y-42333001D01*
X300679546Y-42333000D01*
X300679928Y-42333000D01*
X300679996Y-42333001D01*
X300745889Y-42333002D01*
X300745891Y-42333001D01*
X300764240Y-42333001D01*
X300764255Y-42333000D01*
X314348995Y-42333000D01*
X314440041Y-42314889D01*
X314484328Y-42306080D01*
X314611811Y-42253275D01*
X314726542Y-42176614D01*
X314824114Y-42079042D01*
X314900775Y-41964311D01*
X314953580Y-41836828D01*
X314962389Y-41792541D01*
X314980500Y-41701495D01*
X314980500Y-41505499D01*
X322494498Y-41505499D01*
X322494499Y-41566606D01*
X322494499Y-41643416D01*
X322494500Y-41646497D01*
X322494500Y-41646499D01*
X322521418Y-41781823D01*
X322521420Y-41781831D01*
X322574223Y-41909310D01*
X322650885Y-42024042D01*
X322650888Y-42024046D01*
X322748453Y-42121611D01*
X322748457Y-42121614D01*
X322863187Y-42198275D01*
X322990669Y-42251080D01*
X322990673Y-42251080D01*
X322990674Y-42251081D01*
X323126001Y-42278000D01*
X323129103Y-42278000D01*
X323129107Y-42278001D01*
X323194546Y-42278000D01*
X323194928Y-42278000D01*
X323194996Y-42278001D01*
X323260889Y-42278002D01*
X323260891Y-42278001D01*
X323279240Y-42278001D01*
X323279255Y-42278000D01*
X336863995Y-42278000D01*
X336955041Y-42259889D01*
X336999328Y-42251080D01*
X337126811Y-42198275D01*
X337241542Y-42121614D01*
X337339114Y-42024042D01*
X337415775Y-41909311D01*
X337468580Y-41781828D01*
X337484559Y-41701496D01*
X337495500Y-41646495D01*
X337495500Y-27908504D01*
X337468581Y-27773177D01*
X337468580Y-27773176D01*
X337468580Y-27773172D01*
X337438554Y-27700682D01*
X337415778Y-27645695D01*
X337415771Y-27645682D01*
X337339114Y-27530958D01*
X337339111Y-27530954D01*
X337241545Y-27433388D01*
X337241541Y-27433385D01*
X337126817Y-27356728D01*
X337126804Y-27356721D01*
X336999332Y-27303921D01*
X336999322Y-27303918D01*
X336863995Y-27277000D01*
X336863993Y-27277000D01*
X336860892Y-27277000D01*
X323260892Y-27277000D01*
X323195000Y-27277000D01*
X323126007Y-27277000D01*
X323126005Y-27277000D01*
X322990677Y-27303918D01*
X322990667Y-27303921D01*
X322863195Y-27356721D01*
X322863182Y-27356728D01*
X322748458Y-27433385D01*
X322748454Y-27433388D01*
X322650888Y-27530954D01*
X322650885Y-27530958D01*
X322574228Y-27645682D01*
X322574221Y-27645695D01*
X322521421Y-27773167D01*
X322521418Y-27773177D01*
X322494500Y-27908504D01*
X322494500Y-27911608D01*
X322494499Y-41505477D01*
X322494498Y-41505499D01*
X314980500Y-41505499D01*
X314980500Y-27963504D01*
X314953581Y-27828177D01*
X314953580Y-27828176D01*
X314953580Y-27828172D01*
X314953578Y-27828167D01*
X314900778Y-27700695D01*
X314900771Y-27700682D01*
X314824114Y-27585958D01*
X314824111Y-27585954D01*
X314726545Y-27488388D01*
X314726541Y-27488385D01*
X314611817Y-27411728D01*
X314611804Y-27411721D01*
X314484332Y-27358921D01*
X314484322Y-27358918D01*
X314348995Y-27332000D01*
X314348993Y-27332000D01*
X314345892Y-27332000D01*
X300745892Y-27332000D01*
X300680000Y-27332000D01*
X300611007Y-27332000D01*
X300611005Y-27332000D01*
X300475677Y-27358918D01*
X300475667Y-27358921D01*
X300348195Y-27411721D01*
X300348182Y-27411728D01*
X300233458Y-27488385D01*
X300233454Y-27488388D01*
X300135888Y-27585954D01*
X300135885Y-27585958D01*
X300059228Y-27700682D01*
X300059221Y-27700695D01*
X300006421Y-27828167D01*
X300006418Y-27828177D01*
X299979500Y-27963504D01*
X299979500Y-27966608D01*
X299979499Y-41560477D01*
X299979498Y-41560499D01*
X17650500Y-41560499D01*
X17650500Y-26924038D01*
X25549500Y-26924038D01*
X25549500Y-27175961D01*
X25588910Y-27424785D01*
X25666760Y-27664383D01*
X25781132Y-27888848D01*
X25929201Y-28092649D01*
X25929205Y-28092654D01*
X26107345Y-28270794D01*
X26107350Y-28270798D01*
X26285117Y-28399952D01*
X26311155Y-28418870D01*
X26454184Y-28491747D01*
X26535616Y-28533239D01*
X26535618Y-28533239D01*
X26535621Y-28533241D01*
X26775215Y-28611090D01*
X27024038Y-28650500D01*
X27024039Y-28650500D01*
X27275961Y-28650500D01*
X27275962Y-28650500D01*
X27524785Y-28611090D01*
X27764379Y-28533241D01*
X27988845Y-28418870D01*
X28192656Y-28270793D01*
X28370793Y-28092656D01*
X28518870Y-27888845D01*
X28633241Y-27664379D01*
X28711090Y-27424785D01*
X28750500Y-27175962D01*
X28750500Y-26924038D01*
X110549500Y-26924038D01*
X110549500Y-27175961D01*
X110588910Y-27424785D01*
X110666760Y-27664383D01*
X110781132Y-27888848D01*
X110929201Y-28092649D01*
X110929205Y-28092654D01*
X111107345Y-28270794D01*
X111107350Y-28270798D01*
X111285117Y-28399952D01*
X111311155Y-28418870D01*
X111454184Y-28491747D01*
X111535616Y-28533239D01*
X111535618Y-28533239D01*
X111535621Y-28533241D01*
X111775215Y-28611090D01*
X112024038Y-28650500D01*
X112024039Y-28650500D01*
X112275961Y-28650500D01*
X112275962Y-28650500D01*
X112524785Y-28611090D01*
X112764379Y-28533241D01*
X112988845Y-28418870D01*
X113192656Y-28270793D01*
X113370793Y-28092656D01*
X113518870Y-27888845D01*
X113633241Y-27664379D01*
X113711090Y-27424785D01*
X113750500Y-27175962D01*
X113750500Y-26924038D01*
X260549500Y-26924038D01*
X260549500Y-27175961D01*
X260588910Y-27424785D01*
X260666760Y-27664383D01*
X260781132Y-27888848D01*
X260929201Y-28092649D01*
X260929205Y-28092654D01*
X261107345Y-28270794D01*
X261107350Y-28270798D01*
X261285117Y-28399952D01*
X261311155Y-28418870D01*
X261454184Y-28491747D01*
X261535616Y-28533239D01*
X261535618Y-28533239D01*
X261535621Y-28533241D01*
X261775215Y-28611090D01*
X262024038Y-28650500D01*
X262024039Y-28650500D01*
X262275961Y-28650500D01*
X262275962Y-28650500D01*
X262524785Y-28611090D01*
X262764379Y-28533241D01*
X262988845Y-28418870D01*
X263192656Y-28270793D01*
X263370793Y-28092656D01*
X263518870Y-27888845D01*
X263633241Y-27664379D01*
X263711090Y-27424785D01*
X263750500Y-27175962D01*
X263750500Y-26924038D01*
X345549500Y-26924038D01*
X345549500Y-27175961D01*
X345588910Y-27424785D01*
X345666760Y-27664383D01*
X345781132Y-27888848D01*
X345929201Y-28092649D01*
X345929205Y-28092654D01*
X346107345Y-28270794D01*
X346107350Y-28270798D01*
X346285117Y-28399952D01*
X346311155Y-28418870D01*
X346454184Y-28491747D01*
X346535616Y-28533239D01*
X346535618Y-28533239D01*
X346535621Y-28533241D01*
X346775215Y-28611090D01*
X347024038Y-28650500D01*
X347024039Y-28650500D01*
X347275961Y-28650500D01*
X347275962Y-28650500D01*
X347524785Y-28611090D01*
X347764379Y-28533241D01*
X347988845Y-28418870D01*
X348192656Y-28270793D01*
X348370793Y-28092656D01*
X348518870Y-27888845D01*
X348633241Y-27664379D01*
X348711090Y-27424785D01*
X348750500Y-27175962D01*
X348750500Y-26924038D01*
X348711090Y-26675215D01*
X348633241Y-26435621D01*
X348633239Y-26435618D01*
X348633239Y-26435616D01*
X348591747Y-26354184D01*
X348518870Y-26211155D01*
X348499952Y-26185117D01*
X348370798Y-26007350D01*
X348370794Y-26007345D01*
X348192654Y-25829205D01*
X348192649Y-25829201D01*
X347988848Y-25681132D01*
X347988847Y-25681131D01*
X347988845Y-25681130D01*
X347918747Y-25645413D01*
X347764383Y-25566760D01*
X347524785Y-25488910D01*
X347275962Y-25449500D01*
X347024038Y-25449500D01*
X346899626Y-25469205D01*
X346775214Y-25488910D01*
X346535616Y-25566760D01*
X346311151Y-25681132D01*
X346107350Y-25829201D01*
X346107345Y-25829205D01*
X345929205Y-26007345D01*
X345929201Y-26007350D01*
X345781132Y-26211151D01*
X345666760Y-26435616D01*
X345588910Y-26675214D01*
X345549500Y-26924038D01*
X263750500Y-26924038D01*
X263711090Y-26675215D01*
X263633241Y-26435621D01*
X263633239Y-26435618D01*
X263633239Y-26435616D01*
X263591747Y-26354184D01*
X263518870Y-26211155D01*
X263499952Y-26185117D01*
X263370798Y-26007350D01*
X263370794Y-26007345D01*
X263192654Y-25829205D01*
X263192649Y-25829201D01*
X262988848Y-25681132D01*
X262988847Y-25681131D01*
X262988845Y-25681130D01*
X262918747Y-25645413D01*
X262764383Y-25566760D01*
X262524785Y-25488910D01*
X262275962Y-25449500D01*
X262024038Y-25449500D01*
X261899626Y-25469205D01*
X261775214Y-25488910D01*
X261535616Y-25566760D01*
X261311151Y-25681132D01*
X261107350Y-25829201D01*
X261107345Y-25829205D01*
X260929205Y-26007345D01*
X260929201Y-26007350D01*
X260781132Y-26211151D01*
X260666760Y-26435616D01*
X260588910Y-26675214D01*
X260549500Y-26924038D01*
X113750500Y-26924038D01*
X113711090Y-26675215D01*
X113633241Y-26435621D01*
X113633239Y-26435618D01*
X113633239Y-26435616D01*
X113591747Y-26354184D01*
X113518870Y-26211155D01*
X113499952Y-26185117D01*
X113370798Y-26007350D01*
X113370794Y-26007345D01*
X113192654Y-25829205D01*
X113192649Y-25829201D01*
X112988848Y-25681132D01*
X112988847Y-25681131D01*
X112988845Y-25681130D01*
X112918747Y-25645413D01*
X112764383Y-25566760D01*
X112524785Y-25488910D01*
X112275962Y-25449500D01*
X112024038Y-25449500D01*
X111899626Y-25469205D01*
X111775214Y-25488910D01*
X111535616Y-25566760D01*
X111311151Y-25681132D01*
X111107350Y-25829201D01*
X111107345Y-25829205D01*
X110929205Y-26007345D01*
X110929201Y-26007350D01*
X110781132Y-26211151D01*
X110666760Y-26435616D01*
X110588910Y-26675214D01*
X110549500Y-26924038D01*
X28750500Y-26924038D01*
X28711090Y-26675215D01*
X28633241Y-26435621D01*
X28633239Y-26435618D01*
X28633239Y-26435616D01*
X28591747Y-26354184D01*
X28518870Y-26211155D01*
X28499952Y-26185117D01*
X28370798Y-26007350D01*
X28370794Y-26007345D01*
X28192654Y-25829205D01*
X28192649Y-25829201D01*
X27988848Y-25681132D01*
X27988847Y-25681131D01*
X27988845Y-25681130D01*
X27918747Y-25645413D01*
X27764383Y-25566760D01*
X27524785Y-25488910D01*
X27275962Y-25449500D01*
X27024038Y-25449500D01*
X26899626Y-25469205D01*
X26775214Y-25488910D01*
X26535616Y-25566760D01*
X26311151Y-25681132D01*
X26107350Y-25829201D01*
X26107345Y-25829205D01*
X25929205Y-26007345D01*
X25929201Y-26007350D01*
X25781132Y-26211151D01*
X25666760Y-26435616D01*
X25588910Y-26675214D01*
X25549500Y-26924038D01*
X17650500Y-26924038D01*
X17650500Y-17674500D01*
X17670185Y-17607461D01*
X17722989Y-17561706D01*
X17774500Y-17550500D01*
X356525500Y-17550500D01*
X356592539Y-17570185D01*
G37*
G04 #@! TD.AperFunction*
G04 #@! TD*
M02*
