G04 #@! TF.GenerationSoftware,KiCad,Pcbnew,8.0.3*
G04 #@! TF.CreationDate,2024-06-18T22:36:52+09:00*
G04 #@! TF.ProjectId,mainboard_top_plate,6d61696e-626f-4617-9264-5f746f705f70,rev?*
G04 #@! TF.SameCoordinates,Original*
G04 #@! TF.FileFunction,Legend,Bot*
G04 #@! TF.FilePolarity,Positive*
%FSLAX46Y46*%
G04 Gerber Fmt 4.6, Leading zero omitted, Abs format (unit mm)*
G04 Created by KiCad (PCBNEW 8.0.3) date 2024-06-18 22:36:52*
%MOMM*%
%LPD*%
G01*
G04 APERTURE LIST*
%ADD10C,0.750000*%
%ADD11C,0.120000*%
G04 APERTURE END LIST*
D10*
X77142293Y-215643857D02*
X77142293Y-218072428D01*
X77142293Y-218072428D02*
X76999436Y-218358142D01*
X76999436Y-218358142D02*
X76856579Y-218501000D01*
X76856579Y-218501000D02*
X76570864Y-218643857D01*
X76570864Y-218643857D02*
X75999436Y-218643857D01*
X75999436Y-218643857D02*
X75713721Y-218501000D01*
X75713721Y-218501000D02*
X75570864Y-218358142D01*
X75570864Y-218358142D02*
X75428007Y-218072428D01*
X75428007Y-218072428D02*
X75428007Y-215643857D01*
X72713722Y-218643857D02*
X72713722Y-215643857D01*
X72713722Y-218501000D02*
X72999436Y-218643857D01*
X72999436Y-218643857D02*
X73570864Y-218643857D01*
X73570864Y-218643857D02*
X73856579Y-218501000D01*
X73856579Y-218501000D02*
X73999436Y-218358142D01*
X73999436Y-218358142D02*
X74142293Y-218072428D01*
X74142293Y-218072428D02*
X74142293Y-217215285D01*
X74142293Y-217215285D02*
X73999436Y-216929571D01*
X73999436Y-216929571D02*
X73856579Y-216786714D01*
X73856579Y-216786714D02*
X73570864Y-216643857D01*
X73570864Y-216643857D02*
X72999436Y-216643857D01*
X72999436Y-216643857D02*
X72713722Y-216786714D01*
X70856578Y-218643857D02*
X71142293Y-218501000D01*
X71142293Y-218501000D02*
X71285150Y-218358142D01*
X71285150Y-218358142D02*
X71428007Y-218072428D01*
X71428007Y-218072428D02*
X71428007Y-217215285D01*
X71428007Y-217215285D02*
X71285150Y-216929571D01*
X71285150Y-216929571D02*
X71142293Y-216786714D01*
X71142293Y-216786714D02*
X70856578Y-216643857D01*
X70856578Y-216643857D02*
X70428007Y-216643857D01*
X70428007Y-216643857D02*
X70142293Y-216786714D01*
X70142293Y-216786714D02*
X69999436Y-216929571D01*
X69999436Y-216929571D02*
X69856578Y-217215285D01*
X69856578Y-217215285D02*
X69856578Y-218072428D01*
X69856578Y-218072428D02*
X69999436Y-218358142D01*
X69999436Y-218358142D02*
X70142293Y-218501000D01*
X70142293Y-218501000D02*
X70428007Y-218643857D01*
X70428007Y-218643857D02*
X70856578Y-218643857D01*
X68570864Y-216643857D02*
X68570864Y-218643857D01*
X68570864Y-216929571D02*
X68428007Y-216786714D01*
X68428007Y-216786714D02*
X68142292Y-216643857D01*
X68142292Y-216643857D02*
X67713721Y-216643857D01*
X67713721Y-216643857D02*
X67428007Y-216786714D01*
X67428007Y-216786714D02*
X67285150Y-217072428D01*
X67285150Y-217072428D02*
X67285150Y-218643857D01*
X64570864Y-216643857D02*
X64570864Y-219072428D01*
X64570864Y-219072428D02*
X64713721Y-219358142D01*
X64713721Y-219358142D02*
X64856578Y-219501000D01*
X64856578Y-219501000D02*
X65142292Y-219643857D01*
X65142292Y-219643857D02*
X65570864Y-219643857D01*
X65570864Y-219643857D02*
X65856578Y-219501000D01*
X64570864Y-218501000D02*
X64856578Y-218643857D01*
X64856578Y-218643857D02*
X65428006Y-218643857D01*
X65428006Y-218643857D02*
X65713721Y-218501000D01*
X65713721Y-218501000D02*
X65856578Y-218358142D01*
X65856578Y-218358142D02*
X65999435Y-218072428D01*
X65999435Y-218072428D02*
X65999435Y-217215285D01*
X65999435Y-217215285D02*
X65856578Y-216929571D01*
X65856578Y-216929571D02*
X65713721Y-216786714D01*
X65713721Y-216786714D02*
X65428006Y-216643857D01*
X65428006Y-216643857D02*
X64856578Y-216643857D01*
X64856578Y-216643857D02*
X64570864Y-216786714D01*
X59856578Y-217072428D02*
X59428006Y-217215285D01*
X59428006Y-217215285D02*
X59285149Y-217358142D01*
X59285149Y-217358142D02*
X59142292Y-217643857D01*
X59142292Y-217643857D02*
X59142292Y-218072428D01*
X59142292Y-218072428D02*
X59285149Y-218358142D01*
X59285149Y-218358142D02*
X59428006Y-218501000D01*
X59428006Y-218501000D02*
X59713721Y-218643857D01*
X59713721Y-218643857D02*
X60856578Y-218643857D01*
X60856578Y-218643857D02*
X60856578Y-215643857D01*
X60856578Y-215643857D02*
X59856578Y-215643857D01*
X59856578Y-215643857D02*
X59570864Y-215786714D01*
X59570864Y-215786714D02*
X59428006Y-215929571D01*
X59428006Y-215929571D02*
X59285149Y-216215285D01*
X59285149Y-216215285D02*
X59285149Y-216501000D01*
X59285149Y-216501000D02*
X59428006Y-216786714D01*
X59428006Y-216786714D02*
X59570864Y-216929571D01*
X59570864Y-216929571D02*
X59856578Y-217072428D01*
X59856578Y-217072428D02*
X60856578Y-217072428D01*
X57428006Y-218643857D02*
X57713721Y-218501000D01*
X57713721Y-218501000D02*
X57856578Y-218358142D01*
X57856578Y-218358142D02*
X57999435Y-218072428D01*
X57999435Y-218072428D02*
X57999435Y-217215285D01*
X57999435Y-217215285D02*
X57856578Y-216929571D01*
X57856578Y-216929571D02*
X57713721Y-216786714D01*
X57713721Y-216786714D02*
X57428006Y-216643857D01*
X57428006Y-216643857D02*
X56999435Y-216643857D01*
X56999435Y-216643857D02*
X56713721Y-216786714D01*
X56713721Y-216786714D02*
X56570864Y-216929571D01*
X56570864Y-216929571D02*
X56428006Y-217215285D01*
X56428006Y-217215285D02*
X56428006Y-218072428D01*
X56428006Y-218072428D02*
X56570864Y-218358142D01*
X56570864Y-218358142D02*
X56713721Y-218501000D01*
X56713721Y-218501000D02*
X56999435Y-218643857D01*
X56999435Y-218643857D02*
X57428006Y-218643857D01*
X53856578Y-218643857D02*
X53856578Y-217072428D01*
X53856578Y-217072428D02*
X53999435Y-216786714D01*
X53999435Y-216786714D02*
X54285149Y-216643857D01*
X54285149Y-216643857D02*
X54856578Y-216643857D01*
X54856578Y-216643857D02*
X55142292Y-216786714D01*
X53856578Y-218501000D02*
X54142292Y-218643857D01*
X54142292Y-218643857D02*
X54856578Y-218643857D01*
X54856578Y-218643857D02*
X55142292Y-218501000D01*
X55142292Y-218501000D02*
X55285149Y-218215285D01*
X55285149Y-218215285D02*
X55285149Y-217929571D01*
X55285149Y-217929571D02*
X55142292Y-217643857D01*
X55142292Y-217643857D02*
X54856578Y-217501000D01*
X54856578Y-217501000D02*
X54142292Y-217501000D01*
X54142292Y-217501000D02*
X53856578Y-217358142D01*
X52428006Y-218643857D02*
X52428006Y-216643857D01*
X52428006Y-217215285D02*
X52285149Y-216929571D01*
X52285149Y-216929571D02*
X52142292Y-216786714D01*
X52142292Y-216786714D02*
X51856577Y-216643857D01*
X51856577Y-216643857D02*
X51570863Y-216643857D01*
X49285149Y-218643857D02*
X49285149Y-215643857D01*
X49285149Y-218501000D02*
X49570863Y-218643857D01*
X49570863Y-218643857D02*
X50142291Y-218643857D01*
X50142291Y-218643857D02*
X50428006Y-218501000D01*
X50428006Y-218501000D02*
X50570863Y-218358142D01*
X50570863Y-218358142D02*
X50713720Y-218072428D01*
X50713720Y-218072428D02*
X50713720Y-217215285D01*
X50713720Y-217215285D02*
X50570863Y-216929571D01*
X50570863Y-216929571D02*
X50428006Y-216786714D01*
X50428006Y-216786714D02*
X50142291Y-216643857D01*
X50142291Y-216643857D02*
X49570863Y-216643857D01*
X49570863Y-216643857D02*
X49285149Y-216786714D01*
X45570863Y-218643857D02*
X45570863Y-216643857D01*
X45570863Y-217215285D02*
X45428006Y-216929571D01*
X45428006Y-216929571D02*
X45285149Y-216786714D01*
X45285149Y-216786714D02*
X44999434Y-216643857D01*
X44999434Y-216643857D02*
X44713720Y-216643857D01*
X42570863Y-218501000D02*
X42856577Y-218643857D01*
X42856577Y-218643857D02*
X43428006Y-218643857D01*
X43428006Y-218643857D02*
X43713720Y-218501000D01*
X43713720Y-218501000D02*
X43856577Y-218215285D01*
X43856577Y-218215285D02*
X43856577Y-217072428D01*
X43856577Y-217072428D02*
X43713720Y-216786714D01*
X43713720Y-216786714D02*
X43428006Y-216643857D01*
X43428006Y-216643857D02*
X42856577Y-216643857D01*
X42856577Y-216643857D02*
X42570863Y-216786714D01*
X42570863Y-216786714D02*
X42428006Y-217072428D01*
X42428006Y-217072428D02*
X42428006Y-217358142D01*
X42428006Y-217358142D02*
X43856577Y-217643857D01*
X41428005Y-216643857D02*
X40713719Y-218643857D01*
X40713719Y-218643857D02*
X39999434Y-216643857D01*
X38856577Y-218358142D02*
X38713720Y-218501000D01*
X38713720Y-218501000D02*
X38856577Y-218643857D01*
X38856577Y-218643857D02*
X38999434Y-218501000D01*
X38999434Y-218501000D02*
X38856577Y-218358142D01*
X38856577Y-218358142D02*
X38856577Y-218643857D01*
X35856577Y-218643857D02*
X37570863Y-218643857D01*
X36713720Y-218643857D02*
X36713720Y-215643857D01*
X36713720Y-215643857D02*
X36999434Y-216072428D01*
X36999434Y-216072428D02*
X37285149Y-216358142D01*
X37285149Y-216358142D02*
X37570863Y-216501000D01*
D11*
G04 #@! TO.C,U13*
X115050000Y-107450000D02*
X115050000Y-121650000D01*
X115050000Y-121650000D02*
X129250000Y-121650000D01*
X129250000Y-107450000D02*
X115050000Y-107450000D01*
X129250000Y-121650000D02*
X129250000Y-107450000D01*
G04 #@! TO.C,U15*
X159970000Y-137450000D02*
X159970000Y-151650000D01*
X159970000Y-151650000D02*
X174170000Y-151650000D01*
X174170000Y-137450000D02*
X159970000Y-137450000D01*
X174170000Y-151650000D02*
X174170000Y-137450000D01*
G04 #@! TO.C,U6*
X114995000Y-74950000D02*
X114995000Y-89150000D01*
X114995000Y-89150000D02*
X129195000Y-89150000D01*
X129195000Y-74950000D02*
X114995000Y-74950000D01*
X129195000Y-89150000D02*
X129195000Y-74950000D01*
G04 #@! TO.C,U10*
X54970000Y-117450000D02*
X54970000Y-131650000D01*
X54970000Y-131650000D02*
X69170000Y-131650000D01*
X69170000Y-117450000D02*
X54970000Y-117450000D01*
X69170000Y-131650000D02*
X69170000Y-117450000D01*
G04 #@! TO.C,U19*
X279970000Y-87450000D02*
X279970000Y-101650000D01*
X279970000Y-101650000D02*
X294170000Y-101650000D01*
X294170000Y-87450000D02*
X279970000Y-87450000D01*
X294170000Y-101650000D02*
X294170000Y-87450000D01*
G04 #@! TO.C,SW4*
X337095000Y-41877500D02*
X337095000Y-27677500D01*
X337095000Y-27677500D02*
X322895000Y-27677500D01*
X322895000Y-41877500D02*
X337095000Y-41877500D01*
X322895000Y-27677500D02*
X322895000Y-41877500D01*
G04 #@! TO.C,U12*
X85050000Y-112450000D02*
X85050000Y-126650000D01*
X85050000Y-126650000D02*
X99250000Y-126650000D01*
X99250000Y-112450000D02*
X85050000Y-112450000D01*
X99250000Y-126650000D02*
X99250000Y-112450000D01*
G04 #@! TO.C,U14*
X304970000Y-112450000D02*
X304970000Y-126650000D01*
X304970000Y-126650000D02*
X319170000Y-126650000D01*
X319170000Y-112450000D02*
X304970000Y-112450000D01*
X319170000Y-126650000D02*
X319170000Y-112450000D01*
G04 #@! TO.C,U17*
X250050000Y-47450000D02*
X250050000Y-61650000D01*
X250050000Y-61650000D02*
X264250000Y-61650000D01*
X264250000Y-47450000D02*
X250050000Y-47450000D01*
X264250000Y-61650000D02*
X264250000Y-47450000D01*
G04 #@! TO.C,U16*
X175050000Y-89950000D02*
X175050000Y-104150000D01*
X175050000Y-104150000D02*
X189250000Y-104150000D01*
X189250000Y-89950000D02*
X175050000Y-89950000D01*
X189250000Y-104150000D02*
X189250000Y-89950000D01*
G04 #@! TO.C,U8*
X54995000Y-84950000D02*
X54995000Y-99150000D01*
X54995000Y-99150000D02*
X69195000Y-99150000D01*
X69195000Y-84950000D02*
X54995000Y-84950000D01*
X69195000Y-99150000D02*
X69195000Y-84950000D01*
G04 #@! TO.C,U9*
X144995000Y-79950000D02*
X144995000Y-94150000D01*
X144995000Y-94150000D02*
X159195000Y-94150000D01*
X159195000Y-79950000D02*
X144995000Y-79950000D01*
X159195000Y-94150000D02*
X159195000Y-79950000D01*
G04 #@! TO.C,U21*
X249970000Y-77450000D02*
X249970000Y-91650000D01*
X249970000Y-91650000D02*
X264170000Y-91650000D01*
X264170000Y-77450000D02*
X249970000Y-77450000D01*
X264170000Y-91650000D02*
X264170000Y-77450000D01*
G04 #@! TO.C,SW3*
X314580000Y-41932500D02*
X314580000Y-27732500D01*
X314580000Y-27732500D02*
X300380000Y-27732500D01*
X300380000Y-41932500D02*
X314580000Y-41932500D01*
X300380000Y-27732500D02*
X300380000Y-41932500D01*
G04 #@! TO.C,U11*
X144995000Y-112450000D02*
X144995000Y-126650000D01*
X144995000Y-126650000D02*
X159195000Y-126650000D01*
X159195000Y-112450000D02*
X144995000Y-112450000D01*
X159195000Y-126650000D02*
X159195000Y-112450000D01*
G04 #@! TO.C,U20*
X219970000Y-87450000D02*
X219970000Y-101650000D01*
X219970000Y-101650000D02*
X234170000Y-101650000D01*
X234170000Y-87450000D02*
X219970000Y-87450000D01*
X234170000Y-101650000D02*
X234170000Y-87450000D01*
G04 #@! TO.C,U7*
X84995000Y-79950000D02*
X84995000Y-94150000D01*
X84995000Y-94150000D02*
X99195000Y-94150000D01*
X99195000Y-79950000D02*
X84995000Y-79950000D01*
X99195000Y-94150000D02*
X99195000Y-79950000D01*
G04 #@! TO.C,U18*
X190050000Y-147450000D02*
X190050000Y-161650000D01*
X190050000Y-161650000D02*
X204250000Y-161650000D01*
X204250000Y-147450000D02*
X190050000Y-147450000D01*
X204250000Y-161650000D02*
X204250000Y-147450000D01*
G04 #@! TD*
M02*
