G04 #@! TF.GenerationSoftware,KiCad,Pcbnew,8.0.3*
G04 #@! TF.CreationDate,2024-07-10T18:00:01+09:00*
G04 #@! TF.ProjectId,mainboard_top_plate,6d61696e-626f-4617-9264-5f746f705f70,rev?*
G04 #@! TF.SameCoordinates,Original*
G04 #@! TF.FileFunction,Soldermask,Bot*
G04 #@! TF.FilePolarity,Negative*
%FSLAX46Y46*%
G04 Gerber Fmt 4.6, Leading zero omitted, Abs format (unit mm)*
G04 Created by KiCad (PCBNEW 8.0.3) date 2024-07-10 18:00:01*
%MOMM*%
%LPD*%
G01*
G04 APERTURE LIST*
%ADD10C,0.800000*%
%ADD11C,7.400000*%
%ADD12C,3.700000*%
%ADD13C,2.100000*%
G04 APERTURE END LIST*
D10*
G04 #@! TO.C,H4*
X137225000Y-160000000D03*
X138037779Y-158037779D03*
X138037779Y-161962221D03*
X140000000Y-157225000D03*
D11*
X140000000Y-160000000D03*
D10*
X140000000Y-162775000D03*
X141962221Y-158037779D03*
X141962221Y-161962221D03*
X142775000Y-160000000D03*
G04 #@! TD*
D12*
G04 #@! TO.C,REF\u002A\u002A*
X60000000Y-50000000D03*
G04 #@! TD*
G04 #@! TO.C,REF\u002A\u002A*
X360000000Y-260000000D03*
G04 #@! TD*
D10*
G04 #@! TO.C,H2*
X277225000Y-70000000D03*
X278037779Y-68037779D03*
X278037779Y-71962221D03*
X280000000Y-67225000D03*
D11*
X280000000Y-70000000D03*
D10*
X280000000Y-72775000D03*
X281962221Y-68037779D03*
X281962221Y-71962221D03*
X282775000Y-70000000D03*
G04 #@! TD*
D13*
G04 #@! TO.C,*
X221000000Y-44000000D03*
G04 #@! TD*
D10*
G04 #@! TO.C,H1*
X137225000Y-70000000D03*
X138037779Y-68037779D03*
X138037779Y-71962221D03*
X140000000Y-67225000D03*
D11*
X140000000Y-70000000D03*
D10*
X140000000Y-72775000D03*
X141962221Y-68037779D03*
X141962221Y-71962221D03*
X142775000Y-70000000D03*
G04 #@! TD*
G04 #@! TO.C,H5*
X277225000Y-160000000D03*
X278037779Y-158037779D03*
X278037779Y-161962221D03*
X280000000Y-157225000D03*
D11*
X280000000Y-160000000D03*
D10*
X280000000Y-162775000D03*
X281962221Y-158037779D03*
X281962221Y-161962221D03*
X282775000Y-160000000D03*
G04 #@! TD*
G04 #@! TO.C,H3*
X207225000Y-130000000D03*
X208037779Y-128037779D03*
X208037779Y-131962221D03*
X210000000Y-127225000D03*
D11*
X210000000Y-130000000D03*
D10*
X210000000Y-132775000D03*
X211962221Y-128037779D03*
X211962221Y-131962221D03*
X212775000Y-130000000D03*
G04 #@! TD*
D12*
G04 #@! TO.C,REF\u002A\u002A*
X60000000Y-260000000D03*
G04 #@! TD*
G04 #@! TO.C,REF\u002A\u002A*
X360000000Y-50000000D03*
G04 #@! TD*
M02*
