M48
; DRILL file {KiCad 8.0.3} date 2024-06-18T05:06:32+0900
; FORMAT={-:-/ absolute / inch / decimal}
; #@! TF.CreationDate,2024-06-18T05:06:32+09:00
; #@! TF.GenerationSoftware,Kicad,Pcbnew,8.0.3
; #@! TF.FileFunction,NonPlated,1,4,NPTH
FMAT,2
INCH
; #@! TA.AperFunction,NonPlated,NPTH,ComponentDrill
T1C0.0118
; #@! TA.AperFunction,NonPlated,NPTH,ComponentDrill
T2C0.0197
; #@! TA.AperFunction,NonPlated,NPTH,ComponentDrill
T3C0.0256
; #@! TA.AperFunction,NonPlated,NPTH,ComponentDrill
T4C0.0650
; #@! TA.AperFunction,NonPlated,NPTH,ComponentDrill
T5C0.0669
; #@! TA.AperFunction,NonPlated,NPTH,ComponentDrill
T6C0.0689
; #@! TA.AperFunction,NonPlated,NPTH,ComponentDrill
T7C0.1063
; #@! TA.AperFunction,NonPlated,NPTH,ComponentDrill
T8C0.1181
; #@! TA.AperFunction,NonPlated,NPTH,ComponentDrill
T9C0.1575
%
G90
G05
T3
X8.1539Y-1.063
X8.3815Y-1.063
T5
X12.8022Y-1.4844
X13.2022Y-1.4844
X13.6886Y-1.4823
X14.0886Y-1.4823
T6
X3.1433Y-5.0197
X3.1443Y-3.7402
X3.5433Y-5.0197
X3.5443Y-3.7402
X4.3254Y-3.5433
X4.3276Y-4.8228
X4.7254Y-3.5433
X4.7276Y-4.8228
X5.5065Y-3.3465
X5.5087Y-4.626
X5.9065Y-3.3465
X5.9087Y-4.626
X6.6876Y-3.5433
X6.6876Y-4.8228
X7.0876Y-3.5433
X7.0876Y-4.8228
X7.2772Y-5.8071
X7.6772Y-5.8071
X7.8709Y-3.937
X8.2709Y-3.937
X8.4614Y-6.2008
X8.8614Y-6.2008
X9.6394Y-3.8386
X10.0394Y-3.8386
X10.8205Y-3.4449
X10.8236Y-2.2638
X11.2205Y-3.4449
X11.2236Y-2.2638
X12.0016Y-3.8386
X12.4016Y-3.8386
X12.9858Y-4.8228
X13.3858Y-4.8228
T7
X1.9685Y-1.1811
X1.9685Y-9.0551
X5.315Y-1.1811
X5.315Y-6.2992
X8.2677Y-5.1181
X8.2677Y-9.0551
X11.2205Y-1.1811
X11.2205Y-6.2992
X14.5669Y-1.1811
X14.5669Y-9.0551
T8
X12.9022Y-1.2844
X13.1522Y-1.3844
X13.7886Y-1.2823
X14.0386Y-1.3823
T9
X13.0022Y-1.4844
X13.8886Y-1.4823
T1
G00X12.939Y-1.7362
M15
G01X12.939Y-1.6181
M16
G05
G00X13.065Y-1.6171
M15
G01X12.939Y-1.6171
M16
G05
G00X13.065Y-1.7362
M15
G01X12.939Y-1.7362
M16
G05
G00X13.065Y-1.7362
M15
G01X13.065Y-1.6181
M16
G05
G00X13.8248Y-1.7336
M15
G01X13.8248Y-1.6155
M16
G05
G00X13.9508Y-1.6145
M15
G01X13.8248Y-1.6145
M16
G05
G00X13.9508Y-1.7336
M15
G01X13.8248Y-1.7336
M16
G05
G00X13.9508Y-1.7336
M15
G01X13.9508Y-1.6155
M16
G05
T2
G00X12.9488Y-1.622
M15
G01X12.9488Y-1.7323
M16
G05
G00X13.0541Y-1.7323
M15
G01X13.0541Y-1.622
M16
G05
G00X13.8346Y-1.6194
M15
G01X13.8346Y-1.7296
M16
G05
G00X13.94Y-1.7296
M15
G01X13.94Y-1.6194
M16
G05
T4
G00X12.9783Y-1.7096
M15
G01X12.9783Y-1.6447
M16
G05
G00X13.8642Y-1.707
M15
G01X13.8642Y-1.642
M16
G05
T5
G00X13.002Y-1.7087
M15
G01X13.002Y-1.6457
M16
G05
G00X13.0246Y-1.7087
M15
G01X13.0246Y-1.6457
M16
G05
G00X13.8878Y-1.706
M15
G01X13.8878Y-1.643
M16
G05
G00X13.9104Y-1.706
M15
G01X13.9104Y-1.643
M16
G05
M30
