G04 #@! TF.GenerationSoftware,KiCad,Pcbnew,8.0.3*
G04 #@! TF.CreationDate,2024-07-10T17:58:29+09:00*
G04 #@! TF.ProjectId,mainboard,6d61696e-626f-4617-9264-2e6b69636164,rev?*
G04 #@! TF.SameCoordinates,Original*
G04 #@! TF.FileFunction,Paste,Top*
G04 #@! TF.FilePolarity,Positive*
%FSLAX46Y46*%
G04 Gerber Fmt 4.6, Leading zero omitted, Abs format (unit mm)*
G04 Created by KiCad (PCBNEW 8.0.3) date 2024-07-10 17:58:29*
%MOMM*%
%LPD*%
G01*
G04 APERTURE LIST*
G04 Aperture macros list*
%AMRoundRect*
0 Rectangle with rounded corners*
0 $1 Rounding radius*
0 $2 $3 $4 $5 $6 $7 $8 $9 X,Y pos of 4 corners*
0 Add a 4 corners polygon primitive as box body*
4,1,4,$2,$3,$4,$5,$6,$7,$8,$9,$2,$3,0*
0 Add four circle primitives for the rounded corners*
1,1,$1+$1,$2,$3*
1,1,$1+$1,$4,$5*
1,1,$1+$1,$6,$7*
1,1,$1+$1,$8,$9*
0 Add four rect primitives between the rounded corners*
20,1,$1+$1,$2,$3,$4,$5,0*
20,1,$1+$1,$4,$5,$6,$7,0*
20,1,$1+$1,$6,$7,$8,$9,0*
20,1,$1+$1,$8,$9,$2,$3,0*%
G04 Aperture macros list end*
%ADD10RoundRect,0.225000X-0.225000X-0.250000X0.225000X-0.250000X0.225000X0.250000X-0.225000X0.250000X0*%
%ADD11RoundRect,0.135000X0.135000X0.185000X-0.135000X0.185000X-0.135000X-0.185000X0.135000X-0.185000X0*%
%ADD12RoundRect,0.200000X-0.200000X-0.275000X0.200000X-0.275000X0.200000X0.275000X-0.200000X0.275000X0*%
%ADD13RoundRect,0.150000X0.150000X-0.825000X0.150000X0.825000X-0.150000X0.825000X-0.150000X-0.825000X0*%
%ADD14R,1.400000X1.200000*%
%ADD15RoundRect,0.135000X-0.135000X-0.185000X0.135000X-0.185000X0.135000X0.185000X-0.135000X0.185000X0*%
%ADD16RoundRect,0.140000X-0.140000X-0.170000X0.140000X-0.170000X0.140000X0.170000X-0.140000X0.170000X0*%
%ADD17RoundRect,0.150000X0.500000X0.150000X-0.500000X0.150000X-0.500000X-0.150000X0.500000X-0.150000X0*%
%ADD18RoundRect,0.375000X-0.375000X0.625000X-0.375000X-0.625000X0.375000X-0.625000X0.375000X0.625000X0*%
%ADD19RoundRect,0.500000X-1.400000X0.500000X-1.400000X-0.500000X1.400000X-0.500000X1.400000X0.500000X0*%
%ADD20RoundRect,0.135000X-0.185000X0.135000X-0.185000X-0.135000X0.185000X-0.135000X0.185000X0.135000X0*%
%ADD21R,0.600000X1.450000*%
%ADD22R,0.300000X1.450000*%
%ADD23RoundRect,0.140000X0.170000X-0.140000X0.170000X0.140000X-0.170000X0.140000X-0.170000X-0.140000X0*%
%ADD24RoundRect,0.250000X-0.475000X0.250000X-0.475000X-0.250000X0.475000X-0.250000X0.475000X0.250000X0*%
%ADD25RoundRect,0.135000X0.185000X-0.135000X0.185000X0.135000X-0.185000X0.135000X-0.185000X-0.135000X0*%
%ADD26RoundRect,0.150000X-0.150000X0.512500X-0.150000X-0.512500X0.150000X-0.512500X0.150000X0.512500X0*%
%ADD27RoundRect,0.200000X-0.275000X0.200000X-0.275000X-0.200000X0.275000X-0.200000X0.275000X0.200000X0*%
%ADD28RoundRect,0.250000X-0.292217X-0.292217X0.292217X-0.292217X0.292217X0.292217X-0.292217X0.292217X0*%
%ADD29RoundRect,0.050000X-0.387500X-0.050000X0.387500X-0.050000X0.387500X0.050000X-0.387500X0.050000X0*%
%ADD30RoundRect,0.050000X-0.050000X-0.387500X0.050000X-0.387500X0.050000X0.387500X-0.050000X0.387500X0*%
%ADD31R,2.600000X2.600000*%
%ADD32RoundRect,0.150000X-0.650000X-0.150000X0.650000X-0.150000X0.650000X0.150000X-0.650000X0.150000X0*%
%ADD33RoundRect,0.250000X-0.250000X-0.475000X0.250000X-0.475000X0.250000X0.475000X-0.250000X0.475000X0*%
%ADD34RoundRect,0.243750X-0.243750X-0.456250X0.243750X-0.456250X0.243750X0.456250X-0.243750X0.456250X0*%
%ADD35RoundRect,0.140000X-0.170000X0.140000X-0.170000X-0.140000X0.170000X-0.140000X0.170000X0.140000X0*%
%ADD36RoundRect,0.150000X0.150000X0.625000X-0.150000X0.625000X-0.150000X-0.625000X0.150000X-0.625000X0*%
%ADD37RoundRect,0.250000X0.350000X0.650000X-0.350000X0.650000X-0.350000X-0.650000X0.350000X-0.650000X0*%
G04 APERTURE END LIST*
D10*
G04 #@! TO.C,C50*
X253025000Y-113400000D03*
X254575000Y-113400000D03*
G04 #@! TD*
D11*
G04 #@! TO.C,R32*
X204650000Y-69250000D03*
X203630000Y-69250000D03*
G04 #@! TD*
D12*
G04 #@! TO.C,R26*
X222950000Y-174900000D03*
X224600000Y-174900000D03*
G04 #@! TD*
D13*
G04 #@! TO.C,U22*
X208080000Y-92000000D03*
X209350000Y-92000000D03*
X210620000Y-92000000D03*
X211890000Y-92000000D03*
X213160000Y-92000000D03*
X214430000Y-92000000D03*
X215700000Y-92000000D03*
X216970000Y-92000000D03*
X216970000Y-87050000D03*
X215700000Y-87050000D03*
X214430000Y-87050000D03*
X213160000Y-87050000D03*
X211890000Y-87050000D03*
X210620000Y-87050000D03*
X209350000Y-87050000D03*
X208080000Y-87050000D03*
G04 #@! TD*
D10*
G04 #@! TO.C,C47*
X309225000Y-122400000D03*
X310775000Y-122400000D03*
G04 #@! TD*
D12*
G04 #@! TO.C,R29*
X282950000Y-112900000D03*
X284600000Y-112900000D03*
G04 #@! TD*
D10*
G04 #@! TO.C,C24*
X119025000Y-93400000D03*
X120575000Y-93400000D03*
G04 #@! TD*
D14*
G04 #@! TO.C,Y1*
X208300000Y-81400000D03*
X210500000Y-81400000D03*
X210500000Y-79700000D03*
X208300000Y-79700000D03*
G04 #@! TD*
D15*
G04 #@! TO.C,R7*
X215930000Y-46900000D03*
X216950000Y-46900000D03*
G04 #@! TD*
D10*
G04 #@! TO.C,C26*
X91025000Y-111400000D03*
X92575000Y-111400000D03*
G04 #@! TD*
D16*
G04 #@! TO.C,C10*
X216720000Y-72300000D03*
X217680000Y-72300000D03*
G04 #@! TD*
D10*
G04 #@! TO.C,C42*
X207025000Y-107400000D03*
X208575000Y-107400000D03*
G04 #@! TD*
D15*
G04 #@! TO.C,R3*
X207000000Y-50450000D03*
X208020000Y-50450000D03*
G04 #@! TD*
D10*
G04 #@! TO.C,C28*
X179025000Y-93400000D03*
X180575000Y-93400000D03*
G04 #@! TD*
D17*
G04 #@! TO.C,K12*
X221050000Y-178950000D03*
X221050000Y-177050000D03*
X218950000Y-178000000D03*
G04 #@! TD*
D18*
G04 #@! TO.C,U1*
X221330000Y-52076000D03*
X219030000Y-52076000D03*
D19*
X219030000Y-58376000D03*
D18*
X216730000Y-52076000D03*
G04 #@! TD*
D12*
G04 #@! TO.C,R14*
X148950000Y-92900000D03*
X150600000Y-92900000D03*
G04 #@! TD*
D10*
G04 #@! TO.C,C51*
X279225000Y-120400000D03*
X280775000Y-120400000D03*
G04 #@! TD*
D20*
G04 #@! TO.C,R2*
X212300000Y-49590000D03*
X212300000Y-50610000D03*
G04 #@! TD*
D10*
G04 #@! TO.C,C52*
X283025000Y-111400000D03*
X284575000Y-111400000D03*
G04 #@! TD*
D16*
G04 #@! TO.C,C11*
X218190000Y-65650000D03*
X219150000Y-65650000D03*
G04 #@! TD*
D17*
G04 #@! TO.C,K14*
X251050000Y-118950000D03*
X251050000Y-117050000D03*
X248950000Y-118000000D03*
G04 #@! TD*
D21*
G04 #@! TO.C,J1*
X213244000Y-47245000D03*
X212444000Y-47245000D03*
D22*
X211244000Y-47245000D03*
X210244000Y-47245000D03*
X209744000Y-47245000D03*
X208744000Y-47245000D03*
D21*
X207544000Y-47245000D03*
X206744000Y-47245000D03*
X206744000Y-47245000D03*
X207544000Y-47245000D03*
D22*
X208244000Y-47245000D03*
X209244000Y-47245000D03*
X210744000Y-47245000D03*
X211744000Y-47245000D03*
D21*
X212444000Y-47245000D03*
X213244000Y-47245000D03*
G04 #@! TD*
D23*
G04 #@! TO.C,C15*
X204100000Y-56880000D03*
X204100000Y-55920000D03*
G04 #@! TD*
D24*
G04 #@! TO.C,C20*
X93200000Y-85250000D03*
X93200000Y-87150000D03*
G04 #@! TD*
D10*
G04 #@! TO.C,C36*
X149025000Y-123400000D03*
X150575000Y-123400000D03*
G04 #@! TD*
D16*
G04 #@! TO.C,C3*
X215990000Y-45850000D03*
X216950000Y-45850000D03*
G04 #@! TD*
D10*
G04 #@! TO.C,C30*
X91025000Y-141400000D03*
X92575000Y-141400000D03*
G04 #@! TD*
D16*
G04 #@! TO.C,C12*
X218190000Y-66600000D03*
X219150000Y-66600000D03*
G04 #@! TD*
D10*
G04 #@! TO.C,C37*
X335225000Y-146400000D03*
X336775000Y-146400000D03*
G04 #@! TD*
G04 #@! TO.C,C49*
X249225000Y-122400000D03*
X250775000Y-122400000D03*
G04 #@! TD*
D23*
G04 #@! TO.C,C6*
X209050000Y-62600000D03*
X209050000Y-61640000D03*
G04 #@! TD*
D10*
G04 #@! TO.C,C39*
X189225000Y-172400000D03*
X190775000Y-172400000D03*
G04 #@! TD*
D25*
G04 #@! TO.C,R30*
X203650000Y-71500000D03*
X203650000Y-70480000D03*
G04 #@! TD*
D23*
G04 #@! TO.C,C4*
X208050000Y-62600000D03*
X208050000Y-61640000D03*
G04 #@! TD*
D12*
G04 #@! TO.C,R16*
X90950000Y-112900000D03*
X92600000Y-112900000D03*
G04 #@! TD*
G04 #@! TO.C,R23*
X192950000Y-164900000D03*
X194600000Y-164900000D03*
G04 #@! TD*
D16*
G04 #@! TO.C,C18*
X206540000Y-77900000D03*
X207500000Y-77900000D03*
G04 #@! TD*
D17*
G04 #@! TO.C,K5*
X177050000Y-130950000D03*
X177050000Y-129050000D03*
X174950000Y-130000000D03*
G04 #@! TD*
G04 #@! TO.C,K8*
X337050000Y-142950000D03*
X337050000Y-141050000D03*
X334950000Y-142000000D03*
G04 #@! TD*
G04 #@! TO.C,K7*
X147050000Y-128950000D03*
X147050000Y-127050000D03*
X144950000Y-128000000D03*
G04 #@! TD*
D10*
G04 #@! TO.C,C44*
X283025000Y-85400000D03*
X284575000Y-85400000D03*
G04 #@! TD*
D17*
G04 #@! TO.C,K13*
X311050000Y-118950000D03*
X311050000Y-117050000D03*
X308950000Y-118000000D03*
G04 #@! TD*
D23*
G04 #@! TO.C,C8*
X204700000Y-71480000D03*
X204700000Y-70520000D03*
G04 #@! TD*
G04 #@! TO.C,C14*
X214500000Y-65680000D03*
X214500000Y-64720000D03*
G04 #@! TD*
D12*
G04 #@! TO.C,R22*
X338950000Y-138900000D03*
X340600000Y-138900000D03*
G04 #@! TD*
D16*
G04 #@! TO.C,C19*
X209740000Y-77900000D03*
X210700000Y-77900000D03*
G04 #@! TD*
D26*
G04 #@! TO.C,U2*
X211150000Y-52096000D03*
X210200000Y-52096000D03*
X209250000Y-52096000D03*
X209250000Y-54371000D03*
X210200000Y-54371000D03*
X211150000Y-54371000D03*
G04 #@! TD*
D16*
G04 #@! TO.C,C13*
X212540000Y-64750000D03*
X213500000Y-64750000D03*
G04 #@! TD*
D11*
G04 #@! TO.C,R9*
X198220000Y-56700000D03*
X197200000Y-56700000D03*
G04 #@! TD*
D13*
G04 #@! TO.C,U23*
X224190000Y-91975000D03*
X225460000Y-91975000D03*
X226730000Y-91975000D03*
X228000000Y-91975000D03*
X229270000Y-91975000D03*
X230540000Y-91975000D03*
X231810000Y-91975000D03*
X233080000Y-91975000D03*
X233080000Y-87025000D03*
X231810000Y-87025000D03*
X230540000Y-87025000D03*
X229270000Y-87025000D03*
X228000000Y-87025000D03*
X226730000Y-87025000D03*
X225460000Y-87025000D03*
X224190000Y-87025000D03*
G04 #@! TD*
D17*
G04 #@! TO.C,K1*
X117050000Y-98950000D03*
X117050000Y-97050000D03*
X114950000Y-98000000D03*
G04 #@! TD*
D10*
G04 #@! TO.C,C33*
X115225000Y-134400000D03*
X116775000Y-134400000D03*
G04 #@! TD*
D27*
G04 #@! TO.C,R11*
X212000000Y-61800000D03*
X212000000Y-63450000D03*
G04 #@! TD*
D12*
G04 #@! TO.C,R27*
X312950000Y-114900000D03*
X314600000Y-114900000D03*
G04 #@! TD*
D28*
G04 #@! TO.C,U5*
X209442500Y-69636500D03*
X209442500Y-70911500D03*
X210717500Y-69636500D03*
X210717500Y-70911500D03*
D29*
X206642500Y-67674000D03*
X206642500Y-68074000D03*
X206642500Y-68474000D03*
X206642500Y-68874000D03*
X206642500Y-69274000D03*
X206642500Y-69674000D03*
X206642500Y-70074000D03*
X206642500Y-70474000D03*
X206642500Y-70874000D03*
X206642500Y-71274000D03*
X206642500Y-71674000D03*
X206642500Y-72074000D03*
X206642500Y-72474000D03*
X206642500Y-72874000D03*
D30*
X207480000Y-73711500D03*
X207880000Y-73711500D03*
X208280000Y-73711500D03*
X208680000Y-73711500D03*
X209080000Y-73711500D03*
X209480000Y-73711500D03*
X209880000Y-73711500D03*
X210280000Y-73711500D03*
X210680000Y-73711500D03*
X211080000Y-73711500D03*
X211480000Y-73711500D03*
X211880000Y-73711500D03*
X212280000Y-73711500D03*
X212680000Y-73711500D03*
D29*
X213517500Y-72874000D03*
X213517500Y-72474000D03*
X213517500Y-72074000D03*
X213517500Y-71674000D03*
X213517500Y-71274000D03*
X213517500Y-70874000D03*
X213517500Y-70474000D03*
X213517500Y-70074000D03*
X213517500Y-69674000D03*
X213517500Y-69274000D03*
X213517500Y-68874000D03*
X213517500Y-68474000D03*
X213517500Y-68074000D03*
X213517500Y-67674000D03*
D30*
X212680000Y-66836500D03*
X212280000Y-66836500D03*
X211880000Y-66836500D03*
X211480000Y-66836500D03*
X211080000Y-66836500D03*
X210680000Y-66836500D03*
X210280000Y-66836500D03*
X209880000Y-66836500D03*
X209480000Y-66836500D03*
X209080000Y-66836500D03*
X208680000Y-66836500D03*
X208280000Y-66836500D03*
X207880000Y-66836500D03*
X207480000Y-66836500D03*
G04 #@! TD*
D15*
G04 #@! TO.C,R8*
X223600000Y-46500000D03*
X224620000Y-46500000D03*
G04 #@! TD*
D17*
G04 #@! TO.C,K4*
X89050000Y-146950000D03*
X89050000Y-145050000D03*
X86950000Y-146000000D03*
G04 #@! TD*
D12*
G04 #@! TO.C,R25*
X282950000Y-86900000D03*
X284600000Y-86900000D03*
G04 #@! TD*
D31*
G04 #@! TO.C,SW3*
X109685000Y-60920000D03*
X123585000Y-63460000D03*
G04 #@! TD*
D15*
G04 #@! TO.C,R1*
X217290000Y-70800000D03*
X218310000Y-70800000D03*
G04 #@! TD*
D17*
G04 #@! TO.C,K6*
X117050000Y-130950000D03*
X117050000Y-129050000D03*
X114950000Y-130000000D03*
G04 #@! TD*
D10*
G04 #@! TO.C,C40*
X193025000Y-163400000D03*
X194575000Y-163400000D03*
G04 #@! TD*
D32*
G04 #@! TO.C,U3*
X197100000Y-58390000D03*
X197100000Y-59660000D03*
X197100000Y-60930000D03*
X197100000Y-62200000D03*
X204300000Y-62200000D03*
X204300000Y-60930000D03*
X204300000Y-59660000D03*
X204300000Y-58390000D03*
G04 #@! TD*
D12*
G04 #@! TO.C,R20*
X118950000Y-126900000D03*
X120600000Y-126900000D03*
G04 #@! TD*
D10*
G04 #@! TO.C,C21*
X145225000Y-100400000D03*
X146775000Y-100400000D03*
G04 #@! TD*
D31*
G04 #@! TO.C,SW4*
X81685000Y-60920000D03*
X95585000Y-63460000D03*
G04 #@! TD*
D12*
G04 #@! TO.C,R24*
X206950000Y-108900000D03*
X208600000Y-108900000D03*
G04 #@! TD*
G04 #@! TO.C,R15*
X118950000Y-94900000D03*
X120600000Y-94900000D03*
G04 #@! TD*
D17*
G04 #@! TO.C,K10*
X205050000Y-112950000D03*
X205050000Y-111050000D03*
X202950000Y-112000000D03*
G04 #@! TD*
D12*
G04 #@! TO.C,R18*
X90950000Y-142900000D03*
X92600000Y-142900000D03*
G04 #@! TD*
D10*
G04 #@! TO.C,C29*
X87225000Y-150400000D03*
X88775000Y-150400000D03*
G04 #@! TD*
G04 #@! TO.C,C46*
X223025000Y-173400000D03*
X224575000Y-173400000D03*
G04 #@! TD*
D20*
G04 #@! TO.C,R13*
X208718000Y-75521000D03*
X208718000Y-76541000D03*
G04 #@! TD*
D10*
G04 #@! TO.C,C38*
X339025000Y-137400000D03*
X340575000Y-137400000D03*
G04 #@! TD*
D17*
G04 #@! TO.C,K2*
X89050000Y-116950000D03*
X89050000Y-115050000D03*
X86950000Y-116000000D03*
G04 #@! TD*
D33*
G04 #@! TO.C,C1*
X216200000Y-49550000D03*
X218100000Y-49550000D03*
G04 #@! TD*
G04 #@! TO.C,C2*
X219035000Y-61297000D03*
X220935000Y-61297000D03*
G04 #@! TD*
D34*
G04 #@! TO.C,D1*
X220345000Y-46500000D03*
X222220000Y-46500000D03*
G04 #@! TD*
D17*
G04 #@! TO.C,K15*
X281050000Y-116950000D03*
X281050000Y-115050000D03*
X278950000Y-116000000D03*
G04 #@! TD*
G04 #@! TO.C,K9*
X191050000Y-168950000D03*
X191050000Y-167050000D03*
X188950000Y-168000000D03*
G04 #@! TD*
D10*
G04 #@! TO.C,C41*
X203225000Y-116400000D03*
X204775000Y-116400000D03*
G04 #@! TD*
D12*
G04 #@! TO.C,R28*
X252950000Y-114900000D03*
X254600000Y-114900000D03*
G04 #@! TD*
D10*
G04 #@! TO.C,C27*
X175225000Y-102400000D03*
X176775000Y-102400000D03*
G04 #@! TD*
G04 #@! TO.C,C48*
X313025000Y-113400000D03*
X314575000Y-113400000D03*
G04 #@! TD*
D17*
G04 #@! TO.C,K3*
X177050000Y-98950000D03*
X177050000Y-97050000D03*
X174950000Y-98000000D03*
G04 #@! TD*
D27*
G04 #@! TO.C,R10*
X210290000Y-61800000D03*
X210290000Y-63450000D03*
G04 #@! TD*
D17*
G04 #@! TO.C,K0*
X147050000Y-96950000D03*
X147050000Y-95050000D03*
X144950000Y-96000000D03*
G04 #@! TD*
D12*
G04 #@! TO.C,R17*
X178950000Y-94900000D03*
X180600000Y-94900000D03*
G04 #@! TD*
G04 #@! TO.C,R21*
X148950000Y-124900000D03*
X150600000Y-124900000D03*
G04 #@! TD*
D23*
G04 #@! TO.C,C7*
X205300000Y-67480000D03*
X205300000Y-66520000D03*
G04 #@! TD*
D10*
G04 #@! TO.C,C32*
X179025000Y-125400000D03*
X180575000Y-125400000D03*
G04 #@! TD*
D11*
G04 #@! TO.C,R5*
X195000000Y-59750000D03*
X193980000Y-59750000D03*
G04 #@! TD*
D10*
G04 #@! TO.C,C23*
X115225000Y-102400000D03*
X116775000Y-102400000D03*
G04 #@! TD*
G04 #@! TO.C,C34*
X119025000Y-125400000D03*
X120575000Y-125400000D03*
G04 #@! TD*
D12*
G04 #@! TO.C,R19*
X178950000Y-126900000D03*
X180600000Y-126900000D03*
G04 #@! TD*
D10*
G04 #@! TO.C,C31*
X175225000Y-134400000D03*
X176775000Y-134400000D03*
G04 #@! TD*
G04 #@! TO.C,C35*
X145225000Y-132400000D03*
X146775000Y-132400000D03*
G04 #@! TD*
D35*
G04 #@! TO.C,C9*
X209734000Y-75577000D03*
X209734000Y-76537000D03*
G04 #@! TD*
D10*
G04 #@! TO.C,C43*
X279225000Y-94400000D03*
X280775000Y-94400000D03*
G04 #@! TD*
D35*
G04 #@! TO.C,C5*
X210750000Y-75577000D03*
X210750000Y-76537000D03*
G04 #@! TD*
D10*
G04 #@! TO.C,C22*
X149025000Y-91400000D03*
X150575000Y-91400000D03*
G04 #@! TD*
G04 #@! TO.C,C45*
X219225000Y-182400000D03*
X220775000Y-182400000D03*
G04 #@! TD*
G04 #@! TO.C,C25*
X87225000Y-120400000D03*
X88775000Y-120400000D03*
G04 #@! TD*
D17*
G04 #@! TO.C,K11*
X281050000Y-90950000D03*
X281050000Y-89050000D03*
X278950000Y-90000000D03*
G04 #@! TD*
D36*
G04 #@! TO.C,J2*
X185600000Y-45200000D03*
X184600000Y-45200000D03*
X183600000Y-45200000D03*
D37*
X186900000Y-41325000D03*
X182300000Y-41325000D03*
G04 #@! TD*
M02*
