G04 #@! TF.GenerationSoftware,KiCad,Pcbnew,8.0.3*
G04 #@! TF.CreationDate,2024-06-18T02:02:28+09:00*
G04 #@! TF.ProjectId,mainboard,6d61696e-626f-4617-9264-2e6b69636164,rev?*
G04 #@! TF.SameCoordinates,Original*
G04 #@! TF.FileFunction,Legend,Bot*
G04 #@! TF.FilePolarity,Positive*
%FSLAX46Y46*%
G04 Gerber Fmt 4.6, Leading zero omitted, Abs format (unit mm)*
G04 Created by KiCad (PCBNEW 8.0.3) date 2024-06-18 02:02:28*
%MOMM*%
%LPD*%
G01*
G04 APERTURE LIST*
%ADD10C,0.750000*%
%ADD11C,0.120000*%
G04 APERTURE END LIST*
D10*
G36*
X96809120Y-223691688D02*
G01*
X96813917Y-223853129D01*
X96828309Y-224003327D01*
X96859789Y-224175264D01*
X96906261Y-224329634D01*
X96967724Y-224466438D01*
X97061267Y-224607414D01*
X97116133Y-224668415D01*
X97240820Y-224773250D01*
X97384621Y-224856395D01*
X97547536Y-224917849D01*
X97697899Y-224952493D01*
X97861536Y-224972074D01*
X98002002Y-224976894D01*
X98214921Y-224965598D01*
X98406898Y-224931711D01*
X98577931Y-224875232D01*
X98728022Y-224796162D01*
X98857169Y-224694500D01*
X98965374Y-224570247D01*
X99052636Y-224423402D01*
X99118955Y-224253966D01*
X99164332Y-224061938D01*
X99188765Y-223847319D01*
X99193419Y-223691688D01*
X99193419Y-221834954D01*
X98810202Y-221834954D01*
X98810202Y-223721730D01*
X98805336Y-223869088D01*
X98786652Y-224028113D01*
X98747141Y-224189094D01*
X98688557Y-224323637D01*
X98610900Y-224431744D01*
X98497876Y-224526632D01*
X98358841Y-224594410D01*
X98215847Y-224631476D01*
X98052938Y-224647785D01*
X98002735Y-224648632D01*
X97836530Y-224638464D01*
X97689259Y-224607960D01*
X97544133Y-224548196D01*
X97423736Y-224461872D01*
X97397501Y-224436140D01*
X97308063Y-224312172D01*
X97250766Y-224175224D01*
X97213034Y-224011699D01*
X97196264Y-223850381D01*
X97193070Y-223731988D01*
X97193070Y-221834954D01*
X96809120Y-221834954D01*
X96809120Y-223691688D01*
G37*
G36*
X94625589Y-222726685D02*
G01*
X94668740Y-222703881D01*
X94817063Y-222635655D01*
X94961179Y-222585451D01*
X95120730Y-222550143D01*
X95274787Y-222538374D01*
X95328376Y-222539725D01*
X95482653Y-222559989D01*
X95627192Y-222604571D01*
X95761994Y-222673470D01*
X95887059Y-222766687D01*
X96002386Y-222884221D01*
X96087244Y-222997061D01*
X96170088Y-223145645D01*
X96232221Y-223308602D01*
X96268178Y-223455380D01*
X96289752Y-223612141D01*
X96296943Y-223778883D01*
X96293130Y-223914243D01*
X96277642Y-224073107D01*
X96250240Y-224220486D01*
X96201631Y-224382182D01*
X96135866Y-224527339D01*
X96052944Y-224655959D01*
X95972387Y-224748416D01*
X95845903Y-224851529D01*
X95703430Y-224923927D01*
X95544969Y-224965611D01*
X95396420Y-224976894D01*
X95349702Y-224975692D01*
X95184660Y-224952551D01*
X95041297Y-224909274D01*
X94896182Y-224844359D01*
X94749316Y-224757805D01*
X94625589Y-224669148D01*
X94625589Y-224930000D01*
X94262889Y-224930000D01*
X94262889Y-223007320D01*
X94625589Y-223007320D01*
X94625589Y-224374591D01*
X94704941Y-224438820D01*
X94846618Y-224530612D01*
X94991870Y-224596179D01*
X95140699Y-224635518D01*
X95293105Y-224648632D01*
X95331783Y-224647780D01*
X95506758Y-224617952D01*
X95651036Y-224545512D01*
X95764616Y-224430462D01*
X95847498Y-224272800D01*
X95891703Y-224115990D01*
X95916260Y-223931909D01*
X95921786Y-223775952D01*
X95920105Y-223696601D01*
X95906658Y-223548137D01*
X95873975Y-223392185D01*
X95814212Y-223236710D01*
X95730544Y-223105505D01*
X95639367Y-223012430D01*
X95501017Y-222926353D01*
X95358089Y-222881565D01*
X95196385Y-222866636D01*
X95078160Y-222873368D01*
X94920696Y-222901807D01*
X94775570Y-222945771D01*
X94625589Y-223007320D01*
X94262889Y-223007320D01*
X94262889Y-221647376D01*
X94625589Y-221647376D01*
X94625589Y-222726685D01*
G37*
G36*
X92735095Y-222539659D02*
G01*
X92907936Y-222558936D01*
X93066609Y-222601345D01*
X93211114Y-222666887D01*
X93341451Y-222755562D01*
X93457620Y-222867369D01*
X93541211Y-222975922D01*
X93622819Y-223121346D01*
X93684024Y-223283307D01*
X93719444Y-223430908D01*
X93740696Y-223589994D01*
X93747780Y-223760565D01*
X93743281Y-223897894D01*
X93725002Y-224059091D01*
X93692663Y-224208660D01*
X93635295Y-224372794D01*
X93557680Y-224520184D01*
X93459818Y-224650830D01*
X93403859Y-224709101D01*
X93280966Y-224808449D01*
X93143442Y-224884870D01*
X92991287Y-224938365D01*
X92824499Y-224968934D01*
X92674333Y-224976894D01*
X92613311Y-224975629D01*
X92439860Y-224956653D01*
X92280835Y-224914904D01*
X92136236Y-224850384D01*
X92006062Y-224763092D01*
X91890314Y-224653028D01*
X91806933Y-224545845D01*
X91725532Y-224401452D01*
X91664481Y-224239851D01*
X91629150Y-224092039D01*
X91607952Y-223932277D01*
X91600886Y-223760565D01*
X91976043Y-223760565D01*
X91977640Y-223839315D01*
X91990417Y-223986267D01*
X92021472Y-224139935D01*
X92078258Y-224292114D01*
X92157759Y-224419288D01*
X92231064Y-224497229D01*
X92361403Y-224583905D01*
X92516201Y-224634298D01*
X92674333Y-224648632D01*
X92794770Y-224640569D01*
X92938522Y-224604734D01*
X93077252Y-224530152D01*
X93191639Y-224419288D01*
X93234058Y-224358826D01*
X93301927Y-224219150D01*
X93342754Y-224076422D01*
X93366261Y-223914549D01*
X93372623Y-223760565D01*
X93371033Y-223680767D01*
X93358307Y-223532029D01*
X93327377Y-223376798D01*
X93270820Y-223223521D01*
X93191639Y-223095980D01*
X93118086Y-223018039D01*
X92987470Y-222931363D01*
X92832511Y-222880970D01*
X92674333Y-222866636D01*
X92549541Y-222874493D01*
X92402245Y-222909412D01*
X92248812Y-222992345D01*
X92129476Y-223118926D01*
X92058556Y-223251619D01*
X92009457Y-223412247D01*
X91982180Y-223600810D01*
X91976043Y-223760565D01*
X91600886Y-223760565D01*
X91605431Y-223622365D01*
X91623896Y-223460210D01*
X91656565Y-223309825D01*
X91714516Y-223144901D01*
X91792921Y-222996927D01*
X91891779Y-222865903D01*
X91947962Y-222807370D01*
X92070991Y-222707576D01*
X92208240Y-222630811D01*
X92359709Y-222577076D01*
X92525397Y-222546370D01*
X92674333Y-222538374D01*
X92735095Y-222539659D01*
G37*
G36*
X89160900Y-224930000D02*
G01*
X89523600Y-224930000D01*
X89523600Y-223618415D01*
X89527799Y-223458326D01*
X89543312Y-223298903D01*
X89575037Y-223152769D01*
X89643035Y-223014647D01*
X89765592Y-222918816D01*
X89909153Y-222875887D01*
X90036510Y-222866636D01*
X90200870Y-222885412D01*
X90348668Y-222932646D01*
X90500182Y-223008631D01*
X90633009Y-223096644D01*
X90723077Y-223167055D01*
X90723077Y-224930000D01*
X91085778Y-224930000D01*
X91085778Y-222585268D01*
X90723077Y-222585268D01*
X90723077Y-222870300D01*
X90595118Y-222774676D01*
X90467695Y-222695260D01*
X90315497Y-222621355D01*
X90164071Y-222570788D01*
X90013418Y-222543560D01*
X89913412Y-222538374D01*
X89763296Y-222549173D01*
X89611140Y-222587962D01*
X89479684Y-222654960D01*
X89356538Y-222764054D01*
X89270946Y-222889122D01*
X89209809Y-223039377D01*
X89176375Y-223191512D01*
X89161664Y-223362931D01*
X89160900Y-223415450D01*
X89160900Y-224930000D01*
G37*
G36*
X87703872Y-222539673D02*
G01*
X87856689Y-222559165D01*
X87999665Y-222602047D01*
X88132801Y-222668318D01*
X88256097Y-222757980D01*
X88369553Y-222871032D01*
X88452933Y-222979979D01*
X88534335Y-223123892D01*
X88595386Y-223282178D01*
X88630716Y-223425064D01*
X88651915Y-223577931D01*
X88658981Y-223740781D01*
X88658065Y-223806916D01*
X88647761Y-223964288D01*
X88620283Y-224138116D01*
X88576320Y-224295561D01*
X88515870Y-224436623D01*
X88424508Y-224580488D01*
X88346623Y-224667668D01*
X88222858Y-224764895D01*
X88081913Y-224833161D01*
X87923788Y-224872466D01*
X87774577Y-224883105D01*
X87698362Y-224880419D01*
X87547786Y-224858936D01*
X87399684Y-224815968D01*
X87254054Y-224751516D01*
X87110897Y-224665581D01*
X86993489Y-224577557D01*
X86993489Y-224798841D01*
X86995015Y-224861202D01*
X87014009Y-225011251D01*
X87068276Y-225165582D01*
X87167145Y-225292700D01*
X87265056Y-225359699D01*
X87402576Y-225412191D01*
X87549145Y-225438512D01*
X87696175Y-225445840D01*
X87784412Y-225443642D01*
X87939432Y-225429217D01*
X88095223Y-225401327D01*
X88251786Y-225359974D01*
X88409120Y-225305157D01*
X88425973Y-225305157D01*
X88425973Y-225678115D01*
X88337794Y-225700612D01*
X88183149Y-225732764D01*
X88028084Y-225755730D01*
X87872598Y-225769510D01*
X87716692Y-225774103D01*
X87585196Y-225769658D01*
X87403858Y-225746321D01*
X87241609Y-225702982D01*
X87098448Y-225639641D01*
X86974375Y-225556296D01*
X86869390Y-225452949D01*
X86783493Y-225329600D01*
X86716685Y-225186248D01*
X86668964Y-225022893D01*
X86640332Y-224839535D01*
X86630788Y-224636175D01*
X86630788Y-223008785D01*
X86993489Y-223008785D01*
X86993489Y-224284466D01*
X87079321Y-224347835D01*
X87207082Y-224427047D01*
X87354639Y-224495434D01*
X87500583Y-224537944D01*
X87665401Y-224554842D01*
X87703448Y-224554035D01*
X87875568Y-224525785D01*
X88017491Y-224457178D01*
X88129218Y-224348213D01*
X88210748Y-224198891D01*
X88254231Y-224050376D01*
X88278388Y-223876032D01*
X88283824Y-223728325D01*
X88283088Y-223677145D01*
X88268928Y-223509874D01*
X88236746Y-223361045D01*
X88177899Y-223213537D01*
X88095512Y-223090118D01*
X88005583Y-223003039D01*
X87868733Y-222922506D01*
X87727042Y-222880604D01*
X87566482Y-222866636D01*
X87448152Y-222873438D01*
X87290244Y-222902173D01*
X87144431Y-222946595D01*
X86993489Y-223008785D01*
X86630788Y-223008785D01*
X86630788Y-222585268D01*
X86966378Y-222585268D01*
X86993489Y-222726685D01*
X87073642Y-222682549D01*
X87215289Y-222619472D01*
X87358688Y-222574417D01*
X87503841Y-222547385D01*
X87650746Y-222538374D01*
X87703872Y-222539673D01*
G37*
G36*
X84486824Y-224930000D02*
G01*
X83398722Y-224930000D01*
X83255508Y-224926015D01*
X83088437Y-224909829D01*
X82934639Y-224881193D01*
X82767603Y-224830394D01*
X82619680Y-224761667D01*
X82490872Y-224675010D01*
X82382551Y-224572872D01*
X82284502Y-224437236D01*
X82216957Y-224283859D01*
X82183340Y-224138272D01*
X82174050Y-224006762D01*
X82572205Y-224006762D01*
X82572949Y-224040487D01*
X82598995Y-224195977D01*
X82662250Y-224329571D01*
X82762714Y-224441270D01*
X82901638Y-224518839D01*
X83053607Y-224561620D01*
X83214453Y-224586066D01*
X83370057Y-224597819D01*
X83545268Y-224601737D01*
X84103607Y-224601737D01*
X84103607Y-223429371D01*
X83441953Y-223429371D01*
X83338639Y-223430516D01*
X83178995Y-223438030D01*
X83013307Y-223457994D01*
X82861632Y-223502644D01*
X82739047Y-223582565D01*
X82642547Y-223701946D01*
X82634029Y-223717906D01*
X82585669Y-223860422D01*
X82572205Y-224006762D01*
X82174050Y-224006762D01*
X82172135Y-223979651D01*
X82176464Y-223884804D01*
X82206075Y-223726521D01*
X82263739Y-223584236D01*
X82349455Y-223457948D01*
X82420793Y-223384188D01*
X82545961Y-223292676D01*
X82692922Y-223224116D01*
X82841849Y-223182442D01*
X82841849Y-223166322D01*
X82700409Y-223076119D01*
X82588233Y-222972572D01*
X82494347Y-222834903D01*
X82440291Y-222679072D01*
X82430005Y-222575010D01*
X82825729Y-222575010D01*
X82838480Y-222714848D01*
X82888698Y-222855851D01*
X82986929Y-222972149D01*
X83082230Y-223028569D01*
X83225461Y-223072773D01*
X83384796Y-223094938D01*
X83548932Y-223101109D01*
X84103607Y-223101109D01*
X84103607Y-222163217D01*
X83596559Y-222163217D01*
X83564743Y-222163327D01*
X83389747Y-222168616D01*
X83242005Y-222181840D01*
X83087411Y-222211813D01*
X82953956Y-222276057D01*
X82931041Y-222297734D01*
X82850272Y-222425825D01*
X82825729Y-222575010D01*
X82430005Y-222575010D01*
X82425659Y-222531046D01*
X82437412Y-222390236D01*
X82479148Y-222248946D01*
X82542013Y-222139938D01*
X82644012Y-222033524D01*
X82766561Y-221953473D01*
X82911458Y-221896503D01*
X82921159Y-221893701D01*
X83064781Y-221860416D01*
X83214075Y-221843014D01*
X83271520Y-221840275D01*
X83422788Y-221836088D01*
X83571646Y-221834954D01*
X84486824Y-221834954D01*
X84486824Y-224930000D01*
G37*
G36*
X80850238Y-222539659D02*
G01*
X81023079Y-222558936D01*
X81181752Y-222601345D01*
X81326257Y-222666887D01*
X81456594Y-222755562D01*
X81572763Y-222867369D01*
X81656354Y-222975922D01*
X81737962Y-223121346D01*
X81799167Y-223283307D01*
X81834587Y-223430908D01*
X81855839Y-223589994D01*
X81862923Y-223760565D01*
X81858424Y-223897894D01*
X81840145Y-224059091D01*
X81807806Y-224208660D01*
X81750438Y-224372794D01*
X81672823Y-224520184D01*
X81574961Y-224650830D01*
X81519002Y-224709101D01*
X81396110Y-224808449D01*
X81258586Y-224884870D01*
X81106430Y-224938365D01*
X80939643Y-224968934D01*
X80789476Y-224976894D01*
X80728454Y-224975629D01*
X80555003Y-224956653D01*
X80395978Y-224914904D01*
X80251379Y-224850384D01*
X80121205Y-224763092D01*
X80005457Y-224653028D01*
X79922077Y-224545845D01*
X79840675Y-224401452D01*
X79779624Y-224239851D01*
X79744293Y-224092039D01*
X79723095Y-223932277D01*
X79716029Y-223760565D01*
X80091186Y-223760565D01*
X80092783Y-223839315D01*
X80105560Y-223986267D01*
X80136615Y-224139935D01*
X80193401Y-224292114D01*
X80272903Y-224419288D01*
X80346207Y-224497229D01*
X80476546Y-224583905D01*
X80631344Y-224634298D01*
X80789476Y-224648632D01*
X80909913Y-224640569D01*
X81053665Y-224604734D01*
X81192395Y-224530152D01*
X81306782Y-224419288D01*
X81349201Y-224358826D01*
X81417070Y-224219150D01*
X81457897Y-224076422D01*
X81481404Y-223914549D01*
X81487766Y-223760565D01*
X81486176Y-223680767D01*
X81473450Y-223532029D01*
X81442520Y-223376798D01*
X81385963Y-223223521D01*
X81306782Y-223095980D01*
X81233229Y-223018039D01*
X81102613Y-222931363D01*
X80947654Y-222880970D01*
X80789476Y-222866636D01*
X80664684Y-222874493D01*
X80517388Y-222909412D01*
X80363955Y-222992345D01*
X80244619Y-223118926D01*
X80173699Y-223251619D01*
X80124600Y-223412247D01*
X80097323Y-223600810D01*
X80091186Y-223760565D01*
X79716029Y-223760565D01*
X79720574Y-223622365D01*
X79739039Y-223460210D01*
X79771708Y-223309825D01*
X79829659Y-223144901D01*
X79908064Y-222996927D01*
X80006922Y-222865903D01*
X80063105Y-222807370D01*
X80186134Y-222707576D01*
X80323383Y-222630811D01*
X80474852Y-222577076D01*
X80640540Y-222546370D01*
X80789476Y-222538374D01*
X80850238Y-222539659D01*
G37*
G36*
X78544287Y-222540860D02*
G01*
X78703490Y-222552696D01*
X78865497Y-222574279D01*
X79030309Y-222605610D01*
X79173810Y-222640223D01*
X79173810Y-223007320D01*
X79157690Y-223007320D01*
X79060821Y-222974347D01*
X78919768Y-222933131D01*
X78761652Y-222897548D01*
X78610479Y-222875429D01*
X78446210Y-222866636D01*
X78380254Y-222867602D01*
X78223072Y-222879623D01*
X78078758Y-222909569D01*
X77939895Y-222976545D01*
X77883650Y-223030381D01*
X77815846Y-223160872D01*
X77795547Y-223316531D01*
X77795547Y-223382477D01*
X77971743Y-223391364D01*
X78136257Y-223403188D01*
X78289089Y-223417948D01*
X78474693Y-223442197D01*
X78639528Y-223471666D01*
X78783595Y-223506357D01*
X78934474Y-223557061D01*
X79072693Y-223628674D01*
X79144306Y-223683308D01*
X79246652Y-223794124D01*
X79319757Y-223924295D01*
X79363620Y-224073821D01*
X79378241Y-224242700D01*
X79373214Y-224339797D01*
X79338831Y-224500778D01*
X79271874Y-224644023D01*
X79172344Y-224769532D01*
X79091200Y-224840003D01*
X78955767Y-224918371D01*
X78803873Y-224963934D01*
X78655038Y-224976894D01*
X78582481Y-224974936D01*
X78427041Y-224957262D01*
X78274019Y-224921207D01*
X78187010Y-224889621D01*
X78045559Y-224819439D01*
X77917869Y-224742068D01*
X77795547Y-224658890D01*
X77795547Y-224930000D01*
X77435045Y-224930000D01*
X77435045Y-224363600D01*
X77795547Y-224363600D01*
X77906737Y-224445714D01*
X78039315Y-224525879D01*
X78192818Y-224594075D01*
X78345058Y-224634993D01*
X78496036Y-224648632D01*
X78642109Y-224638167D01*
X78784717Y-224597981D01*
X78919401Y-224497517D01*
X78985258Y-224365658D01*
X79003084Y-224219986D01*
X78977196Y-224065122D01*
X78899532Y-223935020D01*
X78783998Y-223838234D01*
X78754377Y-223821324D01*
X78616938Y-223768450D01*
X78457329Y-223730944D01*
X78294845Y-223705198D01*
X78145563Y-223688208D01*
X77979130Y-223674423D01*
X77795547Y-223663845D01*
X77795547Y-224363600D01*
X77435045Y-224363600D01*
X77435045Y-223331919D01*
X77435984Y-223281918D01*
X77454056Y-223120036D01*
X77495129Y-222978560D01*
X77570233Y-222841861D01*
X77675380Y-222731814D01*
X77812537Y-222647184D01*
X77961026Y-222592968D01*
X78109455Y-222561231D01*
X78277410Y-222543096D01*
X78432288Y-222538374D01*
X78544287Y-222540860D01*
G37*
G36*
X76765331Y-224930000D02*
G01*
X76765331Y-222585268D01*
X76402630Y-222585268D01*
X76402630Y-222913531D01*
X76267805Y-222818963D01*
X76136272Y-222740423D01*
X75982777Y-222667334D01*
X75834022Y-222617325D01*
X75666464Y-222588153D01*
X75596629Y-222585268D01*
X75450029Y-222591296D01*
X75335045Y-222604319D01*
X75335045Y-222960425D01*
X75349699Y-222960425D01*
X75499926Y-222928368D01*
X75651835Y-222914263D01*
X75695547Y-222913531D01*
X75849095Y-222927731D01*
X76003273Y-222970331D01*
X76158083Y-223041332D01*
X76291279Y-223124795D01*
X76402630Y-223210286D01*
X76402630Y-224930000D01*
X76765331Y-224930000D01*
G37*
G36*
X73525938Y-222726685D02*
G01*
X73569089Y-222703881D01*
X73717412Y-222635655D01*
X73861528Y-222585451D01*
X74021079Y-222550143D01*
X74175136Y-222538374D01*
X74228725Y-222539725D01*
X74383002Y-222559989D01*
X74527541Y-222604571D01*
X74662343Y-222673470D01*
X74787408Y-222766687D01*
X74902735Y-222884221D01*
X74987593Y-222997061D01*
X75070437Y-223145645D01*
X75132570Y-223308602D01*
X75168527Y-223455380D01*
X75190101Y-223612141D01*
X75197292Y-223778883D01*
X75193479Y-223914243D01*
X75177991Y-224073107D01*
X75150589Y-224220486D01*
X75101980Y-224382182D01*
X75036215Y-224527339D01*
X74953293Y-224655959D01*
X74872736Y-224748416D01*
X74746252Y-224851529D01*
X74603779Y-224923927D01*
X74445318Y-224965611D01*
X74296769Y-224976894D01*
X74250051Y-224975692D01*
X74085009Y-224952551D01*
X73941646Y-224909274D01*
X73796531Y-224844359D01*
X73649665Y-224757805D01*
X73525938Y-224669148D01*
X73525938Y-224930000D01*
X73163237Y-224930000D01*
X73163237Y-223007320D01*
X73525938Y-223007320D01*
X73525938Y-224374591D01*
X73605290Y-224438820D01*
X73746967Y-224530612D01*
X73892219Y-224596179D01*
X74041048Y-224635518D01*
X74193454Y-224648632D01*
X74232132Y-224647780D01*
X74407107Y-224617952D01*
X74551385Y-224545512D01*
X74664965Y-224430462D01*
X74747847Y-224272800D01*
X74792052Y-224115990D01*
X74816609Y-223931909D01*
X74822135Y-223775952D01*
X74820454Y-223696601D01*
X74807007Y-223548137D01*
X74774324Y-223392185D01*
X74714561Y-223236710D01*
X74630893Y-223105505D01*
X74539716Y-223012430D01*
X74401366Y-222926353D01*
X74258438Y-222881565D01*
X74096734Y-222866636D01*
X73978509Y-222873368D01*
X73821045Y-222901807D01*
X73675918Y-222945771D01*
X73525938Y-223007320D01*
X73163237Y-223007320D01*
X73163237Y-221647376D01*
X73525938Y-221647376D01*
X73525938Y-222726685D01*
G37*
G36*
X71050048Y-224930000D02*
G01*
X71050048Y-222585268D01*
X70687348Y-222585268D01*
X70687348Y-222913531D01*
X70552523Y-222818963D01*
X70420989Y-222740423D01*
X70267494Y-222667334D01*
X70118739Y-222617325D01*
X69951182Y-222588153D01*
X69881346Y-222585268D01*
X69734746Y-222591296D01*
X69619762Y-222604319D01*
X69619762Y-222960425D01*
X69634417Y-222960425D01*
X69784643Y-222928368D01*
X69936553Y-222914263D01*
X69980265Y-222913531D01*
X70133812Y-222927731D01*
X70287991Y-222970331D01*
X70442800Y-223041332D01*
X70575997Y-223124795D01*
X70687348Y-223210286D01*
X70687348Y-224930000D01*
X71050048Y-224930000D01*
G37*
G36*
X68457912Y-222541323D02*
G01*
X68605620Y-222559348D01*
X68769977Y-222602608D01*
X68920270Y-222669463D01*
X69056497Y-222759915D01*
X69178660Y-222873963D01*
X69282996Y-223008001D01*
X69365746Y-223158422D01*
X69418214Y-223296288D01*
X69455691Y-223445532D01*
X69478177Y-223606152D01*
X69485673Y-223778150D01*
X69480670Y-223917334D01*
X69460344Y-224079883D01*
X69424384Y-224229731D01*
X69360594Y-224392784D01*
X69274289Y-224537546D01*
X69165471Y-224664019D01*
X69035975Y-224770348D01*
X68888190Y-224854677D01*
X68751065Y-224908147D01*
X68601238Y-224946340D01*
X68438710Y-224969256D01*
X68263482Y-224976894D01*
X68200975Y-224975104D01*
X68043406Y-224957002D01*
X67895286Y-224925969D01*
X67735110Y-224880615D01*
X67592421Y-224831878D01*
X67441360Y-224773196D01*
X67441360Y-224367264D01*
X67458213Y-224367264D01*
X67508133Y-224401336D01*
X67657927Y-224490362D01*
X67807773Y-224559605D01*
X67957671Y-224609064D01*
X68107619Y-224638740D01*
X68257620Y-224648632D01*
X68307133Y-224647779D01*
X68469747Y-224631360D01*
X68615741Y-224594043D01*
X68762241Y-224525808D01*
X68887034Y-224430279D01*
X68914628Y-224402246D01*
X69007204Y-224275347D01*
X69071295Y-224124817D01*
X69104008Y-223973719D01*
X69114912Y-223804528D01*
X67394466Y-223804528D01*
X67394466Y-223604494D01*
X67395462Y-223541304D01*
X67396818Y-223523161D01*
X67748374Y-223523161D01*
X69114912Y-223523161D01*
X69098400Y-223405257D01*
X69058352Y-223263360D01*
X68988665Y-223124636D01*
X68892896Y-223008053D01*
X68815882Y-222944056D01*
X68684615Y-222872888D01*
X68534454Y-222831511D01*
X68385115Y-222819741D01*
X68274186Y-222825924D01*
X68112860Y-222863705D01*
X67980980Y-222935833D01*
X67878544Y-223042308D01*
X67805554Y-223183129D01*
X67762009Y-223358297D01*
X67748374Y-223523161D01*
X67396818Y-223523161D01*
X67406667Y-223391421D01*
X67436549Y-223226814D01*
X67484359Y-223078849D01*
X67550099Y-222947524D01*
X67649455Y-222815345D01*
X67752066Y-222721218D01*
X67890141Y-222636017D01*
X68047991Y-222577323D01*
X68199030Y-222548111D01*
X68364598Y-222538374D01*
X68457912Y-222541323D01*
G37*
G36*
X64918576Y-222585268D02*
G01*
X65909958Y-224930000D01*
X66192058Y-224930000D01*
X67177578Y-222585268D01*
X66784103Y-222585268D01*
X66035987Y-224415624D01*
X65298129Y-222585268D01*
X64918576Y-222585268D01*
G37*
G36*
X64303817Y-224930000D02*
G01*
X64772030Y-224930000D01*
X64772030Y-224367264D01*
X64303817Y-224367264D01*
X64303817Y-224930000D01*
G37*
G36*
X61608108Y-224930000D02*
G01*
X63261144Y-224930000D01*
X63261144Y-224648632D01*
X62614145Y-224648632D01*
X62614145Y-222538374D01*
X63261144Y-222538374D01*
X63261144Y-222303900D01*
X63105468Y-222297714D01*
X62952969Y-222277851D01*
X62800470Y-222233830D01*
X62718925Y-222190327D01*
X62610219Y-222077594D01*
X62551521Y-221935107D01*
X62535743Y-221834954D01*
X62242651Y-221834954D01*
X62242651Y-224648632D01*
X61608108Y-224648632D01*
X61608108Y-224930000D01*
G37*
D11*
G04 #@! TO.C,U18*
X212900000Y-150400000D02*
X212900000Y-164600000D01*
X212900000Y-164600000D02*
X227100000Y-164600000D01*
X227100000Y-150400000D02*
X212900000Y-150400000D01*
X227100000Y-164600000D02*
X227100000Y-150400000D01*
G04 #@! TO.C,U20*
X242820000Y-90400000D02*
X242820000Y-104600000D01*
X242820000Y-104600000D02*
X257020000Y-104600000D01*
X257020000Y-90400000D02*
X242820000Y-90400000D01*
X257020000Y-104600000D02*
X257020000Y-90400000D01*
G04 #@! TO.C,U11*
X167845000Y-115400000D02*
X167845000Y-129600000D01*
X167845000Y-129600000D02*
X182045000Y-129600000D01*
X182045000Y-115400000D02*
X167845000Y-115400000D01*
X182045000Y-129600000D02*
X182045000Y-115400000D01*
G04 #@! TO.C,U14*
X342020000Y-129600000D02*
X342020000Y-115400000D01*
X342020000Y-115400000D02*
X327820000Y-115400000D01*
X327820000Y-129600000D02*
X342020000Y-129600000D01*
X327820000Y-115400000D02*
X327820000Y-129600000D01*
G04 #@! TO.C,U19*
X302820000Y-90400000D02*
X302820000Y-104600000D01*
X302820000Y-104600000D02*
X317020000Y-104600000D01*
X317020000Y-90400000D02*
X302820000Y-90400000D01*
X317020000Y-104600000D02*
X317020000Y-90400000D01*
G04 #@! TO.C,U7*
X107845000Y-82900000D02*
X107845000Y-97100000D01*
X107845000Y-97100000D02*
X122045000Y-97100000D01*
X122045000Y-82900000D02*
X107845000Y-82900000D01*
X122045000Y-97100000D02*
X122045000Y-82900000D01*
G04 #@! TO.C,U10*
X77820000Y-120400000D02*
X77820000Y-134600000D01*
X77820000Y-134600000D02*
X92020000Y-134600000D01*
X92020000Y-120400000D02*
X77820000Y-120400000D01*
X92020000Y-134600000D02*
X92020000Y-120400000D01*
G04 #@! TO.C,U12*
X107900000Y-115400000D02*
X107900000Y-129600000D01*
X107900000Y-129600000D02*
X122100000Y-129600000D01*
X122100000Y-115400000D02*
X107900000Y-115400000D01*
X122100000Y-129600000D02*
X122100000Y-115400000D01*
G04 #@! TO.C,U16*
X197900000Y-92900000D02*
X197900000Y-107100000D01*
X197900000Y-107100000D02*
X212100000Y-107100000D01*
X212100000Y-92900000D02*
X197900000Y-92900000D01*
X212100000Y-107100000D02*
X212100000Y-92900000D01*
G04 #@! TO.C,U8*
X77845000Y-87900000D02*
X77845000Y-102100000D01*
X77845000Y-102100000D02*
X92045000Y-102100000D01*
X92045000Y-87900000D02*
X77845000Y-87900000D01*
X92045000Y-102100000D02*
X92045000Y-87900000D01*
G04 #@! TO.C,U21*
X272820000Y-80400000D02*
X272820000Y-94600000D01*
X272820000Y-94600000D02*
X287020000Y-94600000D01*
X287020000Y-80400000D02*
X272820000Y-80400000D01*
X287020000Y-94600000D02*
X287020000Y-80400000D01*
G04 #@! TO.C,U15*
X182820000Y-140400000D02*
X182820000Y-154600000D01*
X182820000Y-154600000D02*
X197020000Y-154600000D01*
X197020000Y-140400000D02*
X182820000Y-140400000D01*
X197020000Y-154600000D02*
X197020000Y-140400000D01*
G04 #@! TO.C,U9*
X167845000Y-82900000D02*
X167845000Y-97100000D01*
X167845000Y-97100000D02*
X182045000Y-97100000D01*
X182045000Y-82900000D02*
X167845000Y-82900000D01*
X182045000Y-97100000D02*
X182045000Y-82900000D01*
G04 #@! TO.C,U6*
X137845000Y-77900000D02*
X137845000Y-92100000D01*
X137845000Y-92100000D02*
X152045000Y-92100000D01*
X152045000Y-77900000D02*
X137845000Y-77900000D01*
X152045000Y-92100000D02*
X152045000Y-77900000D01*
G04 #@! TO.C,U17*
X287100000Y-64600000D02*
X287100000Y-50400000D01*
X287100000Y-50400000D02*
X272900000Y-50400000D01*
X272900000Y-64600000D02*
X287100000Y-64600000D01*
X272900000Y-50400000D02*
X272900000Y-64600000D01*
G04 #@! TO.C,U13*
X137900000Y-110400000D02*
X137900000Y-124600000D01*
X137900000Y-124600000D02*
X152100000Y-124600000D01*
X152100000Y-110400000D02*
X137900000Y-110400000D01*
X152100000Y-124600000D02*
X152100000Y-110400000D01*
G04 #@! TD*
M02*
