G04 #@! TF.GenerationSoftware,KiCad,Pcbnew,8.0.3*
G04 #@! TF.CreationDate,2024-06-18T02:02:28+09:00*
G04 #@! TF.ProjectId,mainboard,6d61696e-626f-4617-9264-2e6b69636164,rev?*
G04 #@! TF.SameCoordinates,Original*
G04 #@! TF.FileFunction,Soldermask,Top*
G04 #@! TF.FilePolarity,Negative*
%FSLAX46Y46*%
G04 Gerber Fmt 4.6, Leading zero omitted, Abs format (unit mm)*
G04 Created by KiCad (PCBNEW 8.0.3) date 2024-06-18 02:02:28*
%MOMM*%
%LPD*%
G01*
G04 APERTURE LIST*
G04 Aperture macros list*
%AMRoundRect*
0 Rectangle with rounded corners*
0 $1 Rounding radius*
0 $2 $3 $4 $5 $6 $7 $8 $9 X,Y pos of 4 corners*
0 Add a 4 corners polygon primitive as box body*
4,1,4,$2,$3,$4,$5,$6,$7,$8,$9,$2,$3,0*
0 Add four circle primitives for the rounded corners*
1,1,$1+$1,$2,$3*
1,1,$1+$1,$4,$5*
1,1,$1+$1,$6,$7*
1,1,$1+$1,$8,$9*
0 Add four rect primitives between the rounded corners*
20,1,$1+$1,$2,$3,$4,$5,0*
20,1,$1+$1,$4,$5,$6,$7,0*
20,1,$1+$1,$6,$7,$8,$9,0*
20,1,$1+$1,$8,$9,$2,$3,0*%
G04 Aperture macros list end*
%ADD10RoundRect,0.050000X-0.387500X-0.050000X0.387500X-0.050000X0.387500X0.050000X-0.387500X0.050000X0*%
%ADD11RoundRect,0.050000X-0.050000X-0.387500X0.050000X-0.387500X0.050000X0.387500X-0.050000X0.387500X0*%
%ADD12RoundRect,0.144000X-1.456000X-1.456000X1.456000X-1.456000X1.456000X1.456000X-1.456000X1.456000X0*%
%ADD13C,2.700000*%
%ADD14C,1.700000*%
%ADD15C,3.000000*%
%ADD16O,0.300000X3.300000*%
%ADD17O,0.500000X3.300000*%
%ADD18O,1.700000X3.300000*%
%ADD19O,3.500000X0.300000*%
%ADD20C,4.000000*%
%ADD21O,1.650000X3.300000*%
%ADD22R,2.600000X2.600000*%
%ADD23R,1.750000X1.020000*%
%ADD24RoundRect,0.225000X0.225000X0.250000X-0.225000X0.250000X-0.225000X-0.250000X0.225000X-0.250000X0*%
%ADD25RoundRect,0.200000X0.200000X0.275000X-0.200000X0.275000X-0.200000X-0.275000X0.200000X-0.275000X0*%
%ADD26RoundRect,0.150000X0.150000X-0.825000X0.150000X0.825000X-0.150000X0.825000X-0.150000X-0.825000X0*%
%ADD27RoundRect,0.135000X-0.135000X-0.185000X0.135000X-0.185000X0.135000X0.185000X-0.135000X0.185000X0*%
%ADD28RoundRect,0.135000X0.135000X0.185000X-0.135000X0.185000X-0.135000X-0.185000X0.135000X-0.185000X0*%
%ADD29R,1.400000X1.200000*%
%ADD30RoundRect,0.140000X-0.140000X-0.170000X0.140000X-0.170000X0.140000X0.170000X-0.140000X0.170000X0*%
%ADD31C,1.750000*%
%ADD32RoundRect,0.150000X-0.150000X0.587500X-0.150000X-0.587500X0.150000X-0.587500X0.150000X0.587500X0*%
%ADD33RoundRect,0.140000X0.140000X0.170000X-0.140000X0.170000X-0.140000X-0.170000X0.140000X-0.170000X0*%
%ADD34RoundRect,0.375000X-0.375000X0.625000X-0.375000X-0.625000X0.375000X-0.625000X0.375000X0.625000X0*%
%ADD35RoundRect,0.500000X-1.400000X0.500000X-1.400000X-0.500000X1.400000X-0.500000X1.400000X0.500000X0*%
%ADD36RoundRect,0.225000X-0.225000X-0.250000X0.225000X-0.250000X0.225000X0.250000X-0.225000X0.250000X0*%
%ADD37C,0.650000*%
%ADD38R,0.600000X1.450000*%
%ADD39R,0.300000X1.450000*%
%ADD40O,1.000000X2.100000*%
%ADD41O,1.000000X1.600000*%
%ADD42R,0.750000X1.000000*%
%ADD43RoundRect,0.250000X-0.475000X0.250000X-0.475000X-0.250000X0.475000X-0.250000X0.475000X0.250000X0*%
%ADD44RoundRect,0.140000X0.170000X-0.140000X0.170000X0.140000X-0.170000X0.140000X-0.170000X-0.140000X0*%
%ADD45RoundRect,0.100000X0.100000X-0.225000X0.100000X0.225000X-0.100000X0.225000X-0.100000X-0.225000X0*%
%ADD46RoundRect,0.135000X-0.185000X0.135000X-0.185000X-0.135000X0.185000X-0.135000X0.185000X0.135000X0*%
%ADD47R,1.700000X1.700000*%
%ADD48O,1.700000X1.700000*%
%ADD49RoundRect,0.150000X-0.150000X0.512500X-0.150000X-0.512500X0.150000X-0.512500X0.150000X0.512500X0*%
%ADD50RoundRect,0.150000X-0.650000X-0.150000X0.650000X-0.150000X0.650000X0.150000X-0.650000X0.150000X0*%
%ADD51RoundRect,0.140000X-0.170000X0.140000X-0.170000X-0.140000X0.170000X-0.140000X0.170000X0.140000X0*%
%ADD52RoundRect,0.250000X-0.250000X-0.475000X0.250000X-0.475000X0.250000X0.475000X-0.250000X0.475000X0*%
%ADD53RoundRect,0.218750X-0.256250X0.218750X-0.256250X-0.218750X0.256250X-0.218750X0.256250X0.218750X0*%
%ADD54RoundRect,0.150000X-0.150000X-0.625000X0.150000X-0.625000X0.150000X0.625000X-0.150000X0.625000X0*%
%ADD55RoundRect,0.250000X-0.350000X-0.650000X0.350000X-0.650000X0.350000X0.650000X-0.350000X0.650000X0*%
G04 APERTURE END LIST*
D10*
G04 #@! TO.C,U5*
X206642500Y-47674000D03*
X206642500Y-48074000D03*
X206642500Y-48474000D03*
X206642500Y-48874000D03*
X206642500Y-49274000D03*
X206642500Y-49674000D03*
X206642500Y-50074000D03*
X206642500Y-50474000D03*
X206642500Y-50874000D03*
X206642500Y-51274000D03*
X206642500Y-51674000D03*
X206642500Y-52074000D03*
X206642500Y-52474000D03*
X206642500Y-52874000D03*
D11*
X207480000Y-53711500D03*
X207880000Y-53711500D03*
X208280000Y-53711500D03*
X208680000Y-53711500D03*
X209080000Y-53711500D03*
X209480000Y-53711500D03*
X209880000Y-53711500D03*
X210280000Y-53711500D03*
X210680000Y-53711500D03*
X211080000Y-53711500D03*
X211480000Y-53711500D03*
X211880000Y-53711500D03*
X212280000Y-53711500D03*
X212680000Y-53711500D03*
D10*
X213517500Y-52874000D03*
X213517500Y-52474000D03*
X213517500Y-52074000D03*
X213517500Y-51674000D03*
X213517500Y-51274000D03*
X213517500Y-50874000D03*
X213517500Y-50474000D03*
X213517500Y-50074000D03*
X213517500Y-49674000D03*
X213517500Y-49274000D03*
X213517500Y-48874000D03*
X213517500Y-48474000D03*
X213517500Y-48074000D03*
X213517500Y-47674000D03*
D11*
X212680000Y-46836500D03*
X212280000Y-46836500D03*
X211880000Y-46836500D03*
X211480000Y-46836500D03*
X211080000Y-46836500D03*
X210680000Y-46836500D03*
X210280000Y-46836500D03*
X209880000Y-46836500D03*
X209480000Y-46836500D03*
X209080000Y-46836500D03*
X208680000Y-46836500D03*
X208280000Y-46836500D03*
X207880000Y-46836500D03*
X207480000Y-46836500D03*
D12*
X210080000Y-50274000D03*
G04 #@! TD*
D13*
G04 #@! TO.C,H10*
X210000000Y-230000000D03*
G04 #@! TD*
G04 #@! TO.C,H9*
X210000000Y-130000000D03*
G04 #@! TD*
G04 #@! TO.C,H8*
X135000000Y-160000000D03*
G04 #@! TD*
G04 #@! TO.C,H7*
X285000000Y-160000000D03*
G04 #@! TD*
G04 #@! TO.C,H6*
X285000000Y-30000000D03*
G04 #@! TD*
G04 #@! TO.C,H5*
X135000000Y-30000000D03*
G04 #@! TD*
D14*
G04 #@! TO.C,SW4*
X357820000Y-37690000D03*
D15*
X356550000Y-35150000D03*
D16*
X354340000Y-42590000D03*
D17*
X354065000Y-42590000D03*
D18*
X353315000Y-42590000D03*
D19*
X352740000Y-44090000D03*
D18*
X352740000Y-42590000D03*
D19*
X352740000Y-41065000D03*
D20*
X352740000Y-37690000D03*
D21*
X352140000Y-42590000D03*
D17*
X351390000Y-42590000D03*
D16*
X351140000Y-42590000D03*
D15*
X350200000Y-32610000D03*
D14*
X347660000Y-37690000D03*
D22*
X346425000Y-32610000D03*
X360325000Y-35150000D03*
D23*
X355665000Y-41754000D03*
X355665000Y-43457500D03*
X349815000Y-43457500D03*
X349815000Y-41754000D03*
G04 #@! TD*
D14*
G04 #@! TO.C,SW3*
X335320000Y-37690000D03*
D15*
X334050000Y-35150000D03*
D16*
X331840000Y-42590000D03*
D17*
X331565000Y-42590000D03*
D18*
X330815000Y-42590000D03*
D19*
X330240000Y-44090000D03*
D18*
X330240000Y-42590000D03*
D19*
X330240000Y-41065000D03*
D20*
X330240000Y-37690000D03*
D21*
X329640000Y-42590000D03*
D17*
X328890000Y-42590000D03*
D16*
X328640000Y-42590000D03*
D15*
X327700000Y-32610000D03*
D14*
X325160000Y-37690000D03*
D22*
X323925000Y-32610000D03*
X337825000Y-35150000D03*
D23*
X333165000Y-41754000D03*
X333165000Y-43457500D03*
X327315000Y-43457500D03*
X327315000Y-41754000D03*
G04 #@! TD*
D24*
G04 #@! TO.C,C50*
X249220000Y-91500000D03*
X247670000Y-91500000D03*
G04 #@! TD*
D25*
G04 #@! TO.C,R26*
X219330000Y-153500000D03*
X217680000Y-153500000D03*
G04 #@! TD*
D26*
G04 #@! TO.C,U22*
X208080000Y-72000000D03*
X209350000Y-72000000D03*
X210620000Y-72000000D03*
X211890000Y-72000000D03*
X213160000Y-72000000D03*
X214430000Y-72000000D03*
X215700000Y-72000000D03*
X216970000Y-72000000D03*
X216970000Y-67050000D03*
X215700000Y-67050000D03*
X214430000Y-67050000D03*
X213160000Y-67050000D03*
X211890000Y-67050000D03*
X210620000Y-67050000D03*
X209350000Y-67050000D03*
X208080000Y-67050000D03*
G04 #@! TD*
D27*
G04 #@! TO.C,R12*
X324170000Y-41740000D03*
X325190000Y-41740000D03*
G04 #@! TD*
D25*
G04 #@! TO.C,R29*
X279090000Y-83500000D03*
X277440000Y-83500000D03*
G04 #@! TD*
D24*
G04 #@! TO.C,C24*
X114275000Y-84000000D03*
X112725000Y-84000000D03*
G04 #@! TD*
D28*
G04 #@! TO.C,R4*
X202800000Y-50300000D03*
X201780000Y-50300000D03*
G04 #@! TD*
D29*
G04 #@! TO.C,Y1*
X208300000Y-61400000D03*
X210500000Y-61400000D03*
X210500000Y-59700000D03*
X208300000Y-59700000D03*
G04 #@! TD*
D24*
G04 #@! TO.C,C26*
X84275000Y-89000000D03*
X82725000Y-89000000D03*
G04 #@! TD*
D30*
G04 #@! TO.C,C10*
X216150000Y-51920000D03*
X217110000Y-51920000D03*
G04 #@! TD*
D24*
G04 #@! TO.C,C42*
X204300000Y-94300000D03*
X202750000Y-94300000D03*
G04 #@! TD*
D27*
G04 #@! TO.C,R3*
X203130000Y-26200000D03*
X204150000Y-26200000D03*
G04 #@! TD*
D24*
G04 #@! TO.C,C28*
X174275000Y-84000000D03*
X172725000Y-84000000D03*
G04 #@! TD*
D31*
G04 #@! TO.C,U18*
X214920000Y-157500000D03*
X225080000Y-157500000D03*
D32*
X220950000Y-156762500D03*
X219050000Y-156762500D03*
X220000000Y-158637500D03*
G04 #@! TD*
D33*
G04 #@! TO.C,C8*
X204800000Y-51300000D03*
X203840000Y-51300000D03*
G04 #@! TD*
D13*
G04 #@! TO.C,H2*
X50000000Y-230000000D03*
G04 #@! TD*
D34*
G04 #@! TO.C,U1*
X221330000Y-32076000D03*
X219030000Y-32076000D03*
D35*
X219030000Y-38376000D03*
D34*
X216730000Y-32076000D03*
G04 #@! TD*
D25*
G04 #@! TO.C,R14*
X144275000Y-81000000D03*
X142625000Y-81000000D03*
G04 #@! TD*
D36*
G04 #@! TO.C,C51*
X280015000Y-92860000D03*
X281565000Y-92860000D03*
G04 #@! TD*
D28*
G04 #@! TO.C,R2*
X204150000Y-25150000D03*
X203130000Y-25150000D03*
G04 #@! TD*
G04 #@! TO.C,R5*
X195158000Y-31645000D03*
X194138000Y-31645000D03*
G04 #@! TD*
D24*
G04 #@! TO.C,C52*
X279050000Y-81850000D03*
X277500000Y-81850000D03*
G04 #@! TD*
D30*
G04 #@! TO.C,C11*
X218190000Y-45650000D03*
X219150000Y-45650000D03*
G04 #@! TD*
D31*
G04 #@! TO.C,U20*
X244840000Y-97500000D03*
X255000000Y-97500000D03*
D32*
X250870000Y-96762500D03*
X248970000Y-96762500D03*
X249920000Y-98637500D03*
G04 #@! TD*
D37*
G04 #@! TO.C,J1*
X212890000Y-27000000D03*
X207110000Y-27000000D03*
D38*
X213250000Y-28445000D03*
X212450000Y-28445000D03*
D39*
X211250000Y-28445000D03*
X210250000Y-28445000D03*
X209750000Y-28445000D03*
X208750000Y-28445000D03*
D38*
X207550000Y-28445000D03*
X206750000Y-28445000D03*
X206750000Y-28445000D03*
X207550000Y-28445000D03*
D39*
X208250000Y-28445000D03*
X209250000Y-28445000D03*
X210750000Y-28445000D03*
X211750000Y-28445000D03*
D38*
X212450000Y-28445000D03*
X213250000Y-28445000D03*
D40*
X214320000Y-27530000D03*
D41*
X214320000Y-23350000D03*
D40*
X205680000Y-27530000D03*
D41*
X205680000Y-23350000D03*
G04 #@! TD*
D42*
G04 #@! TO.C,SW2*
X186250000Y-43500000D03*
X186250000Y-37500000D03*
X190000000Y-43500000D03*
X190000000Y-37500000D03*
G04 #@! TD*
D28*
G04 #@! TO.C,R1*
X204820000Y-50300000D03*
X203800000Y-50300000D03*
G04 #@! TD*
D33*
G04 #@! TO.C,C15*
X197567000Y-30502000D03*
X196607000Y-30502000D03*
G04 #@! TD*
D43*
G04 #@! TO.C,C20*
X135800000Y-59125000D03*
X135800000Y-61025000D03*
G04 #@! TD*
D24*
G04 #@! TO.C,C36*
X144330000Y-111490000D03*
X142780000Y-111490000D03*
G04 #@! TD*
D30*
G04 #@! TO.C,C16*
X338290000Y-40500000D03*
X339250000Y-40500000D03*
G04 #@! TD*
D24*
G04 #@! TO.C,C30*
X84250000Y-121500000D03*
X82700000Y-121500000D03*
G04 #@! TD*
D30*
G04 #@! TO.C,C12*
X218190000Y-46600000D03*
X219150000Y-46600000D03*
G04 #@! TD*
D36*
G04 #@! TO.C,C37*
X334835000Y-127580000D03*
X336385000Y-127580000D03*
G04 #@! TD*
G04 #@! TO.C,C49*
X249830000Y-102860000D03*
X251380000Y-102860000D03*
G04 #@! TD*
D44*
G04 #@! TO.C,C6*
X209500000Y-43380000D03*
X209500000Y-42420000D03*
G04 #@! TD*
D36*
G04 #@! TO.C,C39*
X189895000Y-152830000D03*
X191445000Y-152830000D03*
G04 #@! TD*
D44*
G04 #@! TO.C,C4*
X208500000Y-43060000D03*
X208500000Y-42100000D03*
G04 #@! TD*
D25*
G04 #@! TO.C,R16*
X84275000Y-90800000D03*
X82625000Y-90800000D03*
G04 #@! TD*
G04 #@! TO.C,R23*
X189250000Y-143500000D03*
X187600000Y-143500000D03*
G04 #@! TD*
D30*
G04 #@! TO.C,C18*
X206540000Y-57900000D03*
X207500000Y-57900000D03*
G04 #@! TD*
D31*
G04 #@! TO.C,U11*
X169865000Y-122500000D03*
X180025000Y-122500000D03*
D32*
X175895000Y-121762500D03*
X173995000Y-121762500D03*
X174945000Y-123637500D03*
G04 #@! TD*
G04 #@! TO.C,U14*
X334920000Y-123637500D03*
X333970000Y-121762500D03*
X335870000Y-121762500D03*
D31*
X340000000Y-122500000D03*
X329840000Y-122500000D03*
G04 #@! TD*
D24*
G04 #@! TO.C,C44*
X277780000Y-51500000D03*
X279330000Y-51500000D03*
G04 #@! TD*
D31*
G04 #@! TO.C,U19*
X304840000Y-97500000D03*
X315000000Y-97500000D03*
D32*
X310870000Y-96762500D03*
X308970000Y-96762500D03*
X309920000Y-98637500D03*
G04 #@! TD*
D13*
G04 #@! TO.C,H3*
X370000000Y-230000000D03*
G04 #@! TD*
D45*
G04 #@! TO.C,U4*
X232208000Y-33550000D03*
X232858000Y-33550000D03*
X233508000Y-33550000D03*
X233508000Y-31650000D03*
X232208000Y-31650000D03*
G04 #@! TD*
D44*
G04 #@! TO.C,C14*
X214204000Y-44444000D03*
X214204000Y-43484000D03*
G04 #@! TD*
D46*
G04 #@! TO.C,R7*
X202647000Y-28793000D03*
X202647000Y-29813000D03*
G04 #@! TD*
D25*
G04 #@! TO.C,R22*
X332670000Y-118600000D03*
X334320000Y-118600000D03*
G04 #@! TD*
D47*
G04 #@! TO.C,J3*
X170500000Y-30500000D03*
D48*
X167960000Y-30500000D03*
X165420000Y-30500000D03*
G04 #@! TD*
D30*
G04 #@! TO.C,C19*
X209740000Y-57900000D03*
X210700000Y-57900000D03*
G04 #@! TD*
D49*
G04 #@! TO.C,U2*
X211156000Y-33296000D03*
X210206000Y-33296000D03*
X209256000Y-33296000D03*
X209256000Y-35571000D03*
X210206000Y-35571000D03*
X211156000Y-35571000D03*
G04 #@! TD*
D44*
G04 #@! TO.C,C13*
X213188000Y-44444000D03*
X213188000Y-43484000D03*
G04 #@! TD*
D26*
G04 #@! TO.C,U23*
X224190000Y-71975000D03*
X225460000Y-71975000D03*
X226730000Y-71975000D03*
X228000000Y-71975000D03*
X229270000Y-71975000D03*
X230540000Y-71975000D03*
X231810000Y-71975000D03*
X233080000Y-71975000D03*
X233080000Y-67025000D03*
X231810000Y-67025000D03*
X230540000Y-67025000D03*
X229270000Y-67025000D03*
X228000000Y-67025000D03*
X226730000Y-67025000D03*
X225460000Y-67025000D03*
X224190000Y-67025000D03*
G04 #@! TD*
D31*
G04 #@! TO.C,U7*
X109865000Y-90000000D03*
X120025000Y-90000000D03*
D32*
X115895000Y-89262500D03*
X113995000Y-89262500D03*
X114945000Y-91137500D03*
G04 #@! TD*
D36*
G04 #@! TO.C,C33*
X114965000Y-128140000D03*
X116515000Y-128140000D03*
G04 #@! TD*
D46*
G04 #@! TO.C,R11*
X211800000Y-43430500D03*
X211800000Y-44450500D03*
G04 #@! TD*
D25*
G04 #@! TO.C,R27*
X309330000Y-93500000D03*
X307680000Y-93500000D03*
G04 #@! TD*
D46*
G04 #@! TO.C,R8*
X225850000Y-37930000D03*
X225850000Y-38950000D03*
G04 #@! TD*
D31*
G04 #@! TO.C,U10*
X79840000Y-127500000D03*
X90000000Y-127500000D03*
D32*
X85870000Y-126762500D03*
X83970000Y-126762500D03*
X84920000Y-128637500D03*
G04 #@! TD*
D25*
G04 #@! TO.C,R25*
X277755000Y-53500000D03*
X279405000Y-53500000D03*
G04 #@! TD*
D31*
G04 #@! TO.C,U12*
X109920000Y-122500000D03*
X120080000Y-122500000D03*
D32*
X115950000Y-121762500D03*
X114050000Y-121762500D03*
X115000000Y-123637500D03*
G04 #@! TD*
D28*
G04 #@! TO.C,R9*
X197567000Y-31645000D03*
X196547000Y-31645000D03*
G04 #@! TD*
D24*
G04 #@! TO.C,C40*
X189250000Y-141800000D03*
X187700000Y-141800000D03*
G04 #@! TD*
D50*
G04 #@! TO.C,U3*
X197100000Y-38390000D03*
X197100000Y-39660000D03*
X197100000Y-40930000D03*
X197100000Y-42200000D03*
X204300000Y-42200000D03*
X204300000Y-40930000D03*
X204300000Y-39660000D03*
X204300000Y-38390000D03*
G04 #@! TD*
D25*
G04 #@! TO.C,R20*
X114330000Y-118500000D03*
X112680000Y-118500000D03*
G04 #@! TD*
D36*
G04 #@! TO.C,C21*
X144895000Y-90590000D03*
X146445000Y-90590000D03*
G04 #@! TD*
D13*
G04 #@! TO.C,H1*
X50000000Y-30000000D03*
G04 #@! TD*
D25*
G04 #@! TO.C,R24*
X204330000Y-96000000D03*
X202680000Y-96000000D03*
G04 #@! TD*
G04 #@! TO.C,R15*
X114275000Y-85800000D03*
X112625000Y-85800000D03*
G04 #@! TD*
D31*
G04 #@! TO.C,U16*
X199920000Y-100000000D03*
X210080000Y-100000000D03*
D32*
X205950000Y-99262500D03*
X204050000Y-99262500D03*
X205000000Y-101137500D03*
G04 #@! TD*
D25*
G04 #@! TO.C,R18*
X84250000Y-123500000D03*
X82600000Y-123500000D03*
G04 #@! TD*
D36*
G04 #@! TO.C,C29*
X84885000Y-132970000D03*
X86435000Y-132970000D03*
G04 #@! TD*
D24*
G04 #@! TO.C,C46*
X219350000Y-151850000D03*
X217800000Y-151850000D03*
G04 #@! TD*
D46*
G04 #@! TO.C,R13*
X208718000Y-55521000D03*
X208718000Y-56541000D03*
G04 #@! TD*
D51*
G04 #@! TO.C,C3*
X203790000Y-28851000D03*
X203790000Y-29811000D03*
G04 #@! TD*
D24*
G04 #@! TO.C,C38*
X332670000Y-116800000D03*
X334220000Y-116800000D03*
G04 #@! TD*
D31*
G04 #@! TO.C,U8*
X79865000Y-95000000D03*
X90025000Y-95000000D03*
D32*
X85895000Y-94262500D03*
X83995000Y-94262500D03*
X84945000Y-96137500D03*
G04 #@! TD*
D52*
G04 #@! TO.C,C1*
X218019000Y-29105000D03*
X219919000Y-29105000D03*
G04 #@! TD*
G04 #@! TO.C,C2*
X219035000Y-41297000D03*
X220935000Y-41297000D03*
G04 #@! TD*
D53*
G04 #@! TO.C,D1*
X225850000Y-35225000D03*
X225850000Y-36800000D03*
G04 #@! TD*
D31*
G04 #@! TO.C,U21*
X274840000Y-87500000D03*
X285000000Y-87500000D03*
D32*
X280870000Y-86762500D03*
X278970000Y-86762500D03*
X279920000Y-88637500D03*
G04 #@! TD*
D31*
G04 #@! TO.C,U15*
X184840000Y-147500000D03*
X195000000Y-147500000D03*
D32*
X190870000Y-146762500D03*
X188970000Y-146762500D03*
X189920000Y-148637500D03*
G04 #@! TD*
D36*
G04 #@! TO.C,C41*
X204975000Y-105150000D03*
X206525000Y-105150000D03*
G04 #@! TD*
D25*
G04 #@! TO.C,R28*
X249070000Y-93000000D03*
X247420000Y-93000000D03*
G04 #@! TD*
D30*
G04 #@! TO.C,C17*
X358450000Y-41760000D03*
X359410000Y-41760000D03*
G04 #@! TD*
D36*
G04 #@! TO.C,C27*
X174905000Y-95470000D03*
X176455000Y-95470000D03*
G04 #@! TD*
D24*
G04 #@! TO.C,C48*
X309330000Y-91500000D03*
X307780000Y-91500000D03*
G04 #@! TD*
D31*
G04 #@! TO.C,U9*
X169865000Y-90000000D03*
X180025000Y-90000000D03*
D32*
X175895000Y-89262500D03*
X173995000Y-89262500D03*
X174945000Y-91137500D03*
G04 #@! TD*
D42*
G04 #@! TO.C,SW1*
X186250000Y-31000000D03*
X186250000Y-25000000D03*
X190000000Y-31000000D03*
X190000000Y-25000000D03*
G04 #@! TD*
D46*
G04 #@! TO.C,R10*
X210786000Y-43430000D03*
X210786000Y-44450000D03*
G04 #@! TD*
D31*
G04 #@! TO.C,U6*
X139865000Y-85000000D03*
X150025000Y-85000000D03*
D32*
X145895000Y-84262500D03*
X143995000Y-84262500D03*
X144945000Y-86137500D03*
G04 #@! TD*
D25*
G04 #@! TO.C,R17*
X174275000Y-86000000D03*
X172625000Y-86000000D03*
G04 #@! TD*
G04 #@! TO.C,R21*
X144330000Y-113200000D03*
X142680000Y-113200000D03*
G04 #@! TD*
D44*
G04 #@! TO.C,C7*
X205300000Y-47480000D03*
X205300000Y-46520000D03*
G04 #@! TD*
D24*
G04 #@! TO.C,C32*
X174275000Y-116800000D03*
X172725000Y-116800000D03*
G04 #@! TD*
D36*
G04 #@! TO.C,C23*
X114955000Y-95670000D03*
X116505000Y-95670000D03*
G04 #@! TD*
D24*
G04 #@! TO.C,C34*
X114330000Y-116500000D03*
X112780000Y-116500000D03*
G04 #@! TD*
D25*
G04 #@! TO.C,R19*
X174275000Y-118600000D03*
X172625000Y-118600000D03*
G04 #@! TD*
D36*
G04 #@! TO.C,C31*
X174945000Y-127600000D03*
X176495000Y-127600000D03*
G04 #@! TD*
G04 #@! TO.C,C35*
X145050000Y-123090000D03*
X146600000Y-123090000D03*
G04 #@! TD*
D51*
G04 #@! TO.C,C9*
X209734000Y-55577000D03*
X209734000Y-56537000D03*
G04 #@! TD*
G04 #@! TO.C,C5*
X210750000Y-55577000D03*
X210750000Y-56537000D03*
G04 #@! TD*
D24*
G04 #@! TO.C,C22*
X144275000Y-79200000D03*
X142725000Y-79200000D03*
G04 #@! TD*
D36*
G04 #@! TO.C,C45*
X219985000Y-162640000D03*
X221535000Y-162640000D03*
G04 #@! TD*
G04 #@! TO.C,C25*
X85010000Y-100440000D03*
X86560000Y-100440000D03*
G04 #@! TD*
D32*
G04 #@! TO.C,U17*
X280000000Y-58637500D03*
X279050000Y-56762500D03*
X280950000Y-56762500D03*
D31*
X285080000Y-57500000D03*
X274920000Y-57500000D03*
G04 #@! TD*
D13*
G04 #@! TO.C,H4*
X370000000Y-30000000D03*
G04 #@! TD*
D54*
G04 #@! TO.C,J2*
X152500000Y-24800000D03*
X153500000Y-24800000D03*
X154500000Y-24800000D03*
D55*
X151200000Y-22275000D03*
X155800000Y-22275000D03*
G04 #@! TD*
D36*
G04 #@! TO.C,C47*
X311455000Y-102390000D03*
X309905000Y-102390000D03*
G04 #@! TD*
G04 #@! TO.C,C43*
X281635000Y-62740000D03*
X280085000Y-62740000D03*
G04 #@! TD*
D31*
G04 #@! TO.C,U13*
X139920000Y-117500000D03*
X150080000Y-117500000D03*
D32*
X145950000Y-116762500D03*
X144050000Y-116762500D03*
X145000000Y-118637500D03*
G04 #@! TD*
M02*
