M48
; DRILL file {KiCad 8.0.3} date 2024-06-18T02:02:20+0900
; FORMAT={-:-/ absolute / inch / decimal}
; #@! TF.CreationDate,2024-06-18T02:02:20+09:00
; #@! TF.GenerationSoftware,Kicad,Pcbnew,8.0.3
; #@! TF.FileFunction,NonPlated,1,4,NPTH
FMAT,2
INCH
; #@! TA.AperFunction,NonPlated,NPTH,ComponentDrill
T1C0.0118
; #@! TA.AperFunction,NonPlated,NPTH,ComponentDrill
T2C0.0197
; #@! TA.AperFunction,NonPlated,NPTH,ComponentDrill
T3C0.0256
; #@! TA.AperFunction,NonPlated,NPTH,ComponentDrill
T4C0.0650
; #@! TA.AperFunction,NonPlated,NPTH,ComponentDrill
T5C0.0669
; #@! TA.AperFunction,NonPlated,NPTH,ComponentDrill
T6C0.0689
; #@! TA.AperFunction,NonPlated,NPTH,ComponentDrill
T7C0.1063
; #@! TA.AperFunction,NonPlated,NPTH,ComponentDrill
T8C0.1181
; #@! TA.AperFunction,NonPlated,NPTH,ComponentDrill
T9C0.1575
%
G90
G05
T3
X8.1539Y-1.063
X8.3815Y-1.063
T5
X12.8016Y-1.4839
X13.2016Y-1.4839
X13.6874Y-1.4839
X14.0874Y-1.4839
T6
X3.1433Y-5.0197
X3.1443Y-3.7402
X3.5433Y-5.0197
X3.5443Y-3.7402
X4.3254Y-3.5433
X4.3276Y-4.8228
X4.7254Y-3.5433
X4.7276Y-4.8228
X5.5065Y-3.3465
X5.5087Y-4.626
X5.9065Y-3.3465
X5.9087Y-4.626
X6.6876Y-3.5433
X6.6876Y-4.8228
X7.0876Y-3.5433
X7.0876Y-4.8228
X7.2772Y-5.8071
X7.6772Y-5.8071
X7.8709Y-3.937
X8.2709Y-3.937
X8.4614Y-6.2008
X8.8614Y-6.2008
X9.6394Y-3.8386
X10.0394Y-3.8386
X10.8205Y-3.4449
X10.8236Y-2.2638
X11.2205Y-3.4449
X11.2236Y-2.2638
X12.0016Y-3.8386
X12.4016Y-3.8386
X12.9858Y-4.8228
X13.3858Y-4.8228
T7
X1.9685Y-1.1811
X1.9685Y-9.0551
X5.315Y-1.1811
X5.315Y-6.2992
X8.2677Y-5.1181
X8.2677Y-9.0551
X11.2205Y-1.1811
X11.2205Y-6.2992
X14.5669Y-1.1811
X14.5669Y-9.0551
T8
X12.9016Y-1.2839
X13.1516Y-1.3839
X13.7874Y-1.2839
X14.0374Y-1.3839
T9
X13.0016Y-1.4839
X13.8874Y-1.4839
T1
G00X12.9386Y-1.7358
M15
G01X12.9386Y-1.6177
M16
G05
G00X13.0646Y-1.6167
M15
G01X12.9386Y-1.6167
M16
G05
G00X13.0646Y-1.7358
M15
G01X12.9386Y-1.7358
M16
G05
G00X13.0646Y-1.7358
M15
G01X13.0646Y-1.6177
M16
G05
G00X13.8244Y-1.7358
M15
G01X13.8244Y-1.6177
M16
G05
G00X13.9504Y-1.6167
M15
G01X13.8244Y-1.6167
M16
G05
G00X13.9504Y-1.7358
M15
G01X13.8244Y-1.7358
M16
G05
G00X13.9504Y-1.7358
M15
G01X13.9504Y-1.6177
M16
G05
T2
G00X12.9484Y-1.6217
M15
G01X12.9484Y-1.7319
M16
G05
G00X13.0537Y-1.7319
M15
G01X13.0537Y-1.6217
M16
G05
G00X13.8343Y-1.6217
M15
G01X13.8343Y-1.7319
M16
G05
G00X13.9396Y-1.7319
M15
G01X13.9396Y-1.6217
M16
G05
T4
G00X12.978Y-1.7093
M15
G01X12.978Y-1.6443
M16
G05
G00X13.8638Y-1.7093
M15
G01X13.8638Y-1.6443
M16
G05
T5
G00X13.0016Y-1.7083
M15
G01X13.0016Y-1.6453
M16
G05
G00X13.0242Y-1.7083
M15
G01X13.0242Y-1.6453
M16
G05
G00X13.8874Y-1.7083
M15
G01X13.8874Y-1.6453
M16
G05
G00X13.91Y-1.7083
M15
G01X13.91Y-1.6453
M16
G05
M30
