G04 #@! TF.GenerationSoftware,KiCad,Pcbnew,8.0.3*
G04 #@! TF.CreationDate,2024-07-10T17:58:30+09:00*
G04 #@! TF.ProjectId,mainboard,6d61696e-626f-4617-9264-2e6b69636164,rev?*
G04 #@! TF.SameCoordinates,Original*
G04 #@! TF.FileFunction,Legend,Bot*
G04 #@! TF.FilePolarity,Positive*
%FSLAX46Y46*%
G04 Gerber Fmt 4.6, Leading zero omitted, Abs format (unit mm)*
G04 Created by KiCad (PCBNEW 8.0.3) date 2024-07-10 17:58:30*
%MOMM*%
%LPD*%
G01*
G04 APERTURE LIST*
%ADD10C,0.100000*%
%ADD11C,0.750000*%
%ADD12C,0.120000*%
G04 APERTURE END LIST*
D10*
X276743734Y-81586704D02*
X276267544Y-81586704D01*
X276838972Y-81872419D02*
X276505639Y-80872419D01*
X276505639Y-80872419D02*
X276172306Y-81872419D01*
X275886591Y-81824800D02*
X275743734Y-81872419D01*
X275743734Y-81872419D02*
X275505639Y-81872419D01*
X275505639Y-81872419D02*
X275410401Y-81824800D01*
X275410401Y-81824800D02*
X275362782Y-81777180D01*
X275362782Y-81777180D02*
X275315163Y-81681942D01*
X275315163Y-81681942D02*
X275315163Y-81586704D01*
X275315163Y-81586704D02*
X275362782Y-81491466D01*
X275362782Y-81491466D02*
X275410401Y-81443847D01*
X275410401Y-81443847D02*
X275505639Y-81396228D01*
X275505639Y-81396228D02*
X275696115Y-81348609D01*
X275696115Y-81348609D02*
X275791353Y-81300990D01*
X275791353Y-81300990D02*
X275838972Y-81253371D01*
X275838972Y-81253371D02*
X275886591Y-81158133D01*
X275886591Y-81158133D02*
X275886591Y-81062895D01*
X275886591Y-81062895D02*
X275838972Y-80967657D01*
X275838972Y-80967657D02*
X275791353Y-80920038D01*
X275791353Y-80920038D02*
X275696115Y-80872419D01*
X275696115Y-80872419D02*
X275458020Y-80872419D01*
X275458020Y-80872419D02*
X275315163Y-80920038D01*
X274362782Y-81872419D02*
X274934210Y-81872419D01*
X274648496Y-81872419D02*
X274648496Y-80872419D01*
X274648496Y-80872419D02*
X274743734Y-81015276D01*
X274743734Y-81015276D02*
X274838972Y-81110514D01*
X274838972Y-81110514D02*
X274934210Y-81158133D01*
X273934210Y-81491466D02*
X273172306Y-81491466D01*
X272791353Y-80872419D02*
X272172306Y-80872419D01*
X272172306Y-80872419D02*
X272505639Y-81253371D01*
X272505639Y-81253371D02*
X272362782Y-81253371D01*
X272362782Y-81253371D02*
X272267544Y-81300990D01*
X272267544Y-81300990D02*
X272219925Y-81348609D01*
X272219925Y-81348609D02*
X272172306Y-81443847D01*
X272172306Y-81443847D02*
X272172306Y-81681942D01*
X272172306Y-81681942D02*
X272219925Y-81777180D01*
X272219925Y-81777180D02*
X272267544Y-81824800D01*
X272267544Y-81824800D02*
X272362782Y-81872419D01*
X272362782Y-81872419D02*
X272648496Y-81872419D01*
X272648496Y-81872419D02*
X272743734Y-81824800D01*
X272743734Y-81824800D02*
X272791353Y-81777180D01*
X172743734Y-121586704D02*
X172267544Y-121586704D01*
X172838972Y-121872419D02*
X172505639Y-120872419D01*
X172505639Y-120872419D02*
X172172306Y-121872419D01*
X171886591Y-121824800D02*
X171743734Y-121872419D01*
X171743734Y-121872419D02*
X171505639Y-121872419D01*
X171505639Y-121872419D02*
X171410401Y-121824800D01*
X171410401Y-121824800D02*
X171362782Y-121777180D01*
X171362782Y-121777180D02*
X171315163Y-121681942D01*
X171315163Y-121681942D02*
X171315163Y-121586704D01*
X171315163Y-121586704D02*
X171362782Y-121491466D01*
X171362782Y-121491466D02*
X171410401Y-121443847D01*
X171410401Y-121443847D02*
X171505639Y-121396228D01*
X171505639Y-121396228D02*
X171696115Y-121348609D01*
X171696115Y-121348609D02*
X171791353Y-121300990D01*
X171791353Y-121300990D02*
X171838972Y-121253371D01*
X171838972Y-121253371D02*
X171886591Y-121158133D01*
X171886591Y-121158133D02*
X171886591Y-121062895D01*
X171886591Y-121062895D02*
X171838972Y-120967657D01*
X171838972Y-120967657D02*
X171791353Y-120920038D01*
X171791353Y-120920038D02*
X171696115Y-120872419D01*
X171696115Y-120872419D02*
X171458020Y-120872419D01*
X171458020Y-120872419D02*
X171315163Y-120920038D01*
X170696115Y-120872419D02*
X170600877Y-120872419D01*
X170600877Y-120872419D02*
X170505639Y-120920038D01*
X170505639Y-120920038D02*
X170458020Y-120967657D01*
X170458020Y-120967657D02*
X170410401Y-121062895D01*
X170410401Y-121062895D02*
X170362782Y-121253371D01*
X170362782Y-121253371D02*
X170362782Y-121491466D01*
X170362782Y-121491466D02*
X170410401Y-121681942D01*
X170410401Y-121681942D02*
X170458020Y-121777180D01*
X170458020Y-121777180D02*
X170505639Y-121824800D01*
X170505639Y-121824800D02*
X170600877Y-121872419D01*
X170600877Y-121872419D02*
X170696115Y-121872419D01*
X170696115Y-121872419D02*
X170791353Y-121824800D01*
X170791353Y-121824800D02*
X170838972Y-121777180D01*
X170838972Y-121777180D02*
X170886591Y-121681942D01*
X170886591Y-121681942D02*
X170934210Y-121491466D01*
X170934210Y-121491466D02*
X170934210Y-121253371D01*
X170934210Y-121253371D02*
X170886591Y-121062895D01*
X170886591Y-121062895D02*
X170838972Y-120967657D01*
X170838972Y-120967657D02*
X170791353Y-120920038D01*
X170791353Y-120920038D02*
X170696115Y-120872419D01*
X169934210Y-121491466D02*
X169172306Y-121491466D01*
X168219925Y-120872419D02*
X168696115Y-120872419D01*
X168696115Y-120872419D02*
X168743734Y-121348609D01*
X168743734Y-121348609D02*
X168696115Y-121300990D01*
X168696115Y-121300990D02*
X168600877Y-121253371D01*
X168600877Y-121253371D02*
X168362782Y-121253371D01*
X168362782Y-121253371D02*
X168267544Y-121300990D01*
X168267544Y-121300990D02*
X168219925Y-121348609D01*
X168219925Y-121348609D02*
X168172306Y-121443847D01*
X168172306Y-121443847D02*
X168172306Y-121681942D01*
X168172306Y-121681942D02*
X168219925Y-121777180D01*
X168219925Y-121777180D02*
X168267544Y-121824800D01*
X168267544Y-121824800D02*
X168362782Y-121872419D01*
X168362782Y-121872419D02*
X168600877Y-121872419D01*
X168600877Y-121872419D02*
X168696115Y-121824800D01*
X168696115Y-121824800D02*
X168743734Y-121777180D01*
X172743734Y-89586704D02*
X172267544Y-89586704D01*
X172838972Y-89872419D02*
X172505639Y-88872419D01*
X172505639Y-88872419D02*
X172172306Y-89872419D01*
X171886591Y-89824800D02*
X171743734Y-89872419D01*
X171743734Y-89872419D02*
X171505639Y-89872419D01*
X171505639Y-89872419D02*
X171410401Y-89824800D01*
X171410401Y-89824800D02*
X171362782Y-89777180D01*
X171362782Y-89777180D02*
X171315163Y-89681942D01*
X171315163Y-89681942D02*
X171315163Y-89586704D01*
X171315163Y-89586704D02*
X171362782Y-89491466D01*
X171362782Y-89491466D02*
X171410401Y-89443847D01*
X171410401Y-89443847D02*
X171505639Y-89396228D01*
X171505639Y-89396228D02*
X171696115Y-89348609D01*
X171696115Y-89348609D02*
X171791353Y-89300990D01*
X171791353Y-89300990D02*
X171838972Y-89253371D01*
X171838972Y-89253371D02*
X171886591Y-89158133D01*
X171886591Y-89158133D02*
X171886591Y-89062895D01*
X171886591Y-89062895D02*
X171838972Y-88967657D01*
X171838972Y-88967657D02*
X171791353Y-88920038D01*
X171791353Y-88920038D02*
X171696115Y-88872419D01*
X171696115Y-88872419D02*
X171458020Y-88872419D01*
X171458020Y-88872419D02*
X171315163Y-88920038D01*
X170696115Y-88872419D02*
X170600877Y-88872419D01*
X170600877Y-88872419D02*
X170505639Y-88920038D01*
X170505639Y-88920038D02*
X170458020Y-88967657D01*
X170458020Y-88967657D02*
X170410401Y-89062895D01*
X170410401Y-89062895D02*
X170362782Y-89253371D01*
X170362782Y-89253371D02*
X170362782Y-89491466D01*
X170362782Y-89491466D02*
X170410401Y-89681942D01*
X170410401Y-89681942D02*
X170458020Y-89777180D01*
X170458020Y-89777180D02*
X170505639Y-89824800D01*
X170505639Y-89824800D02*
X170600877Y-89872419D01*
X170600877Y-89872419D02*
X170696115Y-89872419D01*
X170696115Y-89872419D02*
X170791353Y-89824800D01*
X170791353Y-89824800D02*
X170838972Y-89777180D01*
X170838972Y-89777180D02*
X170886591Y-89681942D01*
X170886591Y-89681942D02*
X170934210Y-89491466D01*
X170934210Y-89491466D02*
X170934210Y-89253371D01*
X170934210Y-89253371D02*
X170886591Y-89062895D01*
X170886591Y-89062895D02*
X170838972Y-88967657D01*
X170838972Y-88967657D02*
X170791353Y-88920038D01*
X170791353Y-88920038D02*
X170696115Y-88872419D01*
X169934210Y-89491466D02*
X169172306Y-89491466D01*
X168791353Y-88872419D02*
X168172306Y-88872419D01*
X168172306Y-88872419D02*
X168505639Y-89253371D01*
X168505639Y-89253371D02*
X168362782Y-89253371D01*
X168362782Y-89253371D02*
X168267544Y-89300990D01*
X168267544Y-89300990D02*
X168219925Y-89348609D01*
X168219925Y-89348609D02*
X168172306Y-89443847D01*
X168172306Y-89443847D02*
X168172306Y-89681942D01*
X168172306Y-89681942D02*
X168219925Y-89777180D01*
X168219925Y-89777180D02*
X168267544Y-89824800D01*
X168267544Y-89824800D02*
X168362782Y-89872419D01*
X168362782Y-89872419D02*
X168648496Y-89872419D01*
X168648496Y-89872419D02*
X168743734Y-89824800D01*
X168743734Y-89824800D02*
X168791353Y-89777180D01*
X142743734Y-87586704D02*
X142267544Y-87586704D01*
X142838972Y-87872419D02*
X142505639Y-86872419D01*
X142505639Y-86872419D02*
X142172306Y-87872419D01*
X141886591Y-87824800D02*
X141743734Y-87872419D01*
X141743734Y-87872419D02*
X141505639Y-87872419D01*
X141505639Y-87872419D02*
X141410401Y-87824800D01*
X141410401Y-87824800D02*
X141362782Y-87777180D01*
X141362782Y-87777180D02*
X141315163Y-87681942D01*
X141315163Y-87681942D02*
X141315163Y-87586704D01*
X141315163Y-87586704D02*
X141362782Y-87491466D01*
X141362782Y-87491466D02*
X141410401Y-87443847D01*
X141410401Y-87443847D02*
X141505639Y-87396228D01*
X141505639Y-87396228D02*
X141696115Y-87348609D01*
X141696115Y-87348609D02*
X141791353Y-87300990D01*
X141791353Y-87300990D02*
X141838972Y-87253371D01*
X141838972Y-87253371D02*
X141886591Y-87158133D01*
X141886591Y-87158133D02*
X141886591Y-87062895D01*
X141886591Y-87062895D02*
X141838972Y-86967657D01*
X141838972Y-86967657D02*
X141791353Y-86920038D01*
X141791353Y-86920038D02*
X141696115Y-86872419D01*
X141696115Y-86872419D02*
X141458020Y-86872419D01*
X141458020Y-86872419D02*
X141315163Y-86920038D01*
X140696115Y-86872419D02*
X140600877Y-86872419D01*
X140600877Y-86872419D02*
X140505639Y-86920038D01*
X140505639Y-86920038D02*
X140458020Y-86967657D01*
X140458020Y-86967657D02*
X140410401Y-87062895D01*
X140410401Y-87062895D02*
X140362782Y-87253371D01*
X140362782Y-87253371D02*
X140362782Y-87491466D01*
X140362782Y-87491466D02*
X140410401Y-87681942D01*
X140410401Y-87681942D02*
X140458020Y-87777180D01*
X140458020Y-87777180D02*
X140505639Y-87824800D01*
X140505639Y-87824800D02*
X140600877Y-87872419D01*
X140600877Y-87872419D02*
X140696115Y-87872419D01*
X140696115Y-87872419D02*
X140791353Y-87824800D01*
X140791353Y-87824800D02*
X140838972Y-87777180D01*
X140838972Y-87777180D02*
X140886591Y-87681942D01*
X140886591Y-87681942D02*
X140934210Y-87491466D01*
X140934210Y-87491466D02*
X140934210Y-87253371D01*
X140934210Y-87253371D02*
X140886591Y-87062895D01*
X140886591Y-87062895D02*
X140838972Y-86967657D01*
X140838972Y-86967657D02*
X140791353Y-86920038D01*
X140791353Y-86920038D02*
X140696115Y-86872419D01*
X139934210Y-87491466D02*
X139172306Y-87491466D01*
X138505639Y-86872419D02*
X138410401Y-86872419D01*
X138410401Y-86872419D02*
X138315163Y-86920038D01*
X138315163Y-86920038D02*
X138267544Y-86967657D01*
X138267544Y-86967657D02*
X138219925Y-87062895D01*
X138219925Y-87062895D02*
X138172306Y-87253371D01*
X138172306Y-87253371D02*
X138172306Y-87491466D01*
X138172306Y-87491466D02*
X138219925Y-87681942D01*
X138219925Y-87681942D02*
X138267544Y-87777180D01*
X138267544Y-87777180D02*
X138315163Y-87824800D01*
X138315163Y-87824800D02*
X138410401Y-87872419D01*
X138410401Y-87872419D02*
X138505639Y-87872419D01*
X138505639Y-87872419D02*
X138600877Y-87824800D01*
X138600877Y-87824800D02*
X138648496Y-87777180D01*
X138648496Y-87777180D02*
X138696115Y-87681942D01*
X138696115Y-87681942D02*
X138743734Y-87491466D01*
X138743734Y-87491466D02*
X138743734Y-87253371D01*
X138743734Y-87253371D02*
X138696115Y-87062895D01*
X138696115Y-87062895D02*
X138648496Y-86967657D01*
X138648496Y-86967657D02*
X138600877Y-86920038D01*
X138600877Y-86920038D02*
X138505639Y-86872419D01*
X142743734Y-119586704D02*
X142267544Y-119586704D01*
X142838972Y-119872419D02*
X142505639Y-118872419D01*
X142505639Y-118872419D02*
X142172306Y-119872419D01*
X141886591Y-119824800D02*
X141743734Y-119872419D01*
X141743734Y-119872419D02*
X141505639Y-119872419D01*
X141505639Y-119872419D02*
X141410401Y-119824800D01*
X141410401Y-119824800D02*
X141362782Y-119777180D01*
X141362782Y-119777180D02*
X141315163Y-119681942D01*
X141315163Y-119681942D02*
X141315163Y-119586704D01*
X141315163Y-119586704D02*
X141362782Y-119491466D01*
X141362782Y-119491466D02*
X141410401Y-119443847D01*
X141410401Y-119443847D02*
X141505639Y-119396228D01*
X141505639Y-119396228D02*
X141696115Y-119348609D01*
X141696115Y-119348609D02*
X141791353Y-119300990D01*
X141791353Y-119300990D02*
X141838972Y-119253371D01*
X141838972Y-119253371D02*
X141886591Y-119158133D01*
X141886591Y-119158133D02*
X141886591Y-119062895D01*
X141886591Y-119062895D02*
X141838972Y-118967657D01*
X141838972Y-118967657D02*
X141791353Y-118920038D01*
X141791353Y-118920038D02*
X141696115Y-118872419D01*
X141696115Y-118872419D02*
X141458020Y-118872419D01*
X141458020Y-118872419D02*
X141315163Y-118920038D01*
X140696115Y-118872419D02*
X140600877Y-118872419D01*
X140600877Y-118872419D02*
X140505639Y-118920038D01*
X140505639Y-118920038D02*
X140458020Y-118967657D01*
X140458020Y-118967657D02*
X140410401Y-119062895D01*
X140410401Y-119062895D02*
X140362782Y-119253371D01*
X140362782Y-119253371D02*
X140362782Y-119491466D01*
X140362782Y-119491466D02*
X140410401Y-119681942D01*
X140410401Y-119681942D02*
X140458020Y-119777180D01*
X140458020Y-119777180D02*
X140505639Y-119824800D01*
X140505639Y-119824800D02*
X140600877Y-119872419D01*
X140600877Y-119872419D02*
X140696115Y-119872419D01*
X140696115Y-119872419D02*
X140791353Y-119824800D01*
X140791353Y-119824800D02*
X140838972Y-119777180D01*
X140838972Y-119777180D02*
X140886591Y-119681942D01*
X140886591Y-119681942D02*
X140934210Y-119491466D01*
X140934210Y-119491466D02*
X140934210Y-119253371D01*
X140934210Y-119253371D02*
X140886591Y-119062895D01*
X140886591Y-119062895D02*
X140838972Y-118967657D01*
X140838972Y-118967657D02*
X140791353Y-118920038D01*
X140791353Y-118920038D02*
X140696115Y-118872419D01*
X139934210Y-119491466D02*
X139172306Y-119491466D01*
X138791353Y-118872419D02*
X138124687Y-118872419D01*
X138124687Y-118872419D02*
X138553258Y-119872419D01*
X332743734Y-133586704D02*
X332267544Y-133586704D01*
X332838972Y-133872419D02*
X332505639Y-132872419D01*
X332505639Y-132872419D02*
X332172306Y-133872419D01*
X331886591Y-133824800D02*
X331743734Y-133872419D01*
X331743734Y-133872419D02*
X331505639Y-133872419D01*
X331505639Y-133872419D02*
X331410401Y-133824800D01*
X331410401Y-133824800D02*
X331362782Y-133777180D01*
X331362782Y-133777180D02*
X331315163Y-133681942D01*
X331315163Y-133681942D02*
X331315163Y-133586704D01*
X331315163Y-133586704D02*
X331362782Y-133491466D01*
X331362782Y-133491466D02*
X331410401Y-133443847D01*
X331410401Y-133443847D02*
X331505639Y-133396228D01*
X331505639Y-133396228D02*
X331696115Y-133348609D01*
X331696115Y-133348609D02*
X331791353Y-133300990D01*
X331791353Y-133300990D02*
X331838972Y-133253371D01*
X331838972Y-133253371D02*
X331886591Y-133158133D01*
X331886591Y-133158133D02*
X331886591Y-133062895D01*
X331886591Y-133062895D02*
X331838972Y-132967657D01*
X331838972Y-132967657D02*
X331791353Y-132920038D01*
X331791353Y-132920038D02*
X331696115Y-132872419D01*
X331696115Y-132872419D02*
X331458020Y-132872419D01*
X331458020Y-132872419D02*
X331315163Y-132920038D01*
X330362782Y-133872419D02*
X330934210Y-133872419D01*
X330648496Y-133872419D02*
X330648496Y-132872419D01*
X330648496Y-132872419D02*
X330743734Y-133015276D01*
X330743734Y-133015276D02*
X330838972Y-133110514D01*
X330838972Y-133110514D02*
X330934210Y-133158133D01*
X329934210Y-133491466D02*
X329172306Y-133491466D01*
X328505639Y-132872419D02*
X328410401Y-132872419D01*
X328410401Y-132872419D02*
X328315163Y-132920038D01*
X328315163Y-132920038D02*
X328267544Y-132967657D01*
X328267544Y-132967657D02*
X328219925Y-133062895D01*
X328219925Y-133062895D02*
X328172306Y-133253371D01*
X328172306Y-133253371D02*
X328172306Y-133491466D01*
X328172306Y-133491466D02*
X328219925Y-133681942D01*
X328219925Y-133681942D02*
X328267544Y-133777180D01*
X328267544Y-133777180D02*
X328315163Y-133824800D01*
X328315163Y-133824800D02*
X328410401Y-133872419D01*
X328410401Y-133872419D02*
X328505639Y-133872419D01*
X328505639Y-133872419D02*
X328600877Y-133824800D01*
X328600877Y-133824800D02*
X328648496Y-133777180D01*
X328648496Y-133777180D02*
X328696115Y-133681942D01*
X328696115Y-133681942D02*
X328743734Y-133491466D01*
X328743734Y-133491466D02*
X328743734Y-133253371D01*
X328743734Y-133253371D02*
X328696115Y-133062895D01*
X328696115Y-133062895D02*
X328648496Y-132967657D01*
X328648496Y-132967657D02*
X328600877Y-132920038D01*
X328600877Y-132920038D02*
X328505639Y-132872419D01*
X84743734Y-137586704D02*
X84267544Y-137586704D01*
X84838972Y-137872419D02*
X84505639Y-136872419D01*
X84505639Y-136872419D02*
X84172306Y-137872419D01*
X83886591Y-137824800D02*
X83743734Y-137872419D01*
X83743734Y-137872419D02*
X83505639Y-137872419D01*
X83505639Y-137872419D02*
X83410401Y-137824800D01*
X83410401Y-137824800D02*
X83362782Y-137777180D01*
X83362782Y-137777180D02*
X83315163Y-137681942D01*
X83315163Y-137681942D02*
X83315163Y-137586704D01*
X83315163Y-137586704D02*
X83362782Y-137491466D01*
X83362782Y-137491466D02*
X83410401Y-137443847D01*
X83410401Y-137443847D02*
X83505639Y-137396228D01*
X83505639Y-137396228D02*
X83696115Y-137348609D01*
X83696115Y-137348609D02*
X83791353Y-137300990D01*
X83791353Y-137300990D02*
X83838972Y-137253371D01*
X83838972Y-137253371D02*
X83886591Y-137158133D01*
X83886591Y-137158133D02*
X83886591Y-137062895D01*
X83886591Y-137062895D02*
X83838972Y-136967657D01*
X83838972Y-136967657D02*
X83791353Y-136920038D01*
X83791353Y-136920038D02*
X83696115Y-136872419D01*
X83696115Y-136872419D02*
X83458020Y-136872419D01*
X83458020Y-136872419D02*
X83315163Y-136920038D01*
X82696115Y-136872419D02*
X82600877Y-136872419D01*
X82600877Y-136872419D02*
X82505639Y-136920038D01*
X82505639Y-136920038D02*
X82458020Y-136967657D01*
X82458020Y-136967657D02*
X82410401Y-137062895D01*
X82410401Y-137062895D02*
X82362782Y-137253371D01*
X82362782Y-137253371D02*
X82362782Y-137491466D01*
X82362782Y-137491466D02*
X82410401Y-137681942D01*
X82410401Y-137681942D02*
X82458020Y-137777180D01*
X82458020Y-137777180D02*
X82505639Y-137824800D01*
X82505639Y-137824800D02*
X82600877Y-137872419D01*
X82600877Y-137872419D02*
X82696115Y-137872419D01*
X82696115Y-137872419D02*
X82791353Y-137824800D01*
X82791353Y-137824800D02*
X82838972Y-137777180D01*
X82838972Y-137777180D02*
X82886591Y-137681942D01*
X82886591Y-137681942D02*
X82934210Y-137491466D01*
X82934210Y-137491466D02*
X82934210Y-137253371D01*
X82934210Y-137253371D02*
X82886591Y-137062895D01*
X82886591Y-137062895D02*
X82838972Y-136967657D01*
X82838972Y-136967657D02*
X82791353Y-136920038D01*
X82791353Y-136920038D02*
X82696115Y-136872419D01*
X81934210Y-137491466D02*
X81172306Y-137491466D01*
X80267544Y-137205752D02*
X80267544Y-137872419D01*
X80505639Y-136824800D02*
X80743734Y-137539085D01*
X80743734Y-137539085D02*
X80124687Y-137539085D01*
X276743734Y-107586704D02*
X276267544Y-107586704D01*
X276838972Y-107872419D02*
X276505639Y-106872419D01*
X276505639Y-106872419D02*
X276172306Y-107872419D01*
X275886591Y-107824800D02*
X275743734Y-107872419D01*
X275743734Y-107872419D02*
X275505639Y-107872419D01*
X275505639Y-107872419D02*
X275410401Y-107824800D01*
X275410401Y-107824800D02*
X275362782Y-107777180D01*
X275362782Y-107777180D02*
X275315163Y-107681942D01*
X275315163Y-107681942D02*
X275315163Y-107586704D01*
X275315163Y-107586704D02*
X275362782Y-107491466D01*
X275362782Y-107491466D02*
X275410401Y-107443847D01*
X275410401Y-107443847D02*
X275505639Y-107396228D01*
X275505639Y-107396228D02*
X275696115Y-107348609D01*
X275696115Y-107348609D02*
X275791353Y-107300990D01*
X275791353Y-107300990D02*
X275838972Y-107253371D01*
X275838972Y-107253371D02*
X275886591Y-107158133D01*
X275886591Y-107158133D02*
X275886591Y-107062895D01*
X275886591Y-107062895D02*
X275838972Y-106967657D01*
X275838972Y-106967657D02*
X275791353Y-106920038D01*
X275791353Y-106920038D02*
X275696115Y-106872419D01*
X275696115Y-106872419D02*
X275458020Y-106872419D01*
X275458020Y-106872419D02*
X275315163Y-106920038D01*
X274362782Y-107872419D02*
X274934210Y-107872419D01*
X274648496Y-107872419D02*
X274648496Y-106872419D01*
X274648496Y-106872419D02*
X274743734Y-107015276D01*
X274743734Y-107015276D02*
X274838972Y-107110514D01*
X274838972Y-107110514D02*
X274934210Y-107158133D01*
X273934210Y-107491466D02*
X273172306Y-107491466D01*
X272791353Y-106872419D02*
X272124687Y-106872419D01*
X272124687Y-106872419D02*
X272553258Y-107872419D01*
X200743734Y-103586704D02*
X200267544Y-103586704D01*
X200838972Y-103872419D02*
X200505639Y-102872419D01*
X200505639Y-102872419D02*
X200172306Y-103872419D01*
X199886591Y-103824800D02*
X199743734Y-103872419D01*
X199743734Y-103872419D02*
X199505639Y-103872419D01*
X199505639Y-103872419D02*
X199410401Y-103824800D01*
X199410401Y-103824800D02*
X199362782Y-103777180D01*
X199362782Y-103777180D02*
X199315163Y-103681942D01*
X199315163Y-103681942D02*
X199315163Y-103586704D01*
X199315163Y-103586704D02*
X199362782Y-103491466D01*
X199362782Y-103491466D02*
X199410401Y-103443847D01*
X199410401Y-103443847D02*
X199505639Y-103396228D01*
X199505639Y-103396228D02*
X199696115Y-103348609D01*
X199696115Y-103348609D02*
X199791353Y-103300990D01*
X199791353Y-103300990D02*
X199838972Y-103253371D01*
X199838972Y-103253371D02*
X199886591Y-103158133D01*
X199886591Y-103158133D02*
X199886591Y-103062895D01*
X199886591Y-103062895D02*
X199838972Y-102967657D01*
X199838972Y-102967657D02*
X199791353Y-102920038D01*
X199791353Y-102920038D02*
X199696115Y-102872419D01*
X199696115Y-102872419D02*
X199458020Y-102872419D01*
X199458020Y-102872419D02*
X199315163Y-102920038D01*
X198362782Y-103872419D02*
X198934210Y-103872419D01*
X198648496Y-103872419D02*
X198648496Y-102872419D01*
X198648496Y-102872419D02*
X198743734Y-103015276D01*
X198743734Y-103015276D02*
X198838972Y-103110514D01*
X198838972Y-103110514D02*
X198934210Y-103158133D01*
X197934210Y-103491466D02*
X197172306Y-103491466D01*
X196743734Y-102967657D02*
X196696115Y-102920038D01*
X196696115Y-102920038D02*
X196600877Y-102872419D01*
X196600877Y-102872419D02*
X196362782Y-102872419D01*
X196362782Y-102872419D02*
X196267544Y-102920038D01*
X196267544Y-102920038D02*
X196219925Y-102967657D01*
X196219925Y-102967657D02*
X196172306Y-103062895D01*
X196172306Y-103062895D02*
X196172306Y-103158133D01*
X196172306Y-103158133D02*
X196219925Y-103300990D01*
X196219925Y-103300990D02*
X196791353Y-103872419D01*
X196791353Y-103872419D02*
X196172306Y-103872419D01*
X112743734Y-121586704D02*
X112267544Y-121586704D01*
X112838972Y-121872419D02*
X112505639Y-120872419D01*
X112505639Y-120872419D02*
X112172306Y-121872419D01*
X111886591Y-121824800D02*
X111743734Y-121872419D01*
X111743734Y-121872419D02*
X111505639Y-121872419D01*
X111505639Y-121872419D02*
X111410401Y-121824800D01*
X111410401Y-121824800D02*
X111362782Y-121777180D01*
X111362782Y-121777180D02*
X111315163Y-121681942D01*
X111315163Y-121681942D02*
X111315163Y-121586704D01*
X111315163Y-121586704D02*
X111362782Y-121491466D01*
X111362782Y-121491466D02*
X111410401Y-121443847D01*
X111410401Y-121443847D02*
X111505639Y-121396228D01*
X111505639Y-121396228D02*
X111696115Y-121348609D01*
X111696115Y-121348609D02*
X111791353Y-121300990D01*
X111791353Y-121300990D02*
X111838972Y-121253371D01*
X111838972Y-121253371D02*
X111886591Y-121158133D01*
X111886591Y-121158133D02*
X111886591Y-121062895D01*
X111886591Y-121062895D02*
X111838972Y-120967657D01*
X111838972Y-120967657D02*
X111791353Y-120920038D01*
X111791353Y-120920038D02*
X111696115Y-120872419D01*
X111696115Y-120872419D02*
X111458020Y-120872419D01*
X111458020Y-120872419D02*
X111315163Y-120920038D01*
X110696115Y-120872419D02*
X110600877Y-120872419D01*
X110600877Y-120872419D02*
X110505639Y-120920038D01*
X110505639Y-120920038D02*
X110458020Y-120967657D01*
X110458020Y-120967657D02*
X110410401Y-121062895D01*
X110410401Y-121062895D02*
X110362782Y-121253371D01*
X110362782Y-121253371D02*
X110362782Y-121491466D01*
X110362782Y-121491466D02*
X110410401Y-121681942D01*
X110410401Y-121681942D02*
X110458020Y-121777180D01*
X110458020Y-121777180D02*
X110505639Y-121824800D01*
X110505639Y-121824800D02*
X110600877Y-121872419D01*
X110600877Y-121872419D02*
X110696115Y-121872419D01*
X110696115Y-121872419D02*
X110791353Y-121824800D01*
X110791353Y-121824800D02*
X110838972Y-121777180D01*
X110838972Y-121777180D02*
X110886591Y-121681942D01*
X110886591Y-121681942D02*
X110934210Y-121491466D01*
X110934210Y-121491466D02*
X110934210Y-121253371D01*
X110934210Y-121253371D02*
X110886591Y-121062895D01*
X110886591Y-121062895D02*
X110838972Y-120967657D01*
X110838972Y-120967657D02*
X110791353Y-120920038D01*
X110791353Y-120920038D02*
X110696115Y-120872419D01*
X109934210Y-121491466D02*
X109172306Y-121491466D01*
X108267544Y-120872419D02*
X108458020Y-120872419D01*
X108458020Y-120872419D02*
X108553258Y-120920038D01*
X108553258Y-120920038D02*
X108600877Y-120967657D01*
X108600877Y-120967657D02*
X108696115Y-121110514D01*
X108696115Y-121110514D02*
X108743734Y-121300990D01*
X108743734Y-121300990D02*
X108743734Y-121681942D01*
X108743734Y-121681942D02*
X108696115Y-121777180D01*
X108696115Y-121777180D02*
X108648496Y-121824800D01*
X108648496Y-121824800D02*
X108553258Y-121872419D01*
X108553258Y-121872419D02*
X108362782Y-121872419D01*
X108362782Y-121872419D02*
X108267544Y-121824800D01*
X108267544Y-121824800D02*
X108219925Y-121777180D01*
X108219925Y-121777180D02*
X108172306Y-121681942D01*
X108172306Y-121681942D02*
X108172306Y-121443847D01*
X108172306Y-121443847D02*
X108219925Y-121348609D01*
X108219925Y-121348609D02*
X108267544Y-121300990D01*
X108267544Y-121300990D02*
X108362782Y-121253371D01*
X108362782Y-121253371D02*
X108553258Y-121253371D01*
X108553258Y-121253371D02*
X108648496Y-121300990D01*
X108648496Y-121300990D02*
X108696115Y-121348609D01*
X108696115Y-121348609D02*
X108743734Y-121443847D01*
X216743734Y-169586704D02*
X216267544Y-169586704D01*
X216838972Y-169872419D02*
X216505639Y-168872419D01*
X216505639Y-168872419D02*
X216172306Y-169872419D01*
X215886591Y-169824800D02*
X215743734Y-169872419D01*
X215743734Y-169872419D02*
X215505639Y-169872419D01*
X215505639Y-169872419D02*
X215410401Y-169824800D01*
X215410401Y-169824800D02*
X215362782Y-169777180D01*
X215362782Y-169777180D02*
X215315163Y-169681942D01*
X215315163Y-169681942D02*
X215315163Y-169586704D01*
X215315163Y-169586704D02*
X215362782Y-169491466D01*
X215362782Y-169491466D02*
X215410401Y-169443847D01*
X215410401Y-169443847D02*
X215505639Y-169396228D01*
X215505639Y-169396228D02*
X215696115Y-169348609D01*
X215696115Y-169348609D02*
X215791353Y-169300990D01*
X215791353Y-169300990D02*
X215838972Y-169253371D01*
X215838972Y-169253371D02*
X215886591Y-169158133D01*
X215886591Y-169158133D02*
X215886591Y-169062895D01*
X215886591Y-169062895D02*
X215838972Y-168967657D01*
X215838972Y-168967657D02*
X215791353Y-168920038D01*
X215791353Y-168920038D02*
X215696115Y-168872419D01*
X215696115Y-168872419D02*
X215458020Y-168872419D01*
X215458020Y-168872419D02*
X215315163Y-168920038D01*
X214362782Y-169872419D02*
X214934210Y-169872419D01*
X214648496Y-169872419D02*
X214648496Y-168872419D01*
X214648496Y-168872419D02*
X214743734Y-169015276D01*
X214743734Y-169015276D02*
X214838972Y-169110514D01*
X214838972Y-169110514D02*
X214934210Y-169158133D01*
X213934210Y-169491466D02*
X213172306Y-169491466D01*
X212267544Y-169205752D02*
X212267544Y-169872419D01*
X212505639Y-168824800D02*
X212743734Y-169539085D01*
X212743734Y-169539085D02*
X212124687Y-169539085D01*
D11*
X121292293Y-178993857D02*
X121292293Y-181422428D01*
X121292293Y-181422428D02*
X121149436Y-181708142D01*
X121149436Y-181708142D02*
X121006579Y-181851000D01*
X121006579Y-181851000D02*
X120720864Y-181993857D01*
X120720864Y-181993857D02*
X120149436Y-181993857D01*
X120149436Y-181993857D02*
X119863721Y-181851000D01*
X119863721Y-181851000D02*
X119720864Y-181708142D01*
X119720864Y-181708142D02*
X119578007Y-181422428D01*
X119578007Y-181422428D02*
X119578007Y-178993857D01*
X116863722Y-181993857D02*
X116863722Y-178993857D01*
X116863722Y-181851000D02*
X117149436Y-181993857D01*
X117149436Y-181993857D02*
X117720864Y-181993857D01*
X117720864Y-181993857D02*
X118006579Y-181851000D01*
X118006579Y-181851000D02*
X118149436Y-181708142D01*
X118149436Y-181708142D02*
X118292293Y-181422428D01*
X118292293Y-181422428D02*
X118292293Y-180565285D01*
X118292293Y-180565285D02*
X118149436Y-180279571D01*
X118149436Y-180279571D02*
X118006579Y-180136714D01*
X118006579Y-180136714D02*
X117720864Y-179993857D01*
X117720864Y-179993857D02*
X117149436Y-179993857D01*
X117149436Y-179993857D02*
X116863722Y-180136714D01*
X115006578Y-181993857D02*
X115292293Y-181851000D01*
X115292293Y-181851000D02*
X115435150Y-181708142D01*
X115435150Y-181708142D02*
X115578007Y-181422428D01*
X115578007Y-181422428D02*
X115578007Y-180565285D01*
X115578007Y-180565285D02*
X115435150Y-180279571D01*
X115435150Y-180279571D02*
X115292293Y-180136714D01*
X115292293Y-180136714D02*
X115006578Y-179993857D01*
X115006578Y-179993857D02*
X114578007Y-179993857D01*
X114578007Y-179993857D02*
X114292293Y-180136714D01*
X114292293Y-180136714D02*
X114149436Y-180279571D01*
X114149436Y-180279571D02*
X114006578Y-180565285D01*
X114006578Y-180565285D02*
X114006578Y-181422428D01*
X114006578Y-181422428D02*
X114149436Y-181708142D01*
X114149436Y-181708142D02*
X114292293Y-181851000D01*
X114292293Y-181851000D02*
X114578007Y-181993857D01*
X114578007Y-181993857D02*
X115006578Y-181993857D01*
X112720864Y-179993857D02*
X112720864Y-181993857D01*
X112720864Y-180279571D02*
X112578007Y-180136714D01*
X112578007Y-180136714D02*
X112292292Y-179993857D01*
X112292292Y-179993857D02*
X111863721Y-179993857D01*
X111863721Y-179993857D02*
X111578007Y-180136714D01*
X111578007Y-180136714D02*
X111435150Y-180422428D01*
X111435150Y-180422428D02*
X111435150Y-181993857D01*
X108720864Y-179993857D02*
X108720864Y-182422428D01*
X108720864Y-182422428D02*
X108863721Y-182708142D01*
X108863721Y-182708142D02*
X109006578Y-182851000D01*
X109006578Y-182851000D02*
X109292292Y-182993857D01*
X109292292Y-182993857D02*
X109720864Y-182993857D01*
X109720864Y-182993857D02*
X110006578Y-182851000D01*
X108720864Y-181851000D02*
X109006578Y-181993857D01*
X109006578Y-181993857D02*
X109578006Y-181993857D01*
X109578006Y-181993857D02*
X109863721Y-181851000D01*
X109863721Y-181851000D02*
X110006578Y-181708142D01*
X110006578Y-181708142D02*
X110149435Y-181422428D01*
X110149435Y-181422428D02*
X110149435Y-180565285D01*
X110149435Y-180565285D02*
X110006578Y-180279571D01*
X110006578Y-180279571D02*
X109863721Y-180136714D01*
X109863721Y-180136714D02*
X109578006Y-179993857D01*
X109578006Y-179993857D02*
X109006578Y-179993857D01*
X109006578Y-179993857D02*
X108720864Y-180136714D01*
X104006578Y-180422428D02*
X103578006Y-180565285D01*
X103578006Y-180565285D02*
X103435149Y-180708142D01*
X103435149Y-180708142D02*
X103292292Y-180993857D01*
X103292292Y-180993857D02*
X103292292Y-181422428D01*
X103292292Y-181422428D02*
X103435149Y-181708142D01*
X103435149Y-181708142D02*
X103578006Y-181851000D01*
X103578006Y-181851000D02*
X103863721Y-181993857D01*
X103863721Y-181993857D02*
X105006578Y-181993857D01*
X105006578Y-181993857D02*
X105006578Y-178993857D01*
X105006578Y-178993857D02*
X104006578Y-178993857D01*
X104006578Y-178993857D02*
X103720864Y-179136714D01*
X103720864Y-179136714D02*
X103578006Y-179279571D01*
X103578006Y-179279571D02*
X103435149Y-179565285D01*
X103435149Y-179565285D02*
X103435149Y-179851000D01*
X103435149Y-179851000D02*
X103578006Y-180136714D01*
X103578006Y-180136714D02*
X103720864Y-180279571D01*
X103720864Y-180279571D02*
X104006578Y-180422428D01*
X104006578Y-180422428D02*
X105006578Y-180422428D01*
X101578006Y-181993857D02*
X101863721Y-181851000D01*
X101863721Y-181851000D02*
X102006578Y-181708142D01*
X102006578Y-181708142D02*
X102149435Y-181422428D01*
X102149435Y-181422428D02*
X102149435Y-180565285D01*
X102149435Y-180565285D02*
X102006578Y-180279571D01*
X102006578Y-180279571D02*
X101863721Y-180136714D01*
X101863721Y-180136714D02*
X101578006Y-179993857D01*
X101578006Y-179993857D02*
X101149435Y-179993857D01*
X101149435Y-179993857D02*
X100863721Y-180136714D01*
X100863721Y-180136714D02*
X100720864Y-180279571D01*
X100720864Y-180279571D02*
X100578006Y-180565285D01*
X100578006Y-180565285D02*
X100578006Y-181422428D01*
X100578006Y-181422428D02*
X100720864Y-181708142D01*
X100720864Y-181708142D02*
X100863721Y-181851000D01*
X100863721Y-181851000D02*
X101149435Y-181993857D01*
X101149435Y-181993857D02*
X101578006Y-181993857D01*
X98006578Y-181993857D02*
X98006578Y-180422428D01*
X98006578Y-180422428D02*
X98149435Y-180136714D01*
X98149435Y-180136714D02*
X98435149Y-179993857D01*
X98435149Y-179993857D02*
X99006578Y-179993857D01*
X99006578Y-179993857D02*
X99292292Y-180136714D01*
X98006578Y-181851000D02*
X98292292Y-181993857D01*
X98292292Y-181993857D02*
X99006578Y-181993857D01*
X99006578Y-181993857D02*
X99292292Y-181851000D01*
X99292292Y-181851000D02*
X99435149Y-181565285D01*
X99435149Y-181565285D02*
X99435149Y-181279571D01*
X99435149Y-181279571D02*
X99292292Y-180993857D01*
X99292292Y-180993857D02*
X99006578Y-180851000D01*
X99006578Y-180851000D02*
X98292292Y-180851000D01*
X98292292Y-180851000D02*
X98006578Y-180708142D01*
X96578006Y-181993857D02*
X96578006Y-179993857D01*
X96578006Y-180565285D02*
X96435149Y-180279571D01*
X96435149Y-180279571D02*
X96292292Y-180136714D01*
X96292292Y-180136714D02*
X96006577Y-179993857D01*
X96006577Y-179993857D02*
X95720863Y-179993857D01*
X93435149Y-181993857D02*
X93435149Y-178993857D01*
X93435149Y-181851000D02*
X93720863Y-181993857D01*
X93720863Y-181993857D02*
X94292291Y-181993857D01*
X94292291Y-181993857D02*
X94578006Y-181851000D01*
X94578006Y-181851000D02*
X94720863Y-181708142D01*
X94720863Y-181708142D02*
X94863720Y-181422428D01*
X94863720Y-181422428D02*
X94863720Y-180565285D01*
X94863720Y-180565285D02*
X94720863Y-180279571D01*
X94720863Y-180279571D02*
X94578006Y-180136714D01*
X94578006Y-180136714D02*
X94292291Y-179993857D01*
X94292291Y-179993857D02*
X93720863Y-179993857D01*
X93720863Y-179993857D02*
X93435149Y-180136714D01*
X89720863Y-181993857D02*
X89720863Y-179993857D01*
X89720863Y-180565285D02*
X89578006Y-180279571D01*
X89578006Y-180279571D02*
X89435149Y-180136714D01*
X89435149Y-180136714D02*
X89149434Y-179993857D01*
X89149434Y-179993857D02*
X88863720Y-179993857D01*
X86720863Y-181851000D02*
X87006577Y-181993857D01*
X87006577Y-181993857D02*
X87578006Y-181993857D01*
X87578006Y-181993857D02*
X87863720Y-181851000D01*
X87863720Y-181851000D02*
X88006577Y-181565285D01*
X88006577Y-181565285D02*
X88006577Y-180422428D01*
X88006577Y-180422428D02*
X87863720Y-180136714D01*
X87863720Y-180136714D02*
X87578006Y-179993857D01*
X87578006Y-179993857D02*
X87006577Y-179993857D01*
X87006577Y-179993857D02*
X86720863Y-180136714D01*
X86720863Y-180136714D02*
X86578006Y-180422428D01*
X86578006Y-180422428D02*
X86578006Y-180708142D01*
X86578006Y-180708142D02*
X88006577Y-180993857D01*
X85578005Y-179993857D02*
X84863719Y-181993857D01*
X84863719Y-181993857D02*
X84149434Y-179993857D01*
X83006577Y-181708142D02*
X82863720Y-181851000D01*
X82863720Y-181851000D02*
X83006577Y-181993857D01*
X83006577Y-181993857D02*
X83149434Y-181851000D01*
X83149434Y-181851000D02*
X83006577Y-181708142D01*
X83006577Y-181708142D02*
X83006577Y-181993857D01*
X81720863Y-179279571D02*
X81578006Y-179136714D01*
X81578006Y-179136714D02*
X81292292Y-178993857D01*
X81292292Y-178993857D02*
X80578006Y-178993857D01*
X80578006Y-178993857D02*
X80292292Y-179136714D01*
X80292292Y-179136714D02*
X80149434Y-179279571D01*
X80149434Y-179279571D02*
X80006577Y-179565285D01*
X80006577Y-179565285D02*
X80006577Y-179851000D01*
X80006577Y-179851000D02*
X80149434Y-180279571D01*
X80149434Y-180279571D02*
X81863720Y-181993857D01*
X81863720Y-181993857D02*
X80006577Y-181993857D01*
D10*
X306743734Y-109586704D02*
X306267544Y-109586704D01*
X306838972Y-109872419D02*
X306505639Y-108872419D01*
X306505639Y-108872419D02*
X306172306Y-109872419D01*
X305886591Y-109824800D02*
X305743734Y-109872419D01*
X305743734Y-109872419D02*
X305505639Y-109872419D01*
X305505639Y-109872419D02*
X305410401Y-109824800D01*
X305410401Y-109824800D02*
X305362782Y-109777180D01*
X305362782Y-109777180D02*
X305315163Y-109681942D01*
X305315163Y-109681942D02*
X305315163Y-109586704D01*
X305315163Y-109586704D02*
X305362782Y-109491466D01*
X305362782Y-109491466D02*
X305410401Y-109443847D01*
X305410401Y-109443847D02*
X305505639Y-109396228D01*
X305505639Y-109396228D02*
X305696115Y-109348609D01*
X305696115Y-109348609D02*
X305791353Y-109300990D01*
X305791353Y-109300990D02*
X305838972Y-109253371D01*
X305838972Y-109253371D02*
X305886591Y-109158133D01*
X305886591Y-109158133D02*
X305886591Y-109062895D01*
X305886591Y-109062895D02*
X305838972Y-108967657D01*
X305838972Y-108967657D02*
X305791353Y-108920038D01*
X305791353Y-108920038D02*
X305696115Y-108872419D01*
X305696115Y-108872419D02*
X305458020Y-108872419D01*
X305458020Y-108872419D02*
X305315163Y-108920038D01*
X304362782Y-109872419D02*
X304934210Y-109872419D01*
X304648496Y-109872419D02*
X304648496Y-108872419D01*
X304648496Y-108872419D02*
X304743734Y-109015276D01*
X304743734Y-109015276D02*
X304838972Y-109110514D01*
X304838972Y-109110514D02*
X304934210Y-109158133D01*
X303934210Y-109491466D02*
X303172306Y-109491466D01*
X302219925Y-108872419D02*
X302696115Y-108872419D01*
X302696115Y-108872419D02*
X302743734Y-109348609D01*
X302743734Y-109348609D02*
X302696115Y-109300990D01*
X302696115Y-109300990D02*
X302600877Y-109253371D01*
X302600877Y-109253371D02*
X302362782Y-109253371D01*
X302362782Y-109253371D02*
X302267544Y-109300990D01*
X302267544Y-109300990D02*
X302219925Y-109348609D01*
X302219925Y-109348609D02*
X302172306Y-109443847D01*
X302172306Y-109443847D02*
X302172306Y-109681942D01*
X302172306Y-109681942D02*
X302219925Y-109777180D01*
X302219925Y-109777180D02*
X302267544Y-109824800D01*
X302267544Y-109824800D02*
X302362782Y-109872419D01*
X302362782Y-109872419D02*
X302600877Y-109872419D01*
X302600877Y-109872419D02*
X302696115Y-109824800D01*
X302696115Y-109824800D02*
X302743734Y-109777180D01*
X246743734Y-109586704D02*
X246267544Y-109586704D01*
X246838972Y-109872419D02*
X246505639Y-108872419D01*
X246505639Y-108872419D02*
X246172306Y-109872419D01*
X245886591Y-109824800D02*
X245743734Y-109872419D01*
X245743734Y-109872419D02*
X245505639Y-109872419D01*
X245505639Y-109872419D02*
X245410401Y-109824800D01*
X245410401Y-109824800D02*
X245362782Y-109777180D01*
X245362782Y-109777180D02*
X245315163Y-109681942D01*
X245315163Y-109681942D02*
X245315163Y-109586704D01*
X245315163Y-109586704D02*
X245362782Y-109491466D01*
X245362782Y-109491466D02*
X245410401Y-109443847D01*
X245410401Y-109443847D02*
X245505639Y-109396228D01*
X245505639Y-109396228D02*
X245696115Y-109348609D01*
X245696115Y-109348609D02*
X245791353Y-109300990D01*
X245791353Y-109300990D02*
X245838972Y-109253371D01*
X245838972Y-109253371D02*
X245886591Y-109158133D01*
X245886591Y-109158133D02*
X245886591Y-109062895D01*
X245886591Y-109062895D02*
X245838972Y-108967657D01*
X245838972Y-108967657D02*
X245791353Y-108920038D01*
X245791353Y-108920038D02*
X245696115Y-108872419D01*
X245696115Y-108872419D02*
X245458020Y-108872419D01*
X245458020Y-108872419D02*
X245315163Y-108920038D01*
X244362782Y-109872419D02*
X244934210Y-109872419D01*
X244648496Y-109872419D02*
X244648496Y-108872419D01*
X244648496Y-108872419D02*
X244743734Y-109015276D01*
X244743734Y-109015276D02*
X244838972Y-109110514D01*
X244838972Y-109110514D02*
X244934210Y-109158133D01*
X243934210Y-109491466D02*
X243172306Y-109491466D01*
X242267544Y-108872419D02*
X242458020Y-108872419D01*
X242458020Y-108872419D02*
X242553258Y-108920038D01*
X242553258Y-108920038D02*
X242600877Y-108967657D01*
X242600877Y-108967657D02*
X242696115Y-109110514D01*
X242696115Y-109110514D02*
X242743734Y-109300990D01*
X242743734Y-109300990D02*
X242743734Y-109681942D01*
X242743734Y-109681942D02*
X242696115Y-109777180D01*
X242696115Y-109777180D02*
X242648496Y-109824800D01*
X242648496Y-109824800D02*
X242553258Y-109872419D01*
X242553258Y-109872419D02*
X242362782Y-109872419D01*
X242362782Y-109872419D02*
X242267544Y-109824800D01*
X242267544Y-109824800D02*
X242219925Y-109777180D01*
X242219925Y-109777180D02*
X242172306Y-109681942D01*
X242172306Y-109681942D02*
X242172306Y-109443847D01*
X242172306Y-109443847D02*
X242219925Y-109348609D01*
X242219925Y-109348609D02*
X242267544Y-109300990D01*
X242267544Y-109300990D02*
X242362782Y-109253371D01*
X242362782Y-109253371D02*
X242553258Y-109253371D01*
X242553258Y-109253371D02*
X242648496Y-109300990D01*
X242648496Y-109300990D02*
X242696115Y-109348609D01*
X242696115Y-109348609D02*
X242743734Y-109443847D01*
X112743734Y-89586704D02*
X112267544Y-89586704D01*
X112838972Y-89872419D02*
X112505639Y-88872419D01*
X112505639Y-88872419D02*
X112172306Y-89872419D01*
X111886591Y-89824800D02*
X111743734Y-89872419D01*
X111743734Y-89872419D02*
X111505639Y-89872419D01*
X111505639Y-89872419D02*
X111410401Y-89824800D01*
X111410401Y-89824800D02*
X111362782Y-89777180D01*
X111362782Y-89777180D02*
X111315163Y-89681942D01*
X111315163Y-89681942D02*
X111315163Y-89586704D01*
X111315163Y-89586704D02*
X111362782Y-89491466D01*
X111362782Y-89491466D02*
X111410401Y-89443847D01*
X111410401Y-89443847D02*
X111505639Y-89396228D01*
X111505639Y-89396228D02*
X111696115Y-89348609D01*
X111696115Y-89348609D02*
X111791353Y-89300990D01*
X111791353Y-89300990D02*
X111838972Y-89253371D01*
X111838972Y-89253371D02*
X111886591Y-89158133D01*
X111886591Y-89158133D02*
X111886591Y-89062895D01*
X111886591Y-89062895D02*
X111838972Y-88967657D01*
X111838972Y-88967657D02*
X111791353Y-88920038D01*
X111791353Y-88920038D02*
X111696115Y-88872419D01*
X111696115Y-88872419D02*
X111458020Y-88872419D01*
X111458020Y-88872419D02*
X111315163Y-88920038D01*
X110696115Y-88872419D02*
X110600877Y-88872419D01*
X110600877Y-88872419D02*
X110505639Y-88920038D01*
X110505639Y-88920038D02*
X110458020Y-88967657D01*
X110458020Y-88967657D02*
X110410401Y-89062895D01*
X110410401Y-89062895D02*
X110362782Y-89253371D01*
X110362782Y-89253371D02*
X110362782Y-89491466D01*
X110362782Y-89491466D02*
X110410401Y-89681942D01*
X110410401Y-89681942D02*
X110458020Y-89777180D01*
X110458020Y-89777180D02*
X110505639Y-89824800D01*
X110505639Y-89824800D02*
X110600877Y-89872419D01*
X110600877Y-89872419D02*
X110696115Y-89872419D01*
X110696115Y-89872419D02*
X110791353Y-89824800D01*
X110791353Y-89824800D02*
X110838972Y-89777180D01*
X110838972Y-89777180D02*
X110886591Y-89681942D01*
X110886591Y-89681942D02*
X110934210Y-89491466D01*
X110934210Y-89491466D02*
X110934210Y-89253371D01*
X110934210Y-89253371D02*
X110886591Y-89062895D01*
X110886591Y-89062895D02*
X110838972Y-88967657D01*
X110838972Y-88967657D02*
X110791353Y-88920038D01*
X110791353Y-88920038D02*
X110696115Y-88872419D01*
X109934210Y-89491466D02*
X109172306Y-89491466D01*
X108172306Y-89872419D02*
X108743734Y-89872419D01*
X108458020Y-89872419D02*
X108458020Y-88872419D01*
X108458020Y-88872419D02*
X108553258Y-89015276D01*
X108553258Y-89015276D02*
X108648496Y-89110514D01*
X108648496Y-89110514D02*
X108743734Y-89158133D01*
X84743734Y-107586704D02*
X84267544Y-107586704D01*
X84838972Y-107872419D02*
X84505639Y-106872419D01*
X84505639Y-106872419D02*
X84172306Y-107872419D01*
X83886591Y-107824800D02*
X83743734Y-107872419D01*
X83743734Y-107872419D02*
X83505639Y-107872419D01*
X83505639Y-107872419D02*
X83410401Y-107824800D01*
X83410401Y-107824800D02*
X83362782Y-107777180D01*
X83362782Y-107777180D02*
X83315163Y-107681942D01*
X83315163Y-107681942D02*
X83315163Y-107586704D01*
X83315163Y-107586704D02*
X83362782Y-107491466D01*
X83362782Y-107491466D02*
X83410401Y-107443847D01*
X83410401Y-107443847D02*
X83505639Y-107396228D01*
X83505639Y-107396228D02*
X83696115Y-107348609D01*
X83696115Y-107348609D02*
X83791353Y-107300990D01*
X83791353Y-107300990D02*
X83838972Y-107253371D01*
X83838972Y-107253371D02*
X83886591Y-107158133D01*
X83886591Y-107158133D02*
X83886591Y-107062895D01*
X83886591Y-107062895D02*
X83838972Y-106967657D01*
X83838972Y-106967657D02*
X83791353Y-106920038D01*
X83791353Y-106920038D02*
X83696115Y-106872419D01*
X83696115Y-106872419D02*
X83458020Y-106872419D01*
X83458020Y-106872419D02*
X83315163Y-106920038D01*
X82696115Y-106872419D02*
X82600877Y-106872419D01*
X82600877Y-106872419D02*
X82505639Y-106920038D01*
X82505639Y-106920038D02*
X82458020Y-106967657D01*
X82458020Y-106967657D02*
X82410401Y-107062895D01*
X82410401Y-107062895D02*
X82362782Y-107253371D01*
X82362782Y-107253371D02*
X82362782Y-107491466D01*
X82362782Y-107491466D02*
X82410401Y-107681942D01*
X82410401Y-107681942D02*
X82458020Y-107777180D01*
X82458020Y-107777180D02*
X82505639Y-107824800D01*
X82505639Y-107824800D02*
X82600877Y-107872419D01*
X82600877Y-107872419D02*
X82696115Y-107872419D01*
X82696115Y-107872419D02*
X82791353Y-107824800D01*
X82791353Y-107824800D02*
X82838972Y-107777180D01*
X82838972Y-107777180D02*
X82886591Y-107681942D01*
X82886591Y-107681942D02*
X82934210Y-107491466D01*
X82934210Y-107491466D02*
X82934210Y-107253371D01*
X82934210Y-107253371D02*
X82886591Y-107062895D01*
X82886591Y-107062895D02*
X82838972Y-106967657D01*
X82838972Y-106967657D02*
X82791353Y-106920038D01*
X82791353Y-106920038D02*
X82696115Y-106872419D01*
X81934210Y-107491466D02*
X81172306Y-107491466D01*
X80743734Y-106967657D02*
X80696115Y-106920038D01*
X80696115Y-106920038D02*
X80600877Y-106872419D01*
X80600877Y-106872419D02*
X80362782Y-106872419D01*
X80362782Y-106872419D02*
X80267544Y-106920038D01*
X80267544Y-106920038D02*
X80219925Y-106967657D01*
X80219925Y-106967657D02*
X80172306Y-107062895D01*
X80172306Y-107062895D02*
X80172306Y-107158133D01*
X80172306Y-107158133D02*
X80219925Y-107300990D01*
X80219925Y-107300990D02*
X80791353Y-107872419D01*
X80791353Y-107872419D02*
X80172306Y-107872419D01*
X186743734Y-159586704D02*
X186267544Y-159586704D01*
X186838972Y-159872419D02*
X186505639Y-158872419D01*
X186505639Y-158872419D02*
X186172306Y-159872419D01*
X185886591Y-159824800D02*
X185743734Y-159872419D01*
X185743734Y-159872419D02*
X185505639Y-159872419D01*
X185505639Y-159872419D02*
X185410401Y-159824800D01*
X185410401Y-159824800D02*
X185362782Y-159777180D01*
X185362782Y-159777180D02*
X185315163Y-159681942D01*
X185315163Y-159681942D02*
X185315163Y-159586704D01*
X185315163Y-159586704D02*
X185362782Y-159491466D01*
X185362782Y-159491466D02*
X185410401Y-159443847D01*
X185410401Y-159443847D02*
X185505639Y-159396228D01*
X185505639Y-159396228D02*
X185696115Y-159348609D01*
X185696115Y-159348609D02*
X185791353Y-159300990D01*
X185791353Y-159300990D02*
X185838972Y-159253371D01*
X185838972Y-159253371D02*
X185886591Y-159158133D01*
X185886591Y-159158133D02*
X185886591Y-159062895D01*
X185886591Y-159062895D02*
X185838972Y-158967657D01*
X185838972Y-158967657D02*
X185791353Y-158920038D01*
X185791353Y-158920038D02*
X185696115Y-158872419D01*
X185696115Y-158872419D02*
X185458020Y-158872419D01*
X185458020Y-158872419D02*
X185315163Y-158920038D01*
X184362782Y-159872419D02*
X184934210Y-159872419D01*
X184648496Y-159872419D02*
X184648496Y-158872419D01*
X184648496Y-158872419D02*
X184743734Y-159015276D01*
X184743734Y-159015276D02*
X184838972Y-159110514D01*
X184838972Y-159110514D02*
X184934210Y-159158133D01*
X183934210Y-159491466D02*
X183172306Y-159491466D01*
X182172306Y-159872419D02*
X182743734Y-159872419D01*
X182458020Y-159872419D02*
X182458020Y-158872419D01*
X182458020Y-158872419D02*
X182553258Y-159015276D01*
X182553258Y-159015276D02*
X182648496Y-159110514D01*
X182648496Y-159110514D02*
X182743734Y-159158133D01*
D12*
G04 #@! TO.C,K12*
X212900000Y-170900000D02*
X212900000Y-185100000D01*
X212900000Y-185100000D02*
X227100000Y-185100000D01*
X227100000Y-170900000D02*
X212900000Y-170900000D01*
X227100000Y-185100000D02*
X227100000Y-170900000D01*
G04 #@! TO.C,K14*
X242900000Y-110900000D02*
X242900000Y-125100000D01*
X242900000Y-125100000D02*
X257100000Y-125100000D01*
X257100000Y-110900000D02*
X242900000Y-110900000D01*
X257100000Y-125100000D02*
X257100000Y-110900000D01*
G04 #@! TO.C,K5*
X168900000Y-122900000D02*
X168900000Y-137100000D01*
X168900000Y-137100000D02*
X183100000Y-137100000D01*
X183100000Y-122900000D02*
X168900000Y-122900000D01*
X183100000Y-137100000D02*
X183100000Y-122900000D01*
G04 #@! TO.C,K8*
X328900000Y-134900000D02*
X328900000Y-149100000D01*
X328900000Y-149100000D02*
X343100000Y-149100000D01*
X343100000Y-134900000D02*
X328900000Y-134900000D01*
X343100000Y-149100000D02*
X343100000Y-134900000D01*
G04 #@! TO.C,K7*
X138900000Y-120900000D02*
X138900000Y-135100000D01*
X138900000Y-135100000D02*
X153100000Y-135100000D01*
X153100000Y-120900000D02*
X138900000Y-120900000D01*
X153100000Y-135100000D02*
X153100000Y-120900000D01*
G04 #@! TO.C,K13*
X302900000Y-110900000D02*
X302900000Y-125100000D01*
X302900000Y-125100000D02*
X317100000Y-125100000D01*
X317100000Y-110900000D02*
X302900000Y-110900000D01*
X317100000Y-125100000D02*
X317100000Y-110900000D01*
G04 #@! TO.C,K1*
X108900000Y-90900000D02*
X108900000Y-105100000D01*
X108900000Y-105100000D02*
X123100000Y-105100000D01*
X123100000Y-90900000D02*
X108900000Y-90900000D01*
X123100000Y-105100000D02*
X123100000Y-90900000D01*
G04 #@! TO.C,K4*
X80900000Y-138900000D02*
X80900000Y-153100000D01*
X80900000Y-153100000D02*
X95100000Y-153100000D01*
X95100000Y-138900000D02*
X80900000Y-138900000D01*
X95100000Y-153100000D02*
X95100000Y-138900000D01*
G04 #@! TO.C,K6*
X108900000Y-122900000D02*
X108900000Y-137100000D01*
X108900000Y-137100000D02*
X123100000Y-137100000D01*
X123100000Y-122900000D02*
X108900000Y-122900000D01*
X123100000Y-137100000D02*
X123100000Y-122900000D01*
G04 #@! TO.C,K10*
X196900000Y-104900000D02*
X196900000Y-119100000D01*
X196900000Y-119100000D02*
X211100000Y-119100000D01*
X211100000Y-104900000D02*
X196900000Y-104900000D01*
X211100000Y-119100000D02*
X211100000Y-104900000D01*
G04 #@! TO.C,K2*
X80900000Y-108900000D02*
X80900000Y-123100000D01*
X80900000Y-123100000D02*
X95100000Y-123100000D01*
X95100000Y-108900000D02*
X80900000Y-108900000D01*
X95100000Y-123100000D02*
X95100000Y-108900000D01*
G04 #@! TO.C,K15*
X272900000Y-108900000D02*
X272900000Y-123100000D01*
X272900000Y-123100000D02*
X287100000Y-123100000D01*
X287100000Y-108900000D02*
X272900000Y-108900000D01*
X287100000Y-123100000D02*
X287100000Y-108900000D01*
G04 #@! TO.C,K9*
X182900000Y-160900000D02*
X182900000Y-175100000D01*
X182900000Y-175100000D02*
X197100000Y-175100000D01*
X197100000Y-160900000D02*
X182900000Y-160900000D01*
X197100000Y-175100000D02*
X197100000Y-160900000D01*
G04 #@! TO.C,K3*
X168900000Y-90900000D02*
X168900000Y-105100000D01*
X168900000Y-105100000D02*
X183100000Y-105100000D01*
X183100000Y-90900000D02*
X168900000Y-90900000D01*
X183100000Y-105100000D02*
X183100000Y-90900000D01*
G04 #@! TO.C,K0*
X138900000Y-88900000D02*
X138900000Y-103100000D01*
X138900000Y-103100000D02*
X153100000Y-103100000D01*
X153100000Y-88900000D02*
X138900000Y-88900000D01*
X153100000Y-103100000D02*
X153100000Y-88900000D01*
G04 #@! TO.C,K11*
X272900000Y-82900000D02*
X272900000Y-97100000D01*
X272900000Y-97100000D02*
X287100000Y-97100000D01*
X287100000Y-82900000D02*
X272900000Y-82900000D01*
X287100000Y-97100000D02*
X287100000Y-82900000D01*
G04 #@! TD*
M02*
