M48
; DRILL file {KiCad 8.0.3} date 2024-07-10T17:58:47+0900
; FORMAT={-:-/ absolute / inch / decimal}
; #@! TF.CreationDate,2024-07-10T17:58:47+09:00
; #@! TF.GenerationSoftware,Kicad,Pcbnew,8.0.3
; #@! TF.FileFunction,NonPlated,1,4,NPTH
FMAT,2
INCH
; #@! TA.AperFunction,NonPlated,NPTH,ComponentDrill
T1C0.0256
; #@! TA.AperFunction,NonPlated,NPTH,ComponentDrill
T2C0.0669
; #@! TA.AperFunction,NonPlated,NPTH,ComponentDrill
T3C0.0689
; #@! TA.AperFunction,NonPlated,NPTH,ComponentDrill
T4C0.0827
; #@! TA.AperFunction,NonPlated,NPTH,ComponentDrill
T5C0.1181
; #@! TA.AperFunction,NonPlated,NPTH,ComponentDrill
T6C0.1575
%
G90
G05
T1
X8.1537Y-1.8031
X8.3813Y-1.8031
T2
X3.2646Y-2.5984
X3.6646Y-2.5984
X4.3669Y-2.5984
X4.7669Y-2.5984
T3
X3.2646Y-4.5669
X3.2646Y-5.748
X3.6646Y-4.5669
X3.6646Y-5.748
X4.3669Y-3.8583
X4.3669Y-5.1181
X4.7669Y-3.8583
X4.7669Y-5.1181
X5.548Y-3.7795
X5.548Y-5.0394
X5.948Y-3.7795
X5.948Y-5.0394
X6.7291Y-3.8583
X6.7291Y-5.1181
X7.1291Y-3.8583
X7.1291Y-5.1181
X7.2803Y-6.6142
X7.6803Y-6.6142
X7.8315Y-4.4094
X8.2315Y-4.4094
X8.4614Y-7.0079
X8.8614Y-7.0079
X9.6425Y-4.6457
X10.0425Y-4.6457
X10.8236Y-3.5433
X10.8236Y-4.5669
X11.2236Y-3.5433
X11.2236Y-4.5669
X12.0047Y-4.6457
X12.4047Y-4.6457
X13.0283Y-5.5906
X13.4283Y-5.5906
T4
X8.7008Y-1.7323
T5
X3.3646Y-2.3984
X3.6146Y-2.4984
X4.4669Y-2.3984
X4.7169Y-2.4984
T6
X3.4646Y-2.5984
X4.5669Y-2.5984
M30
