M48
; DRILL file {KiCad 8.0.3} date 2024-06-19T13:59:13+0900
; FORMAT={-:-/ absolute / inch / decimal}
; #@! TF.CreationDate,2024-06-19T13:59:13+09:00
; #@! TF.GenerationSoftware,Kicad,Pcbnew,8.0.3
; #@! TF.FileFunction,Plated,1,4,PTH
FMAT,2
INCH
; #@! TA.AperFunction,Plated,PTH,ViaDrill
T1C0.0118
; #@! TA.AperFunction,Plated,PTH,ComponentDrill
T2C0.0138
; #@! TA.AperFunction,Plated,PTH,ComponentDrill
T3C0.0236
; #@! TA.AperFunction,Plated,PTH,ComponentDrill
T4C0.0394
%
G90
G05
T1
X3.3441Y-5.1815
X3.3449Y-3.902
X3.4484Y-5.2358
X3.45Y-3.9543
X3.4646Y-3.6319
X3.4646Y-4.9114
X4.3996Y-4.124
X4.6323Y-3.7654
X4.6354Y-5.0441
X4.6457Y-3.435
X4.6535Y-4.7087
X4.7402Y-2.7795
X5.3465Y-2.2687
X5.3465Y-2.4577
X5.5512Y-4.1831
X5.6811Y-3.0551
X5.685Y-2.7953
X5.8106Y-3.5673
X5.8209Y-4.8453
X5.8268Y-3.2382
X5.8268Y-4.5276
X6.0433Y-1.0591
X6.0827Y-1.0591
X6.0906Y-1.374
X6.6811Y-1.3268
X6.7323Y-4.2421
X6.8642Y-3.2559
X6.998Y-5.0232
X6.9988Y-3.7563
X7.0079Y-3.435
X7.0079Y-4.7165
X7.1496Y-2.8031
X7.1929Y-1.9528
X7.2677Y-1.2205
X7.2677Y-1.4764
X7.2677Y-1.7126
X7.2717Y-0.9843
X7.5591Y-1.7618
X7.585Y-6.0173
X7.5918Y-5.7008
X7.6929Y-2.4528
X7.7598Y-1.7126
X7.8386Y-1.9803
X7.9724Y-2.5591
X7.9819Y-1.0299
X8.0354Y-0.8346
X8.0827Y-1.7913
X8.0929Y-1.9327
X8.0949Y-1.9819
X8.0953Y-2.135
X8.0954Y-2.0187
X8.098Y-1.1295
X8.1067Y-2.8638
X8.1142Y-1.5118
X8.171Y-1.1142
X8.1736Y-4.1425
X8.189Y-3.8287
X8.1929Y-2.5866
X8.2008Y-2.2795
X8.2087Y-1.6142
X8.2692Y-1.8893
X8.2717Y-1.7913
X8.2765Y-1.2102
X8.2769Y-0.872
X8.3417Y-1.8898
X8.3425Y-2.2795
X8.3858Y-2.748
X8.4016Y-1.6693
X8.4134Y-1.3386
X8.4252Y-1.1142
X8.4547Y-1.9012
X8.4823Y-2.0276
X8.4941Y-2.9055
X8.5039Y-0.8327
X8.5118Y-1.8465
X8.5118Y-1.9331
X8.5827Y-1.0859
X8.5827Y-2.2756
X8.6024Y-1.9055
X8.624Y-1.3386
X8.6811Y-2.0472
X8.685Y-3.7717
X8.7008Y-1.189
X8.7362Y-4.3685
X8.7441Y-1.9252
X8.7665Y-6.4031
X8.7795Y-6.0945
X8.7953Y-1.2756
X8.8264Y-2.5866
X8.9055Y-1.9252
X8.9252Y-2.7677
X8.9291Y-2.9134
X9.0787Y-1.2461
X9.0787Y-2.9213
X9.252Y-2.6299
X9.802Y-2.6858
X9.9402Y-4.0484
X9.952Y-3.7339
X11.1335Y-3.6543
X11.1335Y-2.1602
X11.1362Y-3.3382
X11.139Y-2.4701
X12.3075Y-4.0323
X12.3228Y-3.7303
X12.7953Y-1.7047
X13.2717Y-1.6425
X13.2961Y-5.0244
X13.3035Y-4.7138
X13.6732Y-1.7087
X14.0654Y-1.6439
T2
X8.2207Y-1.9291
X8.2207Y-1.9793
X8.2207Y-2.0295
X8.2709Y-1.9291
X8.2709Y-1.9793
X8.2709Y-2.0295
X8.3211Y-1.9291
X8.3211Y-1.9793
X8.3211Y-2.0295
T4
X6.5126Y-1.2008
X6.6126Y-1.2008
X6.7126Y-1.2008
T3
G00X8.0974Y-0.8839
M15
G01X8.0974Y-0.8602
M16
G05
G00X8.0974Y-1.0583
M15
G01X8.0974Y-1.015
M16
G05
G00X8.4376Y-0.8839
M15
G01X8.4376Y-0.8602
M16
G05
G00X8.4376Y-1.0583
M15
G01X8.4376Y-1.015
M16
G05
M30
