M48
; DRILL file {KiCad 8.0.3} date 2024-07-10T17:58:47+0900
; FORMAT={-:-/ absolute / inch / decimal}
; #@! TF.CreationDate,2024-07-10T17:58:47+09:00
; #@! TF.GenerationSoftware,Kicad,Pcbnew,8.0.3
; #@! TF.FileFunction,Plated,1,4,PTH
FMAT,2
INCH
; #@! TA.AperFunction,Plated,PTH,ViaDrill
T1C0.0118
; #@! TA.AperFunction,Plated,PTH,ComponentDrill
T2C0.0138
; #@! TA.AperFunction,Plated,PTH,ComponentDrill
T3C0.0197
; #@! TA.AperFunction,Plated,PTH,ComponentDrill
T4C0.0236
; #@! TA.AperFunction,Plated,PTH,ComponentDrill
T5C0.1457
%
G90
G05
T1
X2.874Y-4.5276
X2.9035Y-7.3425
X2.9134Y-1.7421
X3.5433Y-5.9213
X3.5438Y-4.7402
X3.6693Y-3.2972
X3.6693Y-3.4862
X3.8661Y-2.5039
X4.3465Y-2.2205
X4.6462Y-4.0315
X4.6462Y-5.2913
X4.8327Y-4.7835
X4.872Y-3.435
X5.8273Y-3.9528
X5.8273Y-5.2126
X5.9154Y-4.8031
X5.9252Y-3.5335
X6.6535Y-3.4272
X6.685Y-2.4252
X7.0084Y-4.0315
X7.0084Y-5.2913
X7.1063Y-3.5827
X7.1654Y-4.8524
X7.185Y-2.0276
X7.185Y-2.1457
X7.1969Y-2.5787
X7.1969Y-2.6654
X7.1969Y-2.7008
X7.2677Y-1.8346
X7.3543Y-2.7874
X7.5157Y-2.6654
X7.5276Y-2.4094
X7.5595Y-6.7874
X7.622Y-3.0433
X7.6299Y-2.4094
X7.6614Y-2.7008
X7.7598Y-2.4803
X7.8976Y-3.315
X7.9173Y-2.2323
X7.937Y-2.7756
X7.9724Y-1.6614
X7.9823Y-2.815
X8.0827Y-2.5787
X8.0906Y-2.7756
X8.0941Y-2.6894
X8.0984Y-1.7402
X8.0984Y-2.9232
X8.1024Y-1.9193
X8.1024Y-3.2205
X8.1024Y-3.4252
X8.1067Y-3.6512
X8.1107Y-4.5827
X8.1496Y-2.0354
X8.1496Y-3.4252
X8.171Y-1.9352
X8.1909Y-2.3878
X8.2008Y-3.0669
X8.2677Y-1.6594
X8.2692Y-2.6767
X8.2717Y-2.5827
X8.2765Y-1.9976
X8.3425Y-3.0669
X8.3476Y-2.5827
X8.3476Y-2.6665
X8.3583Y-2.0236
X8.3858Y-3.5354
X8.4173Y-1.935
X8.4252Y-2.1398
X8.4252Y-2.5157
X8.4547Y-2.6886
X8.4646Y-2.6299
X8.4724Y-1.8878
X8.4902Y-2.8296
X8.4941Y-3.6929
X8.5039Y-1.6201
X8.5039Y-1.748
X8.5148Y-2.7126
X8.5305Y-2.6868
X8.563Y-2.7165
X8.5768Y-3.0394
X8.622Y-2.8445
X8.624Y-2.126
X8.6378Y-1.9528
X8.7303Y-3.7894
X8.7406Y-7.1811
X8.7697Y-5.315
X8.7953Y-2.6929
X8.7972Y-2.0492
X8.811Y-2.5197
X8.8189Y-1.7323
X8.8264Y-3.374
X8.8681Y-3.8681
X8.8976Y-2.1358
X8.8976Y-2.5197
X8.9252Y-3.5551
X9.0787Y-3.7087
X9.2323Y-3.435
X9.2717Y-3.5394
X9.9055Y-3.315
X9.9218Y-4.8189
X9.9311Y-4.0453
X10.9882Y-3.9961
X11.1029Y-3.7165
X11.1029Y-4.7402
X12.284Y-4.8189
X12.4409Y-4.3996
X13.3076Y-5.7638
X13.5827Y-1.7913
X13.6319Y-7.3327
T2
X8.2207Y-2.7165
X8.2207Y-2.7667
X8.2207Y-2.8169
X8.2709Y-2.7165
X8.2709Y-2.7667
X8.2709Y-2.8169
X8.3211Y-2.7165
X8.3211Y-2.7667
X8.3211Y-2.8169
T3
X5.4026Y-2.7559
X5.4026Y-6.2992
X5.4346Y-2.6787
X5.4346Y-2.8332
X5.4346Y-6.222
X5.4346Y-6.3765
X5.5118Y-2.6467
X5.5118Y-2.8652
X5.5118Y-6.19
X5.5118Y-6.4085
X5.5891Y-2.6787
X5.5891Y-2.8332
X5.5891Y-6.222
X5.5891Y-6.3765
X5.6211Y-2.7559
X5.6211Y-6.2992
X8.1585Y-5.1181
X8.1905Y-5.0409
X8.1905Y-5.1954
X8.2677Y-5.0089
X8.2677Y-5.2274
X8.345Y-5.0409
X8.345Y-5.1954
X8.377Y-5.1181
X10.9144Y-2.7559
X10.9144Y-6.2992
X10.9464Y-2.6787
X10.9464Y-2.8332
X10.9464Y-6.222
X10.9464Y-6.3765
X11.0236Y-2.6467
X11.0236Y-2.8652
X11.0236Y-6.19
X11.0236Y-6.4085
X11.1009Y-2.6787
X11.1009Y-2.8332
X11.1009Y-6.222
X11.1009Y-6.3765
X11.1329Y-2.7559
X11.1329Y-6.2992
T5
X5.5118Y-2.7559
X5.5118Y-6.2992
X8.2677Y-5.1181
X11.0236Y-2.7559
X11.0236Y-6.2992
T4
G00X8.0974Y-1.6713
M15
G01X8.0974Y-1.6476
M16
G05
G00X8.0974Y-1.8457
M15
G01X8.0974Y-1.8024
M16
G05
G00X8.4376Y-1.6713
M15
G01X8.4376Y-1.6476
M16
G05
G00X8.4376Y-1.8457
M15
G01X8.4376Y-1.8024
M16
G05
M30
