G04 #@! TF.GenerationSoftware,KiCad,Pcbnew,8.0.3*
G04 #@! TF.CreationDate,2024-06-18T04:28:20+09:00*
G04 #@! TF.ProjectId,mainboard,6d61696e-626f-4617-9264-2e6b69636164,rev?*
G04 #@! TF.SameCoordinates,Original*
G04 #@! TF.FileFunction,Soldermask,Bot*
G04 #@! TF.FilePolarity,Negative*
%FSLAX46Y46*%
G04 Gerber Fmt 4.6, Leading zero omitted, Abs format (unit mm)*
G04 Created by KiCad (PCBNEW 8.0.3) date 2024-06-18 04:28:20*
%MOMM*%
%LPD*%
G01*
G04 APERTURE LIST*
%ADD10C,1.700000*%
%ADD11C,3.000000*%
%ADD12C,4.000000*%
%ADD13O,0.300000X3.300000*%
%ADD14O,0.500000X3.300000*%
%ADD15O,1.700000X3.300000*%
%ADD16O,3.500000X0.300000*%
%ADD17O,1.650000X3.300000*%
%ADD18C,2.700000*%
%ADD19C,1.750000*%
%ADD20C,0.650000*%
%ADD21O,1.000000X2.100000*%
%ADD22O,1.000000X1.600000*%
%ADD23R,1.700000X1.700000*%
%ADD24O,1.700000X1.700000*%
G04 APERTURE END LIST*
D10*
G04 #@! TO.C,SW4*
X357850000Y-37650000D03*
D11*
X356580000Y-35110000D03*
D12*
X352770000Y-37650000D03*
D11*
X350230000Y-32570000D03*
D10*
X347690000Y-37650000D03*
G04 #@! TD*
G04 #@! TO.C,SW3*
X335335000Y-37705000D03*
D11*
X334065000Y-35165000D03*
D12*
X330255000Y-37705000D03*
D11*
X327715000Y-32625000D03*
D10*
X325175000Y-37705000D03*
G04 #@! TD*
D13*
G04 #@! TO.C,D3*
X354350000Y-42532500D03*
D14*
X354075000Y-42532500D03*
D15*
X353325000Y-42532500D03*
D16*
X352750000Y-44032500D03*
D15*
X352750000Y-42532500D03*
D16*
X352750000Y-41007500D03*
D17*
X352150000Y-42532500D03*
D14*
X351400000Y-42532500D03*
D13*
X351150000Y-42532500D03*
G04 #@! TD*
G04 #@! TO.C,D2*
X331850000Y-42600000D03*
D14*
X331575000Y-42600000D03*
D15*
X330825000Y-42600000D03*
D16*
X330250000Y-44100000D03*
D15*
X330250000Y-42600000D03*
D16*
X330250000Y-41075000D03*
D17*
X329650000Y-42600000D03*
D14*
X328900000Y-42600000D03*
D13*
X328650000Y-42600000D03*
G04 #@! TD*
D18*
G04 #@! TO.C,H9*
X210000000Y-130000000D03*
G04 #@! TD*
G04 #@! TO.C,H10*
X210000000Y-230000000D03*
G04 #@! TD*
D19*
G04 #@! TO.C,U18*
X214920000Y-157500000D03*
X225080000Y-157500000D03*
G04 #@! TD*
D18*
G04 #@! TO.C,H2*
X50000000Y-230000000D03*
G04 #@! TD*
D19*
G04 #@! TO.C,U20*
X244840000Y-97500000D03*
X255000000Y-97500000D03*
G04 #@! TD*
D20*
G04 #@! TO.C,J1*
X212890000Y-27000000D03*
X207110000Y-27000000D03*
D21*
X214320000Y-27530000D03*
D22*
X214320000Y-23350000D03*
D21*
X205680000Y-27530000D03*
D22*
X205680000Y-23350000D03*
G04 #@! TD*
D18*
G04 #@! TO.C,H7*
X285000000Y-160000000D03*
G04 #@! TD*
D19*
G04 #@! TO.C,U11*
X169865000Y-122500000D03*
X180025000Y-122500000D03*
G04 #@! TD*
G04 #@! TO.C,U14*
X329840000Y-122500000D03*
X340000000Y-122500000D03*
G04 #@! TD*
G04 #@! TO.C,U13*
X139920000Y-117500000D03*
X150080000Y-117500000D03*
G04 #@! TD*
G04 #@! TO.C,U19*
X304840000Y-97500000D03*
X315000000Y-97500000D03*
G04 #@! TD*
D18*
G04 #@! TO.C,H3*
X370000000Y-230000000D03*
G04 #@! TD*
D23*
G04 #@! TO.C,J3*
X170500000Y-30500000D03*
D24*
X167960000Y-30500000D03*
X165420000Y-30500000D03*
G04 #@! TD*
D19*
G04 #@! TO.C,U7*
X109865000Y-90000000D03*
X120025000Y-90000000D03*
G04 #@! TD*
G04 #@! TO.C,U10*
X79840000Y-127500000D03*
X90000000Y-127500000D03*
G04 #@! TD*
D18*
G04 #@! TO.C,H6*
X285000000Y-30000000D03*
G04 #@! TD*
D19*
G04 #@! TO.C,U12*
X109920000Y-122500000D03*
X120080000Y-122500000D03*
G04 #@! TD*
D18*
G04 #@! TO.C,H1*
X50000000Y-30000000D03*
G04 #@! TD*
D19*
G04 #@! TO.C,U16*
X199920000Y-100000000D03*
X210080000Y-100000000D03*
G04 #@! TD*
D18*
G04 #@! TO.C,H8*
X135000000Y-160000000D03*
G04 #@! TD*
D19*
G04 #@! TO.C,U8*
X79865000Y-95000000D03*
X90025000Y-95000000D03*
G04 #@! TD*
G04 #@! TO.C,U21*
X274840000Y-87500000D03*
X285000000Y-87500000D03*
G04 #@! TD*
G04 #@! TO.C,U15*
X184840000Y-147500000D03*
X195000000Y-147500000D03*
G04 #@! TD*
G04 #@! TO.C,U9*
X169865000Y-90000000D03*
X180025000Y-90000000D03*
G04 #@! TD*
G04 #@! TO.C,U6*
X139865000Y-85000000D03*
X150025000Y-85000000D03*
G04 #@! TD*
G04 #@! TO.C,U17*
X274920000Y-57500000D03*
X285080000Y-57500000D03*
G04 #@! TD*
D18*
G04 #@! TO.C,H5*
X135000000Y-30000000D03*
G04 #@! TD*
G04 #@! TO.C,H4*
X370000000Y-30000000D03*
G04 #@! TD*
M02*
